<?xml version="1.0" encoding="UTF-8" standalone="no"?>
<!-- Created with Inkscape (http://www.inkscape.org/) -->

<svg
   xmlns:dc="http://purl.org/dc/elements/1.1/"
   xmlns:cc="http://creativecommons.org/ns#"
   xmlns:rdf="http://www.w3.org/1999/02/22-rdf-syntax-ns#"
   xmlns:svg="http://www.w3.org/2000/svg"
   xmlns="http://www.w3.org/2000/svg"
   xmlns:sodipodi="http://sodipodi.sourceforge.net/DTD/sodipodi-0.dtd"
   xmlns:inkscape="http://www.inkscape.org/namespaces/inkscape"
   width="15.96745mm"
   height="12.54854mm"
   viewBox="0 0 15.96745 12.54854"
   version="1.1"
   id="svg1139"
   sodipodi:docname="addons.svg"
   inkscape:version="0.92.4 (5da689c313, 2019-01-14)">
  <title
     id="title200">Plug-in icon 2</title>
  <defs
     id="defs1133">
    <clipPath
       clipPathUnits="userSpaceOnUse"
       id="clipPath5238-1-8-9-8-4">
      <rect
         transform="rotate(-90)"
         style="color:#000000;display:inline;overflow:visible;visibility:visible;fill:#ffffff;fill-opacity:1;fill-rule:evenodd;stroke:none;enable-background:accumulate"
         id="rect5240-2-3-9-5-1"
         width="315.35437"
         height="744.09448"
         x="-1016.9291"
         y="1461.6753" />
    </clipPath>
    <clipPath
       clipPathUnits="userSpaceOnUse"
       id="clipPath5242-3-9-7-7">
      <rect
         transform="rotate(-90)"
         style="color:#000000;display:inline;overflow:visible;visibility:visible;fill:#ffffff;fill-opacity:1;fill-rule:evenodd;stroke:none;enable-background:accumulate"
         id="rect5244-3-2-6-6"
         width="315.35437"
         height="744.09448"
         x="-1016.9291"
         y="1461.6753" />
    </clipPath>
  </defs>
  <sodipodi:namedview
     id="base"
     pagecolor="#ffffff"
     bordercolor="#666666"
     borderopacity="1.0"
     inkscape:pageopacity="0.0"
     inkscape:pageshadow="2"
     inkscape:zoom="8"
     inkscape:cx="18.769929"
     inkscape:cy="46.173443"
     inkscape:document-units="mm"
     inkscape:current-layer="layer1"
     showgrid="false"
     inkscape:window-width="1300"
     inkscape:window-height="1038"
     inkscape:window-x="617"
     inkscape:window-y="27"
     inkscape:window-maximized="0"
     inkscape:snap-bbox="true"
     inkscape:bbox-paths="true"
     inkscape:snap-bbox-edge-midpoints="true"
     inkscape:bbox-nodes="true"
     inkscape:snap-bbox-midpoints="true"
     inkscape:object-paths="true"
     inkscape:snap-intersection-paths="true"
     inkscape:snap-smooth-nodes="true"
     inkscape:snap-midpoints="true"
     fit-margin-left="0.5"
     fit-margin-top="0.5"
     fit-margin-right="0.5"
     fit-margin-bottom="0.5" />
  <metadata
     id="metadata1136">
    <rdf:RDF>
      <cc:Work
         rdf:about="">
        <dc:format>image/svg+xml</dc:format>
        <dc:type
           rdf:resource="http://purl.org/dc/dcmitype/StillImage" />
        <dc:title>Plug-in icon 2</dc:title>
        <dc:date>2018-09-30</dc:date>
        <dc:creator>
          <cc:Agent>
            <dc:title>m1981</dc:title>
          </cc:Agent>
        </dc:creator>
        <dc:rights>
          <cc:Agent>
            <dc:title>Public domain</dc:title>
          </cc:Agent>
        </dc:rights>
        <dc:publisher>
          <cc:Agent>
            <dc:title>Inkscape</dc:title>
          </cc:Agent>
        </dc:publisher>
        <dc:subject>
          <rdf:Bag>
            <rdf:li>icon</rdf:li>
            <rdf:li>flat</rdf:li>
            <rdf:li>IT</rdf:li>
            <rdf:li>computer</rdf:li>
            <rdf:li>options</rdf:li>
            <rdf:li>plugin</rdf:li>
            <rdf:li>plug-in</rdf:li>
            <rdf:li>jigsaw</rdf:li>
            <rdf:li>puzzle</rdf:li>
            <rdf:li>piece</rdf:li>
            <rdf:li>part</rdf:li>
            <rdf:li>component</rdf:li>
          </rdf:Bag>
        </dc:subject>
        <dc:description>A plug-in icon (version 2).</dc:description>
      </cc:Work>
    </rdf:RDF>
  </metadata>
  <g
     inkscape:label="Calque 1"
     inkscape:groupmode="layer"
     id="layer1"
     transform="translate(-165.39522,-150.28153)">
    <path
       style="color:#000000;font-style:normal;font-variant:normal;font-weight:normal;font-stretch:normal;font-size:medium;line-height:normal;font-family:sans-serif;font-variant-ligatures:normal;font-variant-position:normal;font-variant-caps:normal;font-variant-numeric:normal;font-variant-alternates:normal;font-feature-settings:normal;text-indent:0;text-align:start;text-decoration:none;text-decoration-line:none;text-decoration-style:solid;text-decoration-color:#000000;letter-spacing:normal;word-spacing:normal;text-transform:none;writing-mode:lr-tb;direction:ltr;text-orientation:mixed;dominant-baseline:auto;baseline-shift:baseline;text-anchor:start;white-space:normal;shape-padding:0;clip-rule:nonzero;display:inline;overflow:visible;visibility:visible;opacity:1;isolation:auto;mix-blend-mode:normal;color-interpolation:sRGB;color-interpolation-filters:linearRGB;solid-color:#000000;solid-opacity:1;vector-effect:none;fill:#000000;fill-opacity:1;fill-rule:nonzero;stroke:none;stroke-width:0.93802315;stroke-linecap:square;stroke-linejoin:miter;stroke-miterlimit:4;stroke-dasharray:none;stroke-dashoffset:0;stroke-opacity:1;marker:none;color-rendering:auto;image-rendering:auto;shape-rendering:auto;text-rendering:auto;enable-background:accumulate"
       d="m 173.36061,150.78153 -1.46997,1.4651 c -0.37477,0.37479 -0.16955,0.94926 0.23875,1.18641 0.16204,0.0943 0.29787,0.13649 0.34777,0.15642 0.05,0.0211 0.0493,0.0164 0.12851,0.091 0.0572,0.0575 0.0915,0.13343 0.0957,0.18291 0.005,0.0511 0.009,0.0976 -0.1006,0.20731 -0.10952,0.10951 -0.15923,0.10482 -0.21083,0.1006 -0.0516,-0.005 -0.12546,-0.0373 -0.18291,-0.0968 -0.0762,-0.079 -0.0673,-0.0776 -0.0872,-0.12734 -0.0211,-0.0497 -0.061,-0.18198 -0.15524,-0.34416 -0.23699,-0.40813 -0.81169,-0.61265 -1.18639,-0.23751 l -2.06618,2.06497 c -0.007,-0.0188 -0.009,-0.0211 -0.0188,-0.046 -0.0453,-0.11537 -0.13555,-0.28009 -0.27995,-0.4302 -0.1923,-0.20073 -0.46074,-0.35623 -0.78286,-0.38053 -0.32207,-0.0244 -0.67767,0.10951 -0.94885,0.38053 -0.27083,0.27123 -0.40375,0.62597 -0.37932,0.94764 0.0244,0.32172 0.1801,0.59171 0.37932,0.78407 0.15008,0.14422 0.31602,0.23828 0.43142,0.28359 0.0211,0.009 0.0244,0.0117 0.0413,0.0188 l -1.25906,1.25789 1.25906,1.26033 c 0,0 -0.0188,0.009 -0.0413,0.0188 -0.11538,0.0453 -0.28019,0.14047 -0.4302,0.28478 -0.1991,0.1923 -0.35608,0.46116 -0.38054,0.78285 -0.0244,0.3217 0.10975,0.67643 0.38054,0.94766 0.27116,0.27114 0.62556,0.40483 0.94763,0.38051 0.32212,-0.0244 0.59044,-0.17986 0.78286,-0.38051 0.14422,-0.15008 0.23485,-0.31491 0.27995,-0.4302 0.009,-0.0239 0.0117,-0.0281 0.0188,-0.046 l 1.26274,1.26516 1.47966,-1.47966 c 0.3701,-0.37022 0.17283,-0.95067 -0.23872,-1.18639 -0.15994,-0.0912 -0.29457,-0.1325 -0.34297,-0.15149 -0.049,-0.0188 -0.0464,-0.009 -0.12358,-0.0823 -0.0572,-0.0549 -0.0882,-0.12781 -0.0922,-0.17823 -0.005,-0.0504 -0.007,-0.10224 0.10552,-0.21574 0.11327,-0.11327 0.1651,-0.10952 0.21575,-0.10553 0.0506,0.005 0.12265,0.0382 0.17822,0.0957 0.0683,0.0713 0.0638,0.0725 0.0823,0.12006 0.0188,0.0488 0.0582,0.18057 0.15149,0.34297 0.23568,0.41111 0.81645,0.60868 1.18641,0.23873 l 0.81556,-0.81679 0.6047,0.60109 c -0.0188,0.007 -0.0211,0.009 -0.046,0.0188 -0.11538,0.0453 -0.2801,0.13554 -0.43023,0.27993 -0.20073,0.19229 -0.35619,0.46073 -0.38051,0.78285 -0.0244,0.32212 0.10952,0.67652 0.38051,0.94766 0.27123,0.27081 0.62594,0.40494 0.94769,0.38051 0.32167,-0.0244 0.59046,-0.18151 0.78282,-0.38051 0.14423,-0.15008 0.23953,-0.31482 0.28479,-0.4302 0.009,-0.0211 0.0117,-0.0244 0.0188,-0.0413 l 1.25908,1.2603 1.46513,-1.46632 c 0.37478,-0.37481 0.17072,-0.94928 -0.23751,-1.18639 -0.16205,-0.0943 -0.29426,-0.13132 -0.34419,-0.15149 -0.0499,-0.0211 -0.0492,-0.0164 -0.12851,-0.091 -0.0603,-0.0584 -0.0961,-0.13202 -0.1006,-0.18291 -0.005,-0.0509 -0.005,-0.0964 0.10553,-0.20848 0.10975,-0.11209 0.1543,-0.10834 0.20613,-0.10412 0.0507,0.005 0.12593,0.0443 0.18291,0.10178 0.0762,0.079 0.0722,0.0776 0.0922,0.12734 0.0211,0.0497 0.061,0.18197 0.155,0.34416 0.23711,0.40764 0.81191,0.61232 1.18639,0.2375 l 1.46634,-1.46512 -1.26394,-1.2603 c 0.0164,-0.007 0.0188,-0.009 0.0413,-0.0188 0.11537,-0.0453 0.28016,-0.1393 0.43017,-0.28359 0.19933,-0.1923 0.35608,-0.46235 0.38054,-0.78405 0.0244,-0.32169 -0.10975,-0.67643 -0.38054,-0.94766 -0.27115,-0.27116 -0.62554,-0.40485 -0.94763,-0.38053 -0.32212,0.0244 -0.59049,0.17986 -0.78285,0.38053 -0.14423,0.15009 -0.23486,0.31492 -0.27996,0.4302 -0.009,0.0239 -0.0117,0.0281 -0.0188,0.046 l -1.859,-1.86383 c 0.0164,-0.007 0.0188,-0.009 0.0413,-0.0188 0.11537,-0.0453 0.28016,-0.14071 0.4302,-0.28479 0.19909,-0.19229 0.3561,-0.4563 0.38051,-0.77799 0.0244,-0.32172 -0.10952,-0.67766 -0.38051,-0.94889 v -0.005 c -0.27116,-0.27115 -0.63042,-0.40482 -0.95252,-0.3805 -0.32211,0.0244 -0.5868,0.17986 -0.77921,0.3805 -0.14422,0.15009 -0.23836,0.31492 -0.28357,0.43021 -0.009,0.0211 -0.0117,0.0244 -0.0188,0.0413 z m -2.12797,4.63044 c 0,0 0.007,0.005 0.007,0.007 -0.001,0.002 -0.002,0.005 -0.005,0.007 z m -1.25794,0.0811 10e-4,0.001 0.001,-0.001 0.81434,0.81678 c 0.37026,0.36998 0.95067,0.17283 1.18642,-0.23875 0.0933,-0.16251 0.13226,-0.29402 0.15149,-0.34294 0.0188,-0.0488 0.0141,-0.0464 0.0872,-0.12359 0.0549,-0.0572 0.12288,-0.0931 0.1733,-0.0968 0.0504,-0.005 0.10225,-0.002 0.21575,0.11022 0.11303,0.11327 0.11397,0.16509 0.11021,0.21575 -0.005,0.0506 -0.0394,0.11772 -0.0971,0.1733 -0.0774,0.0743 -0.0748,0.068 -0.12359,0.0872 -0.0488,0.0188 -0.1808,0.0584 -0.34291,0.15149 -0.41102,0.23573 -0.60383,0.81646 -0.23381,1.18639 l 0.81191,0.81557 -0.59745,0.59986 c -0.007,-0.0188 -0.009,-0.0237 -0.0188,-0.046 -0.0453,-0.11538 -0.1393,-0.28012 -0.28356,-0.4302 -0.1923,-0.1991 -0.45755,-0.35124 -0.7792,-0.37568 -0.32172,-0.0244 -0.67645,0.10482 -0.94768,0.37568 v 0.005 c -0.27116,0.27116 -0.40968,0.62676 -0.38537,0.94888 0.0244,0.32209 0.18456,0.58558 0.38537,0.778 0.14914,0.14234 0.31093,0.23992 0.42537,0.28478 0.0211,0.009 0.0246,0.0117 0.0413,0.0188 l -0.59501,0.59745 -0.81435,-0.81678 c -0.37021,-0.36998 -0.95066,-0.17401 -1.18638,0.2375 -0.0933,0.16252 -0.13226,0.29525 -0.15149,0.34416 -0.0188,0.049 -0.0141,0.0467 -0.0872,0.12359 -0.0549,0.0572 -0.12288,0.0919 -0.1733,0.0957 -0.0504,0.005 -0.10248,0.002 -0.21575,-0.11022 -0.11303,-0.11327 -0.11397,-0.16392 -0.11021,-0.21457 0.005,-0.0507 0.0396,-0.1189 0.0968,-0.17447 0.0774,-0.0743 0.0748,-0.0683 0.12358,-0.0872 0.0488,-0.0188 0.18057,-0.0575 0.34294,-0.15032 0.41109,-0.2357 0.60383,-0.8165 0.23381,-1.18641 l -0.8156,-0.81557 0.81437,-0.81556 c 0.36991,-0.36993 0.17846,-0.95071 -0.23263,-1.18639 -0.16228,-0.0931 -0.29541,-0.13226 -0.34414,-0.15149 -0.0488,-0.0188 -0.0464,-0.0117 -0.12359,-0.0861 -0.0574,-0.0556 -0.0919,-0.12382 -0.0957,-0.17447 -0.005,-0.0507 -0.002,-0.10248 0.11021,-0.21575 0.11327,-0.11327 0.16416,-0.1128 0.21458,-0.10905 0.0504,0.005 0.11983,0.0385 0.17447,0.0957 0.0741,0.0772 0.068,0.0748 0.0872,0.12359 0.0188,0.049 0.0581,0.18057 0.15149,0.34294 0.23572,0.41151 0.8149,0.60864 1.18514,0.23875 z m 4.38446,0.0291 c 0.0499,0.005 0.12523,0.0387 0.18292,0.0968 0.0762,0.0793 0.072,0.0774 0.0922,0.12733 0.0211,0.0499 0.061,0.1869 0.15524,0.34902 0.23718,0.40778 0.81137,0.61253 1.18639,0.23751 l 0.80346,-0.80344 0.81435,0.81678 c 0.37024,0.37007 0.95066,0.1726 1.18641,-0.23873 0.0933,-0.16251 0.13132,-0.29404 0.15032,-0.34296 0.0188,-0.049 0.0141,-0.0467 0.0872,-0.12359 0.0549,-0.0572 0.12405,-0.0919 0.17447,-0.0957 0.0504,-0.005 0.10107,-0.002 0.21457,0.10905 0.11303,0.11327 0.11397,0.16509 0.11022,0.21575 -0.005,0.0506 -0.0382,0.11889 -0.0957,0.17447 -0.0771,0.0743 -0.0748,0.0671 -0.12358,0.0861 -0.0488,0.0188 -0.18175,0.0586 -0.34417,0.15149 -0.41115,0.23568 -0.60387,0.81646 -0.2338,1.18639 l 0.81554,0.81556 -0.5865,0.58533 c -0.007,-0.0211 -0.0117,-0.0265 -0.0234,-0.0544 -0.0462,-0.11515 -0.13882,-0.27494 -0.28356,-0.42537 v -0.005 c -0.19253,-0.1991 -0.45799,-0.35331 -0.77922,-0.38054 -0.32125,-0.0272 -0.68171,0.10483 -0.95251,0.37568 -0.27168,0.27057 -0.40314,0.62592 -0.37568,0.94766 0.0274,0.32172 0.18643,0.5869 0.38536,0.77922 v 0.005 c 0.15056,0.14469 0.3152,0.23741 0.4302,0.28359 0.0267,0.0117 0.0302,0.0164 0.0497,0.0234 l -0.58413,0.5841 -0.81554,-0.81314 c -0.36991,-0.36994 -0.95069,-0.17729 -1.18639,0.2338 -0.0931,0.16228 -0.1325,0.29419 -0.15149,0.34296 -0.0188,0.0488 -0.0117,0.0464 -0.0872,0.12359 -0.0551,0.0553 -0.12358,0.0931 -0.1733,0.0969 -0.0506,0.005 -0.10248,0.002 -0.21574,-0.11022 -0.11327,-0.11327 -0.1128,-0.16533 -0.10905,-0.21574 0.005,-0.0504 0.0385,-0.11843 0.0957,-0.1733 0.0772,-0.0741 0.0748,-0.068 0.12358,-0.0872 0.049,-0.0188 0.18057,-0.0582 0.34295,-0.15149 0.41151,-0.23575 0.60896,-0.81496 0.2387,-1.18519 l -0.81796,-0.81557 0.79859,-0.80102 c 0.37497,-0.37472 0.16931,-0.94942 -0.23875,-1.18639 -0.16228,-0.0943 -0.2932,-0.13648 -0.34294,-0.15642 -0.0497,-0.0211 -0.0493,-0.0117 -0.12851,-0.0872 -0.0596,-0.0575 -0.0915,-0.13133 -0.0957,-0.18292 -0.005,-0.0516 -0.009,-0.1013 0.1006,-0.21082 0.10975,-0.11022 0.15501,-0.10482 0.20613,-0.1006 z m -0.96217,2.05164 -10e-4,0.009 -0.001,-0.001 z"
       id="path43372"
       inkscape:connector-curvature="0" />
  </g>
</svg>
