<?xml version="1.0" encoding="UTF-8" standalone="no"?>
<!-- Created with Inkscape (http://www.inkscape.org/) -->

<svg
   xmlns:dc="http://purl.org/dc/elements/1.1/"
   xmlns:cc="http://creativecommons.org/ns#"
   xmlns:rdf="http://www.w3.org/1999/02/22-rdf-syntax-ns#"
   xmlns:svg="http://www.w3.org/2000/svg"
   xmlns="http://www.w3.org/2000/svg"
   xmlns:sodipodi="http://sodipodi.sourceforge.net/DTD/sodipodi-0.dtd"
   xmlns:inkscape="http://www.inkscape.org/namespaces/inkscape"
   width="190.69791mm"
   height="150.79768mm"
   viewBox="0 0 190.69791 150.79768"
   version="1.1"
   id="svg8"
   inkscape:version="0.92.4 (5da689c313, 2019-01-14)"
   sodipodi:docname="bugreport.svg">
  <defs
     id="defs2" />
  <sodipodi:namedview
     id="base"
     pagecolor="#ffffff"
     bordercolor="#666666"
     borderopacity="1.0"
     inkscape:pageopacity="0.0"
     inkscape:pageshadow="2"
     inkscape:zoom="1"
     inkscape:cx="354.99988"
     inkscape:cy="341.04445"
     inkscape:document-units="mm"
     inkscape:current-layer="g844"
     showgrid="false"
     inkscape:window-width="1920"
     inkscape:window-height="1136"
     inkscape:window-x="0"
     inkscape:window-y="27"
     inkscape:window-maximized="1"
     fit-margin-top="0"
     fit-margin-left="0"
     fit-margin-right="0"
     fit-margin-bottom="0" />
  <metadata
     id="metadata5">
    <rdf:RDF>
      <cc:Work
         rdf:about="">
        <dc:format>image/svg+xml</dc:format>
        <dc:type
           rdf:resource="http://purl.org/dc/dcmitype/StillImage" />
        <dc:title></dc:title>
      </cc:Work>
    </rdf:RDF>
  </metadata>
  <g
     inkscape:label="Layer 1"
     inkscape:groupmode="layer"
     id="layer1"
     transform="translate(-8.97248,-45.181044)">
    <g
       transform="matrix(0.35277777,0,0,-0.35277777,8.97248,220.73561)"
       inkscape:label="ink_ext_XXXXXX"
       id="g842">
      <g
         transform="scale(0.1)"
         id="g844">
        <path
           inkscape:connector-curvature="0"
           id="path896"
           style="fill:#e8e8e7;fill-opacity:1;fill-rule:evenodd;stroke:none"
           d="m 2702.81,701.77 c 1152.39,0 2092.28,44.261 2092.28,98.531 0,54.238 -939.89,98.48 -2092.28,98.48 -1152.39,0 -2092.283,-44.242 -2092.283,-98.48 0,-54.27 939.893,-98.531 2092.283,-98.531" />
        <path
           inkscape:connector-curvature="0"
           id="path898"
           style="fill:#cdcccb;fill-opacity:1;fill-rule:evenodd;stroke:none"
           d="M 2180.72,845.68 H 3224.88 V 1767.7 H 2180.72 V 845.68" />
        <path
           inkscape:connector-curvature="0"
           id="path900"
           style="fill:#b4b3b2;fill-opacity:1;fill-rule:evenodd;stroke:none"
           d="m 2180.72,1330.32 h 1044.16 v 256.13 H 2180.72 v -256.13" />
        <path
           inkscape:connector-curvature="0"
           id="path902"
           style="fill:#2f2d2d;fill-opacity:1;fill-rule:evenodd;stroke:none"
           d="M 121.461,4976.35 H 5284.15 c 66.81,0 121.46,-54.66 121.46,-121.46 V 1659.43 c 0,-66.8 -54.65,-121.46 -121.46,-121.46 H 121.461 C 54.6523,1537.97 0,1592.63 0,1659.43 v 3195.46 c 0,66.8 54.6523,121.46 121.461,121.46" />
        <path
           inkscape:connector-curvature="0"
           id="path904"
           style="fill:#4d4d4d;fill-opacity:1;fill-rule:evenodd;stroke:none"
           d="M 172.582,1710.55 H 5233.02 V 4803.76 H 172.582 V 1710.55" />
        <path
           inkscape:connector-curvature="0"
           id="path906"
           style="fill:#969696;fill-opacity:1;fill-rule:evenodd;stroke:none"
           d="m 1522.69,1980.11 h 3357.1 V 4178.78 H 1522.69 V 1980.11" />
        <path
           inkscape:connector-curvature="0"
           id="path908"
           style="fill:#a0a0a0;fill-opacity:1;fill-rule:evenodd;stroke:none"
           d="m 1522.69,3916.71 h 3357.1 v 262.07 h -3357.1 v -262.07" />
        <path
           inkscape:connector-curvature="0"
           id="path910"
           style="fill:#666666;fill-opacity:1;fill-rule:evenodd;stroke:none"
           d="m 4486.79,3990.61 h 325.08 v 114.26 h -325.08 v -114.26" />
        <path
           inkscape:connector-curvature="0"
           id="path912"
           style="fill:#666666;fill-opacity:1;fill-rule:evenodd;stroke:none"
           d="m 4261.21,3990.61 h 162.54 v 114.26 h -162.54 v -114.26" />
        <path
           inkscape:connector-curvature="0"
           id="path914"
           style="fill:#666666;fill-opacity:1;fill-rule:evenodd;stroke:none"
           d="m 4041.04,3990.61 h 162.54 v 114.26 h -162.54 v -114.26" />
        <path
           inkscape:connector-curvature="0"
           id="path916"
           style="fill:#cccccc;fill-opacity:1;fill-rule:evenodd;stroke:none"
           d="m 4409.93,2369.94 h 212.78 v -74.45 h -212.78 z m -1091.44,0 h 630.44 v -74.45 h -630.44 z m -693.49,0 h 555.58 v -74.45 H 2625 Z m -898.38,0 h 496.48 v -74.45 H 1726.62 Z M 3661.3,3721.46 h 654.08 v -74.47 H 3661.3 Z m -764.42,0 h 508.29 v -74.47 h -508.29 z m -591.04,0 h 323.11 v -74.47 h -323.11 z m -579.22,0 h 330.99 v -74.47 H 1726.62 Z M 3988.33,2563.02 h 634.38 v -74.46 h -634.38 z m -1008.7,0 h 496.46 v -74.46 h -496.46 z m -575.29,0 h 476.78 v -74.46 h -476.78 z m -677.72,0 h 260.06 v -74.46 h -260.06 z m 2643.93,193.08 h 252.16 v -74.47 h -252.16 z m -1020.54,0 h 437.37 v -74.47 h -437.37 z m -788.06,0 h 461.02 v -74.47 h -461.02 z m -575.27,0 h 417.66 v -74.47 h -417.66 z m 2147.45,193.06 h 488.58 v -74.45 h -488.58 z m -437.38,0 h 287.64 v -74.45 h -287.64 z m -740.77,0 h 457.08 v -74.45 h -457.08 z m -622.55,0 h 275.81 v -74.45 h -275.81 z m -346.75,0 h 122.15 v -74.45 h -122.15 z m 2403.56,193.08 h 232.47 v -74.46 h -232.47 z m -492.53,0 h 236.42 v -74.46 h -236.42 z m -626.5,0 h 267.93 v -74.46 h -267.93 z m -524.06,0 h 267.94 v -74.46 h -267.94 z m -760.47,0 h 394.02 v -74.46 h -394.02 z m 866.86,193.07 h 689.55 v -74.47 h -689.55 z m -594.99,0 h 378.28 v -74.47 h -378.28 z m -531.93,0 h 291.58 v -74.47 h -291.58 z m 2324.76,193.07 h 362.51 v -74.46 h -362.51 z m -725,0 h 409.77 v -74.46 h -409.77 z m -685.63,0 h 397.98 v -74.46 h -397.98 z m -914.13,0 h 646.2 v -74.46 h -646.2 v 74.46 0" />
        <path
           inkscape:connector-curvature="0"
           id="path918"
           style="fill:#808080;fill-opacity:1;fill-rule:evenodd;stroke:none"
           d="M 647.949,2291.79 H 4005.06 V 4490.46 H 647.949 V 2291.79" />
        <path
           inkscape:connector-curvature="0"
           id="path920"
           style="fill:#999999;fill-opacity:1;fill-rule:evenodd;stroke:none"
           d="M 647.949,4228.39 H 4005.06 v 262.07 H 647.949 v -262.07" />
        <path
           inkscape:connector-curvature="0"
           id="path922"
           style="fill:#666666;fill-opacity:1;fill-rule:evenodd;stroke:none"
           d="m 3612.06,4302.29 h 325.07 v 114.26 h -325.07 v -114.26" />
        <path
           inkscape:connector-curvature="0"
           id="path924"
           style="fill:#666666;fill-opacity:1;fill-rule:evenodd;stroke:none"
           d="m 3386.46,4302.29 h 162.55 v 114.26 h -162.55 v -114.26" />
        <path
           inkscape:connector-curvature="0"
           id="path926"
           style="fill:#666666;fill-opacity:1;fill-rule:evenodd;stroke:none"
           d="m 3166.32,4302.29 h 162.53 v 114.26 h -162.53 v -114.26" />
        <path
           inkscape:connector-curvature="0"
           id="path928"
           style="fill:#cccccc;fill-opacity:1;fill-rule:evenodd;stroke:none"
           d="m 3535.21,2681.63 h 212.77 v -74.46 h -212.77 z m -1091.47,0 h 630.46 v -74.46 h -630.46 z m -693.48,0 h 555.58 v -74.46 h -555.58 z m -898.369,0 h 496.469 v -74.46 H 851.891 Z M 2786.55,4033.14 h 654.08 v -74.47 h -654.08 z m -764.41,0 h 508.3 v -74.47 h -508.3 z m -591.04,0 h 323.1 v -74.47 h -323.1 z m -579.209,0 h 330.979 v -74.47 H 851.891 Z M 3113.6,2874.71 h 634.38 v -74.46 H 3113.6 Z m -1008.71,0 h 496.47 v -74.46 h -496.47 z m -575.28,0 h 476.78 v -74.46 h -476.78 z m -677.719,0 h 260.049 v -74.46 H 851.891 Z M 3495.8,3067.78 h 252.18 v -74.46 H 3495.8 Z m -1020.53,0 h 437.38 v -74.46 h -437.38 z m -788.04,0 h 461 v -74.46 h -461 z m -575.29,0 h 417.67 v -74.46 h -417.67 z m 2147.44,193.07 h 488.6 v -74.47 h -488.6 z m -437.36,0 h 287.63 v -74.47 h -287.63 z m -740.78,0 h 457.08 v -74.47 h -457.08 z m -622.55,0 h 275.81 v -74.47 h -275.81 z m -346.75,0 h 122.15 v -74.47 h -122.15 z m 2403.56,193.07 h 232.48 v -74.46 H 3515.5 Z m -492.53,0 h 236.41 v -74.46 h -236.41 z m -626.5,0 h 267.93 v -74.46 h -267.93 z m -524.06,0 h 267.94 v -74.46 h -267.94 z m -760.47,0 h 394.03 v -74.46 h -394.03 z m 866.86,193.07 h 689.55 v -74.46 H 1978.8 Z m -594.98,0 h 378.26 v -74.46 h -378.26 z m -531.929,0 h 291.569 v -74.46 H 851.891 Z m 2324.749,193.08 h 362.5 v -74.46 h -362.5 z m -725.01,0 h 409.79 v -74.46 h -409.79 z m -685.6,0 h 397.96 v -74.46 h -397.96 z m -914.139,0 h 646.199 v -74.46 H 851.891 v 74.46 0" />
        <path
           inkscape:connector-curvature="0"
           id="path930"
           style="fill:#2f2d2d;fill-opacity:1;fill-rule:evenodd;stroke:none"
           d="M 1596.57,814.148 H 3809.03 V 1054.51 H 1596.57 V 814.148" />
        <path
           inkscape:connector-curvature="0"
           id="path932"
           style="fill:#ffffff;fill-opacity:1;fill-rule:evenodd;stroke:none"
           d="m 3483.01,2595.98 c -12.29,-0.8 -21.61,-11.42 -20.81,-23.71 0.79,-12.29 11.41,-21.61 23.71,-20.81 l 168.45,10.51 109.83,-142.02 c 7.54,-9.77 21.6,-11.58 31.39,-4.02 9.77,7.55 11.58,21.59 4.02,31.38 l -117.03,151.34 -0.06,-0.04 c -4.38,5.67 -11.42,9.12 -19.09,8.62 z m -409.54,-171.46 c 9.2,8.2 23.29,7.39 31.5,-1.81 8.19,-9.19 7.38,-23.29 -1.82,-31.5 l -125.68,-112.64 24.1,-177.89 c 1.67,-12.25 -6.91,-23.52 -19.15,-25.19 -12.24,-1.68 -23.52,6.9 -25.18,19.13 l -25.71,189.59 0.07,0.01 c -0.96,7.11 1.51,14.53 7.27,19.67 z m -87.86,209.85 c 12.28,0.8 21.62,11.41 20.82,23.71 -0.8,12.29 -11.42,21.61 -23.72,20.81 l -168.45,-10.5 -109.84,142.01 c -7.54,9.78 -21.6,11.57 -31.36,4.03 -9.8,-7.55 -11.6,-21.61 -4.05,-31.39 l 117.04,-151.34 0.05,0.04 c 4.39,-5.66 11.42,-9.12 19.11,-8.62 z m 409.54,171.46 c -9.19,-8.19 -23.29,-7.39 -31.5,1.81 -8.2,9.19 -7.39,23.3 1.81,31.5 l 125.69,112.65 -24.11,177.89 c -1.67,12.25 6.92,23.53 19.15,25.19 12.25,1.67 23.53,-6.91 25.21,-19.15 l 25.69,-189.58 -0.07,-0.01 c 0.97,-7.1 -1.51,-14.55 -7.25,-19.66 l -134.62,-120.64 v 0" />
        <path
           inkscape:connector-curvature="0"
           id="path934"
           style="fill:#ffffff;fill-opacity:1;fill-rule:evenodd;stroke:none"
           d="m 2904.04,2501.33 643.13,269.26 c 11.44,4.78 24.71,-0.65 29.49,-12.08 v 0 c 4.78,-11.44 -0.65,-24.7 -12.09,-29.48 l -643.12,-269.27 c -11.44,-4.79 -24.7,0.65 -29.49,12.08 v 0.01 c -4.78,11.42 0.66,24.69 12.08,29.48" />
        <path
           inkscape:connector-curvature="0"
           id="path936"
           style="fill:#000000;fill-opacity:1;fill-rule:evenodd;stroke:none"
           d="m 3096.51,2944.3 c 146.19,61.2 325.79,-35.11 401.15,-215.12 75.37,-180.02 17.96,-375.56 -128.23,-436.76 -146.18,-61.2 -325.77,35.1 -401.14,215.12 -75.37,180.02 -17.96,375.56 128.22,436.76" />
        <path
           inkscape:connector-curvature="0"
           id="path938"
           style="fill:#b3b3b3;fill-opacity:1;fill-rule:evenodd;stroke:none"
           d="m 3424.06,2324.51 c -16.49,-12.94 -34.73,-23.77 -54.63,-32.09 -19.89,-8.33 -40.4,-13.71 -61.18,-16.4 l -49.23,187.06 -65.92,250.54 132.22,-222.78 98.74,-166.33" />
        <path
           inkscape:connector-curvature="0"
           id="path940"
           style="fill:#ffffff;fill-opacity:1;fill-rule:evenodd;stroke:none"
           d="m 3096.51,2944.3 c 96.87,40.55 208.39,11.93 294.56,-64.36 l -455.39,-190.66 c 6.11,114.92 63.97,214.46 160.83,255.02" />
        <path
           inkscape:connector-curvature="0"
           id="path942"
           style="fill:#ffffff;fill-opacity:1;fill-rule:evenodd;stroke:none"
           d="m 3161.86,3077.18 c -4.79,11.42 0.59,24.55 12,29.33 11.41,4.77 24.55,-0.6 29.33,-12.02 16.67,-39.83 15.63,-82.66 0.45,-119.7 -15.17,-37.03 -44.48,-68.28 -84.32,-84.96 -39.84,-16.68 -82.67,-15.63 -119.7,-0.45 -37.02,15.17 -68.28,44.48 -84.97,84.31 -4.78,11.42 0.61,24.54 12.03,29.33 11.42,4.78 24.54,-0.6 29.33,-12.02 11.89,-28.43 34.19,-49.34 60.6,-60.16 26.42,-10.83 56.98,-11.58 85.41,0.32 28.42,11.91 49.33,34.2 60.15,60.62 10.83,26.42 11.57,56.98 -0.31,85.4" />
        <path
           inkscape:connector-curvature="0"
           id="path944"
           style="fill:#000000;fill-opacity:1;fill-rule:evenodd;stroke:none"
           d="m 1983.28,3091.71 c -10.15,7 -24.03,4.45 -31.03,-5.69 -7,-10.14 -4.45,-24.04 5.69,-31.03 l 138.66,-96.24 -1.9,-179.5 c -0.15,-12.35 9.75,-22.49 22.11,-22.63 12.36,-0.14 22.5,9.77 22.63,22.12 l 2.03,191.3 -0.05,0.01 c 0.07,7.17 -3.3,14.24 -9.64,18.61 z m -427.62,119.47 c 12.3,0.73 22.87,-8.64 23.6,-20.94 0.73,-12.31 -8.65,-22.87 -20.95,-23.59 l -168.47,-10.43 -91.41,-154.5 c -6.28,-10.64 -20.01,-14.17 -30.64,-7.89 -10.64,6.28 -14.17,20.01 -7.89,30.65 l 97.42,164.66 0.05,-0.04 c 3.66,6.18 10.2,10.47 17.9,10.93 z m 61.22,219.11 c 10.14,-7 24.04,-4.44 31.04,5.69 7,10.15 4.45,24.04 -5.69,31.04 l -138.67,96.22 1.91,179.52 c 0.15,12.35 -9.76,22.49 -22.12,22.63 -12.35,0.14 -22.49,-9.77 -22.63,-22.13 l -2.03,-191.3 h 0.06 c -0.07,-7.17 3.3,-14.24 9.64,-18.61 z m 427.62,-119.47 c -12.3,-0.72 -22.87,8.65 -23.59,20.95 -0.73,12.3 8.65,22.87 20.96,23.59 l 168.45,10.42 91.42,154.5 c 6.28,10.65 20.01,14.18 30.63,7.89 10.65,-6.28 14.18,-20 7.89,-30.65 l -97.41,-164.65 -0.06,0.02 c -3.65,-6.16 -10.19,-10.46 -17.89,-10.91 l -180.4,-11.16 v 0" />
        <path
           inkscape:connector-curvature="0"
           id="path946"
           style="fill:#000000;fill-opacity:1;fill-rule:evenodd;stroke:none"
           d="m 1470.4,3376.51 671.49,-187.62 c 11.95,-3.33 18.98,-15.82 15.65,-27.75 v -0.01 c -3.35,-11.93 -15.83,-18.97 -27.76,-15.63 l -671.51,187.61 c -11.94,3.34 -18.97,15.82 -15.64,27.76 v 0 c 3.34,11.94 15.83,18.98 27.77,15.64" />
        <path
           inkscape:connector-curvature="0"
           id="path948"
           style="fill:#333333;fill-opacity:1;fill-rule:evenodd;stroke:none"
           d="m 1896.09,3604.65 c 152.63,-42.65 233.8,-229.58 181.28,-417.54 -52.51,-187.95 -218.82,-305.74 -371.44,-263.1 -152.63,42.65 -233.79,229.58 -181.29,417.53 52.52,187.96 218.83,305.76 371.45,263.11" />
        <path
           inkscape:connector-curvature="0"
           id="path950"
           style="fill:#000000;fill-opacity:1;fill-rule:evenodd;stroke:none"
           d="m 1768.68,2915.31 c -20.96,0.08 -41.98,2.9 -62.75,8.7 -20.77,5.81 -40.2,14.29 -58.17,25.08 l 77.39,177.27 103.65,237.44 -34.42,-256.78 -25.7,-191.71" />
        <path
           inkscape:connector-curvature="0"
           id="path952"
           style="fill:#000000;fill-opacity:1;fill-rule:evenodd;stroke:none"
           d="m 1896.09,3604.65 c 101.15,-28.26 170.88,-119.88 191.17,-233.16 l -475.49,132.84 c 76.06,86.38 183.19,128.57 284.32,100.32" />
        <path
           inkscape:connector-curvature="0"
           id="path954"
           style="fill:#000000;fill-opacity:1;fill-rule:evenodd;stroke:none"
           d="m 2029.76,3668.38 c 3.33,11.91 15.69,18.88 27.6,15.55 11.93,-3.34 18.89,-15.7 15.56,-27.62 -11.62,-41.59 -39,-74.53 -73.88,-94.17 -34.87,-19.65 -77.24,-25.99 -118.83,-14.36 -41.6,11.61 -74.54,38.99 -94.18,73.87 -19.65,34.88 -25.99,77.24 -14.37,118.84 3.33,11.91 15.69,18.88 27.61,15.55 11.92,-3.33 18.88,-15.7 15.55,-27.61 -8.29,-29.68 -3.77,-59.91 10.24,-84.79 14.01,-24.88 37.53,-44.41 67.2,-52.71 29.68,-8.29 59.91,-3.76 84.79,10.25 24.87,14.01 44.41,37.51 52.71,67.2" />
        <path
           inkscape:connector-curvature="0"
           id="path956"
           style="fill:#000000;fill-opacity:1;fill-rule:evenodd;stroke:none"
           d="m 3756.2,4160.91 c -0.16,-12.31 9.67,-22.45 21.98,-22.62 12.33,-0.19 22.46,9.66 22.64,21.98 l 2.87,168.76 150.27,98.22 c 10.35,6.76 13.26,20.63 6.5,30.98 -6.75,10.34 -20.63,13.26 -30.97,6.5 l -160.13,-104.68 0.03,-0.06 c -5.99,-3.92 -10,-10.65 -10.11,-18.36 z m 138.49,-421.84 c -7.45,9.81 -5.53,23.82 4.29,31.25 9.82,7.45 23.81,5.53 31.26,-4.29 l 102.33,-134.22 179.25,9.93 c 12.34,0.7 22.9,-8.74 23.58,-21.08 0.71,-12.34 -8.74,-22.91 -21.08,-23.6 l -191.03,-10.59 v 0.06 c -7.15,-0.39 -14.37,2.66 -19.01,8.8 z m -216.16,-70.96 c 0.17,12.32 -9.66,22.45 -21.99,22.63 -12.31,0.18 -22.45,-9.66 -22.62,-21.99 l -2.88,-168.75 -150.26,-98.23 c -10.35,-6.75 -13.26,-20.62 -6.51,-30.97 6.76,-10.35 20.62,-13.26 30.97,-6.51 l 160.14,104.69 -0.04,0.05 c 6,3.92 10,10.65 10.12,18.36 z m -138.48,421.85 c 7.44,-9.82 5.53,-23.82 -4.3,-31.26 -9.81,-7.44 -23.81,-5.52 -31.26,4.3 l -102.32,134.22 -179.25,-9.93 c -12.34,-0.7 -22.9,8.75 -23.6,21.08 -0.7,12.34 8.76,22.9 21.1,23.59 l 191.02,10.6 v -0.07 c 7.15,0.4 14.37,-2.65 19.02,-8.79 l 109.59,-143.74 v 0" />
        <path
           inkscape:connector-curvature="0"
           id="path958"
           style="fill:#000000;fill-opacity:1;fill-rule:evenodd;stroke:none"
           d="m 3804.69,3576.26 -217.45,662.44 c -3.87,11.79 2.59,24.57 14.37,28.44 v 0 c 11.78,3.86 24.57,-2.6 28.44,-14.38 l 217.45,-662.44 c 3.87,-11.77 -2.61,-24.56 -14.38,-28.44 v 0 c -11.77,-3.86 -24.57,2.61 -28.43,14.38" />
        <path
           inkscape:connector-curvature="0"
           id="path960"
           style="fill:#ffffff;fill-opacity:1;fill-rule:evenodd;stroke:none"
           d="m 3378.36,3803.22 c -49.43,150.58 60.81,321.99 246.23,382.85 185.42,60.87 375.8,-11.86 425.21,-162.43 49.44,-150.57 -60.81,-321.97 -246.22,-382.84 -185.42,-60.86 -375.79,11.86 -425.22,162.42" />
        <path
           inkscape:connector-curvature="0"
           id="path962"
           style="fill:#4d4d4d;fill-opacity:1;fill-rule:evenodd;stroke:none"
           d="m 4022.16,4080.63 c 11.58,-17.46 20.93,-36.5 27.64,-56.99 6.74,-20.49 10.48,-41.35 11.52,-62.29 l -190.37,-34.25 -254.98,-45.87 232.56,114.17 173.63,85.23" />
        <path
           inkscape:connector-curvature="0"
           id="path964"
           style="fill:#000000;fill-opacity:1;fill-rule:evenodd;stroke:none"
           d="m 3378.36,3803.22 c -32.75,99.78 4.62,208.69 87.49,288.53 l 153.98,-469.06 c -114.08,15.2 -208.73,80.76 -241.47,180.53" />
        <path
           inkscape:connector-curvature="0"
           id="path966"
           style="fill:#000000;fill-opacity:1;fill-rule:evenodd;stroke:none"
           d="m 3251.07,3878.88 c -11.76,-3.86 -24.42,2.55 -28.28,14.3 -3.86,11.76 2.55,24.42 14.3,28.29 41.04,13.46 83.64,9.03 119.37,-9.04 35.72,-18.07 64.54,-49.76 78,-90.79 13.47,-41.02 9.04,-83.63 -9.03,-119.35 -18.06,-35.73 -49.75,-64.55 -90.78,-78.02 -11.76,-3.86 -24.43,2.55 -28.27,14.3 -3.86,11.76 2.54,24.43 14.3,28.28 29.27,9.61 51.89,30.18 64.78,55.66 12.87,25.48 16.04,55.88 6.43,85.16 -9.61,29.28 -30.18,51.89 -55.66,64.77 -25.48,12.88 -55.88,16.05 -85.16,6.44" />
      </g>
    </g>
  </g>
</svg>
