<?xml version="1.0" encoding="UTF-8" standalone="no"?>
<svg
   xmlns:dc="http://purl.org/dc/elements/1.1/"
   xmlns:cc="http://creativecommons.org/ns#"
   xmlns:rdf="http://www.w3.org/1999/02/22-rdf-syntax-ns#"
   xmlns:svg="http://www.w3.org/2000/svg"
   xmlns="http://www.w3.org/2000/svg"
   xmlns:sodipodi="http://sodipodi.sourceforge.net/DTD/sodipodi-0.dtd"
   xmlns:inkscape="http://www.inkscape.org/namespaces/inkscape"
   version="1.1"
   id="svg2"
   height="32"
   width="32"
   sodipodi:docname="core_devel.svg"
   inkscape:version="0.92.4 (5da689c313, 2019-01-14)">
  <sodipodi:namedview
     pagecolor="#ffffff"
     bordercolor="#666666"
     borderopacity="1"
     objecttolerance="10"
     gridtolerance="10"
     guidetolerance="10"
     inkscape:pageopacity="0"
     inkscape:pageshadow="2"
     inkscape:window-width="1920"
     inkscape:window-height="1136"
     id="namedview7"
     showgrid="false"
     inkscape:zoom="7.375"
     inkscape:cx="16.813559"
     inkscape:cy="16"
     inkscape:window-x="0"
     inkscape:window-y="27"
     inkscape:window-maximized="1"
     inkscape:current-layer="svg2" />
  <defs
     id="defs4" />
  <metadata
     id="metadata7">
    <rdf:RDF>
      <cc:Work
         rdf:about="">
        <dc:format>image/svg+xml</dc:format>
        <dc:type
           rdf:resource="http://purl.org/dc/dcmitype/StillImage" />
        <dc:title></dc:title>
      </cc:Work>
    </rdf:RDF>
  </metadata>
  <path
     id="path3347"
     d="M 12 8 C 9.6207696 8 11.137575 11.698883 8.9394531 12.609375 C 6.7413307 13.519867 5.1979951 9.8332551 3.515625 11.515625 C 1.833255 13.197995 5.5198671 14.741331 4.609375 16.939453 C 3.6988828 19.137575 0 17.62077 0 20 C 0 22.37923 3.698883 20.862425 4.609375 23.060547 C 5.519867 25.258669 1.8332551 26.802005 3.515625 28.484375 C 5.1979949 30.166745 6.7413309 26.480133 8.9394531 27.390625 C 11.137575 28.301117 9.6207695 32 12 32 C 14.37923 32 12.862425 28.301117 15.060547 27.390625 C 17.258669 26.480133 18.802005 30.166745 20.484375 28.484375 C 22.166745 26.802005 18.480133 25.258669 19.390625 23.060547 C 20.301117 20.862425 24 22.37923 24 20 C 24 17.62077 20.301117 19.137575 19.390625 16.939453 C 18.480133 14.741331 22.166745 13.197995 20.484375 11.515625 C 18.802005 9.833255 17.258669 13.519867 15.060547 12.609375 C 12.862425 11.698883 14.37923 8 12 8 z M 12 17.5 A 2.5 2.5 0 0 1 14.5 20 A 2.5 2.5 0 0 1 12 22.5 A 2.5 2.5 0 0 1 9.5 20 A 2.5 2.5 0 0 1 12 17.5 z " />
  <path
     id="path3339"
     d="M 19.9375,0.24804688 C 19.740589,0.27223745 19.527888,0.35950276 19.296875,0.52734375 17.448768,1.8700717 20.901227,3.5910923 20.195312,5.7636719 19.489398,7.9362514 15.684711,7.3000767 16.390625,9.4726562 17.096539,11.645236 19.800331,8.8936 21.648438,10.236328 23.496544,11.579056 21.715615,15 24,15 26.284385,15 24.503456,11.579056 26.351562,10.236328 28.199669,8.8936 30.903461,11.645236 31.609375,9.4726562 32.315289,7.3000766 28.510601,7.9362516 27.804688,5.7636719 27.098774,3.5910923 30.551231,1.8700718 28.703125,0.52734375 26.855018,-0.81538437 26.284385,3 24,3 22.001163,3 21.31588,0.07871288 19.9375,0.24804688 Z M 24,5 a 2,2 0 0 1 2,2 2,2 0 0 1 -2,2 2,2 0 0 1 -2,-2 2,2 0 0 1 2,-2 z"
     inkscape:connector-curvature="0" />
</svg>
