<?xml version="1.0" encoding="UTF-8" standalone="no"?>
<svg
   xmlns:ooo="http://xml.openoffice.org/svg/export"
   xmlns:dc="http://purl.org/dc/elements/1.1/"
   xmlns:cc="http://creativecommons.org/ns#"
   xmlns:rdf="http://www.w3.org/1999/02/22-rdf-syntax-ns#"
   xmlns:svg="http://www.w3.org/2000/svg"
   xmlns="http://www.w3.org/2000/svg"
   xmlns:sodipodi="http://sodipodi.sourceforge.net/DTD/sodipodi-0.dtd"
   xmlns:inkscape="http://www.inkscape.org/namespaces/inkscape"
   version="1.2"
   width="139.31mm"
   height="66.730003mm"
   viewBox="0 0 13931 6673.0003"
   preserveAspectRatio="xMidYMid"
   fill-rule="evenodd"
   stroke-width="28.222"
   stroke-linejoin="round"
   xml:space="preserve"
   id="svg337"
   sodipodi:docname="foss4g_2022_green.svg"
   inkscape:version="1.0.2 (e86c870879, 2021-01-15)"><metadata
   id="metadata341"><rdf:RDF><cc:Work
       rdf:about=""><dc:format>image/svg+xml</dc:format><dc:type
         rdf:resource="http://purl.org/dc/dcmitype/StillImage" /><dc:title></dc:title></cc:Work></rdf:RDF></metadata><sodipodi:namedview
   pagecolor="#ffffff"
   bordercolor="#666666"
   borderopacity="1"
   objecttolerance="10"
   gridtolerance="10"
   guidetolerance="10"
   inkscape:pageopacity="0"
   inkscape:pageshadow="2"
   inkscape:window-width="1920"
   inkscape:window-height="1016"
   id="namedview339"
   showgrid="false"
   fit-margin-top="1"
   fit-margin-left="1"
   fit-margin-right="1"
   fit-margin-bottom="1"
   inkscape:zoom="0.76257015"
   inkscape:cx="263.24409"
   inkscape:cy="325.03937"
   inkscape:window-x="0"
   inkscape:window-y="27"
   inkscape:window-maximized="1"
   inkscape:current-layer="svg337" />
 <defs
   class="ClipPathGroup"
   id="defs8">
  <clipPath
   id="presentation_clip_path"
   clipPathUnits="userSpaceOnUse">
   <rect
   x="0"
   y="0"
   width="21000"
   height="29700"
   id="rect2" />
  </clipPath>
  <clipPath
   id="presentation_clip_path_shrink"
   clipPathUnits="userSpaceOnUse">
   <rect
   x="21"
   y="29"
   width="20958"
   height="29641"
   id="rect5" />
  </clipPath>
 </defs>
 <defs
   class="TextShapeIndex"
   id="defs12">
  <g
   ooo:slide="id1"
   ooo:id-list="id3 id4 id5 id6 id7 id8 id9 id10 id11 id12 id13 id14 id15 id16 id17 id18 id19 id20 id21 id22 id23 id24 id25 id26 id27 id28 id29 id30 id31 id32 id33 id34 id35 id36 id37 id38 id39 id40"
   id="g10" />
 </defs>
 <defs
   class="EmbeddedBulletChars"
   id="defs44">
  <g
   id="bullet-char-template-57356"
   transform="matrix(4.8828125e-4,0,0,-4.8828125e-4,0,0)">
   <path
   d="M 580,1141 1163,571 580,0 -4,571 Z"
   id="path14" />
  </g>
  <g
   id="bullet-char-template-57354"
   transform="matrix(4.8828125e-4,0,0,-4.8828125e-4,0,0)">
   <path
   d="M 8,1128 H 1137 V 0 H 8 Z"
   id="path17" />
  </g>
  <g
   id="bullet-char-template-10146"
   transform="matrix(4.8828125e-4,0,0,-4.8828125e-4,0,0)">
   <path
   d="M 174,0 602,739 174,1481 1456,739 Z M 1358,739 309,1346 659,739 Z"
   id="path20" />
  </g>
  <g
   id="bullet-char-template-10132"
   transform="matrix(4.8828125e-4,0,0,-4.8828125e-4,0,0)">
   <path
   d="M 2015,739 1276,0 H 717 l 543,543 H 174 v 393 h 1086 l -543,545 h 557 z"
   id="path23" />
  </g>
  <g
   id="bullet-char-template-10007"
   transform="matrix(4.8828125e-4,0,0,-4.8828125e-4,0,0)">
   <path
   d="m 0,-2 c -7,16 -16,29 -25,39 l 381,530 c -94,256 -141,385 -141,387 0,25 13,38 40,38 9,0 21,-2 34,-5 21,4 42,12 65,25 l 27,-13 111,-251 280,301 64,-25 24,25 c 21,-10 41,-24 62,-43 C 886,937 835,863 770,784 769,783 710,716 594,584 L 774,223 c 0,-27 -21,-55 -63,-84 l 16,-20 C 717,90 699,76 672,76 641,76 570,178 457,381 L 164,-76 c -22,-34 -53,-51 -92,-51 -42,0 -63,17 -64,51 -7,9 -10,24 -10,44 0,9 1,19 2,30 z"
   id="path26" />
  </g>
  <g
   id="bullet-char-template-10004"
   transform="matrix(4.8828125e-4,0,0,-4.8828125e-4,0,0)">
   <path
   d="M 285,-33 C 182,-33 111,30 74,156 52,228 41,333 41,471 c 0,78 14,145 41,201 34,71 87,106 158,106 53,0 88,-31 106,-94 l 23,-176 c 8,-64 28,-97 59,-98 l 735,706 c 11,11 33,17 66,17 42,0 63,-15 63,-46 V 965 c 0,-36 -10,-64 -30,-84 L 442,47 C 390,-6 338,-33 285,-33 Z"
   id="path29" />
  </g>
  <g
   id="bullet-char-template-9679"
   transform="matrix(4.8828125e-4,0,0,-4.8828125e-4,0,0)">
   <path
   d="M 813,0 C 632,0 489,54 383,161 276,268 223,411 223,592 c 0,181 53,324 160,431 106,107 249,161 430,161 179,0 323,-54 432,-161 108,-107 162,-251 162,-431 0,-180 -54,-324 -162,-431 C 1136,54 992,0 813,0 Z"
   id="path32" />
  </g>
  <g
   id="bullet-char-template-8226"
   transform="matrix(4.8828125e-4,0,0,-4.8828125e-4,0,0)">
   <path
   d="m 346,457 c -73,0 -137,26 -191,78 -54,51 -81,114 -81,188 0,73 27,136 81,188 54,52 118,78 191,78 73,0 134,-26 185,-79 51,-51 77,-114 77,-187 0,-75 -25,-137 -76,-188 -50,-52 -112,-78 -186,-78 z"
   id="path35" />
  </g>
  <g
   id="bullet-char-template-8211"
   transform="matrix(4.8828125e-4,0,0,-4.8828125e-4,0,0)">
   <path
   d="M -4,459 H 1135 V 606 H -4 Z"
   id="path38" />
  </g>
  <g
   id="bullet-char-template-61548"
   transform="matrix(4.8828125e-4,0,0,-4.8828125e-4,0,0)">
   <path
   d="m 173,740 c 0,163 58,303 173,419 116,115 255,173 419,173 163,0 302,-58 418,-173 116,-116 174,-256 174,-419 0,-163 -58,-303 -174,-418 C 1067,206 928,148 765,148 601,148 462,206 346,322 231,437 173,577 173,740 Z"
   id="path41" />
  </g>
 </defs>
 <g
   id="g49"
   transform="translate(-3535,-6250)">
  <g
   id="id2"
   class="Master_Slide">
   <g
   id="bg-id2"
   class="Background" />
   <g
   id="bo-id2"
   class="BackgroundObjects" />
  </g>
 </g>
 <g
   class="SlideGroup"
   id="g335"
   transform="translate(-3535,-6250)">
  <g
   id="g333">
   <g
   id="container-id1">
    <g
   id="id1"
   class="Slide"
   clip-path="url(#presentation_clip_path)">
     <g
   class="Page"
   id="g329">
      <g
   class="com.sun.star.drawing.ClosedBezierShape"
   id="g56">
       <g
   id="id3">
        <rect
   class="BoundingBox"
   stroke="none"
   fill="none"
   x="3635"
   y="6607"
   width="3833"
   height="4349"
   id="rect51" />
        <path
   fill="#4dbf5e"
   stroke="none"
   d="m 7467,6641 c -19,20 -36,43 -57,60 -79,65 -80,64 -6,131 -22,2 -50,-3 -66,8 -17,13 -22,41 -31,63 -6,12 -9,26 -13,39 -31,85 -13,117 75,141 18,5 33,24 49,36 -12,15 -24,29 -35,44 -14,21 -36,42 -37,63 -3,66 1,133 4,199 3,68 7,136 11,205 -5,-3 -11,-6 -16,-8 -20,19 -53,37 -57,59 -9,50 37,67 84,86 -21,27 -39,51 -58,74 -74,90 -141,182 -147,305 -1,22 -25,46 -45,62 -36,31 -83,51 -97,108 -6,-26 -13,-52 -19,-78 -3,-15 -5,-30 -9,-45 -23,-75 -49,-81 -105,-25 -50,49 -98,101 -150,148 -71,64 -156,91 -251,71 -45,-10 -90,-21 -131,-41 -26,-13 -60,-41 -61,-64 -2,-24 31,-50 50,-75 3,-5 13,-5 18,-9 14,-15 26,-31 40,-47 -20,-14 -39,-38 -59,-39 -43,-3 -89,4 -132,13 -64,13 -120,8 -170,-41 -44,-43 -95,-79 -143,-118 -38,-31 -83,-43 -122,-11 -89,74 -178,147 -257,230 -69,73 -76,162 -24,252 15,25 30,51 38,78 16,49 3,77 -45,83 -60,7 -99,34 -129,87 -33,56 -66,57 -117,14 -58,-50 -96,-47 -144,10 -23,27 -47,55 -68,84 -44,66 -45,134 -6,204 18,32 34,66 48,101 35,91 117,124 212,121 70,-2 150,24 210,61 75,47 113,56 170,-10 43,-51 104,-32 131,40 10,25 17,53 32,75 10,15 31,26 49,28 9,2 20,-21 31,-32 13,-14 28,-25 41,-38 11,16 33,33 32,48 -8,104 80,154 121,230 3,4 8,8 12,10 130,62 253,142 395,177 40,10 86,6 126,-4 54,-14 101,-20 141,27 6,7 18,9 31,15 -14,99 -42,188 -144,236 -101,47 -198,103 -299,150 -65,30 -97,73 -86,145 4,29 3,59 9,87 24,114 1,220 -43,324 -12,29 -8,64 -16,96 -6,21 -20,40 -30,60 -15,-14 -30,-27 -43,-42 -37,-40 -71,-84 -111,-120 -12,-11 -41,-4 -62,-3 -35,3 -70,10 -106,10 -10,0 -27,-18 -28,-29 -1,-11 14,-33 23,-34 36,-3 77,-11 109,1 94,36 156,-2 156,-103 0,-41 1,-82 4,-123 3,-48 -20,-70 -64,-81 -20,-5 -42,-19 -53,-35 -48,-74 -116,-121 -194,-155 -137,-59 -250,-148 -349,-255 -44,-47 -92,-74 -156,-77 -138,-8 -217,-101 -281,-207 -54,-88 -99,-183 -148,-274 -4,-8 -10,-14 -15,-21 -44,-56 -148,-46 -237,-10 -56,23 -84,77 -66,146 28,107 -10,206 -23,309 -1,10 -11,25 -19,27 -42,7 -55,39 -64,72 -34,126 -73,250 -96,377 -15,79 -7,163 -4,245 1,46 -15,78 -41,116 -38,57 -63,123 -92,186 -13,29 -21,60 -31,90 -5,-1 -10,-2 -14,-2 -8,-119 -20,-237 -23,-355 -3,-65 -17,-125 -49,-181 -43,-78 -76,-159 -98,-247 -26,-100 -67,-197 -108,-293 -42,-96 -68,-200 -144,-282 -19,-20 -15,-77 -3,-109 23,-59 62,-112 92,-169 5,-9 1,-23 1,-34 -2,-23 -5,-46 -8,-73 -47,-9 -42,-52 -25,-79 69,-107 7,-188 -50,-266 -37,-50 -60,-98 -56,-160 9,-147 -33,-286 -70,-425 -15,-54 -19,-106 1,-161 30,-79 20,-159 -14,-235 -17,-40 -4,-66 19,-102 31,-46 53,-104 61,-159 14,-94 49,-173 121,-237 81,-73 117,-171 156,-269 12,-30 33,-57 49,-85 7,4 14,8 21,12 -18,30 -34,61 -53,90 -38,61 -35,84 0,147 18,32 25,73 26,111 1,73 -1,76 70,85 37,5 59,13 60,58 0,16 29,44 44,44 43,1 85,-11 126,-18 -1,-17 0,-21 -2,-23 -51,-61 -39,-57 -10,-135 30,-81 67,-149 140,-196 7,-5 12,-17 17,-26 27,-54 67,-77 132,-73 107,7 214,2 321,2 8,0 18,-3 25,1 74,31 141,19 204,-28 4,-3 13,-2 20,-2 2,1 5,4 13,10 -8,12 -15,24 -24,35 -30,37 -63,72 -91,110 -30,40 -47,43 -82,9 -45,-45 -81,-42 -118,9 -11,15 -22,31 -28,49 -19,53 -52,91 -108,108 -11,4 -25,11 -29,20 -9,20 -12,43 -17,65 22,3 46,14 64,8 22,-8 44,-28 58,-49 40,-62 99,-79 165,-70 87,13 160,1 215,-74 8,-11 25,-22 38,-23 63,-6 99,-47 138,-90 29,-31 68,-59 107,-73 59,-20 52,-67 58,-109 4,-32 12,-71 -29,-91 -43,-20 -82,-16 -119,16 -49,42 -101,41 -146,-5 -24,-24 -43,-54 -63,-81 -20,-28 -14,-52 9,-78 22,-27 41,-59 51,-91 10,-32 27,-46 55,-39 116,29 238,53 288,184 16,42 41,48 81,33 33,-12 70,-19 105,-21 31,-1 48,15 44,53 -3,32 -3,82 16,96 37,28 73,-6 102,-34 11,-11 23,-24 37,-27 15,-4 36,-4 47,5 9,8 12,30 9,44 -6,38 -35,83 -23,111 22,53 64,100 104,144 24,28 64,44 96,12 30,-30 22,-71 -7,-97 -61,-55 -71,-127 -71,-201 0,-29 14,-60 31,-84 22,-33 50,-62 81,-86 16,-13 43,-15 65,-15 17,1 35,13 52,20 72,28 80,57 38,125 -14,22 -22,47 -33,71 29,6 58,17 87,17 80,0 97,-21 95,-103 0,-12 1,-24 -1,-36 -4,-39 15,-51 52,-49 40,2 81,4 122,2 39,-3 67,3 88,42 23,43 63,65 116,63 66,-2 133,2 200,-1 18,-1 44,-14 49,-27 5,-15 -6,-42 -19,-54 -63,-55 -129,-107 -217,-117 -21,-3 -40,-18 -60,-28 17,-18 31,-44 52,-53 21,-9 50,-6 73,0 53,13 102,11 150,-15 39,-22 71,-12 103,15 57,48 76,44 131,-9 13,-12 45,-4 68,-6 3,7 6,14 9,21 z M 4015,7979 c 2,3 4,7 7,10 58,-30 117,-59 175,-89 34,-18 68,-37 101,-58 16,-10 41,-26 41,-38 -1,-20 -15,-48 -32,-57 -27,-16 -62,-16 -92,-29 -29,-13 -56,-33 -83,-53 -29,-21 -57,-44 -83,-69 -17,-16 -31,-35 -45,-55 -14,-19 -21,-50 -39,-57 -31,-13 -69,-11 -92,23 -18,27 -32,56 -46,86 -23,48 -45,96 -7,149 9,12 4,38 -2,54 -15,33 -37,62 -51,95 -23,56 -47,112 -61,171 -9,38 22,57 61,56 31,-1 61,-2 92,0 35,1 51,-13 47,-49 -3,-20 -6,-41 -6,-61 1,-47 18,-58 61,-44 17,6 36,10 54,15 z m 3034,68 c 14,0 28,3 41,-1 19,-4 47,-9 52,-21 7,-20 2,-47 -5,-67 -5,-15 -24,-24 -36,-37 -38,-44 -75,-91 -116,-134 -31,-32 -66,-79 -104,-83 -131,-16 -224,-88 -324,-166 -115,-90 -186,-54 -238,57 -13,27 -16,74 -1,95 14,19 59,19 91,20 50,1 105,-18 151,-5 127,34 242,96 343,180 19,16 32,45 37,70 19,91 18,91 109,92 z M 5370,7470 c 45,-31 82,-55 115,-84 8,-6 2,-43 -2,-44 -36,-9 -72,-12 -108,-16 -3,0 -8,1 -9,3 -13,30 -29,59 -36,90 -2,11 21,27 40,51 z M 3908,9359 c 48,51 166,66 222,24 12,-10 24,-30 23,-45 0,-10 -23,-22 -38,-27 -13,-4 -30,-1 -45,3 -55,14 -109,30 -162,45 z M 6397,7889 c 25,-4 43,-4 58,-10 26,-9 33,-31 8,-44 -36,-20 -77,-36 -117,-45 -13,-3 -38,16 -45,30 -4,10 9,38 22,45 24,13 54,18 74,24 z m -1009,659 c -35,-22 -56,-44 -77,-46 -15,-1 -43,26 -45,42 -3,32 23,56 56,52 18,-3 34,-24 66,-48 z m -1243,506 c -26,-19 -42,-38 -52,-35 -15,4 -29,22 -37,37 -2,5 20,31 29,30 16,0 31,-15 60,-32 z"
   id="path53" />
       </g>
      </g>
      <g
   class="com.sun.star.drawing.ClosedBezierShape"
   id="g63">
       <g
   id="id4">
        <rect
   class="BoundingBox"
   stroke="none"
   fill="none"
   x="6541"
   y="10346"
   width="3533"
   height="2477"
   id="rect58" />
        <path
   fill="#4dbf5e"
   stroke="none"
   d="m 10038,12719 c -92,-133 -176,-271 -255,-413 -31,-10 -56,-37 -77,-82 -4,-7 -8,-15 -12,-22 -48,-43 -102,-81 -162,-114 -1,0 -2,0 -2,0 -75,23 -106,-1 -132,-74 -7,-20 -29,-41 -49,-49 -49,-18 -102,-25 -151,-43 -60,-21 -114,-35 -178,-5 -52,25 -108,10 -163,-12 -75,-30 -152,-49 -228,-70 -11,-3 -25,-1 -35,4 -45,21 -86,11 -127,-12 -17,-9 -41,-13 -59,-8 -74,21 -142,7 -206,-31 -84,-51 -166,-84 -261,-16 -42,31 -99,6 -117,-36 -27,-63 10,-141 77,-161 76,-23 149,-7 218,27 72,36 145,60 226,57 66,-3 78,-14 69,-80 -9,-1 -18,-2 -13,-1 -20,-52 -36,-96 -55,-138 -4,-9 -21,-14 -33,-16 -33,-4 -67,-9 -101,-8 -47,0 -101,-9 -142,10 -62,29 -115,29 -177,6 -51,-19 -63,-38 -37,-85 47,-83 126,-114 215,-121 68,-5 137,1 206,-2 79,-3 157,-11 247,-17 -69,-57 -125,-109 -186,-152 -25,-17 -64,-15 -96,-21 -36,-6 -79,-1 -106,-18 -73,8 -145,19 -218,34 -2,1 -3,1 -5,1 -8,30 -32,40 -65,35 -41,-6 -55,-31 -51,-74 3,-23 -3,-51 -16,-70 -39,-59 -46,-105 -18,-151 33,-53 99,-83 160,-70 97,21 193,45 290,65 60,12 121,23 181,24 80,1 115,-64 78,-134 -40,-76 -112,-105 -187,-133 -41,-15 -80,-37 -117,-60 -38,-23 -73,-51 -109,-77 -19,-14 -43,-24 -57,-43 -5,-6 -10,-12 -15,-17 -108,32 -170,130 -248,208 -1,2 -2,4 -3,5 -5,7 -12,12 -20,17 -19,17 -38,32 -60,45 -68,41 -152,104 -238,126 -4,3 -8,7 -11,11 -20,44 -48,85 -89,118 -74,61 -152,106 -206,188 -24,35 -60,66 -102,79 -13,4 -27,7 -41,10 -6,2 -13,4 -20,7 -93,28 -178,16 -257,-27 -54,-18 -105,-44 -150,-79 5,9 9,17 11,26 28,120 57,240 81,360 20,106 96,184 202,211 31,7 65,28 83,54 2,2 3,4 4,6 280,56 561,128 824,233 31,-16 61,-31 93,-45 64,-28 108,-17 157,34 90,94 183,185 270,282 3,3 5,5 8,8 124,77 252,147 382,213 245,29 505,-8 750,49 239,57 462,190 666,337 -11,-35 -23,-69 -35,-103 z M 7147,11293 c -21,41 -42,82 -64,122 -34,62 -74,78 -141,58 -70,-22 -124,-65 -156,-131 -28,-59 -1,-100 72,-99 10,2 31,5 49,13 52,22 89,1 120,-39 35,-44 71,-57 103,-35 33,22 40,66 17,111 z"
   id="path60" />
       </g>
      </g>
      <g
   class="com.sun.star.drawing.ClosedBezierShape"
   id="g70">
       <g
   id="id5">
        <rect
   class="BoundingBox"
   stroke="none"
   fill="none"
   x="6375"
   y="8875"
   width="798"
   height="753"
   id="rect65" />
        <path
   fill="#4dbf5e"
   stroke="none"
   d="m 6637,8906 c 96,-12 185,-30 272,-31 85,0 171,18 260,28 11,43 -20,69 -54,94 -55,41 -109,82 -163,123 -32,24 -41,54 -34,95 25,157 -9,299 -103,412 -48,-23 -92,-43 -135,-63 -17,-8 -34,-14 -52,-21 -47,-20 -72,-52 -67,-107 6,-90 -8,-106 -95,-130 -13,-4 -28,-4 -39,-11 -19,-13 -34,-29 -52,-44 24,-20 45,-47 72,-56 19,-6 48,12 71,22 82,38 168,21 253,13 35,-3 51,-63 24,-99 -24,-32 -59,-57 -90,-84 -44,-39 -76,-82 -68,-141 z"
   id="path67" />
       </g>
      </g>
      <g
   class="com.sun.star.drawing.ClosedBezierShape"
   id="g77">
       <g
   id="id6">
        <rect
   class="BoundingBox"
   stroke="none"
   fill="none"
   x="5375"
   y="10994"
   width="499"
   height="471"
   id="rect72" />
        <path
   fill="#4dbf5e"
   stroke="none"
   d="m 5447,11463 c -55,0 -81,-29 -67,-74 22,-72 32,-142 17,-217 -9,-46 15,-79 64,-89 15,-4 31,-5 44,-13 60,-37 111,-23 162,21 43,37 81,23 102,-28 5,-15 5,-35 14,-43 17,-14 41,-29 59,-26 13,1 33,34 31,48 -20,110 -48,214 -156,274 -80,44 -156,93 -234,138 -13,7 -29,8 -36,9 z"
   id="path74" />
       </g>
      </g>
      <g
   class="com.sun.star.drawing.ClosedBezierShape"
   id="g84">
       <g
   id="id7">
        <rect
   class="BoundingBox"
   stroke="none"
   fill="none"
   x="4878"
   y="10841"
   width="331"
   height="801"
   id="rect79" />
        <path
   fill="#4dbf5e"
   stroke="none"
   d="m 4900,10841 c 108,166 189,340 232,529 16,69 27,137 65,199 10,17 7,42 10,63 -8,3 -17,6 -25,9 -14,-26 -38,-51 -41,-79 -9,-72 -42,-118 -109,-143 -51,-19 -75,-55 -72,-111 1,-25 -7,-52 -18,-74 -58,-125 -87,-252 -42,-393 z"
   id="path81" />
       </g>
      </g>
      <g
   class="com.sun.star.drawing.ClosedBezierShape"
   id="g91">
       <g
   id="id8">
        <rect
   class="BoundingBox"
   stroke="none"
   fill="none"
   x="4748"
   y="6488"
   width="500"
   height="119"
   id="rect86" />
        <path
   fill="#4dbf5e"
   stroke="none"
   d="m 4748,6576 c 62,-11 127,-40 186,-29 80,16 131,-27 194,-53 25,-11 64,-6 90,6 17,8 29,42 28,65 -1,15 -32,42 -45,40 -140,-29 -279,-14 -419,-3 -11,0 -22,-6 -32,-9 -1,-6 -1,-12 -2,-17 z"
   id="path88" />
       </g>
      </g>
      <g
   class="com.sun.star.drawing.ClosedBezierShape"
   id="g98">
       <g
   id="id9">
        <rect
   class="BoundingBox"
   stroke="none"
   fill="none"
   x="4458"
   y="6853"
   width="259"
   height="156"
   id="rect93" />
        <path
   fill="#4dbf5e"
   stroke="none"
   d="m 4531,6885 c 29,-8 58,-18 87,-24 21,-5 44,-11 64,-6 39,8 45,37 14,62 -41,30 -83,60 -128,83 -50,25 -108,-15 -110,-70 -2,-39 17,-52 73,-45 z"
   id="path95" />
       </g>
      </g>
      <g
   class="com.sun.star.drawing.ClosedBezierShape"
   id="g105">
       <g
   id="id10">
        <rect
   class="BoundingBox"
   stroke="none"
   fill="none"
   x="4613"
   y="10280"
   width="164"
   height="420"
   id="rect100" />
        <path
   fill="#4dbf5e"
   stroke="none"
   d="m 4727,10514 c -1,15 0,31 -4,46 -9,32 -1,56 31,73 11,7 24,30 21,40 -4,12 -26,26 -39,25 -10,-1 -24,-21 -29,-35 -15,-37 -30,-76 -40,-115 -20,-77 -37,-156 -53,-235 -2,-9 9,-22 15,-33 9,5 25,8 28,15 29,71 55,142 83,214 -4,1 -8,3 -13,5 z"
   id="path102" />
       </g>
      </g>
      <g
   class="com.sun.star.drawing.ClosedBezierShape"
   id="g112">
       <g
   id="id11">
        <rect
   class="BoundingBox"
   stroke="none"
   fill="none"
   x="4148"
   y="7067"
   width="155"
   height="143"
   id="rect107" />
        <path
   fill="#4dbf5e"
   stroke="none"
   d="m 4300,7208 c -46,-21 -87,-37 -125,-59 -13,-7 -29,-33 -25,-45 7,-15 28,-31 45,-35 58,-11 118,64 105,139 z"
   id="path109" />
       </g>
      </g>
      <g
   class="com.sun.star.drawing.ClosedBezierShape"
   id="g119">
       <g
   id="id12">
        <rect
   class="BoundingBox"
   stroke="none"
   fill="none"
   x="6497"
   y="6435"
   width="232"
   height="76"
   id="rect114" />
        <path
   fill="#4dbf5e"
   stroke="none"
   d="m 6728,6452 c -94,81 -170,76 -231,-17 79,6 150,11 231,17 z"
   id="path116" />
       </g>
      </g>
      <g
   class="com.sun.star.drawing.ClosedBezierShape"
   id="g126">
       <g
   id="id13">
        <rect
   class="BoundingBox"
   stroke="none"
   fill="none"
   x="6590"
   y="8681"
   width="141"
   height="172"
   id="rect121" />
        <path
   fill="#4dbf5e"
   stroke="none"
   d="m 6593,8852 c -9,-57 -2,-106 42,-143 26,-22 55,-39 94,-19 -46,53 -88,105 -136,162 z"
   id="path123" />
       </g>
      </g>
      <g
   class="com.sun.star.drawing.ClosedBezierShape"
   id="g133">
       <g
   id="id14">
        <rect
   class="BoundingBox"
   stroke="none"
   fill="none"
   x="5509"
   y="6350"
   width="200"
   height="85"
   id="rect128" />
        <path
   fill="#4dbf5e"
   stroke="none"
   d="m 5707,6407 c -73,48 -139,30 -198,-43 2,-5 3,-10 4,-14 61,17 122,35 194,57 z"
   id="path130" />
       </g>
      </g>
      <g
   class="com.sun.star.drawing.ClosedBezierShape"
   id="g140">
       <g
   id="id15">
        <rect
   class="BoundingBox"
   stroke="none"
   fill="none"
   x="4923"
   y="6686"
   width="75"
   height="53"
   id="rect135" />
        <path
   fill="#4dbf5e"
   stroke="none"
   d="m 4923,6718 c 25,-15 38,-25 54,-32 3,-1 13,15 20,22 -12,10 -23,23 -36,29 -6,3 -18,-8 -38,-19 z"
   id="path137" />
       </g>
      </g>
      <g
   class="com.sun.star.drawing.PolyPolygonShape"
   id="g147">
       <g
   id="id16">
        <rect
   class="BoundingBox"
   stroke="none"
   fill="none"
   x="8335"
   y="7934"
   width="1166"
   height="1930"
   id="rect142" />
        <path
   fill="#4c4d4e"
   stroke="none"
   d="M 8336,9863 V 7934 h 1164 v 231 h -894 v 582 h 794 v 229 h -794 v 887 z"
   id="path144" />
       </g>
      </g>
      <g
   class="com.sun.star.drawing.ClosedBezierShape"
   id="g154">
       <g
   id="id17">
        <rect
   class="BoundingBox"
   stroke="none"
   fill="none"
   x="9577"
   y="7888"
   width="1845"
   height="2018"
   id="rect149" />
        <path
   fill="#4c4d4e"
   stroke="none"
   d="m 9577,8897 c 0,-165 25,-311 74,-437 49,-126 116,-232 200,-316 85,-84 183,-148 296,-191 113,-42 232,-64 358,-64 124,0 242,22 352,64 110,43 207,107 291,191 83,84 150,190 199,316 49,126 74,272 74,437 0,165 -25,312 -74,438 -49,126 -116,231 -199,316 -84,84 -181,148 -291,190 -110,43 -228,64 -352,64 -126,0 -245,-21 -358,-64 -113,-42 -211,-106 -296,-190 -84,-85 -151,-190 -200,-316 -49,-126 -74,-273 -74,-438 z m 284,0 c 0,117 15,224 45,319 29,96 71,177 126,244 55,67 123,118 202,154 78,37 167,55 265,55 99,0 187,-18 265,-55 78,-36 144,-87 199,-154 54,-67 97,-148 126,-244 30,-95 45,-202 45,-319 0,-117 -15,-223 -45,-319 -29,-95 -72,-177 -126,-243 -55,-67 -121,-119 -199,-155 -78,-36 -166,-54 -265,-54 -98,0 -187,18 -265,54 -79,36 -147,88 -202,155 -55,66 -97,148 -126,243 -30,96 -45,202 -45,319 z"
   id="path151" />
       </g>
      </g>
      <g
   class="com.sun.star.drawing.ClosedBezierShape"
   id="g161">
       <g
   id="id18">
        <rect
   class="BoundingBox"
   stroke="none"
   fill="none"
   x="11506"
   y="7888"
   width="1304"
   height="2018"
   id="rect156" />
        <path
   fill="#4c4d4e"
   stroke="none"
   d="m 12101,9671 c 283,0 424,-96 424,-289 0,-59 -12,-110 -37,-152 -25,-41 -59,-78 -102,-108 -43,-31 -92,-57 -147,-81 -55,-22 -113,-44 -174,-66 -70,-24 -137,-52 -200,-82 -63,-31 -118,-67 -164,-109 -47,-42 -83,-91 -110,-149 -27,-57 -41,-127 -41,-209 0,-168 58,-300 173,-395 115,-94 274,-142 476,-142 117,0 224,13 319,38 96,25 166,52 211,82 l -87,220 c -39,-24 -97,-48 -174,-71 -77,-23 -167,-35 -269,-35 -52,0 -100,6 -145,17 -44,11 -83,28 -117,50 -33,22 -60,50 -79,85 -20,34 -29,74 -29,121 0,52 10,95 30,131 21,35 49,66 87,93 37,27 80,51 129,74 49,22 103,44 163,66 83,34 161,67 230,101 70,33 130,73 181,119 51,47 91,103 119,167 27,64 41,141 41,232 0,169 -61,299 -185,390 -123,91 -298,136 -523,136 -76,0 -146,-5 -210,-15 -64,-10 -121,-22 -171,-36 -50,-14 -93,-29 -129,-45 -36,-16 -65,-29 -85,-40 l 81,-223 c 42,24 107,51 194,81 88,30 194,44 320,44 z"
   id="path158" />
       </g>
      </g>
      <g
   class="com.sun.star.drawing.ClosedBezierShape"
   id="g168">
       <g
   id="id19">
        <rect
   class="BoundingBox"
   stroke="none"
   fill="none"
   x="12847"
   y="7888"
   width="1305"
   height="2018"
   id="rect163" />
        <path
   fill="#4c4d4e"
   stroke="none"
   d="m 13443,9671 c 283,0 424,-96 424,-289 0,-59 -13,-110 -38,-152 -25,-41 -59,-78 -101,-108 -43,-31 -93,-57 -147,-81 -55,-22 -113,-44 -174,-66 -71,-24 -138,-52 -201,-82 -63,-31 -118,-67 -164,-109 -46,-42 -83,-91 -110,-149 -27,-57 -40,-127 -40,-209 0,-168 57,-300 172,-395 115,-94 274,-142 476,-142 117,0 224,13 320,38 95,25 165,52 210,82 l -86,220 c -39,-24 -97,-48 -174,-71 -77,-23 -168,-35 -270,-35 -52,0 -100,6 -145,17 -44,11 -83,28 -116,50 -34,22 -60,50 -80,85 -19,34 -29,74 -29,121 0,52 10,95 31,131 20,35 49,66 86,93 37,27 80,51 129,74 49,22 104,44 163,66 84,34 161,67 231,101 69,33 130,73 181,119 51,47 90,103 118,167 28,64 42,141 42,232 0,169 -62,299 -185,390 -124,91 -299,136 -523,136 -76,0 -146,-5 -210,-15 -64,-10 -121,-22 -172,-36 -50,-14 -93,-29 -129,-45 -36,-16 -64,-29 -85,-40 l 81,-223 c 43,24 107,51 195,81 87,30 194,44 320,44 z"
   id="path165" />
       </g>
      </g>
      <g
   class="com.sun.star.drawing.ClosedBezierShape"
   id="g175">
       <g
   id="id20">
        <rect
   class="BoundingBox"
   stroke="none"
   fill="none"
   x="14292"
   y="7934"
   width="1446"
   height="1930"
   id="rect170" />
        <path
   fill="#4c4d4e"
   stroke="none"
   d="m 15531,7934 v 1159 h 206 v 339 h -206 v 431 h -407 v -431 h -832 v -303 c 40,-82 91,-174 153,-277 61,-103 129,-210 204,-318 75,-109 155,-215 238,-319 84,-104 167,-198 251,-281 z m -407,506 c -73,95 -150,198 -231,310 -82,112 -151,226 -206,343 h 437 z"
   id="path172" />
       </g>
      </g>
      <g
   class="com.sun.star.drawing.ClosedBezierShape"
   id="g182">
       <g
   id="id21">
        <rect
   class="BoundingBox"
   stroke="none"
   fill="none"
   x="15839"
   y="7889"
   width="1527"
   height="2014"
   id="rect177" />
        <path
   fill="#4c4d4e"
   stroke="none"
   d="m 17095,8913 h 270 v 903 c -22,8 -54,16 -96,25 -42,9 -90,19 -145,28 -55,9 -114,17 -179,24 -65,6 -131,9 -198,9 -135,0 -259,-22 -370,-66 -111,-45 -207,-110 -287,-195 -81,-86 -142,-190 -186,-315 -43,-124 -65,-267 -65,-429 0,-162 24,-305 74,-430 49,-125 116,-231 200,-316 83,-85 181,-150 293,-195 112,-44 233,-67 361,-67 87,0 164,6 232,17 68,11 126,24 174,39 48,15 88,30 118,45 31,14 52,26 63,33 l -87,225 c -53,-35 -125,-64 -214,-87 -89,-24 -180,-35 -273,-35 -98,0 -187,18 -268,53 -81,35 -149,86 -206,153 -57,67 -101,148 -132,243 -32,96 -48,203 -48,322 0,115 14,221 41,315 27,95 68,176 122,244 55,67 123,120 203,157 81,37 176,56 286,56 78,0 144,-5 199,-13 54,-8 94,-16 118,-24 z"
   id="path179" />
       </g>
      </g>
      <g
   class="com.sun.star.drawing.ClosedBezierShape"
   id="g189">
       <g
   id="id22">
        <rect
   class="BoundingBox"
   stroke="none"
   fill="none"
   x="9857"
   y="8122"
   width="660"
   height="666"
   id="rect184" />
        <path
   fill="#4dbf5e"
   stroke="none"
   d="m 10387,8786 c 0,0 -511,-532 -528,-623 -14,-69 64,-34 93,-18 29,16 394,209 564,174 z"
   id="path186" />
       </g>
      </g>
      <g
   class="com.sun.star.drawing.OpenBezierShape"
   id="g196">
       <g
   id="id23">
        <rect
   class="BoundingBox"
   stroke="none"
   fill="none"
   x="9841"
   y="8106"
   width="692"
   height="698"
   id="rect191" />
        <path
   fill="none"
   stroke="#050606"
   stroke-width="32"
   stroke-linejoin="round"
   stroke-linecap="round"
   d="m 10387,8786 c 0,0 -511,-532 -528,-623 -14,-69 64,-34 93,-18 29,16 394,209 564,174"
   id="path193" />
       </g>
      </g>
      <g
   class="com.sun.star.drawing.ClosedBezierShape"
   id="g203">
       <g
   id="id24">
        <rect
   class="BoundingBox"
   stroke="none"
   fill="none"
   x="9477"
   y="8130"
   width="1098"
   height="1167"
   id="rect198" />
        <path
   fill="#ffffff"
   stroke="none"
   d="m 9869,8131 704,673 c -25,25 -567,492 -567,492 -89,-31 -440,-453 -440,-453 -146,-162 -69,-261 -69,-261 z"
   id="path200" />
       </g>
      </g>
      <g
   class="com.sun.star.drawing.ClosedBezierShape"
   id="g210">
       <g
   id="id25">
        <rect
   class="BoundingBox"
   stroke="none"
   fill="none"
   x="10385"
   y="8418"
   width="1178"
   height="935"
   id="rect205" />
        <path
   fill="#4dbf5e"
   stroke="none"
   d="m 11562,8418 c -12,61 -110,348 -353,461 -370,169 -476,-29 -476,-29 l -348,34 24,186 c 120,329 520,305 756,247 364,-91 397,-238 397,-238 z"
   id="path207" />
       </g>
      </g>
      <g
   class="com.sun.star.drawing.ClosedBezierShape"
   id="g219">
       <g
   id="id26">
        <rect
   class="BoundingBox"
   stroke="none"
   fill="none"
   x="9461"
   y="8115"
   width="2119"
   height="1254"
   id="rect212" />
        <path
   fill="none"
   stroke="#050606"
   stroke-width="32"
   stroke-linejoin="round"
   stroke-linecap="round"
   d="m 11562,8418 c -12,61 -111,348 -354,460 -369,169 -475,-28 -475,-28 l -348,33 24,186 c 120,330 520,306 755,248 365,-91 398,-239 398,-239 z"
   id="path214" />
        <path
   fill="none"
   stroke="#050606"
   stroke-width="32"
   stroke-linejoin="round"
   stroke-linecap="round"
   d="m 9869,8131 703,672 c -25,25 -566,493 -566,493 -89,-31 -440,-454 -440,-454 -146,-161 -69,-260 -69,-260 z"
   id="path216" />
       </g>
      </g>
      <g
   class="com.sun.star.drawing.ClosedBezierShape"
   id="g226">
       <g
   id="id27">
        <rect
   class="BoundingBox"
   stroke="none"
   fill="none"
   x="10368"
   y="8241"
   width="524"
   height="835"
   id="rect221" />
        <path
   fill="#ffffff"
   stroke="none"
   d="m 10410,9075 c 0,0 -110,-594 25,-713 160,-140 391,-120 391,-120 0,0 70,560 64,574 -6,13 -368,24 -480,259 z"
   id="path223" />
       </g>
      </g>
      <g
   class="com.sun.star.drawing.ClosedBezierShape"
   id="g233">
       <g
   id="id28">
        <rect
   class="BoundingBox"
   stroke="none"
   fill="none"
   x="10352"
   y="8225"
   width="556"
   height="867"
   id="rect228" />
        <path
   fill="none"
   stroke="#050606"
   stroke-width="32"
   stroke-linejoin="round"
   stroke-linecap="round"
   d="m 10410,9075 c 0,0 -110,-594 25,-713 160,-140 391,-120 391,-120 0,0 70,560 64,574 -6,13 -368,24 -480,259 z"
   id="path230" />
       </g>
      </g>
      <g
   class="com.sun.star.drawing.PolyPolygonShape"
   id="g240">
       <g
   id="id29">
        <rect
   class="BoundingBox"
   stroke="none"
   fill="none"
   x="9783"
   y="10474"
   width="472"
   height="746"
   id="rect235" />
        <path
   fill="#4dbf5e"
   stroke="none"
   d="m 9783,11219 v -745 h 471 v 115 h -336 v 191 h 299 v 115 h -299 v 324 z"
   id="path237" />
       </g>
      </g>
      <g
   class="com.sun.star.drawing.PolyPolygonShape"
   id="g247">
       <g
   id="id30">
        <rect
   class="BoundingBox"
   stroke="none"
   fill="none"
   x="10428"
   y="10474"
   width="137"
   height="746"
   id="rect242" />
        <path
   fill="#4dbf5e"
   stroke="none"
   d="m 10428,10474 h 136 v 745 h -136 z"
   id="path244" />
       </g>
      </g>
      <g
   class="com.sun.star.drawing.ClosedBezierShape"
   id="g254">
       <g
   id="id31">
        <rect
   class="BoundingBox"
   stroke="none"
   fill="none"
   x="10795"
   y="10467"
   width="584"
   height="753"
   id="rect249" />
        <path
   fill="#4dbf5e"
   stroke="none"
   d="m 11000,10467 c 108,0 190,19 247,59 57,39 86,99 86,180 0,101 -51,169 -150,206 13,16 29,37 46,60 17,24 35,49 53,77 17,27 35,56 52,85 17,29 31,57 44,85 h -152 c -14,-26 -29,-52 -44,-78 -16,-26 -32,-51 -48,-76 -16,-25 -32,-48 -48,-70 -16,-22 -30,-41 -44,-58 -10,0 -18,1 -26,1 h -20 -65 v 281 h -136 v -734 c 33,-7 68,-12 105,-15 38,-2 71,-3 100,-3 z m 10,117 c -29,0 -55,1 -79,3 v 240 h 59 c 33,0 62,-1 87,-5 25,-4 46,-10 62,-19 17,-10 30,-22 38,-38 9,-16 13,-36 13,-60 0,-23 -4,-42 -13,-58 -8,-16 -20,-28 -37,-38 -16,-9 -35,-16 -57,-20 -22,-3 -47,-5 -73,-5 z"
   id="path251" />
       </g>
      </g>
      <g
   class="com.sun.star.drawing.PolyPolygonShape"
   id="g261">
       <g
   id="id32">
        <rect
   class="BoundingBox"
   stroke="none"
   fill="none"
   x="11536"
   y="10474"
   width="506"
   height="746"
   id="rect256" />
        <path
   fill="#4dbf5e"
   stroke="none"
   d="m 11536,11219 v -745 h 479 v 115 h -344 v 184 h 306 v 113 h -306 v 218 h 370 v 115 z"
   id="path258" />
       </g>
      </g>
      <g
   class="com.sun.star.drawing.ClosedBezierShape"
   id="g268">
       <g
   id="id33">
        <rect
   class="BoundingBox"
   stroke="none"
   fill="none"
   x="12219"
   y="10474"
   width="618"
   height="746"
   id="rect263" />
        <path
   fill="#4dbf5e"
   stroke="none"
   d="m 12721,11219 c -24,-41 -51,-85 -81,-131 -32,-47 -63,-95 -95,-142 -32,-48 -65,-94 -98,-139 -33,-45 -65,-86 -95,-121 v 533 h -133 v -745 h 110 c 29,30 60,66 93,107 33,41 66,84 99,128 33,45 65,90 97,135 32,45 59,86 84,125 v -495 h 134 v 745 z"
   id="path265" />
       </g>
      </g>
      <g
   class="com.sun.star.drawing.ClosedBezierShape"
   id="g275">
       <g
   id="id34">
        <rect
   class="BoundingBox"
   stroke="none"
   fill="none"
   x="13010"
   y="10474"
   width="565"
   height="746"
   id="rect270" />
        <path
   fill="#4dbf5e"
   stroke="none"
   d="m 13562,10574 c -24,26 -53,59 -86,100 -34,42 -69,86 -104,135 -36,49 -71,99 -106,150 -35,51 -66,99 -93,145 h 401 v 115 h -564 v -85 c 14,-26 31,-55 50,-86 19,-31 39,-63 61,-96 21,-33 43,-66 67,-100 24,-34 47,-66 70,-98 23,-31 45,-61 67,-89 22,-29 42,-54 62,-76 h -359 v -115 h 534 z"
   id="path272" />
       </g>
      </g>
      <g
   class="com.sun.star.drawing.PolyPolygonShape"
   id="g282">
       <g
   id="id35">
        <rect
   class="BoundingBox"
   stroke="none"
   fill="none"
   x="13752"
   y="10474"
   width="505"
   height="746"
   id="rect277" />
        <path
   fill="#4dbf5e"
   stroke="none"
   d="m 13752,11219 v -745 h 479 v 115 h -343 v 184 h 305 v 113 h -305 v 218 h 368 v 115 z"
   id="path279" />
       </g>
      </g>
      <g
   class="com.sun.star.drawing.ClosedBezierShape"
   id="g291">
       <g
   id="id36">
        <rect
   class="BoundingBox"
   stroke="none"
   fill="none"
   x="14804"
   y="10444"
   width="549"
   height="788"
   id="rect284" />
        <path
   fill="#4dbf5e"
   stroke="none"
   d="m 15317,10669 c 0,28 -5,54 -16,79 -11,25 -25,49 -42,72 -18,24 -37,46 -59,67 -21,22 -43,42 -63,62 -11,10 -23,21 -35,33 -13,13 -25,26 -36,39 -12,12 -22,25 -31,37 -9,11 -14,20 -16,27 h 321 v 134 h -497 c -2,-8 -3,-18 -3,-30 v -26 c 0,-34 6,-66 17,-94 11,-29 26,-56 44,-81 17,-25 38,-48 60,-69 23,-22 45,-43 67,-65 18,-16 34,-32 49,-47 15,-14 28,-29 39,-42 12,-14 21,-28 27,-42 7,-14 10,-28 10,-43 0,-31 -9,-53 -27,-66 -18,-13 -40,-20 -67,-20 -19,0 -37,3 -54,9 -17,7 -32,14 -46,22 -14,8 -26,16 -36,25 -10,8 -17,14 -22,19 l -80,-111 c 32,-29 68,-54 110,-73 42,-19 87,-28 135,-28 44,0 81,5 113,15 31,10 57,24 78,42 21,19 36,41 46,67 9,26 14,56 14,88 z"
   id="path286" />
        <path
   fill="none"
   stroke="#4dbf5e"
   stroke-width="24"
   stroke-linejoin="miter"
   d="m 15317,10669 c 0,28 -5,54 -16,79 -11,25 -25,49 -42,72 -18,24 -37,46 -59,67 -21,22 -43,42 -63,62 -11,10 -23,21 -35,33 -13,13 -25,26 -36,39 -12,12 -22,25 -31,37 -9,11 -14,20 -16,27 h 321 v 134 h -497 c -2,-8 -3,-18 -3,-30 v -26 c 0,-34 6,-66 17,-94 11,-29 26,-56 44,-81 17,-25 38,-48 60,-69 23,-22 45,-43 67,-65 18,-16 34,-32 49,-47 15,-14 28,-29 39,-42 12,-14 21,-28 27,-42 7,-14 10,-28 10,-43 0,-31 -9,-53 -27,-66 -18,-13 -40,-20 -67,-20 -19,0 -37,3 -54,9 -17,7 -32,14 -46,22 -14,8 -26,16 -36,25 -10,8 -17,14 -22,19 l -80,-111 c 32,-29 68,-54 110,-73 42,-19 87,-28 135,-28 44,0 81,5 113,15 31,10 57,24 78,42 21,19 36,41 46,67 9,26 14,56 14,88 z"
   id="path288" />
       </g>
      </g>
      <g
   class="com.sun.star.drawing.ClosedBezierShape"
   id="g302">
       <g
   id="id37">
        <rect
   class="BoundingBox"
   stroke="none"
   fill="none"
   x="15470"
   y="10445"
   width="564"
   height="802"
   id="rect293" />
        <path
   fill="#4dbf5e"
   stroke="none"
   d="m 16021,10845 c 0,126 -24,222 -71,289 -48,67 -113,100 -198,100 -84,0 -150,-33 -197,-100 -48,-67 -72,-163 -72,-289 0,-62 7,-117 19,-165 13,-48 31,-88 54,-121 24,-33 52,-58 85,-75 33,-18 70,-27 111,-27 85,0 150,34 198,101 47,67 71,163 71,287 z m -163,0 c 0,-37 -2,-71 -5,-101 -4,-30 -10,-57 -17,-79 -8,-22 -19,-39 -34,-51 -13,-13 -30,-19 -50,-19 -20,0 -37,6 -50,19 -13,12 -24,29 -32,51 -8,22 -14,49 -18,79 -4,30 -5,64 -5,101 0,38 1,72 5,102 4,31 10,58 18,80 8,22 19,39 32,51 13,13 30,19 50,19 20,0 37,-6 50,-19 15,-12 26,-29 34,-51 7,-22 13,-49 17,-80 3,-30 5,-64 5,-102 z"
   id="path295" />
        <path
   fill="none"
   stroke="#4dbf5e"
   stroke-width="24"
   stroke-linejoin="miter"
   d="m 16021,10845 c 0,126 -24,222 -71,289 -48,67 -113,100 -198,100 -84,0 -150,-33 -197,-100 -48,-67 -72,-163 -72,-289 0,-62 7,-117 19,-165 13,-48 31,-88 54,-121 24,-33 52,-58 85,-75 33,-18 70,-27 111,-27 85,0 150,34 198,101 47,67 71,163 71,287 z"
   id="path297" />
        <path
   fill="none"
   stroke="#4dbf5e"
   stroke-width="24"
   stroke-linejoin="miter"
   d="m 15858,10845 c 0,-37 -2,-71 -5,-101 -4,-30 -10,-57 -17,-79 -8,-22 -19,-39 -34,-51 -13,-13 -30,-19 -50,-19 -20,0 -37,6 -50,19 -13,12 -24,29 -32,51 -8,22 -14,49 -18,79 -4,30 -5,64 -5,101 0,38 1,72 5,102 4,31 10,58 18,80 8,22 19,39 32,51 13,13 30,19 50,19 20,0 37,-6 50,-19 15,-12 26,-29 34,-51 7,-22 13,-49 17,-80 3,-30 5,-64 5,-102 z"
   id="path299" />
       </g>
      </g>
      <g
   class="com.sun.star.drawing.ClosedBezierShape"
   id="g311">
       <g
   id="id38">
        <rect
   class="BoundingBox"
   stroke="none"
   fill="none"
   x="16132"
   y="10444"
   width="547"
   height="788"
   id="rect304" />
        <path
   fill="#4dbf5e"
   stroke="none"
   d="m 16644,10669 c 0,28 -5,54 -16,79 -11,25 -25,49 -42,72 -17,24 -37,46 -58,67 -21,22 -43,42 -63,62 -11,10 -23,21 -35,33 -13,13 -25,26 -36,39 -12,12 -22,25 -31,37 -9,11 -14,20 -16,27 h 319 v 134 h -497 c -1,-8 -2,-18 -2,-30 v -26 c 0,-34 6,-66 17,-94 11,-29 26,-56 43,-81 18,-25 39,-48 62,-69 23,-22 45,-43 67,-65 17,-16 33,-32 48,-47 16,-14 29,-29 40,-42 12,-14 21,-28 27,-42 7,-14 10,-28 10,-43 0,-31 -9,-53 -27,-66 -18,-13 -40,-20 -67,-20 -19,0 -37,3 -54,9 -17,7 -32,14 -46,22 -15,8 -27,16 -37,25 -10,8 -18,14 -23,19 l -79,-111 c 31,-29 68,-54 110,-73 43,-19 88,-28 136,-28 43,0 81,5 113,15 31,10 57,24 77,42 21,19 36,41 45,67 10,26 15,56 15,88 z"
   id="path306" />
        <path
   fill="none"
   stroke="#4dbf5e"
   stroke-width="24"
   stroke-linejoin="miter"
   d="m 16644,10669 c 0,28 -5,54 -16,79 -11,25 -25,49 -42,72 -17,24 -37,46 -58,67 -21,22 -43,42 -63,62 -11,10 -23,21 -35,33 -13,13 -25,26 -36,39 -12,12 -22,25 -31,37 -9,11 -14,20 -16,27 h 319 v 134 h -497 c -1,-8 -2,-18 -2,-30 v -26 c 0,-34 6,-66 17,-94 11,-29 26,-56 43,-81 18,-25 39,-48 62,-69 23,-22 45,-43 67,-65 17,-16 33,-32 48,-47 16,-14 29,-29 40,-42 12,-14 21,-28 27,-42 7,-14 10,-28 10,-43 0,-31 -9,-53 -27,-66 -18,-13 -40,-20 -67,-20 -19,0 -37,3 -54,9 -17,7 -32,14 -46,22 -15,8 -27,16 -37,25 -10,8 -18,14 -23,19 l -79,-111 c 31,-29 68,-54 110,-73 43,-19 88,-28 136,-28 43,0 81,5 113,15 31,10 57,24 77,42 21,19 36,41 45,67 10,26 15,56 15,88 z"
   id="path308" />
       </g>
      </g>
      <g
   class="com.sun.star.drawing.ClosedBezierShape"
   id="g320">
       <g
   id="id39">
        <rect
   class="BoundingBox"
   stroke="none"
   fill="none"
   x="16794"
   y="10444"
   width="549"
   height="788"
   id="rect313" />
        <path
   fill="#4dbf5e"
   stroke="none"
   d="m 17306,10669 c 0,28 -5,54 -16,79 -11,25 -24,49 -42,72 -17,24 -36,46 -58,67 -21,22 -42,42 -63,62 -11,10 -22,21 -35,33 -12,13 -24,26 -36,39 -11,12 -21,25 -30,37 -9,11 -15,20 -17,27 h 321 v 134 h -497 c -2,-8 -2,-18 -2,-30 v -26 c 0,-34 5,-66 16,-94 11,-29 26,-56 44,-81 18,-25 38,-48 61,-69 22,-22 44,-43 67,-65 17,-16 33,-32 48,-47 15,-14 28,-29 40,-42 11,-14 20,-28 27,-42 6,-14 9,-28 9,-43 0,-31 -9,-53 -27,-66 -18,-13 -40,-20 -66,-20 -20,0 -38,3 -54,9 -17,7 -33,14 -47,22 -14,8 -26,16 -36,25 -10,8 -17,14 -22,19 l -80,-111 c 32,-29 69,-54 110,-73 42,-19 87,-28 135,-28 44,0 81,5 113,15 31,10 57,24 78,42 20,19 35,41 45,67 10,26 14,56 14,88 z"
   id="path315" />
        <path
   fill="none"
   stroke="#4dbf5e"
   stroke-width="24"
   stroke-linejoin="miter"
   d="m 17306,10669 c 0,28 -5,54 -16,79 -11,25 -24,49 -42,72 -17,24 -36,46 -58,67 -21,22 -42,42 -63,62 -11,10 -22,21 -35,33 l -36,39 c -11,12 -21,25 -30,37 -9,11 -15,20 -17,27 h 321 v 134 h -497 c -2,-8 -2,-18 -2,-30 v -26 c 0,-34 5,-66 16,-94 11,-29 26,-56 44,-81 18,-25 38,-48 61,-69 22,-22 44,-43 67,-65 17,-16 33,-32 48,-47 15,-14 28,-29 40,-42 11,-14 20,-28 27,-42 6,-14 9,-28 9,-43 0,-31 -9,-53 -27,-66 -18,-13 -40,-20 -66,-20 -20,0 -38,3 -54,9 -17,7 -33,14 -47,22 -14,8 -26,16 -36,25 -10,8 -17,14 -22,19 l -80,-111 c 32,-29 69,-54 110,-73 42,-19 87,-28 135,-28 44,0 81,5 113,15 31,10 57,24 78,42 20,19 35,41 45,67 10,26 14,56 14,88 z"
   id="path317" />
       </g>
      </g>
      <g
   class="com.sun.star.drawing.ClosedBezierShape"
   id="g327">
       <g
   id="id40">
        <rect
   class="BoundingBox"
   stroke="none"
   fill="none"
   x="10733"
   y="7915"
   width="689"
   height="1965"
   id="rect322" />
        <path
   fill="#4c4d4e"
   stroke="none"
   d="m 11347,8460 c -50,-126 -117,-232 -200,-316 -84,-84 -181,-148 -291,-191 -40,-15 -81,-28 -123,-38 v 252 c 10,4 20,9 30,13 78,36 144,88 199,155 55,66 97,148 126,243 30,96 45,202 45,320 0,117 -15,223 -45,318 -29,96 -71,177 -126,244 -55,67 -121,118 -199,154 -10,5 -20,9 -30,13 v 252 c 42,-10 83,-22 123,-38 110,-43 207,-106 291,-190 83,-85 150,-190 200,-316 49,-127 74,-272 74,-437 0,-166 -25,-312 -74,-438 z"
   id="path324" />
       </g>
      </g>
     </g>
    </g>
   </g>
  </g>
 </g>
</svg>
