<svg width="961" height="1162" viewBox="0 0 961 1162" fill="none" xmlns="http://www.w3.org/2000/svg">
<mask id="mask0_86_15" style="mask-type:luminance" maskUnits="userSpaceOnUse" x="77" y="93" width="809" height="784">
<path d="M86.508 506.831C73.8307 494.543 73.8307 474.621 86.508 462.333L458.046 102.216C470.723 89.9281 491.277 89.9281 503.955 102.216L875.493 462.333C888.171 474.621 888.171 494.543 875.493 506.831L503.955 866.947C491.277 879.235 470.723 879.235 458.046 866.947L86.508 506.831Z" fill="white"/>
</mask>
<g mask="url(#mask0_86_15)">
<path fill-rule="evenodd" clip-rule="evenodd" d="M86.0551 470.23C74.6139 481.49 74.6139 499.747 86.0551 511.007L460.282 879.318C470.396 889.273 486.067 890.427 497.47 882.781L464.022 876.566C464.022 876.566 453.033 859.129 448.211 851.272C434.932 830.799 417.001 797.906 404.102 774.243L404.1 774.238L404.096 774.231C399.098 765.062 394.855 757.279 391.932 752.144C385.003 740.923 380.68 734.145 377.276 728.808L377.275 728.807C368.513 715.07 365.838 710.877 340.48 665.012C336.048 656.995 331.896 649.514 327.992 642.48L327.984 642.468L327.974 642.447L327.966 642.434C291.932 577.514 277.061 550.719 258.255 492.342C237.408 427.628 234.577 395.758 239.066 404.923C258.645 444.898 277.159 473.62 300.734 510.195C324.781 547.502 354.092 592.976 395.171 666.893C385.282 614.675 377.344 553.483 375.362 486.469C436.799 595.365 468.546 861.303 468.546 861.303C468.546 861.303 474.33 654.056 481.189 506.415C475.605 499.857 470.951 491.168 475.158 484.711C478.71 479.261 476.653 474.055 474.472 468.532C472.879 464.498 471.219 460.295 471.627 455.705C473.014 440.1 466.218 426.561 461.823 417.805C460.713 415.593 459.757 413.687 459.124 412.13C458.387 410.316 457.276 408.177 456.035 405.788C451.994 398.005 446.575 387.571 448.208 377.096C450.005 365.583 448.357 359.113 446.742 352.779C446.437 351.582 446.133 350.388 445.854 349.168C444.766 344.408 449.28 341.193 452.847 338.652C455.035 337.093 456.867 335.789 456.829 334.537C456.79 333.222 454.88 330.107 452.578 326.355C449.115 320.71 444.769 313.626 444.582 309.064C444.39 304.397 446.544 299.91 448.473 295.888L448.474 295.887C449.685 293.361 450.809 291.02 451.209 288.933C451.686 286.442 450.969 279.694 450.233 272.764C449.368 264.629 448.478 256.241 449.46 254.192C450.211 252.626 449.994 248.777 449.764 244.693C449.437 238.875 449.082 232.58 451.457 231.722C453.999 230.803 458.698 234.82 463.018 238.513C465.567 240.693 467.984 242.759 469.748 243.632L469.919 243.716C475.25 246.352 484.737 251.042 488.376 267.308C492.997 271.282 503.147 281.892 506.456 289.365C509.763 296.838 506.64 326.158 506.64 326.158C507.807 330.212 511.628 334.856 515.465 339.519C520.043 345.082 524.642 350.672 524.779 355.317C527.376 362.729 525.798 389.762 525.798 389.762C525.798 389.762 524.478 408.46 519.538 414.27C514.599 420.08 515.564 435.741 517.054 443.168C518.544 450.596 510.67 462.46 510.67 462.46C510.67 462.46 509.386 478.53 506.811 487.481C505.124 493.342 498.394 503.132 493.948 509.194C492.334 573.984 489.726 649.809 487.312 714.434C492.593 702.807 494.371 699.969 500.786 689.725C503.554 685.303 507.186 679.5 512.338 671.018C520.222 658.033 531.402 641.067 542.547 624.155L542.548 624.154C560.036 597.616 577.435 571.212 581.866 560.545C583.095 557.587 584.516 554.274 586.045 550.709C593.546 533.221 603.653 509.664 606.4 492.145C613.734 521.199 613.839 558.447 608.923 577.457C604.006 596.467 574.685 647.784 558.91 669.604C556.281 673.239 553.318 677.293 550.106 681.688L550.08 681.724L550.078 681.726L550.077 681.728L550.076 681.729C531.196 707.56 503.713 745.16 484.827 778.99C482.89 827.962 481.471 860.911 481.471 860.911C481.471 860.911 499.793 784.496 559.181 695.58C618.569 606.666 679.629 494.798 685.574 477.052C691.517 459.306 711.109 398.325 681.378 335.19C711.592 364.154 739.047 434.442 726.043 482.654C713.039 530.867 666.644 621.08 634.521 668.896C540.478 808.891 499.011 874.363 498.204 882.272C499.432 881.393 500.606 880.408 501.713 879.318L875.94 511.007C887.381 499.746 887.381 481.49 875.94 470.23L501.714 101.919C490.273 90.6585 471.723 90.6585 460.282 101.919L86.0551 470.23Z" fill="#4CB05B" stroke="#4CB05B" stroke-width="0.968576"/>
</g>
<path d="M276.72 942.822L293.22 925.822C268.82 899.822 229.22 904.822 216.22 910.322C196.72 918.572 186.554 933.822 181.22 942.822C169.22 964.422 171.554 999.488 174.22 1014.32C179.42 1039.92 195.054 1054.32 202.22 1058.32C221.02 1068.32 248.387 1067.82 259.72 1066.32C276.92 1062.32 289.22 1055.32 293.22 1052.32V975.822H238.22L239.72 1000.32H262.22V1038.32C250.62 1045.12 235.387 1043.49 229.22 1041.82C219.72 1037.82 214.22 1031.82 211.72 1026.32C209.22 1020.82 204.72 1013.32 205.72 982.322C206.52 957.522 214.054 945.655 217.72 942.822C238.22 920.822 265.054 933.322 276.72 942.822Z" fill="#4CB05B" stroke="#4CB05B" stroke-width="2"/>
<path fill-rule="evenodd" clip-rule="evenodd" d="M306.721 910.821V1064.82H335.721V1003.82H354.221L388.221 1064.82H423.721L384.221 997.821C393.054 993.488 411.121 981.521 412.721 968.321C414.321 955.121 413.387 945.821 412.721 942.821C411.221 934.821 402.821 917.621 381.221 912.821L369.221 910.821H306.721ZM337.721 931.821V978.321H368.221C383.221 971.321 392.721 943.821 367.721 932.321L337.721 931.821Z" fill="#4CB05B" stroke="#4CB05B"/>
<path d="M306.721 1064.82H305.721V1065.82H306.721V1064.82ZM306.721 910.821V909.821H305.721V910.821H306.721ZM335.721 1064.82V1065.82H336.721V1064.82H335.721ZM335.721 1003.82V1002.82H334.721V1003.82H335.721ZM354.221 1003.82L355.094 1003.33L354.808 1002.82H354.221V1003.82ZM388.221 1064.82L387.347 1065.31L387.633 1065.82H388.221V1064.82ZM423.721 1064.82V1065.82H425.471L424.582 1064.31L423.721 1064.82ZM384.221 997.821L383.78 996.924L382.811 997.399L383.359 998.329L384.221 997.821ZM412.721 942.821L411.738 943.005L411.741 943.022L411.744 943.038L412.721 942.821ZM381.221 912.821L381.438 911.845L381.411 911.839L381.385 911.835L381.221 912.821ZM369.221 910.821L369.385 909.835L369.303 909.821H369.221V910.821ZM337.721 978.321H336.721V979.321H337.721V978.321ZM337.721 931.821L337.737 930.821L336.721 930.805V931.821H337.721ZM368.221 978.321V979.321H368.443L368.644 979.227L368.221 978.321ZM367.721 932.321L368.139 931.413L367.948 931.325L367.737 931.321L367.721 932.321ZM307.721 1064.82V910.821H305.721V1064.82H307.721ZM335.721 1063.82H306.721V1065.82H335.721V1063.82ZM334.721 1003.82V1064.82H336.721V1003.82H334.721ZM354.221 1002.82H335.721V1004.82H354.221V1002.82ZM389.094 1064.33L355.094 1003.33L353.347 1004.31L387.347 1065.31L389.094 1064.33ZM423.721 1063.82H388.221V1065.82H423.721V1063.82ZM383.359 998.329L422.859 1065.33L424.582 1064.31L385.082 997.313L383.359 998.329ZM411.728 968.201C410.974 974.425 406.294 980.506 400.518 985.65C394.777 990.762 388.131 994.789 383.78 996.924L384.661 998.719C389.144 996.52 395.948 992.397 401.848 987.143C407.714 981.92 412.868 975.418 413.713 968.442L411.728 968.201ZM411.744 943.038C412.38 945.9 413.318 955.082 411.728 968.201L413.713 968.442C415.323 955.161 414.394 945.742 413.697 942.604L411.744 943.038ZM381.004 913.798C402.114 918.489 410.291 935.289 411.738 943.005L413.704 942.637C412.15 934.354 403.527 916.754 381.438 911.845L381.004 913.798ZM369.056 911.808L381.056 913.808L381.385 911.835L369.385 909.835L369.056 911.808ZM306.721 911.821H369.221V909.821H306.721V911.821ZM338.721 978.321V931.821H336.721V978.321H338.721ZM368.221 977.321H337.721V979.321H368.221V977.321ZM367.303 933.23C373.388 936.029 377.308 939.769 379.581 943.862C381.856 947.958 382.518 952.475 381.978 956.887C380.891 965.762 374.959 974.073 367.798 977.415L368.644 979.227C376.482 975.57 382.8 966.631 383.963 957.13C384.548 952.355 383.836 947.404 381.329 942.89C378.821 938.374 374.553 934.363 368.139 931.413L367.303 933.23ZM337.704 932.821L367.704 933.321L367.737 931.321L337.737 930.821L337.704 932.821Z" fill="#4CB05B"/>
<path d="M305.721 1064.82H306.721V1065.82M305.721 1064.82V1065.82H306.721M305.721 1064.82V910.821M305.721 1064.82H307.721V910.821H305.721M306.721 1065.82V1063.82H335.721V1065.82M306.721 1065.82H335.721M306.721 909.821V910.821H305.721M306.721 909.821H305.721V910.821M306.721 909.821H369.221M306.721 909.821V911.821H369.221V909.821M335.721 1065.82V1064.82H336.721M335.721 1065.82H336.721V1064.82M336.721 1064.82H334.721V1003.82M336.721 1064.82V1003.82H334.721M335.721 1002.82V1003.82H334.721M335.721 1002.82H334.721V1003.82M335.721 1002.82H354.221M335.721 1002.82V1004.82H354.221V1002.82M355.094 1003.33L354.221 1003.82V1002.82M355.094 1003.33L354.808 1002.82H354.221M355.094 1003.33L389.094 1064.33L387.347 1065.31M355.094 1003.33L353.347 1004.31L387.347 1065.31M387.347 1065.31L388.221 1064.82V1065.82M387.347 1065.31L387.633 1065.82H388.221M388.221 1065.82V1063.82H423.721V1065.82M388.221 1065.82H423.721M423.721 1065.82V1064.82L424.582 1064.31M423.721 1065.82H425.471L424.582 1064.31M424.582 1064.31L422.859 1065.33L383.359 998.329M424.582 1064.31L385.082 997.313L383.359 998.329M383.78 996.924L384.221 997.821L383.359 998.329M383.78 996.924L382.811 997.399L383.359 998.329M383.78 996.924C388.131 994.789 394.777 990.762 400.518 985.65C406.294 980.506 410.974 974.425 411.728 968.201M383.78 996.924L384.661 998.719C389.144 996.52 395.948 992.397 401.848 987.143C407.714 981.92 412.868 975.418 413.713 968.442M412.721 968.321L413.713 968.442M413.713 968.442L411.728 968.201M413.713 968.442C415.323 955.161 414.394 945.742 413.697 942.604L411.744 943.038M411.738 943.005L412.721 942.821L411.744 943.038M411.738 943.005L411.741 943.022L411.744 943.038M411.738 943.005C410.291 935.289 402.114 918.489 381.004 913.798L381.438 911.845M411.738 943.005L413.704 942.637C412.15 934.354 403.527 916.754 381.438 911.845M411.744 943.038C412.38 945.9 413.318 955.082 411.728 968.201M381.438 911.845L381.221 912.821L381.385 911.835M381.438 911.845L381.411 911.839L381.385 911.835M381.385 911.835L381.056 913.808L369.056 911.808L369.385 909.835M381.385 911.835L369.385 909.835M369.385 909.835L369.221 910.821V909.821M369.385 909.835L369.303 909.821H369.221M336.721 978.321H337.721V979.321M336.721 978.321V979.321H337.721M336.721 978.321V931.821M336.721 978.321H338.721V931.821H336.721M337.721 979.321V977.321H368.221V979.321M337.721 979.321H368.221M337.737 930.821L337.721 931.821H336.721M337.737 930.821L336.721 930.805V931.821M337.737 930.821L367.737 931.321M337.737 930.821L337.704 932.821L367.704 933.321L367.737 931.321M368.221 979.321V978.321L368.644 979.227M368.221 979.321H368.443L368.644 979.227M368.644 979.227L367.798 977.415C374.959 974.073 380.891 965.762 381.978 956.887C382.518 952.475 381.856 947.958 379.581 943.862C377.308 939.769 373.388 936.029 367.303 933.23L368.139 931.413M368.644 979.227C376.482 975.57 382.8 966.631 383.963 957.13C384.548 952.355 383.836 947.404 381.329 942.89C378.821 938.374 374.553 934.363 368.139 931.413M368.139 931.413L367.721 932.321L367.737 931.321M368.139 931.413L367.948 931.325L367.737 931.321" stroke="#4CB05B"/>
<path fill-rule="evenodd" clip-rule="evenodd" d="M423.221 1064.82H451.221L461.721 1029.32H509.721L520.221 1064.82H553.221L505.721 909.821H467.721L418.721 1064.82H423.221ZM467.721 1005.32H504.221L485.721 939.821L467.721 1005.32Z" fill="#4CB05B" stroke="#4CB05B"/>
<path d="M451.221 1064.82V1065.82H451.968L452.18 1065.1L451.221 1064.82ZM461.721 1029.32V1028.32H460.974L460.762 1029.04L461.721 1029.32ZM509.721 1029.32L510.68 1029.04L510.468 1028.32H509.721V1029.32ZM520.221 1064.82L519.262 1065.1L519.474 1065.82H520.221V1064.82ZM553.221 1064.82V1065.82H554.573L554.177 1064.53L553.221 1064.82ZM505.721 909.821L506.677 909.528L506.46 908.821H505.721V909.821ZM467.721 909.821V908.821H466.988L466.767 909.52L467.721 909.821ZM418.721 1064.82L417.767 1064.52L417.356 1065.82H418.721V1064.82ZM504.221 1005.32V1006.32H505.542L505.183 1005.05L504.221 1005.32ZM467.721 1005.32L466.756 1005.06L466.409 1006.32H467.721V1005.32ZM485.721 939.821L486.683 939.55L485.707 936.096L484.756 939.556L485.721 939.821ZM451.221 1063.82H423.221V1065.82H451.221V1063.82ZM460.762 1029.04L450.262 1064.54L452.18 1065.1L462.68 1029.6L460.762 1029.04ZM509.721 1028.32H461.721V1030.32H509.721V1028.32ZM521.18 1064.54L510.68 1029.04L508.762 1029.6L519.262 1065.1L521.18 1064.54ZM553.221 1063.82H520.221V1065.82H553.221V1063.82ZM504.765 910.114L552.265 1065.11L554.177 1064.53L506.677 909.528L504.765 910.114ZM467.721 910.821H505.721V908.821H467.721V910.821ZM419.674 1065.12L468.674 910.123L466.767 909.52L417.767 1064.52L419.674 1065.12ZM423.221 1063.82H418.721V1065.82H423.221V1063.82ZM504.221 1004.32H467.721V1006.32H504.221V1004.32ZM484.758 940.093L503.258 1005.59L505.183 1005.05L486.683 939.55L484.758 940.093ZM468.685 1005.59L486.685 940.086L484.756 939.556L466.756 1005.06L468.685 1005.59Z" fill="#4CB05B"/>
<path d="M451.221 1065.82V1064.82L452.18 1065.1M451.221 1065.82H451.968L452.18 1065.1M451.221 1065.82H423.221M451.221 1065.82V1063.82H423.221M452.18 1065.1L450.262 1064.54L460.762 1029.04M452.18 1065.1L462.68 1029.6L460.762 1029.04M461.721 1028.32V1029.32L460.762 1029.04M461.721 1028.32H460.974L460.762 1029.04M461.721 1028.32H509.721M461.721 1028.32V1030.32H509.721V1028.32M510.68 1029.04L509.721 1029.32V1028.32M510.68 1029.04L510.468 1028.32H509.721M510.68 1029.04L521.18 1064.54L519.262 1065.1M510.68 1029.04L508.762 1029.6L519.262 1065.1M519.262 1065.1L520.221 1064.82V1065.82M519.262 1065.1L519.474 1065.82H520.221M520.221 1065.82V1063.82H553.221V1065.82M520.221 1065.82H553.221M553.221 1065.82V1064.82L554.177 1064.53M553.221 1065.82H554.573L554.177 1064.53M554.177 1064.53L552.265 1065.11L504.765 910.114L506.677 909.528M554.177 1064.53L506.677 909.528M506.677 909.528L505.721 909.821V908.821M506.677 909.528L506.46 908.821H505.721M505.721 908.821V910.821H467.721V908.821M505.721 908.821H467.721M467.721 908.821V909.821L466.767 909.52M467.721 908.821H466.988L466.767 909.52M466.767 909.52L468.674 910.123L419.674 1065.12L417.767 1064.52M466.767 909.52L417.767 1064.52M417.767 1064.52L418.721 1064.82V1065.82M417.767 1064.52L417.356 1065.82H418.721M418.721 1065.82V1063.82H423.221M418.721 1065.82H423.221M504.221 1006.32V1005.32L505.183 1005.05M504.221 1006.32H505.542L505.183 1005.05M504.221 1006.32H467.721M504.221 1006.32V1004.32H467.721V1006.32M505.183 1005.05L503.258 1005.59L484.758 940.093L486.683 939.55M505.183 1005.05L486.683 939.55M466.756 1005.06L467.721 1005.32V1006.32M466.756 1005.06L466.409 1006.32H467.721M466.756 1005.06L484.756 939.556M466.756 1005.06L468.685 1005.59L486.685 940.086L484.756 939.556M486.683 939.55L485.721 939.821L484.756 939.556M486.683 939.55L485.707 936.096L484.756 939.556M423.221 1063.82V1065.82" stroke="#4CB05B"/>
<path d="M770.721 943.335L786.221 926.335C773.821 913.935 756.387 908.501 749.221 907.335C724.021 902.935 708.387 909.168 703.721 912.835C690.521 919.235 683.221 934.835 681.221 941.835C678.821 959.835 685.221 970.668 688.721 973.835C691.921 980.235 704.387 987.835 710.221 990.835L751.221 1006.83C759.621 1013.23 759.054 1023.83 757.721 1028.33C753.721 1037.53 744.721 1041.17 740.721 1041.83C733.921 1044.23 721.887 1042.83 716.721 1041.83C708.321 1041.03 695.887 1032.5 690.721 1028.33L674.721 1046.83C687.521 1056.83 701.054 1063.33 706.221 1065.33C724.721 1069.83 743.721 1068.33 749.221 1067.33C754.721 1066.33 775.721 1057.83 783.221 1045.33C790.721 1032.83 792.221 1012.33 786.221 998.835C781.421 988.035 768.554 980.335 762.721 977.835L730.221 965.835C716.621 961.035 714.221 951.821 714.221 949.335C714.221 947.321 715.824 941.15 716.221 940.321C719.031 934.447 726.721 931.821 729.221 931.321C731.721 930.821 739.621 930.735 747.221 932.335C754.821 933.935 766.054 940.335 770.721 943.335Z" fill="#4CB05B" stroke="#4CB05B" stroke-width="2"/>
<path d="M650.721 943.335L666.221 926.335C653.821 913.935 636.387 908.501 629.221 907.335C604.021 902.935 588.387 909.168 583.721 912.835C570.521 919.235 563.221 934.835 561.221 941.835C558.821 959.835 565.221 970.668 568.721 973.835C571.921 980.235 584.387 987.835 590.221 990.835L631.221 1006.83C639.621 1013.23 639.054 1023.83 637.721 1028.33C633.721 1037.53 624.721 1041.17 620.721 1041.83C613.921 1044.23 601.887 1042.83 596.721 1041.83C588.321 1041.03 575.887 1032.5 570.721 1028.33L554.721 1046.83C567.521 1056.83 581.054 1063.33 586.221 1065.33C604.721 1069.83 623.721 1068.33 629.221 1067.33C634.721 1066.33 655.721 1057.83 663.221 1045.33C670.721 1032.83 672.221 1012.33 666.221 998.835C661.421 988.035 648.554 980.335 642.721 977.835L610.221 965.835C596.621 961.035 594.221 951.821 594.221 949.335C594.221 947.321 595.824 941.15 596.221 940.321C599.031 934.447 606.721 931.821 609.221 931.321C611.721 930.821 619.621 930.735 627.221 932.335C634.821 933.935 646.054 940.335 650.721 943.335Z" fill="#4CB05B" stroke="#4CB05B" stroke-width="2"/>
</svg>
