<?xml version="1.0" encoding="UTF-8" standalone="no"?>
<!-- Created with Inkscape (http://www.inkscape.org/) -->

<svg
   width="210mm"
   height="297mm"
   viewBox="0 0 210 297"
   version="1.1"
   id="svg417"
   inkscape:version="1.2.2 (b0a8486541, 2022-12-01)"
   sodipodi:docname="grass-docker-logo2.svg"
   xmlns:inkscape="http://www.inkscape.org/namespaces/inkscape"
   xmlns:sodipodi="http://sodipodi.sourceforge.net/DTD/sodipodi-0.dtd"
   xmlns="http://www.w3.org/2000/svg"
   xmlns:svg="http://www.w3.org/2000/svg">
  <sodipodi:namedview
     id="namedview419"
     pagecolor="#ffffff"
     bordercolor="#666666"
     borderopacity="1.0"
     inkscape:showpageshadow="2"
     inkscape:pageopacity="0.0"
     inkscape:pagecheckerboard="0"
     inkscape:deskcolor="#d1d1d1"
     inkscape:document-units="mm"
     showgrid="false"
     inkscape:zoom="0.2014803"
     inkscape:cx="1007.5427"
     inkscape:cy="178.67752"
     inkscape:window-width="1920"
     inkscape:window-height="1029"
     inkscape:window-x="0"
     inkscape:window-y="27"
     inkscape:window-maximized="1"
     inkscape:current-layer="layer1" />
  <defs
     id="defs414" />
  <g
     inkscape:label="Layer 1"
     inkscape:groupmode="layer"
     id="layer1">
    <path
       d="m 133.33285,98.526225 h 59.08166 v 60.396835 h 29.87157 c 13.7976,0 27.98537,-2.45722 41.04917,-6.88331 6.4208,-2.17816 13.62449,-5.2064 19.95744,-9.01753 -8.34058,-10.88823 -12.59872,-24.63674 -13.84929,-38.18889 -1.70532,-18.435563 2.01539,-42.428931 14.49008,-56.85699 l 6.2115,-7.183024 7.40007,5.950541 c 18.63194,14.968078 34.30281,35.886698 37.06492,59.732783 22.43532,-6.599076 48.77738,-5.03845 68.55137,6.37429 l 8.1132,4.68189 -4.26847,8.33541 c -16.72508,32.63883 -51.69194,42.75191 -85.8759,40.96132 -51.15191,127.40566 -162.51721,187.72239 -297.545142,187.72239 -69.763184,0 -133.764448,-26.07851 -170.211828,-87.97137 l -0.59687,-1.00769 -5.30975,-10.80555 c -12.31966,-27.24381 -16.41244,-57.08953 -13.63741,-86.912 l 0.83457,-8.93227 h 50.52405 V 98.526225 h 59.079082 V 39.444561 H 62.432785 V -19.637104 H 133.33285 V 98.526225"
       fill="#364548"
       id="path366"
       sodipodi:nodetypes="cccscccccccccccsccccccccccccc"
       style="stroke-width:2.58382" />
    <path
       d="m 324.74752,120.87111 c 3.961,-30.788814 -19.07894,-54.9708 -33.36747,-66.453303 -16.4667,19.037597 -19.02468,68.931193 6.80837,89.937663 -14.41772,12.80542 -44.79572,24.41195 -75.90234,24.41195 h -378.64614 c -3.02307,32.47088 2.67684,62.37345 15.69672,87.9662 l 4.30723,7.88066 a 146.07894,146.07894 0 0 0 8.9271,13.39453 c 15.56753,0.99994 29.920655,1.34359 43.051636,1.0542 h 0.0052 c 25.804626,-0.56844 46.860188,-3.61735 62.81787,-9.14673 a 4.5501098,4.5501098 0 0 1 2.979147,8.59379 c -2.123902,0.73897 -4.335653,1.42627 -6.619751,2.07998 h -0.0078 c -12.565124,3.58893 -26.039754,6.00221 -43.423706,7.0745 1.033529,0.0181 -1.074869,0.15503 -1.080037,0.15503 -0.591695,0.0388 -1.335836,0.12402 -1.930115,0.15503 -6.841959,0.38499 -14.226521,0.46509 -21.776448,0.46509 -8.257896,0 -16.389186,-0.15503 -25.481656,-0.62012 l -0.23254,0.15503 c 31.548465,35.46037 80.878787,56.7278 142.714806,56.7278 130.865394,0 241.866364,-58.01196 291.020994,-188.24949 34.87125,3.57859 68.386,-5.31492 83.63055,-35.07538 -24.28276,-14.01206 -55.51082,-9.54463 -73.49164,-0.50643"
       fill="#22a0c8"
       id="path368"
       style="stroke-width:2.58382" />
    <path
       d="m 324.74752,120.87111 c 3.961,-30.788814 -19.07894,-54.9708 -33.36747,-66.453303 -16.4667,19.037597 -19.02468,68.931193 6.80837,89.937663 -14.41772,12.80542 -44.79572,24.41195 -75.90234,24.41195 h -356.22374 c -1.54512,49.72823 16.90853,87.47528 49.557702,110.29559 h 0.0078 c 25.804626,-0.56844 46.860188,-3.61735 62.81787,-9.14673 a 4.5501098,4.5501098 0 0 1 2.979147,8.59379 c -2.123902,0.73897 -4.335653,1.42627 -6.619751,2.07998 h -0.0078 c -12.565124,3.58893 -27.197306,6.31227 -44.581258,7.38456 -0.0052,0 -0.421163,-0.40049 -0.42633,-0.40049 44.537333,22.84615 109.114786,22.76346 183.15419,-5.67666 83.01819,-31.89469 160.27187,-92.65584 214.17298,-162.15289 -0.81132,0.3669 -1.60197,0.74156 -2.36937,1.12654"
       fill="#37b1d9"
       id="path370"
       style="stroke-width:2.58382" />
    <path
       d="m -155.64951,208.21979 c 2.35128,17.39428 7.44141,33.68011 14.98617,48.51383 l 4.30723,7.88066 a 145.81022,145.81022 0 0 0 8.9271,13.39453 c 15.57011,0.99994 29.923238,1.34359 43.056804,1.0542 25.804626,-0.56844 46.860188,-3.61735 62.81787,-9.14673 a 4.5501098,4.5501098 0 0 1 2.979147,8.59379 c -2.123902,0.73897 -4.335653,1.42627 -6.619751,2.07998 h -0.0078 c -12.565124,3.58893 -27.119791,6.15724 -44.503743,7.23211 -0.596863,0.0362 -1.638143,0.0439 -2.240173,0.0775 -6.836792,0.3824 -14.146424,0.61753 -21.698934,0.61753 -8.25531,0 -16.69924,-0.15761 -25.78654,-0.62012 31.548462,35.46037 81.183675,56.80532 143.019694,56.80532 112.034506,0 209.506586,-42.52453 266.079366,-136.48262 h -445.31649"
       fill="#1b81a5"
       id="path372"
       style="stroke-width:2.58382" />
    <path
       d="m -130.5296,208.21979 c 6.69727,30.54077 22.79189,54.51605 46.157394,70.84322 25.804626,-0.56844 46.860188,-3.61735 62.81787,-9.14673 a 4.5501098,4.5501098 0 0 1 2.979147,8.59379 c -2.123902,0.73897 -4.335653,1.42627 -6.619751,2.07998 h -0.0078 c -12.565124,3.58893 -27.427266,6.15724 -44.813802,7.23211 44.534749,22.84099 108.926168,22.51284 182.960402,-5.9247 44.78797,-17.20825 87.89386,-42.82426 126.56592,-73.67767 H -130.5296"
       fill="#1d91b4"
       id="path374"
       style="stroke-width:2.58382" />
    <path
       d="m -104.96785,108.37317 h 51.206178 v 51.20618 h -51.206178 z m 4.26589,4.26847 h 4.041098 v 42.67182 h -4.041098 z m 7.596437,0 h 4.203877 v 42.67182 h -4.201294 v -42.67182 z m 7.756632,0 h 4.203878 v 42.67182 h -4.203878 z m 7.7618,0 h 4.201294 v 42.67182 h -4.201294 z m 7.759216,0 h 4.201294 v 42.67182 h -4.201294 z m 7.756633,0 h 4.043681 v 42.67182 h -4.043681 z M -45.886184,49.291505 H 5.3225766 V 100.4951 H -45.888768 V 49.291505 Z m 4.268474,4.268473 h 4.038513 v 42.66923 h -4.038513 z m 7.596435,0 h 4.201294 v 42.66923 h -4.19871 v -42.66923 z m 7.756633,0 h 4.201293 v 42.66923 h -4.201293 z m 7.759216,0 h 4.201294 v 42.66923 h -4.201294 z m 7.759216,0 h 4.2038778 v 42.66923 H -10.74621 Z m 7.7566325,0 h 4.0462647 v 42.66923 h -4.0462647 z"
       fill="#23a3c2"
       id="path376"
       style="stroke-width:2.58382" />
    <path
       d="M -45.886184,108.37317 H 5.3225766 v 51.20618 H -45.888768 v -51.20618 z m 4.268474,4.26847 h 4.038513 v 42.67182 h -4.038513 z m 7.596435,0 h 4.201294 v 42.67182 h -4.19871 v -42.67182 z m 7.756633,0 h 4.201293 v 42.67182 h -4.201293 z m 7.759216,0 h 4.201294 v 42.67182 h -4.201294 z m 7.759216,0 h 4.2038778 v 42.67182 H -10.74621 Z m 7.7566325,0 h 4.0462647 v 42.67182 h -4.0462647 z"
       fill="#34bbde"
       id="path378"
       style="stroke-width:2.58382" />
    <path
       d="m 13.198065,108.37317 h 51.206176 v 51.20618 H 13.198065 Z m 4.265889,4.26847 h 4.038513 v 42.67182 h -4.038513 z m 7.596436,0 h 4.201294 v 42.67182 H 25.06039 Z m 7.759216,0 H 37.0209 v 42.67182 h -4.201294 z m 7.759216,0 h 4.201294 v 42.67182 h -4.201294 z m 7.756633,0 h 4.206461 v 42.67182 h -4.206461 z m 7.759216,0 h 4.041097 v 42.67182 h -4.041097 z"
       fill="#23a3c2"
       id="path380"
       style="stroke-width:2.58382" />
    <path
       d="M 13.198065,49.291505 H 64.404241 V 100.4951 H 13.198065 Z m 4.265889,4.268473 h 4.038513 v 42.66923 h -4.038513 z m 7.596436,0 h 4.201294 v 42.66923 H 25.06039 Z m 7.759216,0 H 37.0209 v 42.66923 h -4.201294 z m 7.759216,0 h 4.201294 v 42.66923 h -4.201294 z m 7.756633,0 h 4.206461 v 42.66923 h -4.206461 z m 7.759216,0 h 4.041097 v 42.66923 H 56.094671 Z M 72.27973,108.37317 h 51.20618 v 51.20618 H 72.27973 Z m 4.268473,4.26847 h 4.038513 v 42.67182 h -4.038513 z m 7.596435,0 h 4.201294 v 42.67182 h -4.201294 z m 7.756633,0 h 4.201294 v 42.67182 h -4.201294 z m 7.759216,0 h 4.203873 v 42.67182 h -4.203873 z m 7.759213,0 h 4.20388 v 42.67182 h -4.20388 z m 7.75922,0 h 4.0411 v 42.67182 h -4.0411 z"
       fill="#34bbde"
       id="path382"
       style="stroke-width:2.58382" />
    <path
       d="m 72.27973,49.291505 h 51.20618 V 100.4951 H 72.27973 Z m 4.268473,4.268473 h 4.038513 v 42.66923 h -4.038513 z m 7.596435,0 h 4.201294 v 42.66923 h -4.201294 z m 7.756633,0 h 4.201294 v 42.66923 h -4.201294 z m 7.759216,0 h 4.203873 v 42.66923 h -4.203873 z m 7.759213,0 h 4.20388 v 42.66923 h -4.20388 z m 7.75922,0 h 4.0411 v 42.66923 h -4.0411 z"
       fill="#23a3c2"
       id="path384"
       style="stroke-width:2.58382" />
    <path
       d="m 72.27973,-9.7927437 h 51.20618 V 41.4186 H 72.27973 Z m 4.268473,4.2658895 h 4.038513 V 37.147543 H 76.548203 V -5.5294381 Z m 7.596435,0 h 4.201294 V 37.147543 H 84.144638 V -5.5294381 Z m 7.756633,0 h 4.201294 V 37.147543 H 91.901271 V -5.5294381 Z m 7.759216,0 h 4.203873 V 37.147543 H 99.660487 V -5.5294381 Z m 7.759213,0 h 4.20388 V 37.147543 H 107.4197 V -5.5294381 Z m 7.75922,0 h 4.0411 V 37.147543 h -4.0411 V -5.5294381 Z"
       fill="#34bbde"
       id="path386"
       style="stroke-width:2.58382" />
    <path
       d="m 131.36139,108.37317 h 51.20618 v 51.20618 h -51.20618 z m 4.26331,4.26847 h 4.04368 v 42.67182 h -4.0411 v -42.67182 z m 7.59644,0 h 4.20387 v 42.67182 h -4.20129 v -42.67182 z m 7.7618,0 h 4.20387 v 42.67182 h -4.20387 z m 7.75663,0 h 4.20388 v 42.67182 h -4.20388 z m 7.7618,0 h 4.20129 v 42.67182 h -4.20129 z m 7.75663,0 h 4.0411 v 42.67182 h -4.0411 z"
       fill="#23a3c2"
       id="path388"
       style="stroke-width:2.58382" />
    <path
       d="m 2.116054,242.60012 a 14.128337,14.128337 0 1 1 -0.00517,28.25409 14.128337,14.128337 0 0 1 0.00517,-28.25409"
       fill="#d3ecec"
       id="path390"
       style="stroke-width:2.58382" />
    <path
       d="m 2.116054,246.60763 c 1.2919108,0 2.5243937,0.24287 3.6612752,0.68471 a 4.1289469,4.1289469 0 0 0 2.0618897,7.69979 c 1.563212,0 2.9197181,-0.86558 3.6225181,-2.14716 A 10.115662,10.115662 0 1 1 2.116054,246.60763 M -247.74983,213.32542 h 657.1356 c -14.30662,-3.62769 -45.26856,-8.53178 -40.16293,-27.28516 -26.01908,30.10669 -88.76202,21.12274 -104.59826,6.27869 -17.632,25.57467 -120.28723,15.85175 -127.447,-4.0721 -22.10718,25.94415 -90.606875,25.94415 -112.714053,0 -7.164937,19.92385 -109.817586,29.64677 -127.452167,4.06952 -15.83366,14.84663 -78.57402,23.83058 -104.5931,-6.27352 5.10563,18.75079 -25.8563,23.65488 -40.16809,27.28515"
       fill="#364548"
       id="path392"
       style="stroke-width:2.58382" />
    <path
       d="m 39.666733,344.39752 c -34.9849441,-16.60105 -54.185322,-39.17073 -64.869425,-63.80489 -12.996622,3.70778 -28.615824,6.07973 -46.767171,7.09776 -6.836792,0.3824 -14.030151,0.57877 -21.57491,0.57877 -8.702307,0 -17.872297,-0.25838 -27.499617,-0.76739 32.083316,32.06523 71.551191,56.75106 144.632002,57.20064 5.395019,0 10.748697,-0.10335 16.079121,-0.30489"
       fill="#bdd9d7"
       id="path394"
       style="stroke-width:2.58382" />
    <path
       d="m -12.208653,303.32509 c -4.839498,-6.57066 -9.534302,-14.82855 -12.986287,-22.73763 -12.996623,3.71295 -28.620992,6.0849 -46.774923,7.10551 12.469523,6.76703 30.300476,13.03797 59.763794,15.63212"
       fill="#d3ecec"
       id="path396"
       style="stroke-width:2.58382" />
    <g
       transform="matrix(1.7162848,0,0,1.7162848,-571.13071,-971.19907)"
       id="g5376"
       inkscape:export-filename="/home/vincent/Documents/developpement/grass/grass_splash/logo_variant/logo_text_moto_alphabg.png"
       inkscape:export-xdpi="600"
       inkscape:export-ydpi="600"
       style="display:inline">
      <g
         inkscape:label="color"
         id="g5378"
         style="display:inline">
        <path
           id="path5380"
           d="m 367.81011,602.52854 4.21781,4.2809 1.43857,-1.54392 -2.57138,-19.15924 0.21875,-3.09375 1.3125,-4.625 1.375,-4.25 1.5,-3.34375 4.875,8.1875 4.75,8.65625 1.05469,5.08007 6.62885,-6.5039 3.34766,-25.16992 7.03125,-34.0625 4.53125,-23.12499 9.1875,-18.21875 1.375,-3.78125 0.5,-2.21875 0.1875,-3.59375 -0.5625,-2.875 -1.3125,-2.59375 -2.40625,-2.40625 0.125,0.65625 1.1875,1.21875 1.09375,2.5625 0.125,2.0625 -1.5,4.125 -1.9375,4.4375 -4.15625,7.46875 2.3125,-17.25 0.65625,-9.0625 -0.84375,-0.15625 -4.65625,31 -0.875,1.5625 -7.65625,14.40625 -9.78125,19.37499 -8.21875,16.8125 -4.5625,11.71875 -2.59375,-4.4375 1.625,-3.34375 8.9375,-17.15625 9.0625,-15.125 3.78125,-7.37499 3.125,-6.125 0.84375,-2.09375 0.1875,-2.03125 -0.375,-1.5625 h -0.375 l -0.28125,1.375 -1.5625,3.59375 -3.78125,6.375 -10.8125,16.62499 -6.15625,9.125 -4.21875,7.46875 2.59375,-25.71875 0.96875,-10.96874 0.40625,-23.1875 h -0.0625 l 0.18755,-0.78125 0.59375,-1.4375 0.46875,-1.3125 0.5625,-0.96875 v -1.90625 l -0.1875,-2.40625 0.84375,-1.5625 -0.375,-2.28125 v -1.71875 l 0.3125,-0.96875 0.65625,-2.15625 0.46875,-1.15625 -0.875,-1.4375 0.75,-1.4375 -1.1875,-0.84375 -0.71875,-2.15625 1.03125,-1.6875 -1.4375,-0.46875 -0.625,-1.125 v -0.96875 l -0.65625,-1.09375 -0.65625,-0.59375 0.0625,-0.90625 v -1 l -0.3125,-2.71875 -0.21875,-1.5625 -0.96875,-0.71875 -0.46875,-0.84375 -1.09375,-0.53125 -0.65625,-1.1875 0.125,-1.34375 -0.125,-1.375 -0.71875,-1.1875 -1.25,-0.25 -1.15625,-0.40625 -0.59375,-0.84375 -0.40625,-0.90625 -0.90625,0.59375 -0.375,1.15625 -0.1875,1.25 -0.59375,1.96875 -0.40625,-0.65625 0.1875,2.40625 -0.125,0.53125 v 0.90625 l 0.34375,0.71875 0.3125,0.96875 0.59375,0.78125 0.25,0.34375 0.1875,0.90625 -0.75,0.5625 0.3125,0.8125 -0.71875,0.90625 0.125,0.71875 0.1875,0.71875 0.59375,0.71875 0.53125,0.65625 0.71875,0.625 0.125,0.53125 -0.25,0.78125 -0.59375,0.53125 -0.28125,0.4375 0.0937,1.125 0.90625,0.59375 0.53125,0.5625 0.3125,1.125 -0.96875,1.15625 -0.15625,0.8125 0.40625,0.90625 0.59375,0.71875 v 0.71875 l 0.4375,0.5625 0.40625,0.46875 0.3125,0.53125 -0.1875,0.90625 0.59375,0.84375 0.53125,0.125 0.1875,0.40625 -0.1875,0.71875 0.5,1.03125 0.53125,0.40625 0.40625,0.84375 -0.40625,1.4375 0.59375,1.3125 0.5625,0.25 0.28125,0.59375 0.125,1.6875 -0.3125,0.71875 -0.28125,0.84375 0.84375,4.25 1.5,0.96875 -0.125,18.4375 -1.75,19.90624 -1.03125,11.53125 -1.6875,14 -0.65625,1.6875 -5.5625,-9.53125 -1.90625,-12.78125 -2.46875,-20.74999 -2.9375,-19.25 0.21875,17.5625 1.0313,14.53124 1.78125,13.84375 -12.40625,-19.65625 -17.8125,-26.71874 -4.09375,-5.6875 h -0.34375 l 1.1875,3.40625 2.21875,5.53125 3.25,7.375 5.6875,12.1875 3.4375,6.12499 4.25,7.375 8.78125,13.90625 7.9375,12.625 1.21875,11.3125 3.78125,25.84375 -0.002,-0.0161 -4.37265,-13.57769 -9.25,-22.78125 -7.375,-15.3125 -9.78125,-15.90625 -4.96875,-6.53124 -3.96875,-3.96875 -6.46875,-6 2.6875,3.3125 4.34375,4.4375 2.5625,2.87499 1.6875,2.9375 2.03125,3.25 3.3125,5.6875 2.875,5.28125 2.9375,6.53125 3.59375,8.71875 7.03125,18.1875 7.375,19.1875 4.4375,13.5625 z m -12.9406,-12.88394 -1.2869,-3.44454 -2.375,-4.5 -5.1875,-9.90625 -7.3125,-13.1875 -5.15625,-8.46875 -4.78125,-7.3125 -2.59375,-3.59375 -2.15625,-2.15625 3.71875,7.0625 3.40625,7.90625 5.125,11.65625 2.25,5.15625 2.25393,6.7029 z m -30.8494,-52.56954 -0.0625,-0.125 -0.1875,-0.125 z m 78.46875,-23.53124 -1.25,5.21874 -5.65625,22.625 -2.75,12.84375 -2.875,15.53125 -3.1875,10.125 -1.125,-2.625 -7.25,-13.4375 2.4375,-5.65625 7.9375,-16.625 4.25,-8.9375 5.6875,-12 z m 7.03125,16.84374 -1.03125,6 -2.9375,9.96875 -2.9375,7.375 -3.25,9.59375 -1.71875,9.4375 -1.625,10.0332 5.875,-5.9707 0.25,-3.0625 0.65625,-5.3125 1.5625,-7.5 3.40625,-13.40625 1.5625,-9.9375 z m -42.0625,27.34375 2.375,3.96875 -0.5,9.25 -0.375,0.28125 z m 4,6.65625 1.375,2.28125 -1.0625,2.5 -0.78125,0.5625 z"
           style="display:inline;fill:#009000;stroke:none"
           inkscape:connector-curvature="0"
           sodipodi:nodetypes="cccccccccccccccccccccccccccccccccccccccccccccccccccccccccccccccccccccccccccccccccccccccccccccccccccccccccccccccccccccccccccccccccccccccccccccccccccccccccccccccccccccccccccccccccccccccccccccccccccccccccccccccccccccccccccccccccccccccccccccccccccccccccccc" />
        <path
           inkscape:connector-curvature="0"
           style="color:#000000;display:inline;overflow:visible;visibility:visible;fill:#000000;fill-opacity:1;stroke:none;stroke-width:0.826884;marker:none;enable-background:accumulate"
           d="m 297.50037,539.11859 -3,3 22.53125,22.53125 -2.96875,2.96875 22.5,22.5 -3,3 38.46875,38.46875 38.5,-38.46875 -3,-3 22.5,-22.5 -2.96875,-2.96875 22.53125,-22.53125 -3,-3 -74.5625,74.53125 z"
           id="path5382" />
        <path
           inkscape:connector-curvature="0"
           style="color:#000000;display:inline;overflow:visible;visibility:visible;fill:#000000;fill-opacity:1;stroke:none;stroke-width:0.8;marker:none;enable-background:accumulate"
           d="m 372.03162,420.77484 -93.375,93.40625 93.375,93.40625 93.40625,-93.40625 z m 0,1.65625 91.75,91.75 -91.75,91.75 -91.75,-91.75 z"
           id="path5384" />
        <g
           style="display:inline"
           id="g5386"
           transform="translate(268.5353,413.93109)">
          <path
             inkscape:connector-curvature="0"
             id="path5388"
             d="m 30.875,210.40625 v 1.25 h 60.3125 v -1.25 z"
             style="color:#000000;font-style:normal;font-variant:normal;font-weight:normal;font-stretch:normal;font-size:medium;line-height:normal;font-family:Sans;-inkscape-font-specification:Sans;text-indent:0;text-align:start;text-decoration:none;text-decoration-line:none;letter-spacing:normal;word-spacing:normal;text-transform:none;writing-mode:lr-tb;direction:ltr;baseline-shift:baseline;text-anchor:start;display:inline;overflow:visible;visibility:visible;fill:#000000;fill-opacity:1;stroke:none;stroke-width:1.25;marker:none;enable-background:accumulate" />
          <path
             style="color:#000000;font-style:normal;font-variant:normal;font-weight:normal;font-stretch:normal;font-size:medium;line-height:normal;font-family:Sans;-inkscape-font-specification:Sans;text-indent:0;text-align:start;text-decoration:none;text-decoration-line:none;letter-spacing:normal;word-spacing:normal;text-transform:none;writing-mode:lr-tb;direction:ltr;baseline-shift:baseline;text-anchor:start;display:inline;overflow:visible;visibility:visible;fill:#000000;fill-opacity:1;stroke:none;stroke-width:1.25;marker:none;enable-background:accumulate"
             d="m 115.83638,210.40625 v 1.25 h 60.3125 v -1.25 z"
             id="path5390"
             inkscape:connector-curvature="0" />
        </g>
      </g>
      <g
         id="g5392"
         inkscape:label="grayscale_opaque"
         style="display:none">
        <path
           sodipodi:nodetypes="cccccccccccccccccccccccccccccccccccccccccccccccccccccccccccccccccccccccccccccccccccccccccccccccccccccccccccccccccccccccccccccccccccccccccccccccccccccccccccccccccccccccccccccccccccccccccccccccccccccccccccccccccccccccccccccccccccccccccccccccccccccccccccc"
           inkscape:connector-curvature="0"
           style="display:inline;fill:#909090;fill-opacity:1;stroke:none"
           d="m 367.81011,602.52854 4.21781,4.2809 1.43857,-1.54392 -2.57138,-19.15924 0.21875,-3.09375 1.3125,-4.625 1.375,-4.25 1.5,-3.34375 4.875,8.1875 4.75,8.65625 1.05469,5.08007 6.62885,-6.5039 3.34766,-25.16992 7.03125,-34.0625 4.53125,-23.12499 9.1875,-18.21875 1.375,-3.78125 0.5,-2.21875 0.1875,-3.59375 -0.5625,-2.875 -1.3125,-2.59375 -2.40625,-2.40625 0.125,0.65625 1.1875,1.21875 1.09375,2.5625 0.125,2.0625 -1.5,4.125 -1.9375,4.4375 -4.15625,7.46875 2.3125,-17.25 0.65625,-9.0625 -0.84375,-0.15625 -4.65625,31 -0.875,1.5625 -7.65625,14.40625 -9.78125,19.37499 -8.21875,16.8125 -4.5625,11.71875 -2.59375,-4.4375 1.625,-3.34375 8.9375,-17.15625 9.0625,-15.125 3.78125,-7.37499 3.125,-6.125 0.84375,-2.09375 0.1875,-2.03125 -0.375,-1.5625 h -0.375 l -0.28125,1.375 -1.5625,3.59375 -3.78125,6.375 -10.8125,16.62499 -6.15625,9.125 -4.21875,7.46875 2.59375,-25.71875 0.96875,-10.96874 0.40625,-23.1875 h -0.0625 l 0.18755,-0.78125 0.59375,-1.4375 0.46875,-1.3125 0.5625,-0.96875 v -1.90625 l -0.1875,-2.40625 0.84375,-1.5625 -0.375,-2.28125 v -1.71875 l 0.3125,-0.96875 0.65625,-2.15625 0.46875,-1.15625 -0.875,-1.4375 0.75,-1.4375 -1.1875,-0.84375 -0.71875,-2.15625 1.03125,-1.6875 -1.4375,-0.46875 -0.625,-1.125 v -0.96875 l -0.65625,-1.09375 -0.65625,-0.59375 0.0625,-0.90625 v -1 l -0.3125,-2.71875 -0.21875,-1.5625 -0.96875,-0.71875 -0.46875,-0.84375 -1.09375,-0.53125 -0.65625,-1.1875 0.125,-1.34375 -0.125,-1.375 -0.71875,-1.1875 -1.25,-0.25 -1.15625,-0.40625 -0.59375,-0.84375 -0.40625,-0.90625 -0.90625,0.59375 -0.375,1.15625 -0.1875,1.25 -0.59375,1.96875 -0.40625,-0.65625 0.1875,2.40625 -0.125,0.53125 v 0.90625 l 0.34375,0.71875 0.3125,0.96875 0.59375,0.78125 0.25,0.34375 0.1875,0.90625 -0.75,0.5625 0.3125,0.8125 -0.71875,0.90625 0.125,0.71875 0.1875,0.71875 0.59375,0.71875 0.53125,0.65625 0.71875,0.625 0.125,0.53125 -0.25,0.78125 -0.59375,0.53125 -0.28125,0.4375 0.0937,1.125 0.90625,0.59375 0.53125,0.5625 0.3125,1.125 -0.96875,1.15625 -0.15625,0.8125 0.40625,0.90625 0.59375,0.71875 v 0.71875 l 0.4375,0.5625 0.40625,0.46875 0.3125,0.53125 -0.1875,0.90625 0.59375,0.84375 0.53125,0.125 0.1875,0.40625 -0.1875,0.71875 0.5,1.03125 0.53125,0.40625 0.40625,0.84375 -0.40625,1.4375 0.59375,1.3125 0.5625,0.25 0.28125,0.59375 0.125,1.6875 -0.3125,0.71875 -0.28125,0.84375 0.84375,4.25 1.5,0.96875 -0.125,18.4375 -1.75,19.90624 -1.03125,11.53125 -1.6875,14 -0.65625,1.6875 -5.5625,-9.53125 -1.90625,-12.78125 -2.46875,-20.74999 -2.9375,-19.25 0.21875,17.5625 1.0313,14.53124 1.78125,13.84375 -12.40625,-19.65625 -17.8125,-26.71874 -4.09375,-5.6875 h -0.34375 l 1.1875,3.40625 2.21875,5.53125 3.25,7.375 5.6875,12.1875 3.4375,6.12499 4.25,7.375 8.78125,13.90625 7.9375,12.625 1.21875,11.3125 3.78125,25.84375 -0.002,-0.0161 -4.37265,-13.57769 -9.25,-22.78125 -7.375,-15.3125 -9.78125,-15.90625 -4.96875,-6.53124 -3.96875,-3.96875 -6.46875,-6 2.6875,3.3125 4.34375,4.4375 2.5625,2.87499 1.6875,2.9375 2.03125,3.25 3.3125,5.6875 2.875,5.28125 2.9375,6.53125 3.59375,8.71875 7.03125,18.1875 7.375,19.1875 4.4375,13.5625 z m -12.9406,-12.88394 -1.2869,-3.44454 -2.375,-4.5 -5.1875,-9.90625 -7.3125,-13.1875 -5.15625,-8.46875 -4.78125,-7.3125 -2.59375,-3.59375 -2.15625,-2.15625 3.71875,7.0625 3.40625,7.90625 5.125,11.65625 2.25,5.15625 2.25393,6.7029 z m -30.8494,-52.56954 -0.0625,-0.125 -0.1875,-0.125 z m 78.46875,-23.53124 -1.25,5.21874 -5.65625,22.625 -2.75,12.84375 -2.875,15.53125 -3.1875,10.125 -1.125,-2.625 -7.25,-13.4375 2.4375,-5.65625 7.9375,-16.625 4.25,-8.9375 5.6875,-12 z m 7.03125,16.84374 -1.03125,6 -2.9375,9.96875 -2.9375,7.375 -3.25,9.59375 -1.71875,9.4375 -1.625,10.0332 5.875,-5.9707 0.25,-3.0625 0.65625,-5.3125 1.5625,-7.5 3.40625,-13.40625 1.5625,-9.9375 z m -42.0625,27.34375 2.375,3.96875 -0.5,9.25 -0.375,0.28125 z m 4,6.65625 1.375,2.28125 -1.0625,2.5 -0.78125,0.5625 z"
           id="path5394" />
        <path
           id="path5396"
           d="m 297.50037,539.11859 -3,3 22.53125,22.53125 -2.96875,2.96875 22.5,22.5 -3,3 38.46875,38.46875 38.5,-38.46875 -3,-3 22.5,-22.5 -2.96875,-2.96875 22.53125,-22.53125 -3,-3 -74.5625,74.53125 z"
           style="color:#000000;display:inline;overflow:visible;visibility:visible;fill:#000000;fill-opacity:1;stroke:none;stroke-width:0.826884;marker:none;enable-background:accumulate"
           inkscape:connector-curvature="0" />
        <path
           id="path5398"
           d="m 372.03162,420.77484 -93.375,93.40625 93.375,93.40625 93.40625,-93.40625 z m 0,1.65625 91.75,91.75 -91.75,91.75 -91.75,-91.75 z"
           style="color:#000000;display:inline;overflow:visible;visibility:visible;fill:#000000;fill-opacity:1;stroke:none;stroke-width:0.8;marker:none;enable-background:accumulate"
           inkscape:connector-curvature="0" />
        <g
           transform="translate(268.5353,413.93109)"
           id="g5400"
           style="display:inline">
          <path
             style="color:#000000;font-style:normal;font-variant:normal;font-weight:normal;font-stretch:normal;font-size:medium;line-height:normal;font-family:Sans;-inkscape-font-specification:Sans;text-indent:0;text-align:start;text-decoration:none;text-decoration-line:none;letter-spacing:normal;word-spacing:normal;text-transform:none;writing-mode:lr-tb;direction:ltr;baseline-shift:baseline;text-anchor:start;display:inline;overflow:visible;visibility:visible;fill:#000000;fill-opacity:1;stroke:none;stroke-width:1.25;marker:none;enable-background:accumulate"
             d="m 30.875,210.40625 v 1.25 h 60.3125 v -1.25 z"
             id="path5402"
             inkscape:connector-curvature="0" />
          <path
             inkscape:connector-curvature="0"
             id="path5404"
             d="m 115.83638,210.40625 v 1.25 h 60.3125 v -1.25 z"
             style="color:#000000;font-style:normal;font-variant:normal;font-weight:normal;font-stretch:normal;font-size:medium;line-height:normal;font-family:Sans;-inkscape-font-specification:Sans;text-indent:0;text-align:start;text-decoration:none;text-decoration-line:none;letter-spacing:normal;word-spacing:normal;text-transform:none;writing-mode:lr-tb;direction:ltr;baseline-shift:baseline;text-anchor:start;display:inline;overflow:visible;visibility:visible;fill:#000000;fill-opacity:1;stroke:none;stroke-width:1.25;marker:none;enable-background:accumulate" />
        </g>
      </g>
      <g
         style="display:none"
         inkscape:label="grayscale_transparent"
         id="g5406">
        <path
           id="path5408"
           d="m 367.81011,602.52854 4.21781,4.2809 1.43857,-1.54392 -2.57138,-19.15924 0.21875,-3.09375 1.3125,-4.625 1.375,-4.25 1.5,-3.34375 4.875,8.1875 4.75,8.65625 1.05469,5.08007 6.62885,-6.5039 3.34766,-25.16992 7.03125,-34.0625 4.53125,-23.12499 9.1875,-18.21875 1.375,-3.78125 0.5,-2.21875 0.1875,-3.59375 -0.5625,-2.875 -1.3125,-2.59375 -2.40625,-2.40625 0.125,0.65625 1.1875,1.21875 1.09375,2.5625 0.125,2.0625 -1.5,4.125 -1.9375,4.4375 -4.15625,7.46875 2.3125,-17.25 0.65625,-9.0625 -0.84375,-0.15625 -4.65625,31 -0.875,1.5625 -7.65625,14.40625 -9.78125,19.37499 -8.21875,16.8125 -4.5625,11.71875 -2.59375,-4.4375 1.625,-3.34375 8.9375,-17.15625 9.0625,-15.125 3.78125,-7.37499 3.125,-6.125 0.84375,-2.09375 0.1875,-2.03125 -0.375,-1.5625 h -0.375 l -0.28125,1.375 -1.5625,3.59375 -3.78125,6.375 -10.8125,16.62499 -6.15625,9.125 -4.21875,7.46875 2.59375,-25.71875 0.96875,-10.96874 0.40625,-23.1875 h -0.0625 l 0.18755,-0.78125 0.59375,-1.4375 0.46875,-1.3125 0.5625,-0.96875 v -1.90625 l -0.1875,-2.40625 0.84375,-1.5625 -0.375,-2.28125 v -1.71875 l 0.3125,-0.96875 0.65625,-2.15625 0.46875,-1.15625 -0.875,-1.4375 0.75,-1.4375 -1.1875,-0.84375 -0.71875,-2.15625 1.03125,-1.6875 -1.4375,-0.46875 -0.625,-1.125 v -0.96875 l -0.65625,-1.09375 -0.65625,-0.59375 0.0625,-0.90625 v -1 l -0.3125,-2.71875 -0.21875,-1.5625 -0.96875,-0.71875 -0.46875,-0.84375 -1.09375,-0.53125 -0.65625,-1.1875 0.125,-1.34375 -0.125,-1.375 -0.71875,-1.1875 -1.25,-0.25 -1.15625,-0.40625 -0.59375,-0.84375 -0.40625,-0.90625 -0.90625,0.59375 -0.375,1.15625 -0.1875,1.25 -0.59375,1.96875 -0.40625,-0.65625 0.1875,2.40625 -0.125,0.53125 v 0.90625 l 0.34375,0.71875 0.3125,0.96875 0.59375,0.78125 0.25,0.34375 0.1875,0.90625 -0.75,0.5625 0.3125,0.8125 -0.71875,0.90625 0.125,0.71875 0.1875,0.71875 0.59375,0.71875 0.53125,0.65625 0.71875,0.625 0.125,0.53125 -0.25,0.78125 -0.59375,0.53125 -0.28125,0.4375 0.0937,1.125 0.90625,0.59375 0.53125,0.5625 0.3125,1.125 -0.96875,1.15625 -0.15625,0.8125 0.40625,0.90625 0.59375,0.71875 v 0.71875 l 0.4375,0.5625 0.40625,0.46875 0.3125,0.53125 -0.1875,0.90625 0.59375,0.84375 0.53125,0.125 0.1875,0.40625 -0.1875,0.71875 0.5,1.03125 0.53125,0.40625 0.40625,0.84375 -0.40625,1.4375 0.59375,1.3125 0.5625,0.25 0.28125,0.59375 0.125,1.6875 -0.3125,0.71875 -0.28125,0.84375 0.84375,4.25 1.5,0.96875 -0.125,18.4375 -1.75,19.90624 -1.03125,11.53125 -1.6875,14 -0.65625,1.6875 -5.5625,-9.53125 -1.90625,-12.78125 -2.46875,-20.74999 -2.9375,-19.25 0.21875,17.5625 1.0313,14.53124 1.78125,13.84375 -12.40625,-19.65625 -17.8125,-26.71874 -4.09375,-5.6875 h -0.34375 l 1.1875,3.40625 2.21875,5.53125 3.25,7.375 5.6875,12.1875 3.4375,6.12499 4.25,7.375 8.78125,13.90625 7.9375,12.625 1.21875,11.3125 3.78125,25.84375 -0.002,-0.0161 -4.37265,-13.57769 -9.25,-22.78125 -7.375,-15.3125 -9.78125,-15.90625 -4.96875,-6.53124 -3.96875,-3.96875 -6.46875,-6 2.6875,3.3125 4.34375,4.4375 2.5625,2.87499 1.6875,2.9375 2.03125,3.25 3.3125,5.6875 2.875,5.28125 2.9375,6.53125 3.59375,8.71875 7.03125,18.1875 7.375,19.1875 4.4375,13.5625 z m -12.9406,-12.88394 -1.2869,-3.44454 -2.375,-4.5 -5.1875,-9.90625 -7.3125,-13.1875 -5.15625,-8.46875 -4.78125,-7.3125 -2.59375,-3.59375 -2.15625,-2.15625 3.71875,7.0625 3.40625,7.90625 5.125,11.65625 2.25,5.15625 2.25393,6.7029 z m -30.8494,-52.56954 -0.0625,-0.125 -0.1875,-0.125 z m 78.46875,-23.53124 -1.25,5.21874 -5.65625,22.625 -2.75,12.84375 -2.875,15.53125 -3.1875,10.125 -1.125,-2.625 -7.25,-13.4375 2.4375,-5.65625 7.9375,-16.625 4.25,-8.9375 5.6875,-12 z m 7.03125,16.84374 -1.03125,6 -2.9375,9.96875 -2.9375,7.375 -3.25,9.59375 -1.71875,9.4375 -1.625,10.0332 5.875,-5.9707 0.25,-3.0625 0.65625,-5.3125 1.5625,-7.5 3.40625,-13.40625 1.5625,-9.9375 z m -42.0625,27.34375 2.375,3.96875 -0.5,9.25 -0.375,0.28125 z m 4,6.65625 1.375,2.28125 -1.0625,2.5 -0.78125,0.5625 z"
           style="display:inline;fill:#000000;fill-opacity:0.440758;stroke:none"
           inkscape:connector-curvature="0"
           sodipodi:nodetypes="cccccccccccccccccccccccccccccccccccccccccccccccccccccccccccccccccccccccccccccccccccccccccccccccccccccccccccccccccccccccccccccccccccccccccccccccccccccccccccccccccccccccccccccccccccccccccccccccccccccccccccccccccccccccccccccccccccccccccccccccccccccccccccc" />
        <path
           inkscape:connector-curvature="0"
           style="color:#000000;display:inline;overflow:visible;visibility:visible;fill:#000000;fill-opacity:1;stroke:none;stroke-width:0.826884;marker:none;enable-background:accumulate"
           d="m 297.50037,539.11859 -3,3 22.53125,22.53125 -2.96875,2.96875 22.5,22.5 -3,3 38.46875,38.46875 38.5,-38.46875 -3,-3 22.5,-22.5 -2.96875,-2.96875 22.53125,-22.53125 -3,-3 -74.5625,74.53125 z"
           id="path5410" />
        <path
           inkscape:connector-curvature="0"
           style="color:#000000;display:inline;overflow:visible;visibility:visible;fill:#000000;fill-opacity:1;stroke:none;stroke-width:0.8;marker:none;enable-background:accumulate"
           d="m 372.03162,420.77484 -93.375,93.40625 93.375,93.40625 93.40625,-93.40625 z m 0,1.65625 91.75,91.75 -91.75,91.75 -91.75,-91.75 z"
           id="path5412" />
        <g
           style="display:inline"
           id="g5414"
           transform="translate(268.5353,413.93109)">
          <path
             inkscape:connector-curvature="0"
             id="path5416"
             d="m 30.875,210.40625 v 1.25 h 60.3125 v -1.25 z"
             style="color:#000000;font-style:normal;font-variant:normal;font-weight:normal;font-stretch:normal;font-size:medium;line-height:normal;font-family:Sans;-inkscape-font-specification:Sans;text-indent:0;text-align:start;text-decoration:none;text-decoration-line:none;letter-spacing:normal;word-spacing:normal;text-transform:none;writing-mode:lr-tb;direction:ltr;baseline-shift:baseline;text-anchor:start;display:inline;overflow:visible;visibility:visible;fill:#000000;fill-opacity:1;stroke:none;stroke-width:1.25;marker:none;enable-background:accumulate" />
          <path
             style="color:#000000;font-style:normal;font-variant:normal;font-weight:normal;font-stretch:normal;font-size:medium;line-height:normal;font-family:Sans;-inkscape-font-specification:Sans;text-indent:0;text-align:start;text-decoration:none;text-decoration-line:none;letter-spacing:normal;word-spacing:normal;text-transform:none;writing-mode:lr-tb;direction:ltr;baseline-shift:baseline;text-anchor:start;display:inline;overflow:visible;visibility:visible;fill:#000000;fill-opacity:1;stroke:none;stroke-width:1.25;marker:none;enable-background:accumulate"
             d="m 115.83638,210.40625 v 1.25 h 60.3125 v -1.25 z"
             id="path5418"
             inkscape:connector-curvature="0" />
        </g>
      </g>
      <g
         style="display:none"
         inkscape:label="white_transparent"
         id="g5420">
        <rect
           sodipodi:insensitive="true"
           ry="15.09564"
           rx="15.09564"
           y="307.29431"
           x="32.395325"
           height="437.77356"
           width="679.30383"
           id="rect5422"
           style="color:#000000;display:inline;overflow:visible;visibility:visible;fill:#c6c6c6;fill-opacity:1;fill-rule:nonzero;stroke:none;stroke-width:0.125;marker:none;enable-background:accumulate" />
        <path
           id="path5424"
           d="m 367.81011,602.52854 4.21781,4.2809 1.43857,-1.54392 -2.57138,-19.15924 0.21875,-3.09375 1.3125,-4.625 1.375,-4.25 1.5,-3.34375 4.875,8.1875 4.75,8.65625 1.05469,5.08007 6.62885,-6.5039 3.34766,-25.16992 7.03125,-34.0625 4.53125,-23.12499 9.1875,-18.21875 1.375,-3.78125 0.5,-2.21875 0.1875,-3.59375 -0.5625,-2.875 -1.3125,-2.59375 -2.40625,-2.40625 0.125,0.65625 1.1875,1.21875 1.09375,2.5625 0.125,2.0625 -1.5,4.125 -1.9375,4.4375 -4.15625,7.46875 2.3125,-17.25 0.65625,-9.0625 -0.84375,-0.15625 -4.65625,31 -0.875,1.5625 -7.65625,14.40625 -9.78125,19.37499 -8.21875,16.8125 -4.5625,11.71875 -2.59375,-4.4375 1.625,-3.34375 8.9375,-17.15625 9.0625,-15.125 3.78125,-7.37499 3.125,-6.125 0.84375,-2.09375 0.1875,-2.03125 -0.375,-1.5625 h -0.375 l -0.28125,1.375 -1.5625,3.59375 -3.78125,6.375 -10.8125,16.62499 -6.15625,9.125 -4.21875,7.46875 2.59375,-25.71875 0.96875,-10.96874 0.40625,-23.1875 h -0.0625 l 0.18755,-0.78125 0.59375,-1.4375 0.46875,-1.3125 0.5625,-0.96875 v -1.90625 l -0.1875,-2.40625 0.84375,-1.5625 -0.375,-2.28125 v -1.71875 l 0.3125,-0.96875 0.65625,-2.15625 0.46875,-1.15625 -0.875,-1.4375 0.75,-1.4375 -1.1875,-0.84375 -0.71875,-2.15625 1.03125,-1.6875 -1.4375,-0.46875 -0.625,-1.125 v -0.96875 l -0.65625,-1.09375 -0.65625,-0.59375 0.0625,-0.90625 v -1 l -0.3125,-2.71875 -0.21875,-1.5625 -0.96875,-0.71875 -0.46875,-0.84375 -1.09375,-0.53125 -0.65625,-1.1875 0.125,-1.34375 -0.125,-1.375 -0.71875,-1.1875 -1.25,-0.25 -1.15625,-0.40625 -0.59375,-0.84375 -0.40625,-0.90625 -0.90625,0.59375 -0.375,1.15625 -0.1875,1.25 -0.59375,1.96875 -0.40625,-0.65625 0.1875,2.40625 -0.125,0.53125 v 0.90625 l 0.34375,0.71875 0.3125,0.96875 0.59375,0.78125 0.25,0.34375 0.1875,0.90625 -0.75,0.5625 0.3125,0.8125 -0.71875,0.90625 0.125,0.71875 0.1875,0.71875 0.59375,0.71875 0.53125,0.65625 0.71875,0.625 0.125,0.53125 -0.25,0.78125 -0.59375,0.53125 -0.28125,0.4375 0.0937,1.125 0.90625,0.59375 0.53125,0.5625 0.3125,1.125 -0.96875,1.15625 -0.15625,0.8125 0.40625,0.90625 0.59375,0.71875 v 0.71875 l 0.4375,0.5625 0.40625,0.46875 0.3125,0.53125 -0.1875,0.90625 0.59375,0.84375 0.53125,0.125 0.1875,0.40625 -0.1875,0.71875 0.5,1.03125 0.53125,0.40625 0.40625,0.84375 -0.40625,1.4375 0.59375,1.3125 0.5625,0.25 0.28125,0.59375 0.125,1.6875 -0.3125,0.71875 -0.28125,0.84375 0.84375,4.25 1.5,0.96875 -0.125,18.4375 -1.75,19.90624 -1.03125,11.53125 -1.6875,14 -0.65625,1.6875 -5.5625,-9.53125 -1.90625,-12.78125 -2.46875,-20.74999 -2.9375,-19.25 0.21875,17.5625 1.0313,14.53124 1.78125,13.84375 -12.40625,-19.65625 -17.8125,-26.71874 -4.09375,-5.6875 h -0.34375 l 1.1875,3.40625 2.21875,5.53125 3.25,7.375 5.6875,12.1875 3.4375,6.12499 4.25,7.375 8.78125,13.90625 7.9375,12.625 1.21875,11.3125 3.78125,25.84375 -0.002,-0.0161 -4.37265,-13.57769 -9.25,-22.78125 -7.375,-15.3125 -9.78125,-15.90625 -4.96875,-6.53124 -3.96875,-3.96875 -6.46875,-6 2.6875,3.3125 4.34375,4.4375 2.5625,2.87499 1.6875,2.9375 2.03125,3.25 3.3125,5.6875 2.875,5.28125 2.9375,6.53125 3.59375,8.71875 7.03125,18.1875 7.375,19.1875 4.4375,13.5625 z m -12.9406,-12.88394 -1.2869,-3.44454 -2.375,-4.5 -5.1875,-9.90625 -7.3125,-13.1875 -5.15625,-8.46875 -4.78125,-7.3125 -2.59375,-3.59375 -2.15625,-2.15625 3.71875,7.0625 3.40625,7.90625 5.125,11.65625 2.25,5.15625 2.25393,6.7029 z m -30.8494,-52.56954 -0.0625,-0.125 -0.1875,-0.125 z m 78.46875,-23.53124 -1.25,5.21874 -5.65625,22.625 -2.75,12.84375 -2.875,15.53125 -3.1875,10.125 -1.125,-2.625 -7.25,-13.4375 2.4375,-5.65625 7.9375,-16.625 4.25,-8.9375 5.6875,-12 z m 7.03125,16.84374 -1.03125,6 -2.9375,9.96875 -2.9375,7.375 -3.25,9.59375 -1.71875,9.4375 -1.625,10.0332 5.875,-5.9707 0.25,-3.0625 0.65625,-5.3125 1.5625,-7.5 3.40625,-13.40625 1.5625,-9.9375 z m -42.0625,27.34375 2.375,3.96875 -0.5,9.25 -0.375,0.28125 z m 4,6.65625 1.375,2.28125 -1.0625,2.5 -0.78125,0.5625 z"
           style="display:inline;fill:#ffffff;fill-opacity:0.436681;stroke:none"
           inkscape:connector-curvature="0"
           sodipodi:nodetypes="cccccccccccccccccccccccccccccccccccccccccccccccccccccccccccccccccccccccccccccccccccccccccccccccccccccccccccccccccccccccccccccccccccccccccccccccccccccccccccccccccccccccccccccccccccccccccccccccccccccccccccccccccccccccccccccccccccccccccccccccccccccccccccc" />
        <path
           inkscape:connector-curvature="0"
           style="color:#000000;display:inline;overflow:visible;visibility:visible;fill:#ffffff;fill-opacity:1;stroke:none;stroke-width:0.826884;marker:none;enable-background:accumulate"
           d="m 297.50037,539.11859 -3,3 22.53125,22.53125 -2.96875,2.96875 22.5,22.5 -3,3 38.46875,38.46875 38.5,-38.46875 -3,-3 22.5,-22.5 -2.96875,-2.96875 22.53125,-22.53125 -3,-3 -74.5625,74.53125 z"
           id="path5426" />
        <path
           inkscape:connector-curvature="0"
           style="color:#000000;display:inline;overflow:visible;visibility:visible;fill:#ffffff;fill-opacity:1;stroke:none;stroke-width:0.8;marker:none;enable-background:accumulate"
           d="m 372.03162,420.77484 -93.375,93.40625 93.375,93.40625 93.40625,-93.40625 z m 0,1.65625 91.75,91.75 -91.75,91.75 -91.75,-91.75 z"
           id="path5428" />
        <g
           style="display:inline;fill:#ffffff;fill-opacity:1"
           id="g5430"
           transform="translate(268.5353,413.93109)">
          <path
             inkscape:connector-curvature="0"
             id="path5432"
             d="m 30.875,210.40625 v 1.25 h 60.3125 v -1.25 z"
             style="color:#000000;font-style:normal;font-variant:normal;font-weight:normal;font-stretch:normal;font-size:medium;line-height:normal;font-family:Sans;-inkscape-font-specification:Sans;text-indent:0;text-align:start;text-decoration:none;text-decoration-line:none;letter-spacing:normal;word-spacing:normal;text-transform:none;writing-mode:lr-tb;direction:ltr;baseline-shift:baseline;text-anchor:start;display:inline;overflow:visible;visibility:visible;fill:#ffffff;fill-opacity:1;stroke:none;stroke-width:1.25;marker:none;enable-background:accumulate" />
          <path
             style="color:#000000;font-style:normal;font-variant:normal;font-weight:normal;font-stretch:normal;font-size:medium;line-height:normal;font-family:Sans;-inkscape-font-specification:Sans;text-indent:0;text-align:start;text-decoration:none;text-decoration-line:none;letter-spacing:normal;word-spacing:normal;text-transform:none;writing-mode:lr-tb;direction:ltr;baseline-shift:baseline;text-anchor:start;display:inline;overflow:visible;visibility:visible;fill:#ffffff;fill-opacity:1;stroke:none;stroke-width:1.25;marker:none;enable-background:accumulate"
             d="m 115.83638,210.40625 v 1.25 h 60.3125 v -1.25 z"
             id="path5434"
             inkscape:connector-curvature="0" />
        </g>
      </g>
      <g
         id="g5436"
         inkscape:label="white_opaque"
         style="display:none">
        <rect
           style="color:#000000;display:inline;overflow:visible;visibility:visible;fill:#c6c6c6;fill-opacity:1;fill-rule:nonzero;stroke:none;stroke-width:0.125;marker:none;enable-background:accumulate"
           id="rect5438"
           width="679.30383"
           height="437.77356"
           x="32.395325"
           y="307.29431"
           rx="15.09564"
           ry="15.09564"
           sodipodi:insensitive="true" />
        <path
           sodipodi:nodetypes="cccccccccccccccccccccccccccccccccccccccccccccccccccccccccccccccccccccccccccccccccccccccccccccccccccccccccccccccccccccccccccccccccccccccccccccccccccccccccccccccccccccccccccccccccccccccccccccccccccccccccccccccccccccccccccccccccccccccccccccccccccccccccccc"
           inkscape:connector-curvature="0"
           style="display:inline;fill:#ffffff;fill-opacity:1;stroke:none"
           d="m 367.81011,602.52854 4.21781,4.2809 1.43857,-1.54392 -2.57138,-19.15924 0.21875,-3.09375 1.3125,-4.625 1.375,-4.25 1.5,-3.34375 4.875,8.1875 4.75,8.65625 1.05469,5.08007 6.62885,-6.5039 3.34766,-25.16992 7.03125,-34.0625 4.53125,-23.12499 9.1875,-18.21875 1.375,-3.78125 0.5,-2.21875 0.1875,-3.59375 -0.5625,-2.875 -1.3125,-2.59375 -2.40625,-2.40625 0.125,0.65625 1.1875,1.21875 1.09375,2.5625 0.125,2.0625 -1.5,4.125 -1.9375,4.4375 -4.15625,7.46875 2.3125,-17.25 0.65625,-9.0625 -0.84375,-0.15625 -4.65625,31 -0.875,1.5625 -7.65625,14.40625 -9.78125,19.37499 -8.21875,16.8125 -4.5625,11.71875 -2.59375,-4.4375 1.625,-3.34375 8.9375,-17.15625 9.0625,-15.125 3.78125,-7.37499 3.125,-6.125 0.84375,-2.09375 0.1875,-2.03125 -0.375,-1.5625 h -0.375 l -0.28125,1.375 -1.5625,3.59375 -3.78125,6.375 -10.8125,16.62499 -6.15625,9.125 -4.21875,7.46875 2.59375,-25.71875 0.96875,-10.96874 0.40625,-23.1875 h -0.0625 l 0.18755,-0.78125 0.59375,-1.4375 0.46875,-1.3125 0.5625,-0.96875 v -1.90625 l -0.1875,-2.40625 0.84375,-1.5625 -0.375,-2.28125 v -1.71875 l 0.3125,-0.96875 0.65625,-2.15625 0.46875,-1.15625 -0.875,-1.4375 0.75,-1.4375 -1.1875,-0.84375 -0.71875,-2.15625 1.03125,-1.6875 -1.4375,-0.46875 -0.625,-1.125 v -0.96875 l -0.65625,-1.09375 -0.65625,-0.59375 0.0625,-0.90625 v -1 l -0.3125,-2.71875 -0.21875,-1.5625 -0.96875,-0.71875 -0.46875,-0.84375 -1.09375,-0.53125 -0.65625,-1.1875 0.125,-1.34375 -0.125,-1.375 -0.71875,-1.1875 -1.25,-0.25 -1.15625,-0.40625 -0.59375,-0.84375 -0.40625,-0.90625 -0.90625,0.59375 -0.375,1.15625 -0.1875,1.25 -0.59375,1.96875 -0.40625,-0.65625 0.1875,2.40625 -0.125,0.53125 v 0.90625 l 0.34375,0.71875 0.3125,0.96875 0.59375,0.78125 0.25,0.34375 0.1875,0.90625 -0.75,0.5625 0.3125,0.8125 -0.71875,0.90625 0.125,0.71875 0.1875,0.71875 0.59375,0.71875 0.53125,0.65625 0.71875,0.625 0.125,0.53125 -0.25,0.78125 -0.59375,0.53125 -0.28125,0.4375 0.0937,1.125 0.90625,0.59375 0.53125,0.5625 0.3125,1.125 -0.96875,1.15625 -0.15625,0.8125 0.40625,0.90625 0.59375,0.71875 v 0.71875 l 0.4375,0.5625 0.40625,0.46875 0.3125,0.53125 -0.1875,0.90625 0.59375,0.84375 0.53125,0.125 0.1875,0.40625 -0.1875,0.71875 0.5,1.03125 0.53125,0.40625 0.40625,0.84375 -0.40625,1.4375 0.59375,1.3125 0.5625,0.25 0.28125,0.59375 0.125,1.6875 -0.3125,0.71875 -0.28125,0.84375 0.84375,4.25 1.5,0.96875 -0.125,18.4375 -1.75,19.90624 -1.03125,11.53125 -1.6875,14 -0.65625,1.6875 -5.5625,-9.53125 -1.90625,-12.78125 -2.46875,-20.74999 -2.9375,-19.25 0.21875,17.5625 1.0313,14.53124 1.78125,13.84375 -12.40625,-19.65625 -17.8125,-26.71874 -4.09375,-5.6875 h -0.34375 l 1.1875,3.40625 2.21875,5.53125 3.25,7.375 5.6875,12.1875 3.4375,6.12499 4.25,7.375 8.78125,13.90625 7.9375,12.625 1.21875,11.3125 3.78125,25.84375 -0.002,-0.0161 -4.37265,-13.57769 -9.25,-22.78125 -7.375,-15.3125 -9.78125,-15.90625 -4.96875,-6.53124 -3.96875,-3.96875 -6.46875,-6 2.6875,3.3125 4.34375,4.4375 2.5625,2.87499 1.6875,2.9375 2.03125,3.25 3.3125,5.6875 2.875,5.28125 2.9375,6.53125 3.59375,8.71875 7.03125,18.1875 7.375,19.1875 4.4375,13.5625 z m -12.9406,-12.88394 -1.2869,-3.44454 -2.375,-4.5 -5.1875,-9.90625 -7.3125,-13.1875 -5.15625,-8.46875 -4.78125,-7.3125 -2.59375,-3.59375 -2.15625,-2.15625 3.71875,7.0625 3.40625,7.90625 5.125,11.65625 2.25,5.15625 2.25393,6.7029 z m -30.8494,-52.56954 -0.0625,-0.125 -0.1875,-0.125 z m 78.46875,-23.53124 -1.25,5.21874 -5.65625,22.625 -2.75,12.84375 -2.875,15.53125 -3.1875,10.125 -1.125,-2.625 -7.25,-13.4375 2.4375,-5.65625 7.9375,-16.625 4.25,-8.9375 5.6875,-12 z m 7.03125,16.84374 -1.03125,6 -2.9375,9.96875 -2.9375,7.375 -3.25,9.59375 -1.71875,9.4375 -1.625,10.0332 5.875,-5.9707 0.25,-3.0625 0.65625,-5.3125 1.5625,-7.5 3.40625,-13.40625 1.5625,-9.9375 z m -42.0625,27.34375 2.375,3.96875 -0.5,9.25 -0.375,0.28125 z m 4,6.65625 1.375,2.28125 -1.0625,2.5 -0.78125,0.5625 z"
           id="path5440" />
        <path
           id="path5442"
           d="m 297.50037,539.11859 -3,3 22.53125,22.53125 -2.96875,2.96875 22.5,22.5 -3,3 38.46875,38.46875 38.5,-38.46875 -3,-3 22.5,-22.5 -2.96875,-2.96875 22.53125,-22.53125 -3,-3 -74.5625,74.53125 z"
           style="color:#000000;display:inline;overflow:visible;visibility:visible;fill:#ffffff;fill-opacity:1;stroke:none;stroke-width:0.826884;marker:none;enable-background:accumulate"
           inkscape:connector-curvature="0" />
        <path
           id="path5444"
           d="m 372.03162,420.77484 -93.375,93.40625 93.375,93.40625 93.40625,-93.40625 z m 0,1.65625 91.75,91.75 -91.75,91.75 -91.75,-91.75 z"
           style="color:#000000;display:inline;overflow:visible;visibility:visible;fill:#ffffff;fill-opacity:1;stroke:none;stroke-width:0.8;marker:none;enable-background:accumulate"
           inkscape:connector-curvature="0" />
        <g
           transform="translate(268.5353,413.93109)"
           id="g5446"
           style="display:inline;fill:#ffffff;fill-opacity:1">
          <path
             style="color:#000000;font-style:normal;font-variant:normal;font-weight:normal;font-stretch:normal;font-size:medium;line-height:normal;font-family:Sans;-inkscape-font-specification:Sans;text-indent:0;text-align:start;text-decoration:none;text-decoration-line:none;letter-spacing:normal;word-spacing:normal;text-transform:none;writing-mode:lr-tb;direction:ltr;baseline-shift:baseline;text-anchor:start;display:inline;overflow:visible;visibility:visible;fill:#ffffff;fill-opacity:1;stroke:none;stroke-width:1.25;marker:none;enable-background:accumulate"
             d="m 30.875,210.40625 v 1.25 h 60.3125 v -1.25 z"
             id="path5448"
             inkscape:connector-curvature="0" />
          <path
             inkscape:connector-curvature="0"
             id="path5450"
             d="m 115.83638,210.40625 v 1.25 h 60.3125 v -1.25 z"
             style="color:#000000;font-style:normal;font-variant:normal;font-weight:normal;font-stretch:normal;font-size:medium;line-height:normal;font-family:Sans;-inkscape-font-specification:Sans;text-indent:0;text-align:start;text-decoration:none;text-decoration-line:none;letter-spacing:normal;word-spacing:normal;text-transform:none;writing-mode:lr-tb;direction:ltr;baseline-shift:baseline;text-anchor:start;display:inline;overflow:visible;visibility:visible;fill:#ffffff;fill-opacity:1;stroke:none;stroke-width:1.25;marker:none;enable-background:accumulate" />
        </g>
      </g>
    </g>
  </g>
</svg>
