<?xml version="1.0" encoding="UTF-8" standalone="no"?>
<svg
   width="808"
   height="977"
   viewBox="0 0 808 977"
   fill="none"
   version="1.1"
   id="svg9"
   sodipodi:docname="gs-blue.svg"
   inkscape:version="1.4 (e7c3feb100, 2024-10-09)"
   xmlns:inkscape="http://www.inkscape.org/namespaces/inkscape"
   xmlns:sodipodi="http://sodipodi.sourceforge.net/DTD/sodipodi-0.dtd"
   xmlns="http://www.w3.org/2000/svg"
   xmlns:svg="http://www.w3.org/2000/svg">
  <defs
     id="defs9">
    <clipPath
       clipPathUnits="userSpaceOnUse"
       id="clipPath14">
      <path
         d="M 8.181623,415.15733 C -4.4956914,402.86935 -4.4957115,382.94755 8.1816031,370.65958 L 379.71996,10.542498 c 12.67704,-12.2876166 33.23111,-12.2876366 45.90817,-2e-5 l 371.5383,360.117102 c 12.67804,12.28797 12.67804,32.20977 0,44.49775 l -371.5383,360.11632 c -12.67706,12.28799 -33.23113,12.28799 -45.90817,0 z"
         fill="#4cb05b"
         id="path14"
         inkscape:label="mask"
         style="display:inline;stroke-width:0.998943"
         clip-path="none" />
    </clipPath>
  </defs>
  <sodipodi:namedview
     id="namedview9"
     pagecolor="#000000"
     bordercolor="#000000"
     borderopacity="0.25"
     inkscape:showpageshadow="2"
     inkscape:pageopacity="0.0"
     inkscape:pagecheckerboard="0"
     inkscape:deskcolor="#d1d1d1"
     showgrid="true"
     inkscape:zoom="0.5"
     inkscape:cx="255"
     inkscape:cy="482"
     inkscape:window-width="1920"
     inkscape:window-height="939"
     inkscape:window-x="1920"
     inkscape:window-y="32"
     inkscape:window-maximized="1"
     inkscape:current-layer="svg9">
    <inkscape:grid
       id="grid9"
       units="px"
       originx="0"
       originy="0"
       spacingx="1"
       spacingy="1"
       empcolor="#0099e5"
       empopacity="0.30196078"
       color="#0099e5"
       opacity="0.14901961"
       empspacing="5"
       enabled="true"
       visible="true" />
  </sodipodi:namedview>
  <g
     id="grass-logo"
     style="fill:#00393f;fill-opacity:1;stroke:#00393f;stroke-opacity:1"
     inkscape:label="grass-logo">
    <g
       id="logo"
       transform="translate(1.3274143,-1.3274456)"
       style="fill:#00393f;fill-opacity:1;stroke:#00393f;stroke-opacity:1">
      <path
         fill-rule="evenodd"
         clip-rule="evenodd"
         d="M 7.7287556,378.55662 C -3.712503,389.81704 -3.712503,408.07326 7.7287275,419.33365 L 381.9552,787.6447 c 10.11478,9.95527 25.78509,11.10919 37.18794,3.46277 l -33.44703,-6.21452 c 0,0 -10.9898,-17.43684 -15.81183,-25.29393 C 356.60522,739.12563 338.67456,706.23307 325.77573,682.57 v 0 l -0.002,-0.005 -0.004,-0.007 c -4.99817,-9.16907 -9.24066,-16.95206 -12.16428,-22.08772 -6.92833,-11.22041 -11.25166,-17.99872 -14.65567,-23.33533 l -9.7e-4,-9.8e-4 c -8.76223,-13.737 -11.43747,-17.93039 -36.79515,-63.79527 -4.43213,-8.01712 -8.5841,-15.4977 -12.48775,-22.53156 l -0.008,-0.0127 -0.0106,-0.0205 -0.008,-0.0136 c -36.03323,-64.91979 -50.90452,-91.71492 -69.7103,-150.09171 -20.84753,-64.71413 -23.67876,-96.58351 -19.18984,-87.41931 19.57974,39.97522 38.09382,68.69778 61.66859,105.27267 24.04653,37.30645 53.35789,82.78119 94.4369,156.69753 -9.88947,-52.21786 -17.82668,-113.40972 -19.80883,-180.42395 61.43658,108.89644 93.18352,374.83374 93.18352,374.83374 0,0 5.78467,-207.24648 12.64369,-354.88711 -5.58443,-6.55883 -10.23893,-15.24701 -6.03111,-21.70436 3.55129,-5.44977 1.49502,-10.65567 -0.68639,-16.17956 -1.5932,-4.03341 -3.25286,-8.23655 -2.84468,-12.8269 1.38721,-15.60504 -5.40926,-29.14404 -9.80385,-37.89952 -1.10995,-2.21231 -2.06685,-4.11832 -2.69931,-5.67506 -0.7374,-1.8143 -1.84835,-3.95344 -3.0892,-6.34229 -4.04128,-7.78296 -9.46013,-18.21719 -7.82651,-28.69139 1.79633,-11.51306 0.14824,-17.98309 -1.46611,-24.31756 v -9.9e-4 c -0.30518,-1.19686 -0.60938,-2.38981 -0.88857,-3.61008 -1.08781,-4.76011 3.42613,-7.97511 6.99283,-10.51613 2.18815,-1.55876 4.0201,-2.86291 3.98256,-4.11437 -0.0386,-1.3149 -1.94939,-4.43044 -4.25114,-8.18197 v 0 c -3.46272,-5.64481 -7.80918,-12.72939 -7.99592,-17.29151 -0.19159,-4.66647 1.96192,-9.15346 3.89108,-13.17614 l 9.6e-4,-9.9e-4 c 1.21106,-2.52538 2.33448,-4.86643 2.73496,-6.95385 0.47747,-2.49029 -0.23972,-9.23834 -0.97614,-16.16878 -0.86449,-8.13513 -1.75497,-16.52287 -0.77304,-18.57228 0.75089,-1.56554 0.53428,-5.41463 0.30421,-9.49878 v 0 c -0.32731,-5.81747 -0.68157,-12.1129 1.69333,-12.9713 2.54143,-0.91884 7.24025,3.09801 11.5607,6.79098 2.54914,2.18007 4.96643,4.24608 6.73003,5.11906 l 0.17136,0.0848 c 5.33028,2.63562 14.81738,7.3255 18.4563,23.59182 4.62173,3.97393 14.77118,14.58373 18.07989,22.0565 3.30773,7.47282 0.18385,36.79339 0.18385,36.79339 1.16773,4.05388 4.98857,8.69794 8.82575,13.36049 4.57749,5.56291 9.17714,11.15314 9.31384,15.79813 2.5973,7.41233 1.01851,34.44549 1.01851,34.44549 0,0 -1.31983,18.69807 -6.25929,24.5078 -4.93946,5.80966 -3.9739,21.47123 -2.48466,28.89818 1.49023,7.42792 -6.38345,19.29211 -6.38345,19.29211 0,0 -1.28418,16.06932 -3.85935,25.02083 -1.68659,5.86039 -8.41658,15.65083 -12.86319,21.71318 -1.61341,64.78926 -4.22129,140.61458 -6.63568,205.23998 5.28122,-11.62717 7.05926,-14.46566 13.47355,-24.70967 v -9.7e-4 c 2.76863,-4.42165 6.40078,-10.22354 11.55202,-18.7059 7.88426,-12.98496 19.06473,-29.95067 30.20952,-46.86276 v 0 l 9.6e-4,-9.8e-4 c 17.48787,-26.5386 34.88717,-52.94165 39.31831,-63.60899 1.22837,-2.95849 2.6493,-6.27109 4.17895,-9.83626 7.50114,-17.4876 17.60723,-41.04529 20.35468,-58.56408 7.33365,29.05429 7.43952,66.30216 2.52318,85.31242 -4.91732,19.01023 -34.23831,70.3268 -50.01359,92.14628 -2.62807,3.63545 -5.59116,7.68935 -8.80359,12.08464 l -0.0261,0.0361 -0.002,0.002 -9.4e-4,0.002 -9.7e-4,9.9e-4 c -18.87988,25.83043 -46.36313,63.43048 -65.24879,97.26047 -1.93688,48.97261 -3.35589,81.92082 -3.35589,81.92082 0,0 18.32156,-76.41449 77.70961,-165.33016 59.38803,-88.91466 120.44821,-200.78224 126.39269,-218.52832 5.94354,-17.74608 25.53576,-78.72726 -4.19531,-141.86219 30.21337,28.96453 57.66873,99.25231 44.66497,147.46407 -13.00471,48.21278 -59.39958,138.42574 -91.52194,186.2425 -94.04318,139.99422 -135.51015,205.46629 -136.31687,213.37511 1.2274,-0.87888 2.40184,-1.86308 3.50892,-2.9536 L 797.61379,419.33347 c 11.44134,-11.26039 11.44134,-29.51661 0,-40.77703 L 423.38752,10.245721 c -11.44131,-11.2604555 -29.99099,-11.2604555 -41.43232,-2e-5 z"
         fill="#ffffff"
         id="path13"
         style="display:inline;mix-blend-mode:normal;fill:#00393f;fill-opacity:1;stroke:#00393f;stroke-width:0.968576;stroke-dasharray:none;stroke-opacity:1"
         mask="none"
         inkscape:label="logo"
         clip-path="url(#clipPath14)" />
    </g>
    <g
       id="grass-text"
       inkscape:label="grass-text"
       style="fill:#00393f;fill-opacity:1;stroke:#00393f;stroke-opacity:1">
      <title
         id="title9">grass-text</title>
      <path
         d="M199.721 849.821L216.221 832.821C191.821 806.821 152.221 811.821 139.221 817.321C119.721 825.571 109.555 840.821 104.221 849.821C92.2214 871.421 94.5548 906.487 97.2214 921.321C102.421 946.921 118.055 961.321 125.221 965.321C144.021 975.321 171.388 974.821 182.721 973.321C199.921 969.321 212.221 962.321 216.221 959.321V882.821H161.221L162.721 907.321H185.221V945.321C173.621 952.121 158.388 950.488 152.221 948.821C142.721 944.821 137.221 938.821 134.721 933.321C132.221 927.821 127.721 920.321 128.721 889.321C129.521 864.521 137.055 852.654 140.721 849.821C161.221 827.821 188.055 840.321 199.721 849.821Z"
         fill="white"
         stroke="white"
         stroke-width="2"
         id="path3"
         style="fill:#00393f;fill-opacity:1;stroke:#00393f;stroke-opacity:1" />
      <path
         fill-rule="evenodd"
         clip-rule="evenodd"
         d="M229.722 817.82V971.82H258.722V910.82H277.222L311.222 971.82H346.722L307.222 904.82C316.055 900.487 334.122 888.52 335.722 875.32C337.322 862.12 336.388 852.82 335.722 849.82C334.222 841.82 325.822 824.62 304.222 819.82L292.222 817.82H229.722ZM260.722 838.82V885.32H291.222C306.222 878.32 315.722 850.82 290.722 839.32L260.722 838.82Z"
         fill="white"
         id="path4"
         style="fill:#00393f;fill-opacity:1;stroke:#00393f;stroke-opacity:1" />
      <path
         d="M229.722 971.82H228.722V972.82H229.722V971.82ZM229.722 817.82V816.82H228.722V817.82H229.722ZM258.722 971.82V972.82H259.722V971.82H258.722ZM258.722 910.82V909.82H257.722V910.82H258.722ZM277.222 910.82L278.095 910.333L277.809 909.82H277.222V910.82ZM311.222 971.82L310.348 972.307L310.634 972.82H311.222V971.82ZM346.722 971.82V972.82H348.472L347.583 971.312L346.722 971.82ZM307.222 904.82L306.781 903.923L305.812 904.398L306.36 905.328L307.222 904.82ZM335.722 875.32L336.714 875.441L335.722 875.32ZM335.722 849.82L334.739 850.004L334.742 850.021L334.745 850.037L335.722 849.82ZM304.222 819.82L304.439 818.844L304.412 818.838L304.386 818.834L304.222 819.82ZM292.222 817.82L292.386 816.834L292.304 816.82H292.222V817.82ZM260.722 885.32H259.722V886.32H260.722V885.32ZM260.722 838.82L260.738 837.82L259.722 837.804V838.82H260.722ZM291.222 885.32V886.32H291.444L291.645 886.226L291.222 885.32ZM290.722 839.32L291.14 838.412L290.949 838.324L290.738 838.32L290.722 839.32ZM230.722 971.82V817.82H228.722V971.82H230.722ZM258.722 970.82H229.722V972.82H258.722V970.82ZM257.722 910.82V971.82H259.722V910.82H257.722ZM277.222 909.82H258.722V911.82H277.222V909.82ZM312.095 971.333L278.095 910.333L276.348 911.307L310.348 972.307L312.095 971.333ZM346.722 970.82H311.222V972.82H346.722V970.82ZM306.36 905.328L345.86 972.328L347.583 971.312L308.083 904.312L306.36 905.328ZM334.729 875.2C333.975 881.424 329.295 887.505 323.519 892.649C317.778 897.761 311.132 901.788 306.781 903.923L307.662 905.718C312.145 903.519 318.949 899.396 324.849 894.142C330.715 888.919 335.869 882.417 336.714 875.441L334.729 875.2ZM334.745 850.037C335.381 852.899 336.319 862.081 334.729 875.2L336.714 875.441C338.324 862.16 337.395 852.741 336.698 849.603L334.745 850.037ZM304.005 820.797C325.115 825.488 333.292 842.288 334.739 850.004L336.705 849.636C335.151 841.353 326.528 823.753 304.439 818.844L304.005 820.797ZM292.057 818.807L304.057 820.807L304.386 818.834L292.386 816.834L292.057 818.807ZM229.722 818.82H292.222V816.82H229.722V818.82ZM261.722 885.32V838.82H259.722V885.32H261.722ZM291.222 884.32H260.722V886.32H291.222V884.32ZM290.304 840.229C296.389 843.028 300.309 846.768 302.582 850.861C304.857 854.957 305.519 859.474 304.979 863.886C303.892 872.761 297.96 881.072 290.799 884.414L291.645 886.226C299.483 882.569 305.801 873.63 306.964 864.129C307.549 859.354 306.837 854.403 304.33 849.889C301.822 845.373 297.554 841.362 291.14 838.412L290.304 840.229ZM260.705 839.82L290.705 840.32L290.738 838.32L260.738 837.82L260.705 839.82Z"
         fill="white"
         id="path5"
         style="fill:#00393f;fill-opacity:1;stroke:#00393f;stroke-opacity:1" />
      <path
         fill-rule="evenodd"
         clip-rule="evenodd"
         d="M346.222 971.82H374.222L384.722 936.32H432.722L443.222 971.82H476.222L428.722 816.82H390.722L341.722 971.82H346.222ZM390.722 912.32H427.222L408.722 846.82L390.722 912.32Z"
         fill="white"
         id="path6"
         style="fill:#00393f;fill-opacity:1;stroke:#00393f;stroke-opacity:1" />
      <path
         d="M374.222 971.82V972.82H374.969L375.181 972.104L374.222 971.82ZM384.722 936.32V935.32H383.975L383.763 936.037L384.722 936.32ZM432.722 936.32L433.681 936.037L433.469 935.32H432.722V936.32ZM443.222 971.82L442.263 972.104L442.475 972.82H443.222V971.82ZM476.222 971.82V972.82H477.574L477.178 971.527L476.222 971.82ZM428.722 816.82L429.678 816.527L429.461 815.82H428.722V816.82ZM390.722 816.82V815.82H389.989L389.768 816.519L390.722 816.82ZM341.722 971.82L340.768 971.519L340.357 972.82H341.722V971.82ZM427.222 912.32V913.32H428.543L428.184 912.049L427.222 912.32ZM390.722 912.32L389.757 912.055L389.41 913.32H390.722V912.32ZM408.722 846.82L409.684 846.549L408.708 843.095L407.757 846.555L408.722 846.82ZM374.222 970.82H346.222V972.82H374.222V970.82ZM383.763 936.037L373.263 971.537L375.181 972.104L385.681 936.604L383.763 936.037ZM432.722 935.32H384.722V937.32H432.722V935.32ZM444.181 971.537L433.681 936.037L431.763 936.604L442.263 972.104L444.181 971.537ZM476.222 970.82H443.222V972.82H476.222V970.82ZM427.766 817.113L475.266 972.113L477.178 971.527L429.678 816.527L427.766 817.113ZM390.722 817.82H428.722V815.82H390.722V817.82ZM342.675 972.122L391.675 817.122L389.768 816.519L340.768 971.519L342.675 972.122ZM346.222 970.82H341.722V972.82H346.222V970.82ZM427.222 911.32H390.722V913.32H427.222V911.32ZM407.759 847.092L426.259 912.592L428.184 912.049L409.684 846.549L407.759 847.092ZM391.686 912.585L409.686 847.085L407.757 846.555L389.757 912.055L391.686 912.585Z"
         fill="white"
         id="path7"
         style="fill:#00393f;fill-opacity:1;stroke:#00393f;stroke-opacity:1" />
      <path
         d="M693.722 850.334L709.222 833.334C696.822 820.934 679.388 815.5 672.222 814.334C647.022 809.934 631.388 816.167 626.722 819.834C613.522 826.234 606.222 841.834 604.222 848.834C601.822 866.834 608.222 877.667 611.722 880.834C614.922 887.234 627.388 894.834 633.222 897.834L674.222 913.834C682.622 920.234 682.055 930.834 680.722 935.334C676.722 944.534 667.722 948.167 663.722 948.834C656.922 951.234 644.888 949.834 639.722 948.834C631.322 948.034 618.888 939.5 613.722 935.334L597.722 953.834C610.522 963.834 624.055 970.334 629.222 972.334C647.722 976.834 666.722 975.334 672.222 974.334C677.722 973.334 698.722 964.834 706.222 952.334C713.722 939.834 715.222 919.334 709.222 905.834C704.422 895.034 691.555 887.334 685.722 884.834L653.222 872.834C639.622 868.034 637.222 858.82 637.222 856.334C637.222 854.32 638.825 848.149 639.222 847.32C642.032 841.446 649.722 838.82 652.222 838.32C654.722 837.82 662.622 837.734 670.222 839.334C677.822 840.934 689.055 847.334 693.722 850.334Z"
         fill="white"
         stroke="white"
         stroke-width="2"
         id="path8"
         style="fill:#00393f;fill-opacity:1;stroke:#00393f;stroke-opacity:1" />
      <path
         d="m 573.722,850.334 15.5,-17 c -12.4,-12.4 -29.834,-17.834 -37,-19 -25.2,-4.4 -40.834,1.833 -45.5,5.5 -13.2,6.4 -20.5,22 -22.5,29 -2.4,18 4,28.833 7.5,32 3.2,6.4 15.666,14 21.5,17 l 41,16 c 8.4,6.4 7.833,17 6.5,21.5 -4,9.2 -13,12.833 -17,13.5 -6.8,2.4 -18.834,1 -24,0 -8.4,-0.8 -20.834,-9.334 -26,-13.5 l -16,18.5 c 12.8,10 26.333,16.5 31.5,18.5 18.5,4.5 37.5,3 43,2 5.5,-1 26.5,-9.5 34,-22 7.5,-12.5 9,-33 3,-46.5 -4.8,-10.8 -17.667,-18.5 -23.5,-21 l -32.5,-12 c -13.6,-4.8 -16,-14.014 -16,-16.5 0,-2.014 1.603,-8.185 2,-9.014 2.81,-5.874 10.5,-8.5 13,-9 2.5,-0.5 10.4,-0.586 18,1.014 7.6,1.6 18.833,8 23.5,11 z"
         fill="#ffffff"
         stroke="#ffffff"
         stroke-width="2"
         id="path9"
         style="display:inline;fill:#00393f;fill-opacity:1;stroke:#00393f;stroke-opacity:1" />
    </g>
  </g>
</svg>
