<svg width="808" height="977" viewBox="0 0 808 977" fill="none" xmlns="http://www.w3.org/2000/svg">
<mask id="mask0_172_1462" style="mask-type:alpha" maskUnits="userSpaceOnUse" x="0" y="0" width="808" height="785">
<path d="M9.50796 414.707C-3.16931 402.393 -3.16933 382.429 9.50794 370.115L381.045 9.23524C393.722 -3.0784 414.276 -3.07842 426.953 9.23522L798.49 370.115C811.168 382.429 811.168 402.393 798.49 414.707L426.953 775.586C414.276 787.9 393.722 787.9 381.045 775.586L9.50796 414.707Z" fill="#4CB05B"/>
</mask>
<g mask="url(#mask0_172_1462)">
<path fill-rule="evenodd" clip-rule="evenodd" d="M-6.08627 370.823C-17.9712 382.367 -17.9712 401.083 -6.0863 412.627L382.652 790.214C393.159 800.42 409.437 801.603 421.282 793.764L386.538 787.393C386.538 787.393 375.122 769.517 370.113 761.462C356.319 740.473 337.693 706.752 324.294 682.493L324.294 682.493L324.292 682.488L324.288 682.481C319.096 673.081 314.689 665.102 311.652 659.837C304.455 648.334 299.964 641.385 296.428 635.914L296.427 635.913C287.325 621.83 284.546 617.531 258.205 570.511C253.601 562.292 249.288 554.623 245.233 547.412L245.225 547.399L245.214 547.378L245.206 547.364C207.775 480.809 192.327 453.339 172.792 393.492C151.136 327.148 148.195 294.476 152.858 303.871C173.197 344.853 192.429 374.299 216.918 411.795C241.897 450.041 272.345 496.661 315.017 572.439C304.744 518.906 296.499 456.173 294.44 387.471C358.259 499.11 391.237 771.745 391.237 771.745C391.237 771.745 397.246 559.279 404.371 407.92C398.57 401.196 393.735 392.289 398.106 385.669C401.795 380.082 399.659 374.745 397.393 369.082C395.738 364.947 394.014 360.638 394.438 355.932C395.879 339.934 388.819 326.054 384.254 317.078C383.101 314.81 382.107 312.856 381.45 311.26C380.684 309.4 379.53 307.207 378.241 304.758C374.043 296.779 368.414 286.082 370.111 275.344C371.977 263.541 370.265 256.908 368.588 250.414L368.588 250.413C368.271 249.186 367.955 247.963 367.665 246.712C366.535 241.832 371.224 238.536 374.929 235.931C377.202 234.333 379.105 232.996 379.066 231.713C379.026 230.365 377.041 227.171 374.65 223.325L374.65 223.325C371.053 217.538 366.538 210.275 366.344 205.598C366.145 200.814 368.382 196.214 370.386 192.09L370.387 192.089C371.645 189.5 372.812 187.1 373.228 184.96C373.724 182.407 372.979 175.489 372.214 168.384C371.316 160.044 370.391 151.445 371.411 149.344C372.191 147.739 371.966 143.793 371.727 139.606V139.606C371.387 133.642 371.019 127.188 373.486 126.308C376.126 125.366 381.007 129.484 385.495 133.27C388.143 135.505 390.654 137.623 392.486 138.518L392.664 138.605C398.201 141.307 408.056 146.115 411.836 162.791C416.637 166.865 427.18 177.742 430.617 185.403C434.053 193.064 430.808 223.123 430.808 223.123C432.021 227.279 435.99 232.04 439.976 236.82C444.731 242.523 449.509 248.254 449.651 253.016C452.349 260.615 450.709 288.329 450.709 288.329C450.709 288.329 449.338 307.498 444.207 313.454C439.076 319.41 440.079 335.466 441.626 343.08C443.174 350.695 434.995 362.858 434.995 362.858C434.995 362.858 433.661 379.332 430.986 388.509C429.234 394.517 422.243 404.554 417.624 410.769C415.948 477.19 413.239 554.925 410.731 621.178C416.217 609.258 418.064 606.348 424.727 595.846L424.727 595.845C427.603 591.312 431.376 585.364 436.727 576.668C444.917 563.356 456.531 545.963 468.108 528.625L468.108 528.625L468.109 528.624C486.275 501.417 504.349 474.349 508.952 463.413C510.228 460.38 511.704 456.984 513.293 453.329C521.085 435.401 531.583 411.25 534.437 393.29C542.055 423.076 542.165 461.262 537.058 480.751C531.95 500.24 501.492 552.849 485.105 575.218C482.375 578.945 479.297 583.101 475.96 587.607L475.933 587.644L475.931 587.646L475.93 587.648L475.929 587.649C456.317 614.13 427.768 652.677 408.15 687.359C406.138 737.565 404.664 771.343 404.664 771.343C404.664 771.343 423.696 693.004 485.387 601.849C547.078 510.695 610.506 396.01 616.681 377.817C622.855 359.624 643.207 297.107 612.323 232.382C643.708 262.076 672.228 334.134 658.72 383.56C645.211 432.987 597.017 525.472 563.649 574.493C465.959 718.013 422.884 785.134 422.046 793.242C423.321 792.341 424.541 791.332 425.691 790.214L814.429 412.627C826.314 401.083 826.314 382.367 814.429 370.823L425.691 -6.76385C413.806 -18.3079 394.537 -18.3079 382.652 -6.76387L-6.08627 370.823Z" fill="white"/>
</g>
<path d="M199.721 849.821L216.221 832.821C191.821 806.821 152.221 811.821 139.221 817.321C119.721 825.571 109.555 840.821 104.221 849.821C92.2214 871.421 94.5548 906.487 97.2214 921.321C102.421 946.921 118.055 961.321 125.221 965.321C144.021 975.321 171.388 974.821 182.721 973.321C199.921 969.321 212.221 962.321 216.221 959.321V882.821H161.221L162.721 907.321H185.221V945.321C173.621 952.121 158.388 950.488 152.221 948.821C142.721 944.821 137.221 938.821 134.721 933.321C132.221 927.821 127.721 920.321 128.721 889.321C129.521 864.521 137.055 852.654 140.721 849.821C161.221 827.821 188.055 840.321 199.721 849.821Z" fill="white" stroke="white" stroke-width="2"/>
<path fill-rule="evenodd" clip-rule="evenodd" d="M229.722 817.82V971.82H258.722V910.82H277.222L311.222 971.82H346.722L307.222 904.82C316.055 900.487 334.122 888.52 335.722 875.32C337.322 862.12 336.388 852.82 335.722 849.82C334.222 841.82 325.822 824.62 304.222 819.82L292.222 817.82H229.722ZM260.722 838.82V885.32H291.222C306.222 878.32 315.722 850.82 290.722 839.32L260.722 838.82Z" fill="white"/>
<path d="M229.722 971.82H228.722V972.82H229.722V971.82ZM229.722 817.82V816.82H228.722V817.82H229.722ZM258.722 971.82V972.82H259.722V971.82H258.722ZM258.722 910.82V909.82H257.722V910.82H258.722ZM277.222 910.82L278.095 910.333L277.809 909.82H277.222V910.82ZM311.222 971.82L310.348 972.307L310.634 972.82H311.222V971.82ZM346.722 971.82V972.82H348.472L347.583 971.312L346.722 971.82ZM307.222 904.82L306.781 903.923L305.812 904.398L306.36 905.328L307.222 904.82ZM335.722 875.32L336.714 875.441L335.722 875.32ZM335.722 849.82L334.739 850.004L334.742 850.021L334.745 850.037L335.722 849.82ZM304.222 819.82L304.439 818.844L304.412 818.838L304.386 818.834L304.222 819.82ZM292.222 817.82L292.386 816.834L292.304 816.82H292.222V817.82ZM260.722 885.32H259.722V886.32H260.722V885.32ZM260.722 838.82L260.738 837.82L259.722 837.804V838.82H260.722ZM291.222 885.32V886.32H291.444L291.645 886.226L291.222 885.32ZM290.722 839.32L291.14 838.412L290.949 838.324L290.738 838.32L290.722 839.32ZM230.722 971.82V817.82H228.722V971.82H230.722ZM258.722 970.82H229.722V972.82H258.722V970.82ZM257.722 910.82V971.82H259.722V910.82H257.722ZM277.222 909.82H258.722V911.82H277.222V909.82ZM312.095 971.333L278.095 910.333L276.348 911.307L310.348 972.307L312.095 971.333ZM346.722 970.82H311.222V972.82H346.722V970.82ZM306.36 905.328L345.86 972.328L347.583 971.312L308.083 904.312L306.36 905.328ZM334.729 875.2C333.975 881.424 329.295 887.505 323.519 892.649C317.778 897.761 311.132 901.788 306.781 903.923L307.662 905.718C312.145 903.519 318.949 899.396 324.849 894.142C330.715 888.919 335.869 882.417 336.714 875.441L334.729 875.2ZM334.745 850.037C335.381 852.899 336.319 862.081 334.729 875.2L336.714 875.441C338.324 862.16 337.395 852.741 336.698 849.603L334.745 850.037ZM304.005 820.797C325.115 825.488 333.292 842.288 334.739 850.004L336.705 849.636C335.151 841.353 326.528 823.753 304.439 818.844L304.005 820.797ZM292.057 818.807L304.057 820.807L304.386 818.834L292.386 816.834L292.057 818.807ZM229.722 818.82H292.222V816.82H229.722V818.82ZM261.722 885.32V838.82H259.722V885.32H261.722ZM291.222 884.32H260.722V886.32H291.222V884.32ZM290.304 840.229C296.389 843.028 300.309 846.768 302.582 850.861C304.857 854.957 305.519 859.474 304.979 863.886C303.892 872.761 297.96 881.072 290.799 884.414L291.645 886.226C299.483 882.569 305.801 873.63 306.964 864.129C307.549 859.354 306.837 854.403 304.33 849.889C301.822 845.373 297.554 841.362 291.14 838.412L290.304 840.229ZM260.705 839.82L290.705 840.32L290.738 838.32L260.738 837.82L260.705 839.82Z" fill="white"/>
<path fill-rule="evenodd" clip-rule="evenodd" d="M346.222 971.82H374.222L384.722 936.32H432.722L443.222 971.82H476.222L428.722 816.82H390.722L341.722 971.82H346.222ZM390.722 912.32H427.222L408.722 846.82L390.722 912.32Z" fill="white"/>
<path d="M374.222 971.82V972.82H374.969L375.181 972.104L374.222 971.82ZM384.722 936.32V935.32H383.975L383.763 936.037L384.722 936.32ZM432.722 936.32L433.681 936.037L433.469 935.32H432.722V936.32ZM443.222 971.82L442.263 972.104L442.475 972.82H443.222V971.82ZM476.222 971.82V972.82H477.574L477.178 971.527L476.222 971.82ZM428.722 816.82L429.678 816.527L429.461 815.82H428.722V816.82ZM390.722 816.82V815.82H389.989L389.768 816.519L390.722 816.82ZM341.722 971.82L340.768 971.519L340.357 972.82H341.722V971.82ZM427.222 912.32V913.32H428.543L428.184 912.049L427.222 912.32ZM390.722 912.32L389.757 912.055L389.41 913.32H390.722V912.32ZM408.722 846.82L409.684 846.549L408.708 843.095L407.757 846.555L408.722 846.82ZM374.222 970.82H346.222V972.82H374.222V970.82ZM383.763 936.037L373.263 971.537L375.181 972.104L385.681 936.604L383.763 936.037ZM432.722 935.32H384.722V937.32H432.722V935.32ZM444.181 971.537L433.681 936.037L431.763 936.604L442.263 972.104L444.181 971.537ZM476.222 970.82H443.222V972.82H476.222V970.82ZM427.766 817.113L475.266 972.113L477.178 971.527L429.678 816.527L427.766 817.113ZM390.722 817.82H428.722V815.82H390.722V817.82ZM342.675 972.122L391.675 817.122L389.768 816.519L340.768 971.519L342.675 972.122ZM346.222 970.82H341.722V972.82H346.222V970.82ZM427.222 911.32H390.722V913.32H427.222V911.32ZM407.759 847.092L426.259 912.592L428.184 912.049L409.684 846.549L407.759 847.092ZM391.686 912.585L409.686 847.085L407.757 846.555L389.757 912.055L391.686 912.585Z" fill="white"/>
<path d="M693.722 850.334L709.222 833.334C696.822 820.934 679.388 815.5 672.222 814.334C647.022 809.934 631.388 816.167 626.722 819.834C613.522 826.234 606.222 841.834 604.222 848.834C601.822 866.834 608.222 877.667 611.722 880.834C614.922 887.234 627.388 894.834 633.222 897.834L674.222 913.834C682.622 920.234 682.055 930.834 680.722 935.334C676.722 944.534 667.722 948.167 663.722 948.834C656.922 951.234 644.888 949.834 639.722 948.834C631.322 948.034 618.888 939.5 613.722 935.334L597.722 953.834C610.522 963.834 624.055 970.334 629.222 972.334C647.722 976.834 666.722 975.334 672.222 974.334C677.722 973.334 698.722 964.834 706.222 952.334C713.722 939.834 715.222 919.334 709.222 905.834C704.422 895.034 691.555 887.334 685.722 884.834L653.222 872.834C639.622 868.034 637.222 858.82 637.222 856.334C637.222 854.32 638.825 848.149 639.222 847.32C642.032 841.446 649.722 838.82 652.222 838.32C654.722 837.82 662.622 837.734 670.222 839.334C677.822 840.934 689.055 847.334 693.722 850.334Z" fill="white" stroke="white" stroke-width="2"/>
<path d="M573.722 850.334L589.222 833.334C576.822 820.934 559.388 815.5 552.222 814.334C527.022 809.934 511.388 816.167 506.722 819.834C493.522 826.234 486.222 841.834 484.222 848.834C481.822 866.834 488.222 877.667 491.722 880.834C494.922 887.234 507.388 894.834 513.222 897.834L554.222 913.834C562.622 920.234 562.055 930.834 560.722 935.334C556.722 944.534 547.722 948.167 543.722 948.834C536.922 951.234 524.888 949.834 519.722 948.834C511.322 948.034 498.888 939.5 493.722 935.334L477.722 953.834C490.522 963.834 504.055 970.334 509.222 972.334C527.722 976.834 546.722 975.334 552.222 974.334C557.722 973.334 578.722 964.834 586.222 952.334C593.722 939.834 595.222 919.334 589.222 905.834C584.422 895.034 571.555 887.334 565.722 884.834L533.222 872.834C519.622 868.034 517.222 858.82 517.222 856.334C517.222 854.32 518.825 848.149 519.222 847.32C522.032 841.446 529.722 838.82 532.222 838.32C534.722 837.82 542.622 837.734 550.222 839.334C557.822 840.934 569.055 847.334 573.722 850.334Z" fill="white" stroke="white" stroke-width="2"/>
</svg>
