<?xml version="1.0" encoding="utf-8"?>
<!-- Generator: Adobe Illustrator 14.0.0, SVG Export Plug-In . SVG Version: 6.00 Build 43363)  -->
<!DOCTYPE svg PUBLIC "-//W3C//DTD SVG 1.1//EN" "http://www.w3.org/Graphics/SVG/1.1/DTD/svg11.dtd">
<svg version="1.1" id="Ebene_1" xmlns="http://www.w3.org/2000/svg" xmlns:xlink="http://www.w3.org/1999/xlink" x="0px" y="0px"
	 width="283.46px" height="179.671px" viewBox="0 0 283.46 179.671" enable-background="new 0 0 283.46 179.671"
	 xml:space="preserve">
<g>
	<defs>
		<rect id="SVGID_1_" width="283.46" height="179.671"/>
	</defs>
	<clipPath id="SVGID_2_">
		<use xlink:href="#SVGID_1_"  overflow="visible"/>
	</clipPath>
	<path clip-path="url(#SVGID_2_)" fill="#112369" d="M124.948,0h-2.682c-2.199,1.137-5.094,2.723-7.237,3.963
		c-1.216,1.385-2.737,3.326-3.772,4.849h4.088c1.924-1.486,4.521-3.431,6.498-4.849C122.679,2.705,123.921,1.111,124.948,0"/>
	<path clip-path="url(#SVGID_2_)" fill="#112369" d="M126.038,10.466c-1.7,1.75-3.944,4.103-5.61,5.882h-6.115
		c0.191-1.779,0.574-4.141,0.977-5.882c-0.398,1.745-0.791,4.104-0.979,5.885h6.117C122.094,14.57,124.337,12.216,126.038,10.466"/>
	<path clip-path="url(#SVGID_2_)" fill="#8DC63F" d="M137.74,0h-3.933c-1.496,1.172-3.479,2.759-4.954,3.963
		c-0.096,1.453-0.089,3.398,0.008,4.849h0.003h5.993c1.206-1.45,2.803-3.389,3.994-4.849C138.455,2.794,137.994,1.208,137.74,0"/>
	<path clip-path="url(#SVGID_2_)" fill="#112369" d="M149.639,10.466c-0.829,1.783-1.989,4.138-2.9,5.882h-4.353h-3.358
		c-0.888-1.744-2.024-4.095-2.822-5.882c0.8,1.787,1.934,4.142,2.822,5.885h3.358h4.353
		C147.647,14.605,148.816,12.253,149.639,10.466"/>
	<path clip-path="url(#SVGID_2_)" fill="#112369" d="M170.665,10.466c0.366,1.746,0.72,4.104,0.878,5.882h-6.172
		c-1.65-1.779-3.866-4.132-5.549-5.882c1.683,1.751,3.898,4.107,5.553,5.885h6.168C171.381,14.574,171.037,12.212,170.665,10.466"/>
	<path clip-path="url(#SVGID_2_)" fill="#112369" d="M164.161,0h-2.689c1.017,1.115,2.264,2.701,3.092,3.963
		c1.975,1.422,4.568,3.36,6.492,4.849h0.002h4.097c-1.034-1.52-2.538-3.468-3.758-4.849C169.254,2.725,166.567,0.584,164.161,0"/>
	<path clip-path="url(#SVGID_2_)" fill="#112369" d="M97.442,27.294c-1.645,2.229-3.772,5.252-5.303,7.562H88.15
		c0.44-2.291,1.162-5.324,1.818-7.562l-0.003,0.004c-0.648,2.237-1.382,5.267-1.815,7.558h3.989
		c1.533-2.306,3.653-5.333,5.303-7.558V27.294"/>
	<path clip-path="url(#SVGID_2_)" fill="#112369" d="M120.639,27.294c-1.661,2.25-3.847,5.273-5.459,7.562h-7.526
		c-0.418-2.258-0.885-5.283-1.14-7.562v0.004c0.26,2.277,0.717,5.304,1.14,7.558h7.526c1.615-2.285,3.796-5.311,5.459-7.558V27.294"
		/>
	<path clip-path="url(#SVGID_2_)" fill="#112369" d="M126.208,5.361h-4.566c-1.928,1.502-4.472,3.542-6.351,5.105
		c-0.398,1.742-0.791,4.103-0.978,5.882h6.115c1.669-1.779,3.91-4.132,5.61-5.882C125.997,8.935,126.054,6.887,126.208,5.361"/>
	<path clip-path="url(#SVGID_2_)" fill="#112369" d="M134.081,12.19h-6.552c-1.648,1.822-3.826,4.265-5.446,6.108
		c0.48,2.053,1.212,4.773,1.824,6.79h0.002h8.059c1.451-2.036,3.378-4.752,4.821-6.79C135.935,16.485,134.843,14.043,134.081,12.19"
		/>
	<path clip-path="url(#SVGID_2_)" fill="#112369" d="M151.648,27.294c-1.202,2.283-2.843,5.308-4.101,7.562h-5.357h-4.128
		c-1.247-2.254-2.875-5.278-4.06-7.562l-0.004,0.004c1.189,2.282,2.817,5.305,4.064,7.558h4.128h5.357
		c1.254-2.254,2.903-5.276,4.107-7.558L151.648,27.294"/>
	<path clip-path="url(#SVGID_2_)" fill="#112369" d="M145.848,5.361h-3.249h-2.505c-1.156,1.539-2.712,3.581-3.888,5.105
		c0.8,1.786,1.934,4.139,2.822,5.882h3.358h4.353c0.908-1.746,2.077-4.096,2.9-5.882C148.49,8.942,146.97,6.902,145.848,5.361"/>
	<path clip-path="url(#SVGID_2_)" fill="#112369" d="M158.874,12.19h-6.522c-0.757,1.852-1.836,4.298-2.691,6.108
		c1.44,2.038,3.357,4.754,4.798,6.79h8.027c0.608-2.019,1.348-4.734,1.822-6.79C162.687,16.456,160.518,14.009,158.874,12.19"/>
	<path clip-path="url(#SVGID_2_)" fill="#112369" d="M164.364,5.361h-4.605c0.118,1.527,0.141,3.574,0.064,5.105
		c1.682,1.75,3.896,4.103,5.549,5.882h6.171c-0.163-1.778-0.505-4.137-0.878-5.882C168.8,8.906,166.664,6.153,164.364,5.361"/>
	<path clip-path="url(#SVGID_2_)" fill="#112369" d="M196.227,27.294c0.62,2.241,1.322,5.271,1.733,7.562h-4.115
		c-1.543-2.306-3.676-5.336-5.334-7.562v0.004c1.655,2.227,3.794,5.249,5.334,7.558h4.115c-0.416-2.29-1.103-5.322-1.733-7.558
		V27.294"/>
	<path clip-path="url(#SVGID_2_)" fill="#112369" d="M104.05,29.556h-5.746c-1.614,2.278-3.693,5.366-5.191,7.721
		c0.185,2.469,0.551,5.751,0.918,8.197h6.294c1.418-2.488,3.375-5.772,4.898-8.197C104.792,34.976,104.313,31.885,104.05,29.556"/>
	<path clip-path="url(#SVGID_2_)" fill="#112369" d="M98.989,20.315h-3.454c-1.73,2.042-3.962,4.834-5.567,6.978v0.001
		c-0.65,2.24-1.382,5.269-1.818,7.562h3.989c1.534-2.306,3.653-5.336,5.304-7.562l0.003-0.001
		C97.808,25.18,98.418,22.382,98.989,20.315"/>
	<path clip-path="url(#SVGID_2_)" fill="#8DC63F" d="M118.943,20.315h-6.518c-1.806,2.065-4.17,4.855-5.911,6.978v0.001
		c0.26,2.279,0.717,5.307,1.14,7.562h7.526c1.615-2.286,3.796-5.312,5.459-7.562l0.002-0.001
		C120.063,25.218,119.377,22.424,118.943,20.315"/>
	<path clip-path="url(#SVGID_2_)" fill="#112369" d="M131.466,29.556h-8.424c-1.63,2.3-3.775,5.388-5.36,7.721
		c0.988,2.479,2.363,5.758,3.439,8.197h0.005h9.221c1.52-2.468,3.559-5.746,5.106-8.197
		C134.225,34.976,132.629,31.889,131.466,29.556"/>
	<path clip-path="url(#SVGID_2_)" fill="#112369" d="M146.968,20.315h-4.638h-3.577c-1.424,2.094-3.326,4.886-4.755,6.978
		l0.003,0.001c1.188,2.283,2.813,5.308,4.061,7.562h4.128h5.356c1.254-2.255,2.9-5.278,4.102-7.562l0.006-0.001
		C150.241,25.201,148.366,22.41,146.968,20.315"/>
	<path clip-path="url(#SVGID_2_)" fill="#112369" d="M163.348,29.556h-8.388c-1.154,2.333-2.743,5.42-3.959,7.721
		c1.533,2.451,3.563,5.729,5.075,8.197h9.182c1.074-2.441,2.452-5.716,3.437-8.197C167.112,34.945,164.976,31.856,163.348,29.556"/>
	<path clip-path="url(#SVGID_2_)" fill="#8DC63F" d="M188.09,29.556h-5.761c-0.271,2.328-0.746,5.42-1.185,7.721
		c1.52,2.429,3.483,5.706,4.902,8.197h0.003h6.307c0.37-2.446,0.753-5.728,0.93-8.197C191.785,34.923,189.708,31.831,188.09,29.556"
		/>
	<path clip-path="url(#SVGID_2_)" fill="#8DC63F" d="M190.621,20.315h-3.563c0.539,2.068,1.126,4.865,1.455,6.978v0.001
		c1.655,2.229,3.794,5.252,5.334,7.562h4.115c-0.416-2.29-1.104-5.322-1.735-7.562v-0.001
		C194.602,25.15,192.365,22.356,190.621,20.315"/>
	<path clip-path="url(#SVGID_2_)" fill="#8DC63F" d="M99.77,50.7h-6.373c-1.015,2.605-2.263,6.122-3.102,8.789
		c0.947,2.633,2.32,6.109,3.434,8.677h6.329c0.844-2.624,2.053-6.099,3.03-8.677C102.029,56.876,100.697,53.361,99.77,50.7"/>
	<path clip-path="url(#SVGID_2_)" fill="#112369" d="M90.701,39.743h-4.1c-1.097,2.458-2.451,5.792-3.367,8.327
		c0.179,2.618,0.553,6.1,0.941,8.697h4.276c0.877-2.64,2.156-6.125,3.207-8.697C91.277,45.582,90.887,42.249,90.701,39.743"/>
	<path clip-path="url(#SVGID_2_)" fill="#112369" d="M130.179,50.7h-9.343c-1.419,2.615-3.258,6.128-4.593,8.789
		c1.384,2.623,3.276,6.096,4.741,8.677h0.005h9.277c1.409-2.611,3.307-6.082,4.748-8.677C133.55,56.858,131.614,53.346,130.179,50.7
		"/>
	<path clip-path="url(#SVGID_2_)" fill="#112369" d="M147.667,39.743h-5.504h-4.246c-1.535,2.491-3.569,5.821-5.084,8.327
		c1.443,2.613,3.389,6.093,4.858,8.697h4.425h5.74c1.467-2.605,3.411-6.084,4.86-8.697C151.21,45.563,149.192,42.234,147.667,39.743
		"/>
	<path clip-path="url(#SVGID_2_)" fill="#112369" d="M165.546,50.7h-9.306c-1.428,2.646-3.348,6.16-4.805,8.789
		c1.431,2.595,3.321,6.065,4.72,8.677h9.244c1.458-2.583,3.351-6.051,4.726-8.677C168.792,56.832,166.961,53.312,165.546,50.7"/>
	<path clip-path="url(#SVGID_2_)" fill="#112369" d="M179.04,39.743h-7.807c-0.983,2.517-2.362,5.847-3.441,8.327
		c1.435,2.586,3.297,6.064,4.644,8.697h8.135c1.041-2.588,2.356-6.066,3.274-8.697C182.45,45.541,180.531,42.208,179.04,39.743"/>
	<path clip-path="url(#SVGID_2_)" fill="#112369" d="M192.991,50.7h-6.389c-0.936,2.66-2.264,6.177-3.323,8.789
		c0.971,2.578,2.194,6.052,3.033,8.677h0.005h6.349c1.11-2.57,2.49-6.041,3.438-8.677C195.254,56.824,194.014,53.304,192.991,50.7"
		/>
	<path clip-path="url(#SVGID_2_)" fill="#112369" d="M199.5,39.743h-4.229c-0.218,2.506-0.628,5.842-1.037,8.327
		c1.065,2.576,2.378,6.057,3.263,8.697h4.413c0.408-2.597,0.821-6.076,1.02-8.697C201.985,45.536,200.622,42.201,199.5,39.743"/>
	<path clip-path="url(#SVGID_2_)" fill="#8DC63F" d="M88.565,62.183h-4.268c-0.268,2.563-0.495,5.997-0.546,8.573
		c1.025,2.491,2.507,5.767,3.707,8.177h4.038c0.084-2.458,0.327-5.731,0.605-8.177C90.961,68.219,89.541,64.79,88.565,62.183"/>
	<path clip-path="url(#SVGID_2_)" fill="#112369" d="M113.216,62.183h-8.048c-0.942,2.552-2.123,5.979-2.939,8.573
		c1.448,2.482,3.438,5.756,4.982,8.177h7.617c0.903-2.472,2.174-5.743,3.176-8.177C116.528,68.208,114.612,64.78,113.216,62.183"/>
	<path clip-path="url(#SVGID_2_)" fill="#112369" d="M130.484,73.313h-9.128c-1.015,2.391-2.316,5.603-3.235,8.033
		c1.602,2.274,3.765,5.288,5.408,7.53h0.005h8.217c1.117-2.275,2.65-5.289,3.834-7.53C134.045,78.942,132.003,75.729,130.484,73.313
		"/>
	<path clip-path="url(#SVGID_2_)" fill="#8DC63F" d="M147.845,62.183h-5.726h-4.419c-1.449,2.565-3.362,5.995-4.778,8.573
		c1.512,2.461,3.543,5.73,5.073,8.177h4.183h5.422c1.517-2.45,3.531-5.716,5.032-8.177
		C151.208,68.178,149.294,64.748,147.845,62.183"/>
	<path clip-path="url(#SVGID_2_)" fill="#112369" d="M165.027,73.313h-9.087c-1.514,2.413-3.541,5.63-5.075,8.033
		c1.176,2.242,2.702,5.255,3.811,7.53h8.186c1.639-2.243,3.797-5.256,5.396-7.53C167.333,78.917,166.042,75.704,165.027,73.313"/>
	<path clip-path="url(#SVGID_2_)" fill="#8DC63F" d="M191.833,73.313h-6.241c-1.48,2.438-3.52,5.653-5.098,8.033
		c0.347,2.248,0.711,5.264,0.889,7.53h5.622c1.679-2.22,3.852-5.233,5.421-7.53C192.344,78.929,192.111,75.712,191.833,73.313"/>
	<path clip-path="url(#SVGID_2_)" fill="#112369" d="M201.787,62.183h-4.402c-0.995,2.604-2.428,6.038-3.589,8.573
		c0.299,2.446,0.581,5.718,0.686,8.177h4.165c1.21-2.414,2.725-5.682,3.763-8.177C202.327,68.18,202.083,64.745,201.787,62.183"/>
	<path clip-path="url(#SVGID_2_)" fill="#112369" d="M106.818,93.212h-5.339c0.448,1.995,1.176,4.625,1.837,6.56
		c1.964,1.794,4.637,4.14,6.678,5.849h4.247c-0.487-1.729-1.005-4.073-1.282-5.849C111.086,97.833,108.629,95.213,106.818,93.212"/>
	<path clip-path="url(#SVGID_2_)" fill="#112369" d="M115.721,83.713h-7.377c-0.34,2.199-0.689,5.146-0.852,7.364
		c1.772,2.057,4.175,4.76,6.01,6.758h6.285c0.363-2.041,0.945-4.747,1.452-6.758C119.56,88.884,117.354,85.939,115.721,83.713"/>
	<path clip-path="url(#SVGID_2_)" fill="#112369" d="M147.464,83.713h-5.252h-4.05c-1.201,2.194-2.775,5.138-3.919,7.364
		c1.406,2.023,3.274,4.728,4.67,6.758h3.448h4.477c1.37-2.033,3.207-4.734,4.589-6.758C150.267,88.851,148.68,85.907,147.464,83.713
		"/>
	<path clip-path="url(#SVGID_2_)" fill="#8DC63F" d="M161.927,93.212h-7.793c-1.419,1.97-3.304,4.59-4.716,6.56
		c0.793,1.734,1.794,4.073,2.488,5.849h6.207c1.63-1.742,3.792-4.081,5.397-5.849C163.109,97.788,162.471,95.164,161.927,93.212"/>
	<path clip-path="url(#SVGID_2_)" fill="#112369" d="M177.386,83.713h-7.442c-1.626,2.224-3.821,5.171-5.491,7.364
		c0.531,2.011,1.156,4.715,1.54,6.758h6.343c1.826-2,4.226-4.701,5.989-6.758C178.131,88.859,177.753,85.91,177.386,83.713"/>
	<path clip-path="url(#SVGID_2_)" fill="#8DC63F" d="M146.595,101.646h-4.175H139.2c-0.831,1.662-1.89,3.907-2.626,5.614
		c1.129,1.434,2.626,3.355,3.734,4.806h2.337h3.021c1.077-1.45,2.534-3.372,3.634-4.806
		C148.535,105.558,147.45,103.307,146.595,101.646"/>
	<path clip-path="url(#SVGID_2_)" fill="#112369" d="M170.386,101.646h-5.918c-1.642,1.695-3.851,3.944-5.519,5.614
		c-0.001,1.444-0.123,3.378-0.326,4.806h4.288c1.916-1.409,4.441-3.331,6.312-4.806
		C169.674,105.603,170.148,103.348,170.386,101.646"/>
	<path clip-path="url(#SVGID_2_)" fill="#112369" d="M49.657,177.68c0,0.23-0.069,0.437-0.21,0.611
		c-0.14,0.173-0.372,0.319-0.698,0.437c-0.326,0.117-0.768,0.204-1.327,0.263c-0.558,0.057-1.27,0.088-2.132,0.088
		c-0.886,0-1.608-0.031-2.166-0.088c-0.559-0.059-1.008-0.146-1.344-0.263c-0.34-0.117-0.572-0.264-0.699-0.437
		c-0.129-0.175-0.192-0.381-0.192-0.611v-18.483c0-1.049-0.1-2.002-0.298-2.865c-0.2-0.862-0.501-1.601-0.909-2.219
		c-0.408-0.616-0.921-1.094-1.538-1.431c-0.617-0.34-1.357-0.507-2.216-0.507c-1.049,0-2.11,0.408-3.182,1.222
		c-1.071,0.815-2.235,2.005-3.492,3.563v20.72c0,0.23-0.072,0.437-0.209,0.611c-0.14,0.173-0.381,0.319-0.717,0.437
		c-0.339,0.117-0.786,0.204-1.347,0.263c-0.559,0.057-1.258,0.088-2.095,0.088c-0.862,0-1.574-0.031-2.132-0.088
		c-0.559-0.059-1.008-0.146-1.345-0.263c-0.339-0.117-0.576-0.264-0.716-0.437c-0.14-0.175-0.209-0.381-0.209-0.611v-18.483
		c0-1.049-0.1-2.002-0.297-2.865c-0.198-0.862-0.497-1.601-0.892-2.219c-0.395-0.616-0.909-1.094-1.536-1.431
		c-0.63-0.34-1.362-0.507-2.201-0.507c-1.072,0-2.144,0.408-3.215,1.222c-1.071,0.815-2.225,2.005-3.458,3.563v20.72
		c0,0.23-0.073,0.437-0.21,0.611c-0.141,0.173-0.38,0.319-0.717,0.437c-0.34,0.117-0.786,0.204-1.344,0.263
		c-0.562,0.057-1.271,0.088-2.133,0.088c-0.863,0-1.572-0.031-2.13-0.088c-0.559-0.059-1.008-0.146-1.347-0.263
		c-0.337-0.117-0.577-0.264-0.714-0.437c-0.14-0.175-0.212-0.381-0.212-0.611v-31.167c0-0.231,0.058-0.436,0.176-0.611
		c0.117-0.174,0.327-0.319,0.627-0.437c0.304-0.115,0.694-0.204,1.171-0.261c0.477-0.059,1.079-0.089,1.801-0.089
		c0.745,0,1.363,0.03,1.853,0.089c0.487,0.057,0.867,0.146,1.135,0.261c0.268,0.117,0.459,0.263,0.576,0.437
		c0.115,0.176,0.174,0.38,0.174,0.611v3.6c1.724-1.864,3.441-3.259,5.152-4.193c1.713-0.931,3.501-1.398,5.365-1.398
		c1.281,0,2.434,0.136,3.46,0.403c1.023,0.268,1.939,0.653,2.742,1.153c0.803,0.5,1.495,1.1,2.079,1.798
		c0.582,0.699,1.072,1.479,1.467,2.342c0.931-1.002,1.845-1.862,2.742-2.585c0.896-0.72,1.784-1.31,2.656-1.764
		c0.872-0.454,1.747-0.794,2.62-1.014c0.874-0.221,1.765-0.334,2.673-0.334c2.071,0,3.819,0.35,5.24,1.049s2.569,1.648,3.441,2.85
		c0.875,1.199,1.498,2.602,1.87,4.209s0.559,3.309,0.559,5.102V177.68z"/>
	<path clip-path="url(#SVGID_2_)" fill="#112369" d="M87.846,177.68c0,0.23-0.059,0.437-0.176,0.611
		c-0.115,0.173-0.319,0.319-0.61,0.437c-0.293,0.117-0.676,0.204-1.152,0.263c-0.48,0.057-1.08,0.088-1.802,0.088
		c-0.767,0-1.39-0.031-1.867-0.088c-0.479-0.059-0.857-0.146-1.135-0.263c-0.281-0.117-0.48-0.264-0.594-0.437
		c-0.118-0.175-0.177-0.381-0.177-0.611v-3.6c-1.724,1.865-3.477,3.263-5.258,4.193c-1.783,0.931-3.627,1.397-5.537,1.397
		c-2.144,0-3.942-0.349-5.399-1.048s-2.632-1.653-3.527-2.865c-0.898-1.211-1.539-2.614-1.924-4.211
		c-0.383-1.595-0.576-3.58-0.576-5.957v-19.077c0-0.231,0.066-0.436,0.193-0.611c0.128-0.174,0.36-0.319,0.7-0.437
		c0.336-0.115,0.79-0.204,1.362-0.261c0.571-0.059,1.275-0.089,2.112-0.089c0.862,0,1.574,0.03,2.133,0.089
		c0.558,0.057,1.007,0.146,1.344,0.261c0.339,0.117,0.576,0.263,0.717,0.437c0.14,0.176,0.209,0.38,0.209,0.611v17.61
		c0,1.63,0.105,2.878,0.314,3.737c0.211,0.862,0.53,1.603,0.962,2.219c0.431,0.617,0.979,1.095,1.643,1.436
		c0.663,0.336,1.438,0.504,2.323,0.504c1.118,0,2.24-0.406,3.37-1.223c1.13-0.815,2.337-2.002,3.618-3.563v-20.721
		c0-0.231,0.064-0.436,0.191-0.611c0.128-0.174,0.362-0.319,0.699-0.437c0.337-0.115,0.785-0.204,1.344-0.261
		c0.561-0.059,1.271-0.089,2.132-0.089c0.863,0,1.572,0.03,2.131,0.089c0.558,0.057,1.002,0.146,1.329,0.261
		c0.326,0.117,0.558,0.263,0.699,0.437c0.138,0.176,0.209,0.38,0.209,0.611V177.68z"/>
	<path clip-path="url(#SVGID_2_)" fill="#112369" d="M126.456,177.68c0,0.23-0.072,0.437-0.213,0.611
		c-0.137,0.173-0.372,0.319-0.698,0.437c-0.327,0.117-0.774,0.204-1.344,0.263c-0.573,0.057-1.276,0.088-2.113,0.088
		c-0.862,0-1.579-0.031-2.15-0.088c-0.572-0.059-1.019-0.146-1.345-0.263c-0.326-0.117-0.558-0.264-0.699-0.437
		c-0.14-0.175-0.209-0.381-0.209-0.611v-17.783c0-1.516-0.112-2.702-0.332-3.565c-0.222-0.862-0.543-1.601-0.961-2.219
		c-0.419-0.616-0.962-1.094-1.625-1.431c-0.664-0.34-1.439-0.507-2.324-0.507c-1.118,0-2.248,0.408-3.388,1.222
		c-1.143,0.815-2.329,2.005-3.564,3.563v20.72c0,0.23-0.072,0.437-0.209,0.611c-0.14,0.173-0.38,0.319-0.717,0.437
		c-0.339,0.117-0.786,0.204-1.344,0.263c-0.561,0.057-1.27,0.088-2.133,0.088c-0.862,0-1.571-0.031-2.13-0.088
		c-0.559-0.059-1.007-0.146-1.347-0.263c-0.337-0.117-0.576-0.264-0.715-0.437c-0.139-0.175-0.211-0.381-0.211-0.611v-31.167
		c0-0.231,0.059-0.436,0.177-0.611c0.116-0.174,0.326-0.319,0.627-0.437c0.303-0.115,0.694-0.204,1.171-0.261
		c0.477-0.059,1.079-0.089,1.801-0.089c0.745,0,1.361,0.03,1.851,0.089c0.488,0.057,0.868,0.146,1.136,0.261
		c0.268,0.117,0.459,0.263,0.577,0.437c0.114,0.176,0.173,0.38,0.173,0.611v3.6c1.724-1.864,3.477-3.259,5.258-4.193
		c1.782-0.931,3.64-1.398,5.573-1.398c2.12,0,3.909,0.35,5.363,1.049c1.457,0.699,2.632,1.648,3.529,2.85
		c0.896,1.199,1.542,2.602,1.94,4.209c0.395,1.607,0.595,3.541,0.595,5.802V177.68z"/>
	<path clip-path="url(#SVGID_2_)" fill="#112369" d="M164.64,177.68c0,0.257-0.057,0.472-0.171,0.645
		c-0.118,0.178-0.316,0.322-0.595,0.438c-0.28,0.115-0.658,0.197-1.136,0.245c-0.478,0.047-1.065,0.07-1.766,0.07
		c-0.745,0-1.349-0.023-1.815-0.07c-0.468-0.048-0.845-0.13-1.137-0.245c-0.291-0.116-0.5-0.261-0.629-0.438
		c-0.128-0.173-0.191-0.388-0.191-0.645v-3.459c-1.606,1.725-3.291,3.063-5.05,4.018c-1.757,0.956-3.708,1.433-5.851,1.433
		c-2.375,0-4.386-0.461-6.028-1.38c-1.64-0.921-2.982-2.16-4.018-3.722c-1.036-1.56-1.788-3.383-2.252-5.467
		c-0.467-2.084-0.7-4.279-0.7-6.587c0-2.773,0.296-5.264,0.89-7.478c0.594-2.211,1.462-4.099,2.605-5.66
		c1.14-1.559,2.561-2.76,4.26-3.597c1.702-0.839,3.659-1.261,5.871-1.261c1.747,0,3.331,0.357,4.751,1.066
		c1.422,0.713,2.832,1.754,4.228,3.128v-16.876c0-0.23,0.063-0.443,0.194-0.629c0.127-0.187,0.36-0.343,0.699-0.472
		c0.336-0.128,0.785-0.228,1.344-0.296c0.56-0.07,1.269-0.104,2.13-0.104c0.862,0,1.574,0.034,2.133,0.104
		c0.559,0.068,1,0.168,1.326,0.296c0.327,0.129,0.56,0.285,0.699,0.472c0.141,0.186,0.208,0.398,0.208,0.629V177.68z
		 M155.907,156.855c-1.258-1.584-2.462-2.793-3.614-3.634c-1.154-0.839-2.361-1.257-3.617-1.257c-1.14,0-2.124,0.287-2.952,0.854
		c-0.826,0.571-1.492,1.334-1.993,2.288c-0.5,0.956-0.872,2.024-1.116,3.199c-0.245,1.175-0.367,2.38-0.367,3.615
		c0,1.306,0.104,2.573,0.313,3.808c0.212,1.236,0.554,2.337,1.03,3.301c0.479,0.968,1.113,1.743,1.906,2.325
		c0.79,0.582,1.794,0.872,3.005,0.872c0.604,0,1.193-0.086,1.763-0.26c0.571-0.175,1.154-0.459,1.748-0.858
		c0.594-0.396,1.207-0.912,1.834-1.553c0.629-0.641,1.317-1.426,2.061-2.36V156.855z"/>
	<path clip-path="url(#SVGID_2_)" fill="#112369" d="M182.951,135.963c0,1.77-0.362,2.992-1.082,3.668
		c-0.725,0.676-2.063,1.013-4.02,1.013c-1.98,0-3.315-0.327-4.001-0.977c-0.687-0.653-1.031-1.83-1.031-3.531
		c0-1.768,0.355-2.998,1.068-3.687c0.708-0.687,2.054-1.03,4.035-1.03c1.956,0,3.281,0.334,3.981,0.997
		C182.6,133.079,182.951,134.264,182.951,135.963 M182.287,177.68c0,0.23-0.071,0.437-0.21,0.611
		c-0.14,0.173-0.379,0.319-0.717,0.437s-0.784,0.204-1.344,0.263c-0.561,0.057-1.271,0.088-2.132,0.088
		c-0.863,0-1.572-0.031-2.129-0.088c-0.561-0.059-1.008-0.146-1.349-0.263c-0.337-0.117-0.576-0.264-0.715-0.437
		c-0.139-0.175-0.211-0.381-0.211-0.611v-31.095c0-0.234,0.072-0.439,0.211-0.611c0.139-0.177,0.378-0.327,0.715-0.455
		c0.341-0.128,0.788-0.228,1.349-0.299c0.557-0.068,1.266-0.104,2.129-0.104c0.861,0,1.571,0.036,2.132,0.104
		c0.56,0.071,1.006,0.171,1.344,0.299s0.577,0.278,0.717,0.455c0.139,0.172,0.21,0.377,0.21,0.611V177.68z"/>
	<path clip-path="url(#SVGID_2_)" fill="#112369" d="M217.612,177.784c0,0.326-0.118,0.584-0.351,0.768
		c-0.234,0.188-0.602,0.321-1.103,0.403c-0.499,0.082-1.24,0.123-2.219,0.123c-1.046,0-1.813-0.041-2.288-0.123
		c-0.479-0.082-0.814-0.216-1.014-0.403c-0.198-0.184-0.296-0.441-0.296-0.768v-2.48c-1.283,1.375-2.742,2.445-4.384,3.215
		c-1.644,0.767-3.464,1.152-5.47,1.152c-1.653,0-3.175-0.216-4.56-0.647c-1.385-0.428-2.584-1.068-3.598-1.921
		c-1.013-0.85-1.799-1.903-2.359-3.161c-0.557-1.258-0.839-2.727-0.839-4.402c0-1.816,0.356-3.395,1.067-4.734
		c0.709-1.339,1.77-2.446,3.178-3.32c1.411-0.872,3.164-1.52,5.26-1.938c2.096-0.42,4.528-0.63,7.302-0.63h3.041v-1.885
		c0-0.979-0.099-1.834-0.299-2.568c-0.2-0.736-0.522-1.344-0.977-1.835c-0.454-0.489-1.061-0.849-1.82-1.084
		c-0.754-0.231-1.692-0.35-2.809-0.35c-1.468,0-2.779,0.163-3.934,0.489c-1.15,0.326-2.171,0.689-3.056,1.085
		c-0.884,0.396-1.625,0.758-2.219,1.082c-0.596,0.326-1.075,0.489-1.449,0.489c-0.257,0-0.485-0.081-0.681-0.246
		c-0.199-0.161-0.361-0.395-0.489-0.697c-0.131-0.301-0.229-0.674-0.298-1.118c-0.07-0.44-0.105-0.931-0.105-1.467
		c0-0.723,0.06-1.293,0.175-1.711c0.114-0.421,0.339-0.799,0.664-1.137c0.326-0.338,0.896-0.711,1.711-1.118
		c0.816-0.406,1.771-0.787,2.865-1.137c1.094-0.35,2.288-0.635,3.582-0.854c1.293-0.221,2.625-0.334,3.999-0.334
		c2.447,0,4.537,0.24,6.274,0.717c1.733,0.478,3.16,1.212,4.277,2.202c1.119,0.99,1.935,2.265,2.446,3.826
		c0.513,1.562,0.771,3.413,0.771,5.553V177.784z M208.981,164.437h-3.354c-1.422,0-2.633,0.104-3.636,0.317
		c-1,0.209-1.817,0.522-2.445,0.941c-0.629,0.42-1.088,0.924-1.378,1.519c-0.294,0.595-0.44,1.276-0.44,2.044
		c0,1.307,0.414,2.328,1.243,3.077c0.825,0.745,1.972,1.117,3.441,1.117c1.233,0,2.37-0.313,3.405-0.944
		c1.035-0.627,2.09-1.549,3.163-2.76V164.437z"/>
	<path clip-path="url(#SVGID_2_)" fill="#112369" d="M235.185,177.68c0,0.23-0.071,0.437-0.21,0.611
		c-0.14,0.173-0.381,0.319-0.717,0.437c-0.338,0.117-0.785,0.204-1.344,0.263c-0.562,0.057-1.271,0.088-2.132,0.088
		c-0.863,0-1.572-0.031-2.131-0.088c-0.559-0.059-1.009-0.146-1.348-0.263c-0.337-0.117-0.576-0.264-0.714-0.437
		c-0.14-0.175-0.212-0.381-0.212-0.611v-45.944c0-0.232,0.072-0.444,0.212-0.63c0.138-0.188,0.377-0.342,0.714-0.473
		c0.339-0.128,0.789-0.228,1.348-0.295c0.559-0.071,1.268-0.104,2.131-0.104c0.861,0,1.57,0.033,2.132,0.104
		c0.559,0.067,1.006,0.167,1.344,0.295c0.336,0.131,0.577,0.285,0.717,0.473c0.139,0.186,0.21,0.397,0.21,0.63V177.68z"/>
	<path clip-path="url(#SVGID_2_)" fill="#112369" d="M253.421,135.963c0,1.77-0.36,2.992-1.08,3.668
		c-0.727,0.676-2.064,1.013-4.021,1.013c-1.981,0-3.315-0.327-4.001-0.977c-0.686-0.653-1.03-1.83-1.03-3.531
		c0-1.768,0.355-2.998,1.067-3.687c0.709-0.687,2.055-1.03,4.034-1.03c1.958,0,3.283,0.334,3.982,0.997
		C253.072,133.079,253.421,134.264,253.421,135.963 M252.76,177.68c0,0.23-0.072,0.437-0.211,0.611
		c-0.141,0.173-0.38,0.319-0.717,0.437c-0.34,0.117-0.786,0.204-1.344,0.263c-0.561,0.057-1.27,0.088-2.133,0.088
		s-1.572-0.031-2.13-0.088c-0.56-0.059-1.01-0.146-1.348-0.263c-0.336-0.117-0.576-0.264-0.714-0.437
		c-0.14-0.175-0.213-0.381-0.213-0.611v-31.095c0-0.234,0.073-0.439,0.213-0.611c0.138-0.177,0.378-0.327,0.714-0.455
		c0.338-0.128,0.788-0.228,1.348-0.299c0.558-0.068,1.267-0.104,2.13-0.104s1.572,0.036,2.133,0.104
		c0.558,0.071,1.004,0.171,1.344,0.299c0.337,0.128,0.576,0.278,0.717,0.455c0.139,0.172,0.211,0.377,0.211,0.611V177.68z"/>
	<path clip-path="url(#SVGID_2_)" fill="#112369" d="M283.47,168.875c0,1.771-0.331,3.329-0.997,4.683
		c-0.662,1.352-1.602,2.479-2.812,3.387c-1.212,0.911-2.646,1.592-4.298,2.046c-1.653,0.454-3.446,0.681-5.38,0.681
		c-1.165,0-2.279-0.086-3.336-0.263c-1.063-0.174-2.012-0.395-2.849-0.663c-0.84-0.268-1.539-0.54-2.097-0.821
		c-0.558-0.28-0.966-0.541-1.222-0.785c-0.257-0.244-0.454-0.631-0.593-1.153c-0.143-0.525-0.211-1.3-0.211-2.324
		c0-0.677,0.022-1.217,0.068-1.625c0.046-0.405,0.119-0.731,0.21-0.977c0.094-0.245,0.209-0.408,0.351-0.489
		c0.139-0.082,0.313-0.124,0.524-0.124c0.255,0,0.632,0.146,1.135,0.437c0.499,0.291,1.123,0.612,1.867,0.962
		c0.747,0.35,1.615,0.677,2.605,0.978c0.989,0.304,2.111,0.454,3.371,0.454c0.793,0,1.495-0.082,2.112-0.245
		c0.617-0.16,1.153-0.396,1.608-0.696c0.453-0.305,0.798-0.688,1.03-1.153c0.231-0.468,0.349-1.002,0.349-1.607
		c0-0.699-0.213-1.298-0.644-1.801c-0.433-0.5-1.004-0.937-1.713-1.309c-0.712-0.372-1.515-0.722-2.409-1.049
		c-0.899-0.326-1.819-0.686-2.763-1.084c-0.942-0.396-1.863-0.849-2.76-1.361c-0.896-0.514-1.701-1.141-2.411-1.889
		c-0.711-0.745-1.283-1.639-1.715-2.688c-0.43-1.049-0.644-2.307-0.644-3.773c0-1.491,0.291-2.858,0.872-4.106
		c0.585-1.245,1.422-2.311,2.519-3.196c1.094-0.886,2.426-1.572,4-2.062c1.571-0.49,3.336-0.734,5.291-0.734
		c0.978,0,1.927,0.071,2.848,0.211c0.921,0.138,1.754,0.314,2.497,0.523c0.745,0.209,1.376,0.436,1.89,0.681
		c0.513,0.245,0.878,0.455,1.1,0.631c0.221,0.173,0.379,0.349,0.471,0.522c0.097,0.177,0.163,0.385,0.209,0.63
		c0.049,0.244,0.09,0.545,0.123,0.909c0.035,0.359,0.054,0.808,0.054,1.344c0,0.629-0.019,1.144-0.054,1.538
		c-0.033,0.396-0.093,0.709-0.175,0.941c-0.079,0.236-0.192,0.391-0.33,0.472c-0.141,0.082-0.304,0.123-0.491,0.123
		c-0.208,0-0.534-0.123-0.979-0.365c-0.441-0.245-0.994-0.507-1.659-0.789c-0.662-0.277-1.433-0.539-2.305-0.784
		c-0.872-0.246-1.87-0.367-2.988-0.367c-0.792,0-1.479,0.08-2.06,0.243c-0.582,0.164-1.062,0.398-1.435,0.699
		c-0.372,0.305-0.649,0.658-0.837,1.066c-0.188,0.409-0.281,0.846-0.281,1.312c0,0.722,0.224,1.328,0.664,1.816
		c0.445,0.486,1.025,0.921,1.748,1.291c0.722,0.375,1.542,0.725,2.463,1.048c0.918,0.327,1.854,0.683,2.794,1.067
		c0.944,0.385,1.875,0.834,2.796,1.344c0.922,0.513,1.74,1.144,2.465,1.888c0.722,0.745,1.304,1.638,1.744,2.675
		C283.249,166.225,283.47,167.455,283.47,168.875"/>
</g>
</svg>
