<?xml version="1.0" encoding="UTF-8" standalone="no"?>
<svg
   id="Layer_1"
   data-name="Layer 1"
   viewBox="0 0 551.9995 210.99999"
   version="1.1"
   sodipodi:docname="numfocus_logo.svg"
   width="551.99951"
   height="211"
   inkscape:version="1.2.2 (b0a8486541, 2022-12-01)"
   xmlns:inkscape="http://www.inkscape.org/namespaces/inkscape"
   xmlns:sodipodi="http://sodipodi.sourceforge.net/DTD/sodipodi-0.dtd"
   xmlns="http://www.w3.org/2000/svg"
   xmlns:svg="http://www.w3.org/2000/svg"
   xmlns:rdf="http://www.w3.org/1999/02/22-rdf-syntax-ns#"
   xmlns:cc="http://creativecommons.org/ns#"
   xmlns:dc="http://purl.org/dc/elements/1.1/">
  <sodipodi:namedview
     id="namedview98584"
     pagecolor="#ffffff"
     bordercolor="#666666"
     borderopacity="1.0"
     inkscape:showpageshadow="2"
     inkscape:pageopacity="0.0"
     inkscape:pagecheckerboard="0"
     inkscape:deskcolor="#d1d1d1"
     showgrid="false"
     inkscape:zoom="0.84371597"
     inkscape:cx="439.72144"
     inkscape:cy="190.82251"
     inkscape:window-width="1720"
     inkscape:window-height="1371"
     inkscape:window-x="0"
     inkscape:window-y="32"
     inkscape:window-maximized="0"
     inkscape:current-layer="Layer_1" />
  <defs
     id="defs98507">
    <style
       id="style98505">.cls-1{fill:#f1563f;}.cls-2{fill:#008896;}.cls-3{fill:#007d8a;}</style>
  </defs>
  <title
     id="title98509">SponsoredProject</title>
  <g
     id="g104553"
     transform="translate(1.3267509,30.031362)">
    <path
       class="cls-1"
       d="M 116.72689,4.6448228 V 73.607117 c 0,16.878419 -8.9841,26.181484 -25.251177,26.181484 -16.267075,0 -25.251178,-9.303065 -25.251178,-26.181484 V 4.6448228 h 6.645047 V 73.607117 c 0,12.957841 6.432405,19.815529 18.606131,19.815529 12.173727,0 18.606127,-6.857688 18.606127,-19.815529 V 4.6448228 Z"
       id="path98511"
       style="stroke-width:1.32901" />
    <path
       class="cls-2"
       d="m 424.92416,28.061967 a 10.764976,10.764976 0 0 0 0.0665,-1.329009 c 0,-11.017487 -9.18346,-22.1811659 -26.76625,-22.1811659 -17.5828,0 -27.39088,10.2200819 -27.39088,28.0952569 v 39.192486 c 0,17.875175 9.84795,28.135127 27.01875,28.135127 17.82202,0 27.13838,-11.163678 27.13838,-22.194455 a 12.78507,12.78507 0 0 0 -0.10633,-1.847323 h -10.37956 c -0.98347,6.166603 -2.21944,13.834987 -15.94811,13.834987 -11.96108,0 -17.27712,-5.515389 -17.27712,-17.875176 V 32.647049 c 0,-12.187015 5.31604,-17.861885 16.87842,-17.861885 10.20679,0 15.68231,4.558502 16.26707,13.409704 z"
       id="path98513"
       style="stroke-width:1.32901" />
    <path
       class="cls-2"
       d="m 486.5769,4.963785 v 66.87575 c 0,18.140977 -9.68848,28.135127 -27.27127,28.135127 -17.5828,0 -27.13837,-9.954279 -27.13837,-28.135127 V 4.963785 h 10.51246 v 66.87575 c 0,12.027534 5.43565,17.875175 16.62591,17.875175 11.19026,0 16.7588,-6.007122 16.7588,-17.875175 V 4.963785 Z"
       id="path98515"
       style="stroke-width:1.32901" />
    <path
       class="cls-2"
       d="m 538.02285,18.46652 a 32.640469,32.640469 0 0 0 -15.08426,-3.814257 c -11.1238,0 -16.7588,4.478762 -16.7588,13.290093 0,9.369516 6.33937,12.080695 16.67906,15.708891 10.95104,3.840837 24.67971,8.705011 24.67971,29.092014 0,17.277122 -9.98086,27.257979 -27.39089,27.257979 -10.89787,0 -18.9118,-3.628193 -23.03173,-7.974053 -1.66126,-1.741003 -0.6645,-0.784116 -1.63468,-2.166286 l 7.01717,-6.804527 c 2.56499,2.96369 6.7115,6.645046 17.0379,6.645046 11.60225,0 17.48976,-5.515388 17.48976,-16.386685 0,-13.210353 -8.82462,-16.360105 -19.0447,-19.93514 -10.48588,-3.734516 -22.36723,-7.974056 -22.36723,-24.879055 0,-15.057675 10.23337,-24.0550686 27.37759,-24.0550686 7.30956,0 16.6392,1.7675824 20.45346,5.4888085 z"
       id="path98517"
       style="stroke-width:1.32901" />
    <path
       class="cls-2"
       d="m 363.35115,51.106989 a 51.113699,51.113699 0 1 0 -51.1137,51.100411 51.166859,51.166859 0 0 0 51.1137,-51.100411 z m -93.56225,0 A 42.461848,42.461848 0 1 1 312.23745,93.555547 42.528299,42.528299 0 0 1 269.7889,51.106989 Z"
       id="path98519"
       style="stroke-width:1.32901" />
    <path
       class="cls-1"
       d="m 297.47216,31.397781 a 2.990271,2.990271 0 0 0 2.84408,-3.096592 2.9105304,2.9105304 0 0 0 -2.84408,-3.030141 h -9.70177 a 3.0168512,3.0168512 0 0 0 -3.09659,2.91053 V 74.07227 a 2.9769809,2.9769809 0 0 0 3.09659,2.910531 h 9.70177 a 2.9105304,2.9105304 0 0 0 2.84408,-3.030141 2.9769809,2.9769809 0 0 0 -2.84408,-3.136462 h -6.48557 V 31.397781 Z"
       id="path98521"
       style="stroke-width:1.32901" />
    <path
       class="cls-1"
       d="m 327.00275,70.816198 a 3.0035611,3.0035611 0 0 0 -2.9504,3.096591 2.9769809,2.9769809 0 0 0 2.91053,3.030142 h 9.70177 a 2.9769809,2.9769809 0 0 0 3.13646,-2.870661 V 28.181578 a 3.0168512,3.0168512 0 0 0 -3.09659,-2.91053 h -9.70177 a 2.9769809,2.9769809 0 0 0 -2.9504,3.030141 3.0168512,3.0168512 0 0 0 2.91053,3.096592 h 6.48556 v 39.418417 z"
       id="path98523"
       style="stroke-width:1.32901" />
    <polygon
       class="cls-2"
       points="161.73,3.4 161.74,74.97 169.65,74.97 169.65,42.75 186.07,42.75 186.07,35.22 169.65,35.22 169.65,11.12 198.63,11.12 198.63,3.4 "
       id="polygon98525"
       transform="matrix(1.3290093,0,0,1.3290093,0,0.00658019)" />
    <polygon
       class="cls-1"
       points="146.51,3.53 142.24,3.52 123.06,43.14 103.84,3.52 99.58,3.53 99.57,74.97 104.55,74.97 104.55,15.62 123.05,53.16 141.53,15.71 141.53,74.97 146.51,74.97 "
       id="polygon98527"
       transform="matrix(1.3290093,0,0,1.3290093,0,0.00658019)" />
    <polygon
       class="cls-1"
       points="38.02,3.39 33.04,3.39 33.14,61.77 4.09,3.44 0,3.44 0.01,74.97 4.99,74.97 4.84,14.37 34.47,74.97 38.02,74.97 "
       id="polygon98529"
       transform="matrix(1.3290093,0,0,1.3290093,0,0.00658019)" />
    <path
       class="cls-3"
       d="m 19.92185,120.0427 h 15.097546 v 2.5517 H 22.77922 v 7.44245 h 11.961084 v 2.51183 H 22.77922 v 10.49918 h -2.85737 z"
       id="path98531"
       style="stroke-width:1.32901" />
    <path
       class="cls-3"
       d="m 38.926683,120.0427 h 2.857371 v 23.04503 h -2.857371 z"
       id="path98533"
       style="stroke-width:1.32901" />
    <path
       class="cls-3"
       d="m 47.485504,137.66537 a 9.7416384,9.7416384 0 0 0 7.256391,3.28265 c 4.119928,0 5.435648,-2.20616 5.435648,-3.98703 0,-2.76434 -2.80421,-3.52187 -5.847641,-4.35915 -3.694646,-0.95689 -7.801285,-1.99351 -7.801285,-6.52543 0,-3.80097 3.375684,-6.39254 7.974056,-6.39254 a 10.791556,10.791556 0 0 1 8.186697,3.2162 l -1.780872,2.11313 a 8.824622,8.824622 0 0 0 -6.645047,-2.76434 c -2.764339,0 -4.731273,1.48849 -4.731273,3.66806 0,2.17958 2.658019,3.00357 5.595129,3.80097 3.774387,0.99676 8.053797,2.17958 8.053797,7.01717 0,3.3491 -2.272606,6.77795 -8.49237,6.77795 a 11.42948,11.42948 0 0 1 -8.851202,-3.66807 z"
       id="path98535"
       style="stroke-width:1.32901" />
    <path
       class="cls-3"
       d="m 66.490337,131.59179 a 11.509221,11.509221 0 0 1 11.748443,-11.96108 10.379563,10.379563 0 0 1 8.851202,4.57179 l -2.418797,1.32901 a 7.8145749,7.8145749 0 0 0 -6.485566,-3.30923 c -4.930624,0 -8.771461,3.86742 -8.771461,9.30306 0,5.43565 3.840837,9.30307 8.771461,9.30307 a 7.7481244,7.7481244 0 0 0 6.432405,-3.3491 l 2.458668,1.32901 a 10.499174,10.499174 0 0 1 -8.891073,4.70469 11.509221,11.509221 0 0 1 -11.695282,-11.92122 z"
       id="path98537"
       style="stroke-width:1.32901" />
    <path
       class="cls-3"
       d="M 105.19109,137.98433 H 93.522387 l -2.046674,5.1034 H 88.29938 l 9.303066,-23.04503 h 3.561744 l 9.30307,23.04503 h -3.2295 z m -10.844717,-2.56499 h 9.980857 L 99.356738,122.5944 Z"
       id="path98539"
       style="stroke-width:1.32901" />
    <path
       class="cls-3"
       d="m 113.41766,120.0427 h 2.87066 v 20.48004 h 10.71181 v 2.5517 h -13.58247 z"
       id="path98541"
       style="stroke-width:1.32901" />
    <path
       class="cls-3"
       d="m 131.04032,120.0427 h 2.87066 v 20.48004 h 10.72511 v 2.5517 h -13.59577 z"
       id="path98543"
       style="stroke-width:1.32901" />
    <path
       class="cls-3"
       d="m 151.12165,133.34609 -9.09042,-13.2901 h 3.3491 l 7.15007,10.71182 7.16336,-10.71182 h 3.34911 l -9.05056,13.2901 v 9.74164 h -2.87066 z"
       id="path98545"
       style="stroke-width:1.32901" />
    <path
       class="cls-3"
       d="m 175.26975,137.66537 a 9.7416384,9.7416384 0 0 0 7.25639,3.28265 c 4.11993,0 5.42236,-2.20616 5.42236,-3.98703 0,-2.76434 -2.79092,-3.52187 -5.83435,-4.35915 -3.69465,-0.95689 -7.81458,-1.99351 -7.81458,-6.52543 0,-3.80097 3.38898,-6.39254 7.97406,-6.39254 a 10.818136,10.818136 0 0 1 8.1867,3.2162 l -1.72771,2.09984 a 8.824622,8.824622 0 0 0 -6.64505,-2.76434 c -2.76434,0 -4.73127,1.48849 -4.73127,3.66806 0,2.17958 2.65801,3.00357 5.59513,3.80097 3.77438,0.99676 8.05379,2.17958 8.05379,7.01717 0,3.3491 -2.28589,6.77795 -8.50566,6.77795 a 11.41619,11.41619 0 0 1 -8.83791,-3.66807 z"
       id="path98547"
       style="stroke-width:1.32901" />
    <path
       class="cls-3"
       d="m 195.20489,120.0427 h 9.30307 a 6.9507188,6.9507188 0 1 1 -0.0665,13.83499 h -6.39254 v 9.15687 h -2.87066 z m 8.91765,2.5517 h -6.04699 v 8.78475 h 6.04699 a 4.3990209,4.3990209 0 1 0 0,-8.78475 z"
       id="path98549"
       style="stroke-width:1.32901" />
    <path
       class="cls-3"
       d="m 225.99804,119.65729 c 6.80453,0 11.44277,5.11669 11.44277,11.96108 0,6.8444 -4.63824,11.96109 -11.44277,11.96109 -6.80453,0 -11.44277,-5.11669 -11.44277,-11.96109 0,-6.84439 4.59837,-11.96108 11.44277,-11.96108 z m 0,2.56499 c -5.18314,0 -8.46579,3.98703 -8.46579,9.30306 0,5.31604 3.28265,9.30307 8.46579,9.30307 5.18313,0 8.46579,-3.98703 8.46579,-9.30307 0,-5.31603 -3.32253,-9.30306 -8.46579,-9.30306 z"
       id="path98551"
       style="stroke-width:1.32901" />
    <path
       class="cls-3"
       d="m 244.79023,124.49488 v 18.60614 h -2.85737 V 120.0427 h 2.92382 l 13.29009,18.20743 V 120.0427 h 2.87066 v 23.04503 h -2.76434 z"
       id="path98553"
       style="stroke-width:1.32901" />
    <path
       class="cls-3"
       d="m 266.70559,137.66537 a 9.6884781,9.6884781 0 0 0 7.25639,3.28265 c 4.10664,0 5.42236,-2.20616 5.42236,-3.98703 0,-2.76434 -2.80421,-3.52187 -5.84764,-4.35915 -3.69464,-0.95689 -7.80128,-1.99351 -7.80128,-6.52543 0,-3.80097 3.38897,-6.39254 7.9076,-6.39254 a 10.791556,10.791556 0 0 1 8.1867,3.2162 l -1.72771,2.09984 a 8.8113319,8.8113319 0 0 0 -6.64505,-2.76434 c -2.76434,0 -4.74456,1.48849 -4.74456,3.66806 0,2.17958 2.65802,3.00357 5.60842,3.80097 3.76109,0.99676 8.0405,2.17958 8.0405,7.01717 0,3.3491 -2.2726,6.77795 -8.49237,6.77795 a 11.42948,11.42948 0 0 1 -8.8512,-3.66807 z"
       id="path98555"
       style="stroke-width:1.32901" />
    <path
       class="cls-3"
       d="m 297.13991,119.65729 c 6.80453,0 11.44277,5.11669 11.44277,11.96108 0,6.8444 -4.63824,11.96109 -11.44277,11.96109 -6.80453,0 -11.42948,-5.11669 -11.42948,-11.96109 0,-6.84439 4.58508,-11.96108 11.42948,-11.96108 z m 0,2.56499 c -5.18314,0 -8.46579,3.98703 -8.46579,9.30306 0,5.31604 3.28265,9.30307 8.46579,9.30307 5.18313,0 8.46579,-3.98703 8.46579,-9.30307 0,-5.31603 -3.30924,-9.30306 -8.46579,-9.30306 z"
       id="path98557"
       style="stroke-width:1.32901" />
    <path
       class="cls-3"
       d="m 320.53047,133.87769 h -4.58508 v 9.15687 h -2.87066 V 120.0427 h 9.30306 c 4.21296,0 7.21653,2.65802 7.21653,6.95072 a 6.3659547,6.3659547 0 0 1 -5.98055,6.64505 l 6.21977,9.39609 h -3.38898 z m 1.46191,-11.33645 h -6.04699 v 8.82462 h 6.04699 a 4.412311,4.412311 0 1 0 0,-8.82462 z"
       id="path98559"
       style="stroke-width:1.32901" />
    <path
       class="cls-3"
       d="m 334.08637,120.0427 h 15.09754 v 2.5517 h -12.22688 v 7.44245 h 11.96108 v 2.51183 h -11.96108 v 7.97406 h 12.22688 v 2.5517 h -15.09754 z"
       id="path98561"
       style="stroke-width:1.32901" />
    <path
       class="cls-3"
       d="m 353.74241,120.0427 h 7.88103 c 7.15007,0 11.81489,5.01037 11.81489,11.54909 0,6.53873 -4.66482,11.49594 -11.81489,11.49594 h -7.88103 z m 7.88103,20.48004 a 8.4790796,8.4790796 0 0 0 8.8512,-8.94424 c 0,-4.98378 -3.14975,-8.99739 -8.8512,-8.99739 h -5.01036 v 17.94163 z"
       id="path98563"
       style="stroke-width:1.32901" />
    <path
       class="cls-3"
       d="m 386.84804,120.0427 h 9.30306 a 6.9507188,6.9507188 0 1 1 0,13.88815 h -6.39253 v 9.15688 h -2.87066 z m 8.97081,2.5517 h -6.04699 v 8.78475 h 6.04699 a 4.3990209,4.3990209 0 1 0 0,-8.78475 z"
       id="path98565"
       style="stroke-width:1.32901" />
    <path
       class="cls-3"
       d="m 414.59775,133.87769 h -4.59837 v 9.15687 h -2.87066 V 120.0427 h 9.30307 c 4.21295,0 7.21652,2.65802 7.21652,6.95072 a 6.3659547,6.3659547 0 0 1 -5.96726,6.64505 l 6.21977,9.39609 h -3.38898 z m 1.44862,-11.33645 h -6.04699 v 8.82462 h 6.04699 a 4.412311,4.412311 0 1 0 0,-8.82462 z"
       id="path98567"
       style="stroke-width:1.32901" />
    <path
       class="cls-3"
       d="m 438.63953,119.65729 c 6.81782,0 11.44277,5.11669 11.44277,11.96108 0,6.8444 -4.62495,11.96109 -11.44277,11.96109 -6.81782,0 -11.42948,-5.11669 -11.42948,-11.96109 0,-6.84439 4.58508,-11.96108 11.42948,-11.96108 z m 0,2.56499 c -5.18314,0 -8.46579,3.98703 -8.46579,9.30306 0,5.31604 3.28265,9.30307 8.46579,9.30307 5.18314,0 8.46579,-3.98703 8.46579,-9.30307 0,-5.31603 -3.30923,-9.30306 -8.46579,-9.30306 z"
       id="path98569"
       style="stroke-width:1.32901" />
    <path
       class="cls-3"
       d="m 453.04599,138.67541 a 5.5286788,5.5286788 0 0 0 4.35915,2.27261 4.4654714,4.4654714 0 0 0 4.62496,-4.83759 V 120.0427 h 2.89724 v 16.1076 c 0,5.01036 -3.21621,7.36271 -7.32285,7.36271 a 7.3494216,7.3494216 0 0 1 -6.00712,-2.65802 z"
       id="path98571"
       style="stroke-width:1.32901" />
    <path
       class="cls-3"
       d="m 470.24337,120.0427 h 15.15071 v 2.5517 h -12.22689 v 7.44245 h 11.96109 v 2.51183 h -11.96109 v 7.97406 h 12.22689 v 2.5517 h -15.15071 z"
       id="path98573"
       style="stroke-width:1.32901" />
    <path
       class="cls-3"
       d="m 489.02228,131.59179 a 11.509221,11.509221 0 0 1 11.74844,-11.96108 10.379563,10.379563 0 0 1 8.8512,4.57179 l -2.4188,1.32901 a 7.827865,7.827865 0 0 0 -6.39253,-3.30923 c -4.94392,0 -8.77146,3.86742 -8.77146,9.30306 0,5.43565 3.82754,9.30307 8.77146,9.30307 a 7.7614145,7.7614145 0 0 0 6.4324,-3.3491 l 2.44538,1.32901 a 10.459303,10.459303 0 0 1 -8.87778,4.57179 11.509221,11.509221 0 0 1 -11.78831,-11.78832 z"
       id="path98575"
       style="stroke-width:1.32901" />
    <path
       class="cls-3"
       d="m 519.01802,122.5944 h -7.29627 v -2.5517 h 17.48977 v 2.5517 h -7.32284 v 20.49333 h -2.87066 z"
       id="path98577"
       style="stroke-width:1.32901" />
    <path
       class="cls-1"
       d="m 10.406143,113.94255 a 2.4320871,2.4320871 0 0 0 2.312476,-2.52512 2.3523465,2.3523465 0 0 0 -2.312476,-2.45866 H 2.5118276 A 2.4453772,2.4453772 0 0 0 0,111.28453 v 37.21226 a 2.418797,2.418797 0 0 0 2.5118276,2.36564 h 7.8943154 a 2.3656366,2.3656366 0 0 0 2.299186,-2.36564 2.418797,2.418797 0 0 0 -2.299186,-2.52511 H 5.0901058 v -32.02913 z"
       id="path98579"
       style="stroke-width:1.32901" />
    <path
       class="cls-1"
       d="m 538.93987,145.97168 a 2.4985376,2.4985376 0 0 0 0,4.98378 h 7.88102 a 2.4320871,2.4320871 0 0 0 2.52512,-2.36564 v -37.30529 a 2.4453772,2.4453772 0 0 0 -2.52512,-2.36563 h -7.88102 a 2.418797,2.418797 0 0 0 -2.36564,2.45866 2.4453772,2.4453772 0 0 0 2.36564,2.52512 h 5.31603 v 32.02913 z"
       id="path98581"
       style="stroke-width:1.32901" />
  </g>
  <metadata
     id="metadata100518">
    <rdf:RDF>
      <cc:Work
         rdf:about="">
        <dc:title>SponsoredProject</dc:title>
      </cc:Work>
    </rdf:RDF>
  </metadata>
</svg>
