<?xml version="1.0" standalone="no"?>
<!DOCTYPE svg PUBLIC "-//W3C//DTD SVG 1.1//EN" "http://www.w3.org/Graphics/SVG/1.1/DTD/svg11.dtd" >
<svg xmlns="http://www.w3.org/2000/svg">
<metadata>
<json>
<![CDATA[
{
	"fontFamily": "mapskin",
	"majorVersion": 2,
	"minorVersion": 0,
	"fontURL": "http://mapsk.in",
	"description": "Geospatial Web Font",
	"copyright": "mapskin",
	"designer": "NIcolas Bozon",
	"designerURL": "http://cartogenic.com",
	"license": "OFL 1.1",
	"licenseURL": "http://scripts.sil.org/OFL",
	"version": "Version 2.0",
	"fontId": "mapskin",
	"psName": "mapskin",
	"subFamily": "Regular",
	"fullName": "mapskin"
}
]]>
</json>
</metadata>
<defs>
<font id="mapskin" horiz-adv-x="1024">
<font-face units-per-em="1024" ascent="960" descent="-64" />
<missing-glyph horiz-adv-x="1024" />
<glyph unicode="&#x20;" horiz-adv-x="0" d="" />
<glyph unicode="&#xe000;" glyph-name="plus" data-tags="plus" d="M848.545 503.559v-91.929c0-12.769-4.461-23.621-13.385-32.558s-19.759-13.406-32.507-13.406h-198.868v-199.181c0-12.768-4.464-23.621-13.386-32.558-8.924-8.939-19.759-13.406-32.509-13.406h-91.784c-12.748 0-23.583 4.468-32.507 13.406s-13.385 19.791-13.385 32.558v199.179h-198.867c-12.749 0-23.584 4.47-32.508 13.407s-13.385 19.79-13.385 32.558v91.929c0 12.768 4.462 23.621 13.385 32.558s19.759 13.406 32.508 13.406h198.868v199.18c0 12.767 4.462 23.62 13.385 32.558s19.759 13.406 32.507 13.406h91.785c12.749 0 23.583-4.469 32.507-13.406 8.923-8.94 13.386-19.791 13.386-32.558v-199.18h198.868c12.749 0 23.583-4.469 32.508-13.406 8.922-8.937 13.382-19.791 13.382-32.558z" />
<glyph unicode="&#xe001;" glyph-name="minus" data-tags="minus" d="M848.668 503.504v-91.819c0-12.752-4.463-23.592-13.392-32.519-8.926-8.926-19.767-13.39-32.519-13.39h-581.514c-12.753 0-23.593 4.464-32.52 13.39s-13.391 19.767-13.391 32.519v91.819c0 12.752 4.464 23.592 13.391 32.519s19.767 13.392 32.52 13.392h581.516c12.752 0 23.592-4.464 32.519-13.392s13.39-19.767 13.39-32.519z" />
<glyph unicode="&#xe002;" glyph-name="plus-o" data-tags="plus-o" horiz-adv-x="1023" d="M558.712 56.139h-94.879c-22.578 0-42.902 8.4-58.77 24.297-15.852 15.873-24.233 36.199-24.233 58.782v170.329h-170.009c-22.578 0-42.899 8.403-58.77 24.295-15.854 15.878-24.233 36.206-24.233 58.782v95.029c0 22.578 8.379 42.907 24.233 58.785 15.869 15.892 36.19 24.295 58.77 24.295h170.009v170.332c0 22.574 8.379 42.899 24.231 58.78 15.873 15.897 36.194 24.297 58.775 24.297h94.879c22.578 0 42.899-8.4 58.77-24.295 15.857-15.885 24.233-36.209 24.233-58.782v-170.332h170.009c22.576 0 42.897-8.4 58.766-24.29 2.954-2.959 5.65-6.072 8.075-9.322l8.431-22.078 7.732-122.413c0-22.578-8.379-42.909-24.236-58.787-15.871-15.892-36.194-24.292-58.768-24.292h-170.009v-170.332c0-22.574-8.379-42.902-24.233-58.782-15.866-15.892-36.19-24.297-58.773-24.297zM210.822 499.605c-3.753 0-5.882-0.865-8.438-3.421-2.57-2.575-3.438-4.728-3.438-8.528v-95.029c0-3.798 0.868-5.951 3.438-8.526 2.556-2.561 4.685-3.424 8.438-3.424h241.137v-241.457c0-3.803 0.868-5.951 3.438-8.526 2.558-2.563 4.687-3.426 8.438-3.426h94.879c3.753 0 5.882 0.863 8.433 3.419 2.58 2.582 3.445 4.735 3.445 8.533v241.457h241.137c3.751 0 5.88 0.865 8.44 3.426 2.568 2.572 3.435 4.723 3.435 8.526l-0.002 95.024c0 3.803-0.868 5.956-3.438 8.531-2.551 2.556-4.683 3.419-8.436 3.419h-241.141v241.462c0 3.798-0.865 5.949-3.443 8.531-2.551 2.556-4.683 3.419-8.433 3.419h-94.879c-3.753 0-5.882-0.863-8.438-3.424-2.57-2.575-3.44-4.728-3.44-8.526v-241.459h-241.132z" />
<glyph unicode="&#xe003;" glyph-name="minus-o" data-tags="minus-o" horiz-adv-x="1023" d="M814.197 310.022h-601.12c-22.576 0-42.897 8.388-58.766 24.259-15.869 15.869-24.257 36.19-24.257 58.758v94.915c0 22.574 8.388 42.892 24.259 58.763s36.19 24.259 58.763 24.259h601.12c22.574 0 42.895-8.391 58.763-24.259 15.871-15.873 24.257-36.192 24.257-58.763v-94.915c0-22.574-8.388-42.892-24.259-58.761s-36.19-24.257-58.761-24.257zM213.077 499.852c-3.77 0-5.906-0.865-8.469-3.426-2.563-2.563-3.426-4.699-3.426-8.469v-94.915c0-3.767 0.865-5.904 3.428-8.467 2.558-2.561 4.694-3.424 8.467-3.424h601.12c3.77 0 5.906 0.863 8.467 3.424 2.561 2.563 3.426 4.699 3.426 8.467v94.915c0 3.77-0.865 5.908-3.426 8.471-2.561 2.561-4.697 3.424-8.467 3.424h-601.12z" />
<glyph unicode="&#xe004;" glyph-name="zoom" data-tags="zoom" d="M708.921 518.911c0 75.897-26.976 140.821-80.923 194.77s-118.871 80.923-194.768 80.923c-75.899 0-140.821-26.974-194.77-80.923s-80.923-118.873-80.923-194.77 26.974-140.819 80.923-194.77c53.947-53.947 118.871-80.921 194.77-80.921 75.897 0 140.821 26.974 194.768 80.921 53.949 53.951 80.923 118.873 80.923 194.77v0zM1024 6.91c0-21.334-7.795-39.795-23.386-55.384s-34.050-23.386-55.385-23.386c-22.153 0-40.615 7.795-55.384 23.386l-211.078 210.461c-73.436-50.872-155.281-76.308-245.537-76.308-58.669 0-114.769 11.385-168.308 34.153-53.538 22.77-99.692 53.54-138.462 92.31-38.769 38.768-69.538 84.922-92.308 138.462-22.77 53.538-34.155 109.641-34.155 168.306s11.385 114.769 34.155 168.308c22.768 53.537 53.538 99.692 92.308 138.462 38.768 38.769 84.922 69.538 138.462 92.308s109.641 34.155 168.308 34.155c58.667 0 114.769-11.385 168.308-34.155 53.537-22.77 99.691-53.538 138.462-92.308 38.769-38.769 69.538-84.923 92.308-138.462s34.153-109.641 34.153-168.308c0-90.257-25.437-172.103-76.308-245.539l211.078-211.078c15.178-15.18 22.768-33.641 22.768-55.384h0.002z" />
<glyph unicode="&#xe005;" glyph-name="zoom-in" data-tags="zoom-in" d="M708.923 518.91c0 75.897-26.977 140.821-80.923 194.772-53.947 53.949-118.871 80.923-194.768 80.923s-140.821-26.974-194.77-80.923c-53.949-53.949-80.923-118.874-80.923-194.772 0-75.895 26.974-140.817 80.923-194.768 53.947-53.947 118.871-80.921 194.77-80.921s140.821 26.974 194.768 80.921c53.947 53.951 80.923 118.873 80.923 194.768v0zM1024.002 6.91c0-21.335-7.795-39.795-23.388-55.384-15.589-15.589-34.050-23.388-55.384-23.388-22.153 0-40.615 7.795-55.384 23.388l-211.078 210.461c-73.436-50.872-155.281-76.308-245.537-76.308-58.669 0-114.769 11.383-168.308 34.153s-99.694 53.54-138.462 92.31c-38.769 38.768-69.538 84.922-92.308 138.462-22.772 53.538-34.155 109.639-34.155 168.306 0 58.665 11.385 114.768 34.155 168.308 22.768 53.537 53.538 99.692 92.308 138.462 38.768 38.769 84.922 69.538 138.462 92.308 53.538 22.77 109.639 34.155 168.306 34.155s114.769-11.385 168.308-34.155c53.537-22.77 99.691-53.538 138.462-92.308s69.54-84.923 92.31-138.462c22.77-53.538 34.153-109.641 34.153-168.308 0-90.257-25.437-172.103-76.31-245.54l211.080-211.078c15.178-15.178 22.768-33.639 22.77-55.382v0zM591.728 571.275h-111.47v111.645c0 7.156-2.501 13.239-7.502 18.249s-11.075 7.514-18.222 7.514h-51.448c-7.145 0-13.219-2.505-18.222-7.514-5.002-5.011-7.502-11.093-7.502-18.249v-111.647h-111.47c-7.145 0-13.219-2.507-18.22-7.514s-7.503-11.093-7.503-18.249v-51.529c0-7.156 2.501-13.237 7.503-18.249 5.002-5.008 11.075-7.514 18.22-7.514h111.468v-111.643c0-7.159 2.501-13.243 7.503-18.25 5-5.008 11.075-7.516 18.222-7.516h51.448c7.145 0 13.217 2.508 18.22 7.516 5.002 5.009 7.502 11.093 7.502 18.25v111.643h111.47c7.145 0 13.217 2.507 18.218 7.514 5 5.011 7.502 11.093 7.502 18.252v51.527c0 7.157-2.501 13.243-7.502 18.25-4.999 5.008-11.073 7.514-18.216 7.512v0z" />
<glyph unicode="&#xe006;" glyph-name="zoom-out" data-tags="zoom-out" d="M708.923 518.91c0 75.897-26.977 140.821-80.923 194.772-53.947 53.949-118.871 80.923-194.768 80.923s-140.821-26.974-194.77-80.923c-53.949-53.949-80.923-118.874-80.923-194.772 0-75.895 26.974-140.817 80.923-194.768 53.947-53.947 118.871-80.921 194.77-80.921s140.821 26.974 194.768 80.921c53.947 53.951 80.923 118.873 80.923 194.768v0zM1024.002 6.91c0-21.335-7.795-39.795-23.388-55.384-15.589-15.589-34.050-23.388-55.384-23.388-22.153 0-40.615 7.795-55.384 23.388l-211.078 210.461c-73.436-50.872-155.281-76.308-245.537-76.308-58.669 0-114.769 11.383-168.308 34.153s-99.694 53.54-138.462 92.31c-38.769 38.768-69.538 84.922-92.308 138.462-22.772 53.538-34.155 109.639-34.155 168.306 0 58.665 11.385 114.768 34.155 168.308 22.768 53.537 53.538 99.692 92.308 138.462 38.768 38.769 84.922 69.538 138.462 92.308 53.538 22.77 109.639 34.155 168.306 34.155s114.769-11.385 168.308-34.155c53.537-22.77 99.691-53.538 138.462-92.308s69.54-84.923 92.31-138.462c22.77-53.538 34.153-109.641 34.153-168.308 0-90.257-25.437-172.103-76.31-245.54l211.080-211.078c15.178-15.178 22.768-33.639 22.77-55.382v0zM591.726 572.783h-325.833c-7.143 0-13.219-2.579-18.22-7.734-5-5.154-7.503-11.417-7.503-18.784v-53.041c0-7.366 2.501-13.627 7.503-18.784 5.002-5.155 11.077-7.732 18.22-7.732h325.833c7.145 0 13.217 2.577 18.218 7.732s7.502 11.421 7.502 18.784v53.039c0 7.368-2.501 13.627-7.502 18.784-4.999 5.159-11.073 7.736-18.218 7.736z" />
<glyph unicode="&#xe007;" glyph-name="zoom-previous" data-tags="zoom-previous" d="M708.921 518.911c0 75.897-26.976 140.821-80.923 194.77s-118.871 80.923-194.768 80.923c-75.899 0-140.821-26.974-194.77-80.923s-80.923-118.873-80.923-194.77 26.974-140.819 80.923-194.77c53.947-53.947 118.871-80.921 194.77-80.921 75.897 0 140.821 26.974 194.768 80.921 53.949 53.951 80.923 118.873 80.923 194.77v0zM1024 6.91c0-21.334-7.795-39.795-23.386-55.384s-34.050-23.386-55.385-23.386c-22.153 0-40.615 7.795-55.384 23.386l-211.078 210.461c-73.436-50.872-155.281-76.308-245.537-76.308-58.669 0-114.769 11.385-168.308 34.153-53.538 22.77-99.692 53.54-138.462 92.31-38.769 38.768-69.538 84.922-92.308 138.462-22.77 53.538-34.155 109.641-34.155 168.306s11.385 114.769 34.155 168.308c22.768 53.537 53.538 99.692 92.308 138.462 38.768 38.769 84.922 69.538 138.462 92.308s109.641 34.155 168.308 34.155c58.667 0 114.769-11.385 168.308-34.155 53.537-22.77 99.691-53.538 138.462-92.308 38.769-38.769 69.538-84.923 92.308-138.462s34.153-109.641 34.153-168.308c0-90.257-25.437-172.103-76.308-245.539l211.078-211.078c15.178-15.18 22.768-33.641 22.768-55.384h0.002zM555.676 562.555h-148.652l61.867 58.887c5.348 5.091 8.024 11.187 8.024 18.288s-2.676 13.199-8.024 18.29l-15.838 14.872c-5.35 5.091-11.682 7.639-19.004 7.639-7.46 0-13.866-2.548-19.214-7.639l-137.462-130.639c-5.21-5.226-7.813-11.322-7.813-18.29 0-7.1 2.604-13.133 7.813-18.090l137.46-131.045c5.491-4.959 11.895-7.437 19.216-7.437 7.46 0 13.794 2.478 19.004 7.437l15.836 15.277c5.348 4.824 8.024 10.851 8.024 18.088 0 7.239-2.674 13.266-8.024 18.090l-61.867 59.090h148.654c7.32 0 13.268 2.512 17.841 7.536s6.862 11.089 6.862 18.191v25.727c0 7.102-2.287 13.165-6.86 18.191-4.577 5.022-10.524 7.536-17.843 7.538v0z" />
<glyph unicode="&#xe008;" glyph-name="zoom-next" data-tags="zoom-next" d="M708.923 518.91c0 75.897-26.977 140.821-80.923 194.772-53.947 53.949-118.871 80.923-194.768 80.923s-140.821-26.974-194.77-80.923c-53.949-53.949-80.923-118.874-80.923-194.772 0-75.895 26.974-140.817 80.923-194.768 53.947-53.947 118.871-80.921 194.77-80.921s140.821 26.974 194.768 80.921c53.947 53.951 80.923 118.873 80.923 194.768v0zM1024.002 6.91c0-21.335-7.795-39.795-23.388-55.384-15.589-15.589-34.050-23.388-55.384-23.388-22.153 0-40.615 7.795-55.384 23.388l-211.078 210.461c-73.436-50.872-155.281-76.308-245.537-76.308-58.669 0-114.769 11.383-168.308 34.153s-99.694 53.54-138.462 92.31c-38.769 38.768-69.538 84.922-92.308 138.462-22.772 53.538-34.155 109.639-34.155 168.306 0 58.665 11.385 114.768 34.155 168.308 22.768 53.537 53.538 99.692 92.308 138.462 38.768 38.769 84.922 69.538 138.462 92.308 53.538 22.77 109.639 34.155 168.306 34.155s114.769-11.385 168.308-34.155c53.537-22.77 99.691-53.538 138.462-92.308s69.54-84.923 92.31-138.462c22.77-53.538 34.153-109.641 34.153-168.308 0-90.257-25.437-172.103-76.31-245.54l211.080-211.078c15.178-15.178 22.768-33.639 22.77-55.382v0zM573.797 542.025l-138.019 130.652c-5.372 5.087-11.801 7.628-19.294 7.628-7.348 0-13.708-2.543-19.079-7.628l-15.902-15.052c-5.372-4.818-8.057-10.837-8.057-18.063s2.683-13.246 8.057-18.063l62.119-59.006h-149.254c-7.348 0-13.32-2.508-17.913-7.525s-6.891-11.073-6.891-18.164v-25.689c0-7.093 2.298-13.145 6.891-18.164 4.593-5.017 10.567-7.525 17.913-7.525h149.254l-62.118-58.804c-5.372-5.085-8.057-11.174-8.057-18.265 0-7.093 2.685-13.176 8.057-18.265l15.901-15.054c5.512-4.95 11.873-7.424 19.081-7.424 7.35 0 13.781 2.474 19.294 7.424l138.019 130.654c5.228 4.948 7.846 11.039 7.846 18.263-0.004 7.365-2.62 13.385-7.848 18.068v0z" />
<glyph unicode="&#xe009;" glyph-name="zoom-to" data-tags="zoom-to" d="M1001.228 62.295l-211.076 211.078c50.87 73.436 76.308 155.281 76.308 245.539 0 58.667-11.385 114.769-34.155 168.308s-53.538 99.692-92.308 138.462-84.922 69.538-138.462 92.308c-53.538 22.77-109.641 34.155-168.306 34.155-58.669 0-114.769-11.385-168.308-34.155-53.537-22.768-99.692-53.538-138.462-92.308-38.769-38.768-69.538-84.922-92.308-138.462s-34.155-109.643-34.155-168.308c0-58.667 11.385-114.769 34.155-168.306s53.538-99.692 92.308-138.462c38.769-38.771 84.922-69.538 138.462-92.308s109.641-34.155 168.308-34.155c90.257 0 172.103 25.435 245.539 76.31l211.078-210.463c14.769-15.589 33.23-23.386 55.384-23.386 21.334 0 39.795 7.794 55.384 23.386 15.589 15.589 23.386 34.050 23.386 55.385 0 21.741-7.59 40.202-22.772 55.382v0zM627.998 324.142c-53.949-53.947-118.873-80.921-194.768-80.921s-140.821 26.974-194.77 80.921c-53.949 53.947-80.923 118.873-80.923 194.77s26.972 140.821 80.923 194.77c53.947 53.947 118.871 80.923 194.77 80.923 75.897 0 140.821-26.976 194.768-80.923 53.947-53.949 80.923-118.873 80.923-194.77s-26.976-140.822-80.923-194.77zM279.706 676.247h299.304v-307.618h-299.304v307.618z" />
<glyph unicode="&#xe00a;" glyph-name="zoom-to-point" data-tags="zoom-to-point" d="M708.921 518.911c0 75.897-26.976 140.821-80.923 194.77s-118.871 80.923-194.768 80.923c-75.899 0-140.821-26.974-194.77-80.923s-80.923-118.873-80.923-194.77 26.974-140.819 80.923-194.77c53.947-53.947 118.871-80.921 194.77-80.921 75.897 0 140.821 26.974 194.768 80.921 53.949 53.951 80.923 118.873 80.923 194.77v0zM1024 6.91c0-21.334-7.795-39.795-23.386-55.384s-34.050-23.386-55.385-23.386c-22.153 0-40.615 7.795-55.384 23.386l-211.078 210.461c-73.436-50.872-155.281-76.308-245.537-76.308-58.669 0-114.769 11.385-168.308 34.153-53.538 22.77-99.692 53.54-138.462 92.31-38.769 38.768-69.538 84.922-92.308 138.462-22.77 53.538-34.155 109.641-34.155 168.306s11.385 114.769 34.155 168.308c22.768 53.537 53.538 99.692 92.308 138.462 38.768 38.769 84.922 69.538 138.462 92.308s109.641 34.155 168.308 34.155c58.667 0 114.769-11.385 168.308-34.155 53.537-22.77 99.691-53.538 138.462-92.308 38.769-38.769 69.538-84.923 92.308-138.462s34.153-109.641 34.153-168.308c0-90.257-25.437-172.103-76.308-245.539l211.078-211.078c15.178-15.18 22.768-33.641 22.768-55.384h0.002zM572.208 516.32c0-79.436-64.788-143.83-144.711-143.83s-144.711 64.394-144.711 143.83 64.79 143.83 144.711 143.83c79.923 0.002 144.711-64.394 144.711-143.83z" />
<glyph unicode="&#xe00b;" glyph-name="zoom-to-extent" data-tags="zoom-to-extent" d="M1001.228 62.295l-211.076 211.078c50.87 73.436 76.308 155.281 76.308 245.539 0 58.667-11.385 114.769-34.155 168.308s-53.538 99.692-92.308 138.462-84.922 69.538-138.462 92.308c-53.538 22.77-109.641 34.155-168.306 34.155-58.669 0-114.769-11.385-168.308-34.155-53.537-22.768-99.692-53.538-138.462-92.308-38.769-38.768-69.538-84.922-92.308-138.462s-34.155-109.643-34.155-168.308c0-58.667 11.385-114.769 34.155-168.306s53.538-99.692 92.308-138.462c38.769-38.771 84.922-69.538 138.462-92.308s109.641-34.155 168.308-34.155c90.257 0 172.103 25.435 245.539 76.31l211.078-210.463c14.769-15.589 33.23-23.386 55.384-23.386 21.334 0 39.795 7.794 55.384 23.386 15.589 15.589 23.386 34.050 23.386 55.385 0 21.741-7.59 40.202-22.772 55.382v0zM627.998 324.142c-53.949-53.947-118.873-80.921-194.768-80.921s-140.821 26.974-194.77 80.921c-53.949 53.947-80.923 118.873-80.923 194.77s26.972 140.821 80.923 194.77c53.947 53.947 118.871 80.923 194.77 80.923 75.897 0 140.821-26.976 194.768-80.923 53.947-53.949 80.923-118.873 80.923-194.77s-26.976-140.822-80.923-194.77zM279.706 368.629h299.304v307.618h-299.304v-307.618zM316.628 639.323h225.459v-233.772h-225.459v233.772z" />
<glyph unicode="&#xe00c;" glyph-name="zoom-to-max-extent" data-tags="zoom-to-max-extent" d="M708.923 518.91c0 75.897-26.977 140.821-80.923 194.772-53.947 53.949-118.871 80.923-194.768 80.923s-140.821-26.974-194.77-80.923c-53.949-53.949-80.923-118.874-80.923-194.772 0-75.895 26.974-140.817 80.923-194.768 53.947-53.947 118.871-80.921 194.77-80.921s140.821 26.974 194.768 80.921c53.947 53.951 80.923 118.873 80.923 194.768v0zM1024.002 6.91c0-21.335-7.795-39.795-23.388-55.384-15.589-15.589-34.050-23.388-55.384-23.388-22.153 0-40.615 7.795-55.384 23.388l-211.078 210.461c-73.436-50.872-155.281-76.308-245.537-76.308-58.669 0-114.769 11.383-168.308 34.153s-99.694 53.54-138.462 92.31c-38.769 38.768-69.538 84.922-92.308 138.462-22.772 53.538-34.155 109.639-34.155 168.306 0 58.665 11.385 114.768 34.155 168.308 22.768 53.537 53.538 99.692 92.308 138.462 38.768 38.769 84.922 69.538 138.462 92.308 53.538 22.77 109.639 34.155 168.306 34.155s114.769-11.385 168.308-34.155c53.537-22.77 99.691-53.538 138.462-92.308s69.54-84.923 92.31-138.462c22.77-53.538 34.153-109.641 34.153-168.308 0-90.257-25.437-172.103-76.31-245.54l211.080-211.078c15.178-15.178 22.768-33.639 22.77-55.382v0zM590.447 693.364h-101.17c-6.321 0-10.761-3.009-13.324-9.031-2.559-5.871-1.506-11.066 3.162-15.582l32.517-32.518-80.164-80.164-80.164 80.164 32.517 32.518c4.665 4.516 5.721 9.709 3.162 15.58-2.559 6.022-7.001 9.033-13.324 9.033h-101.168c-3.916 0-7.302-1.429-10.163-4.289s-4.289-6.249-4.289-10.163v-101.168c0-6.323 3.009-10.763 9.031-13.324 1.807-0.753 3.613-1.13 5.42-1.13 3.914 0 7.302 1.431 10.161 4.29l32.517 32.517 80.166-80.161-80.164-80.166-32.518 32.518c-4.516 4.667-9.709 5.721-15.582 3.162-6.020-2.561-9.031-7.001-9.031-13.326v-101.168c0-3.91 1.429-7.3 4.289-10.161s6.249-4.29 10.161-4.29h101.166c6.323 0 10.765 3.013 13.324 9.035 2.557 5.873 1.503 11.066-3.161 15.58l-32.518 32.517 80.164 80.166 80.164-80.164-32.518-32.517c-4.664-4.516-5.719-9.709-3.161-15.58 2.559-6.020 7.002-9.033 13.324-9.033h101.168c3.916 0 7.305 1.431 10.165 4.289 2.86 2.862 4.289 6.249 4.289 10.165v101.166c0 6.325-2.934 10.765-8.804 13.324-6.175 2.559-11.444 1.505-15.807-3.161l-32.517-32.522-80.166 80.166 80.166 80.163 32.517-32.517c2.86-2.86 6.247-4.29 10.163-4.29 1.807 0 3.687 0.377 5.647 1.13 5.871 2.561 8.806 7.001 8.806 13.322v101.166c0 3.914-1.429 7.302-4.289 10.163s-6.255 4.29-10.165 4.29v0z" />
<glyph unicode="&#xe00d;" glyph-name="zoom-box" data-tags="zoom-box" horiz-adv-x="1004" d="M1004.186 404.327v547.813h-536.411v-38.867c-16.513 1.951-33.126 2.925-49.753 2.918-56.609 0-110.74-10.985-162.399-32.956s-96.194-51.657-133.603-89.066c-37.408-37.408-67.097-81.94-89.067-133.601-21.97-51.659-32.954-105.794-32.954-162.399 0-56.609 10.985-110.739 32.956-162.398 21.969-51.659 51.659-96.193 89.067-133.603 37.407-37.41 81.94-67.097 133.601-89.069 51.659-21.969 105.792-32.954 162.399-32.954 87.087 0 166.063 24.545 236.919 73.631l203.668-203.070c14.249-15.040 32.064-22.567 53.441-22.567 20.583 0 38.398 7.522 53.438 22.567 15.043 15.040 22.567 32.855 22.567 53.438 0 20.979-7.325 38.794-21.972 53.441l-203.664 203.668c30.822 44.494 51.958 92.188 63.427 143.077l178.342-0.003zM515.275 746.532c33.142-12.983 63.367-33.119 90.677-60.429 52.054-52.055 78.079-114.699 78.079-187.932 0-15.951-1.24-31.396-3.709-46.34h-165.049v294.702h0.002zM803.086 660.57c-21.972 51.659-51.659 96.193-89.069 133.601-37.407 37.408-81.94 67.097-133.599 89.067-21.089 8.968-42.592 16.094-64.51 21.402h440.771v-452.81h-123.042c1.596 15.184 2.401 30.629 2.401 46.342 0.005 56.604-10.98 110.739-32.952 162.398v0zM605.952 310.24c-52.055-52.054-114.699-78.082-187.932-78.082-73.235 0-135.877 26.030-187.932 78.082s-78.082 114.699-78.082 187.931c0 73.229 26.027 135.875 78.082 187.931 52.054 52.055 114.698 78.082 187.932 78.082 17.166 0 33.75-1.436 49.753-4.298v-355.562h199.914c-12.917-34.479-33.491-65.843-61.735-94.084v0z" />
<glyph unicode="&#xe00e;" glyph-name="search-zoom" data-tags="search-zoom" horiz-adv-x="1040" d="M185.674 615.348c0.174 0.028 0.351 0.040 0.532 0.040l-0.532-0.040zM616.427 625.741c-0.122-0.028-0.247-0.054-0.37-0.075 0.129 0.003 0.254 0.030 0.37 0.075zM499.979 837.267c-0.036 0.014-0.068 0.030-0.106 0.043l0.106-0.043zM372.692 147.855c-17.926 42.15-27.016 86.894-27.016 132.99 0 21.131 1.916 41.977 5.712 62.423l-4.97 2.484c-2.418 1.209-4.937 3.125-7.558 5.745s-4.334 5.34-5.139 8.161c-0.806 2.42-1.814 7.256-3.023 14.51s-2.823 12.494-4.836 15.72c-2.418 4.028-5.846 8.060-10.277 12.091s-8.465 6.045-12.091 6.045c3.224 0 3.224 2.72 0 8.161s-6.045 9.372-8.465 11.79c-0.806 0.806-3.224 3.426-7.254 7.859s-7.456 8.262-10.279 11.488c-2.823 3.224-5.239 6.952-7.254 11.184s-2.418 7.758-1.209 10.579c0.403 0.403 0 1.008-1.209 1.814s-2.72 1.612-4.534 2.418c-1.814 0.804-3.526 1.511-5.139 2.116-1.612 0.606-2.823 0.907-3.627 0.907 0.806-1.612 1.713-4.534 2.72-8.766s2.116-7.355 3.327-9.372c0.804-1.612 4.232-7.456 10.277-17.533 10.48-16.929 15.315-29.422 14.51-37.484-2.418-0.806-4.030-0.403-4.836 1.209s-1.411 3.829-1.814 6.65c-0.403 2.823-0.806 4.836-1.209 6.045-1.209 2.418-4.334 5.038-9.372 7.859s-8.161 5.642-9.372 8.465c0.403 0 0.907 0.202 1.511 0.605s1.108 0.605 1.511 0.605c0.403 3.627-1.713 8.262-6.348 13.904s-6.549 9.672-5.743 12.091c-3.224 2.418-6.045 7.154-8.465 14.208s-4.433 11.587-6.045 13.604c-1.612 2.418-3.627 4.534-6.045 6.348s-5.441 3.829-9.070 6.045c-3.627 2.217-6.045 3.728-7.254 4.534-0.806 0.403-2.418 2.217-4.836 5.441-13.3 16.123-17.332 24.787-12.091 25.997-5.241-1.209-9.573 2.72-12.999 11.788s-4.534 16.022-3.325 20.858l-1.209 0.605c0.403 1.612 0.605 6.348 0.605 14.208s0.504 15.014 1.511 21.463c0.943 6.035 2.68 9.245 5.211 9.633-2.557-0.028-4.496 2.503-5.816 7.598-1.411 5.441-1.511 9.17-0.302 11.184 0.405 1.209 2.217 0.405 5.441-2.418s5.038-4.635 5.441-5.441c5.241 2.823 7.256 6.448 6.045 10.883-0.806 1.612-5.038 5.844-12.697 12.697-17.332 11.286-26.198 16.727-26.601 16.324 2.418 4.433 1.814 8.262-1.814 11.486-4.030-2.42-6.348-3.023-6.952-1.814-0.606 1.209-1.108 3.426-1.511 6.652s-1.411 5.038-3.023 5.441c-2.015 0.403-4.433 2.015-7.256 4.836 35.872 57.234 83.231 101.971 142.077 134.216 2.418 0.403 6.851 0.605 13.3 0.605 3.224-0.403 6.247-1.411 9.070-3.023s5.743-3.829 8.766-6.65c3.023-2.821 5.34-4.836 6.952-6.045 0.806 2.418-0.202 6.045-3.023 10.883 0.806 2.418 5.241 4.836 13.301 7.254 9.269 1.209 15.315 1.009 18.136-0.605-2.418 3.627-6.448 8.667-12.091 15.115l-3.023-3.023c-3.224 2.821-11.689 1.411-25.392-4.232-0.806-0.403-2.823-1.511-6.045-3.327-3.222-1.814-5.846-3.123-7.859-3.929-2.418-0.808-4.836-1.008-7.256-0.605 19.347 10.48 38.29 18.742 56.831 24.787 1.209-0.806 3.224-2.519 6.045-5.139s5.038-4.534 6.652-5.743c-1.209 0.806-2.015 0.403-2.418-1.209-1.612-4.836-1.612-8.866 0-12.091 2.015-2.821 4.735-4.433 8.161-4.836s7.558-0.202 12.395 0.605c4.838 0.808 8.060 1.209 9.672 1.209l6.045-0.605c12.275-1.152 17.425-0.108 15.462 3.12 1.129-1.753 2.423-4.906 3.884-9.469 1.612-5.038 3.426-8.566 5.441-10.579 2.015 1.612 2.418 4.433 1.209 8.465-1.209 4.030-1.209 6.851 0 8.465 0.403 0.806 1.612 1.612 3.627 2.418s4.334 1.713 6.952 2.72 4.334 1.713 5.139 2.116c2.418 1.612 0.806 4.433-4.836 8.465-0.806 0.403-2.519 1.008-5.139 1.814s-4.939 1.612-6.952 2.418c-2.015 0.806-4.131 1.914-6.348 3.325s-3.224 3.023-3.023 4.836c0.203 1.814 1.31 4.131 3.325 6.952 2.418 2.015 6.348 2.823 11.79 2.42s9.572-1.411 12.395-3.023c10.883-6.045 12.495-11.488 4.836-16.324 4.030-0.403 8.868-2.015 14.51-4.836s7.859-5.844 6.652-9.068c3.224 6.045 6.448 9.068 9.672 9.068 2.015-0.401 3.929-3.123 5.743-8.161 1.814-5.036 2.922-7.758 3.325-8.161 3.224-4.433 6.45-5.441 9.672-3.023 3.224 2.42 6.549 5.945 9.975 10.579 3.191 4.317 5.069 6.447 5.639 6.393-3.926 1.596-4.298 3.195-1.103 4.791 6.045 3.627 11.486 4.635 16.324 3.023 1.209-0.806 2.821-2.62 4.836-5.441 3.627-7.254 3.023-10.68-1.814-10.277 3.627-3.224 5.139-7.254 4.534-12.091s-3.728-7.055-9.372-6.652c-2.015 0-4.937 1.009-8.766 3.023s-6.752 3.123-8.766 3.325c-2.015 0.2-4.836-0.907-8.465-3.325-1.612-2.015-3.728-5.441-6.348-10.277s-4.939-8.262-6.952-10.277c-6.045-6.045-16.123-8.262-30.228-6.65 1.209 0 1.108-1.209-0.302-3.627s-3.327-5.139-5.745-8.161c-2.418-3.023-3.829-4.735-4.232-5.139-3.627-4.030-6.045-8.665-7.254-13.906 0-0.804-0.202-3.526-0.606-8.161s-1.209-8.161-2.418-10.579c4.836 1.209 8.665-1.209 11.486-7.254 2.418-5.644 2.418-8.665 0-9.070 13.301 2.015 24.989 1.209 35.064-2.418 14.51-5.239 22.772-10.479 24.787-15.72 2.418 3.627 8.262 3.829 17.533 0.605 3.627-2.015 6.851-8.060 9.672-18.136 1.612-6.045 4.332-11.286 8.161-15.72s7.96-5.644 12.395-3.627l1.814 1.209c1.614 0.806 2.924 1.511 3.931 2.116 1.006 0.605 2.116 1.411 3.325 2.418 1.209 1.009 1.916 1.914 2.116 2.72s-0.101 1.612-0.905 2.418c-2.823 2.42-4.939 5.743-6.348 9.975s-1.108 7.96 0.905 11.184c1.209 1.612 4.435 4.030 9.672 7.254 5.241 3.224 8.465 6.448 9.672 9.672 1.614 5.241-0.403 9.573-6.044 12.999-5.642 3.426-8.465 6.551-8.465 9.372 0 2.015 1.31 4.433 3.929 7.254 2.621 2.823 3.728 5.441 3.325 7.859 0 1.209-0.704 3.728-2.116 7.557s-2.217 6.65-2.42 8.465c-0.2 1.814 0.705 3.929 2.72 6.348 2.823 1.612 9.473 1.511 19.951-0.302 10.48-1.814 17.332-3.728 20.556-5.743 1.209-0.806 3.829-2.015 7.857-3.627 4.030-1.612 7.558-3.327 10.581-5.139s4.735-3.526 5.139-5.139h-3.023c2.823-2.42 4.534-5.241 5.139-8.465s-0.905-5.642-4.532-7.254c2.418 0.403 5.642-0.202 9.672-1.814 6.448-2.418 6.65-4.635 0.606-6.65 1.209 0.403 2.922 0.804 5.139 1.209 2.217 0.403 3.931 1.008 5.139 1.814 0.806 0.403 1.814 1.108 3.023 2.116s2.116 1.612 2.72 1.814 1.511 0.403 2.719 0.605c1.209 0.202 2.42-0.101 3.629-0.907 0.403 0 1.31 1.009 2.719 3.023 1.411 2.013 2.924 4.030 4.534 6.045 1.614 2.015 3.023 3.023 4.233 3.023s2.317-0.504 3.325-1.511c1.008-1.009 1.814-2.116 2.42-3.327 0.605-1.209 1.209-2.519 1.814-3.929s1.108-2.519 1.511-3.325c0.806-2.015 2.72-4.131 5.743-6.348s4.939-4.334 5.747-6.348c0.403-1.209 1.209-4.232 2.418-9.068 1.207-4.838 2.821-8.161 4.836-9.975 2.013-1.814 5.038-3.327 9.068-4.534 0.806-0.403 2.62-0.202 5.441 0.605 2.823 0.804 5.14 1.008 6.954 0.605s2.72-2.015 2.72-4.836c2.418 2.418 3.627 4.030 3.627 4.836 0.403-5.239 1.713-9.473 3.931-12.697 2.215-3.224 5.745-4.635 10.581-4.232l-1.209-13.301c-1.209-2.015-4.235-3.526-9.070-4.534s-7.859-1.914-9.070-2.72c-1.209-0.403-4.131-2.823-8.766-7.254-4.635-4.433-6.551-7.055-5.745-7.859-6.85 7.659-17.128 9.876-30.833 6.652-15.313-2.42-25.797-4.838-31.439-7.254-6.448-3.224-10.883-6.247-13.3-9.070-0.403-0.403-1.108-1.814-2.116-4.232s-2.015-4.635-3.024-6.652c-0.856-1.713-1.638-2.689-2.35-2.946 2.326 0.528 4.923 2.415 7.793 5.668 3.021 3.426 4.937 5.34 5.743 5.743 10.479 6.851 19.145 9.269 25.997 7.256 8.866-2.418 10.277-5.644 4.233-9.672-0.806-0.806-2.922-1.108-6.348-0.907-3.426 0.2-5.745 0.101-6.952-0.302 3.627-0.806 6.65-1.916 9.068-3.327s3.023-3.325 1.814-5.743c1.647-0.926 2.946-1.88 3.91-2.859 8.552 0.636 17.123 0.954 25.699 0.952 46.095 0 90.839-9.089 132.991-27.016 40.747-17.33 76.688-41.151 106.878-70.825-5.227 70.148-25.517 135.543-60.903 196.177-41.513 71.138-97.838 127.464-168.976 168.978-71.14 41.509-148.827 62.267-233.063 62.267-84.238 0-161.925-20.757-233.063-62.27-71.138-41.515-127.464-97.842-168.978-168.978-41.516-71.142-62.272-148.829-62.272-233.067s20.757-161.925 62.27-233.063c41.515-71.138 97.84-127.464 168.978-168.976 70.501-41.144 147.439-61.886 230.805-62.254-5.693 4.954-11.212 10.1-16.548 15.435-30.598 30.6-55.097 67.237-72.811 108.892l-0.002-0.003zM1026.493 8.233l-126.018 126.018c30.372 43.842 45.56 92.707 45.56 146.593 0 35.023-6.797 68.519-20.391 100.484-1.9 4.459-3.914 8.87-6.037 13.228-12.836 26.396-29.186 49.549-49.075 69.436-23.146 23.146-50.702 41.516-82.664 55.111-31.964 13.593-65.459 20.391-100.486 20.391-35.024 0-68.519-6.797-100.484-20.391-7.664-3.257-15.181-6.85-22.529-10.769-22.569-12.047-42.619-26.823-60.137-44.343-2.658-2.663-5.253-5.385-7.788-8.166-19.512-21.383-35.292-46.21-47.324-74.5-5.085-11.931-9.254-24.232-12.473-36.798-2.338-9.143-4.16-18.409-5.458-27.755-1.647-11.906-2.468-23.912-2.462-35.931 0-35.024 6.797-68.519 20.391-100.484 13.593-31.962 31.964-59.518 55.109-82.664 23.146-23.148 50.701-41.516 82.664-55.111 1.539-0.655 3.082-1.289 4.628-1.913 30.567-12.316 62.518-18.48 95.858-18.48 53.887 0 102.747 15.184 146.591 45.557l126.018-125.65c8.818-9.306 19.84-13.962 33.067-13.962 12.735 0 23.759 4.656 33.065 13.962 9.306 9.308 13.962 20.33 13.962 33.063 0.003 12.985-4.527 24.006-13.59 33.072v0zM835.585 208.353c-7.833-15.74-18.466-30.339-31.918-43.792-10.069-10.069-20.778-18.565-32.127-25.486-24.956-15.217-53.008-22.828-84.155-22.828-25.75 0-49.38 5.206-70.898 15.608-16.347 7.902-31.477 18.799-45.383 32.704-6.745 6.745-12.773 13.781-18.105 21.099-11.809 16.209-20.154 33.829-25.036 52.856-1.409 5.493-2.522 11.057-3.342 16.668-1.214 8.307-1.831 16.859-1.831 25.659 0 45.314 16.105 84.073 48.314 116.282s70.97 48.314 116.282 48.314 84.073-16.105 116.282-48.314c32.21-32.209 48.314-70.97 48.314-116.282 0-26.386-5.472-50.546-16.395-72.49v0z" />
<glyph unicode="&#xe00f;" glyph-name="search-eye" data-tags="search-eye" horiz-adv-x="1038" d="M614.975 626.519c-0.121-0.029-0.246-0.054-0.369-0.076 0.121 0 0.244 0.031 0.369 0.076zM185.769 616.19c-0.18 0-0.359-0.014-0.53-0.040 0.177 0.002 0.354 0.014 0.53 0.040zM498.697 837.59c0.036-0.014 0.068-0.029 0.106-0.045-0.029 0.028-0.068 0.043-0.106 0.045zM328.822 152.916c34.004-45.47 74.504-82.906 121.5-112.306-46.997 29.4-87.497 66.834-121.5 112.306zM190.749 251.328l0.607 1.062 0.639 1.047c23.89 39.075 52.338 74.854 84.556 106.344 13.709 13.4 28.245 26.152 43.517 38.207-1.643 1.858-3.388 3.626-5.227 5.291-4.423 4.021-8.445 6.029-12.062 6.029 3.215 0 3.215 2.714 0 8.144-3.217 5.43-6.031 9.35-8.445 11.761-0.802 0.804-3.217 3.418-7.237 7.84s-7.438 8.244-10.253 11.459c-2.814 3.217-5.229 6.936-7.239 11.159-2.010 4.222-2.412 7.74-1.206 10.554 0.404 0.402 0 1.005-1.204 1.809-1.206 0.802-2.714 1.608-4.525 2.412-1.688 0.754-3.397 1.458-5.126 2.111-1.608 0.603-2.814 0.903-3.619 0.903 0.804-1.608 1.709-4.523 2.714-8.745s2.111-7.338 3.317-9.35c0.804-1.608 4.223-7.438 10.255-17.492 10.454-16.889 15.279-29.353 14.476-37.394-2.412-0.804-4.021-0.402-4.825 1.206s-1.407 3.818-1.809 6.634c-0.402 2.816-0.802 4.825-1.206 6.029-1.206 2.412-4.322 5.026-9.348 7.84s-8.142 5.629-9.35 8.445c0.402 0 0.903 0.201 1.508 0.603s1.106 0.605 1.508 0.605c0.402 3.619-1.709 8.244-6.333 13.871-4.624 5.629-6.535 9.65-5.731 12.062-3.217 2.412-6.031 7.137-8.445 14.175s-4.423 11.56-6.031 13.572c-1.608 2.412-3.619 4.523-6.031 6.333s-5.428 3.82-9.047 6.031c-3.619 2.21-6.029 3.719-7.239 4.523-0.802 0.402-2.412 2.211-4.825 5.428-13.27 16.085-17.291 24.729-12.062 25.935-5.227-1.206-9.549 2.714-12.967 11.761s-4.523 15.984-3.317 20.807l-1.206 0.605c0.402 1.608 0.603 6.333 0.603 14.175s0.504 14.979 1.508 21.412c0.941 6.021 2.674 9.223 5.199 9.61-2.551-0.028-4.485 2.497-5.802 7.58-1.407 5.428-1.508 9.149-0.302 11.157 0.402 1.206 2.211 0.404 5.428-2.412 3.215-2.816 5.026-4.624 5.428-5.428 5.227 2.814 7.237 6.433 6.031 10.858-0.804 1.608-5.026 5.83-12.667 12.665-17.291 11.26-26.136 16.686-26.538 16.286 2.412 4.423 1.809 8.244-1.809 11.459-4.021-2.412-6.333-3.016-6.936-1.809-0.605 1.206-1.106 3.419-1.508 6.634-0.402 3.217-1.407 5.026-3.016 5.428-2.010 0.402-4.423 2.010-7.239 4.827 35.786 57.097 83.034 101.731 141.742 133.898 2.412 0.402 6.835 0.603 13.268 0.603 3.217-0.402 6.232-1.407 9.048-3.016 2.816-1.607 5.73-3.82 8.745-6.634 3.017-2.814 5.327-4.825 6.936-6.031 0.802 2.412-0.201 6.031-3.016 10.858 0.804 2.412 5.227 4.825 13.27 7.239 9.248 1.206 15.279 1.005 18.093-0.603-2.412 3.619-6.433 8.645-12.062 15.079l-3.016-3.016c-3.217 2.814-11.662 1.407-25.334-4.222-0.802-0.402-2.816-1.508-6.029-3.317-3.217-1.809-5.832-3.118-7.84-3.92-2.412-0.804-4.825-1.005-7.239-0.605 19.301 10.456 38.2 18.698 56.697 24.729 1.206-0.804 3.217-2.513 6.031-5.126 2.816-2.613 5.026-4.523 6.634-5.731-1.206 0.804-2.010 0.402-2.412-1.206-1.608-4.825-1.608-8.846 0-12.062 2.010-2.814 4.724-4.423 8.144-4.825s7.539-0.201 12.365 0.603c4.825 0.804 8.041 1.206 9.65 1.206l6.031-0.603c12.246-1.149 17.386-0.109 15.426 3.114 1.128-1.749 2.419-4.894 3.877-9.447 1.608-5.026 3.418-8.546 5.428-10.554 2.010 1.608 2.412 4.423 1.206 8.443s-1.206 6.835 0 8.445c0.402 0.804 1.61 1.608 3.619 2.412 2.010 0.802 4.324 1.709 6.936 2.714 2.613 1.005 4.324 1.709 5.126 2.111 2.412 1.608 0.804 4.423-4.825 8.445-0.804 0.402-2.513 1.005-5.126 1.809s-4.925 1.608-6.936 2.412c-2.010 0.806-4.121 1.912-6.333 3.319s-3.217 3.016-3.017 4.825c0.201 1.809 1.307 4.121 3.317 6.936 2.412 2.010 6.333 2.814 11.762 2.412s9.549-1.407 12.365-3.016c10.858-6.031 12.466-11.459 4.825-16.284 4.021-0.402 8.847-2.010 14.476-4.825s7.84-5.83 6.634-9.048c3.217 6.031 6.435 9.048 9.65 9.048 2.010-0.402 3.92-3.116 5.731-8.144 1.809-5.026 2.915-7.74 3.317-8.142 3.217-4.423 6.433-5.428 9.65-3.016 3.215 2.414 6.535 5.931 9.953 10.554 3.184 4.307 5.057 6.433 5.626 6.379-3.918 1.593-4.288 3.187-1.1 4.78 6.031 3.619 11.459 4.622 16.286 3.016 1.206-0.804 2.814-2.613 4.825-5.428 3.619-7.239 3.016-10.655-1.809-10.255 3.619-3.217 5.126-7.237 4.525-12.062-0.605-4.825-3.719-7.038-9.35-6.636-2.010 0-4.925 1.005-8.745 3.016s-6.735 3.116-8.745 3.317c-2.010 0.201-4.825-0.905-8.445-3.317-1.608-2.010-3.719-5.428-6.333-10.255-2.613-4.825-4.925-8.242-6.936-10.253-6.029-6.031-16.085-8.242-30.157-6.636 1.206 0 1.106-1.206-0.302-3.619s-3.317-5.126-5.731-8.142c-2.412-3.017-3.821-4.726-4.223-5.126-3.619-4.021-6.031-8.645-7.237-13.871 0-0.804-0.201-3.518-0.603-8.142s-1.206-8.142-2.412-10.554c4.825 1.206 8.645-1.206 11.459-7.237 2.412-5.629 2.412-8.645 0-9.048 13.27 2.010 24.93 1.206 34.984-2.412 14.475-5.229 22.719-10.454 24.729-15.682 2.412 3.619 8.242 3.82 17.49 0.605 3.619-2.010 6.835-8.041 9.65-18.095 1.61-6.031 4.324-11.258 8.144-15.682s7.941-5.629 12.365-3.619l1.809 1.206c1.608 0.804 2.915 1.508 3.92 2.111 1.007 0.603 2.113 1.407 3.319 2.412 1.204 1.005 1.91 1.912 2.109 2.714 0.203 0.804-0.099 1.608-0.903 2.414-2.814 2.412-4.925 5.73-6.333 9.951s-1.106 7.943 0.905 11.159c1.204 1.608 4.423 4.021 9.65 7.237s8.443 6.433 9.65 9.65c1.61 5.227-0.404 9.549-6.031 12.967-5.629 3.418-8.443 6.535-8.443 9.35 0 2.010 1.307 4.423 3.92 7.237 2.615 2.816 3.719 5.428 3.317 7.84 0 1.206-0.704 3.719-2.111 7.539-1.407 3.821-2.21 6.634-2.412 8.445-0.201 1.809 0.702 3.92 2.714 6.333 2.814 1.608 9.449 1.508 19.904-0.302 10.454-1.808 17.291-3.719 20.506-5.73 1.206-0.804 3.82-2.010 7.84-3.619s7.541-3.317 10.556-5.126c3.014-1.809 4.724-3.518 5.126-5.126h-3.016c2.814-2.412 4.523-5.229 5.126-8.445 0.605-3.217-0.903-5.629-4.523-7.237 2.414 0.402 5.629-0.201 9.65-1.809 6.433-2.412 6.634-4.624 0.603-6.634 1.206 0.402 2.917 0.804 5.128 1.206s3.92 1.007 5.126 1.809c0.804 0.404 1.809 1.106 3.014 2.111s2.111 1.608 2.714 1.809c0.605 0.201 1.508 0.402 2.714 0.603s2.414-0.101 3.619-0.905c0.402 0 1.307 1.005 2.714 3.016s2.915 4.021 4.525 6.031c1.608 2.010 3.014 3.017 4.222 3.017s2.312-0.503 3.317-1.508c0.977-0.969 1.794-2.088 2.412-3.319 0.641-1.289 1.246-2.596 1.811-3.92 0.603-1.407 1.104-2.513 1.508-3.317 0.802-2.010 2.714-4.121 5.731-6.333s4.925-4.324 5.73-6.333c0.404-1.206 1.206-4.223 2.414-9.048 1.206-4.825 2.816-8.142 4.825-9.951s5.024-3.317 9.048-4.523c0.802-0.404 2.613-0.201 5.428 0.603 2.816 0.804 5.128 1.007 6.937 0.605 1.811-0.404 2.714-2.010 2.714-4.825 2.414 2.412 3.619 4.021 3.619 4.825 0.402-5.229 1.709-9.45 3.922-12.667 2.21-3.217 5.731-4.624 10.554-4.223l-1.204-13.268c-1.206-2.010-4.225-3.518-9.048-4.525-4.825-1.007-7.84-1.912-9.048-2.714-1.204-0.402-4.121-2.816-8.745-7.237-4.624-4.423-6.535-7.038-5.731-7.84-6.835 7.639-17.090 9.851-30.762 6.636-15.277-2.414-25.734-4.827-31.365-7.237-6.433-3.217-10.858-6.232-13.268-9.047-0.4-0.402-1.106-1.809-2.111-4.222-0.927-2.246-1.934-4.459-3.016-6.636-0.854-1.709-1.636-2.683-2.347-2.941 2.319 0.527 4.911 2.409 7.773 5.655 3.016 3.418 4.925 5.327 5.731 5.731 10.456 6.835 19.1 9.249 25.935 7.239 8.846-2.412 10.253-5.631 4.223-9.65-0.804-0.804-2.915-1.106-6.333-0.905s-5.731 0.101-6.937-0.302c3.62-0.802 6.636-1.91 9.048-3.317 2.414-1.407 3.016-3.317 1.809-5.731 6.435-3.619 7.641-7.641 3.619-12.062-5.229-5.229-11.457-7.438-18.698-6.634 1.206 0 1.206-0.802 0-2.412l-10.253-6.634c-0.804-0.402-3.418-1.407-7.84-3.016s-7.438-3.418-9.047-5.428c-1.206-1.608-1.809-4.021-1.809-7.237s-0.201-5.629-0.605-7.237-2.010-2.010-4.825-1.206c-1.204-2.412-4.925-4.324-11.157-5.73-6.234-1.407-10.355-3.518-12.365-6.333 2.414-3.217 2.21-6.435-0.605-9.651-4.823-4.021-9.047-3.619-12.665 1.206-2.010-0.802-3.516-2.816-4.523-6.031-1.005-3.217-2.515-5.428-4.523-6.634 2.814-4.425 2.412-7.641-1.206-9.65 0.402 0 1.307-0.402 2.714-1.206s2.915-1.809 4.522-3.017c1.61-1.206 2.615-1.809 3.017-1.809-1.608-3.619-3.82-5.428-6.636-5.428 1.333-3.551 1-7.286-0.974-11.203 27.568 4.615 55.474 6.931 83.428 6.924 45.668 0 90.864-6.133 134.333-18.23 43.162-12.010 85.589-30.174 126.099-53.983 5.704-3.357 11.352-6.811 16.939-10.359 2.172 18.558 3.27 37.451 3.27 56.694 0 84.038-20.708 161.544-62.125 232.514-41.418 70.972-97.609 127.165-168.582 168.582-70.969 41.415-148.475 62.123-232.513 62.123s-161.542-20.708-232.513-62.125c-70.971-41.415-127.163-97.609-168.58-168.58-41.422-70.988-62.13-148.49-62.13-232.53s20.708-161.546 62.125-232.514c32.367-55.463 73.757-101.902 124.174-139.316-10.097 20.308-15.209 41.439-15.209 62.945 0 24.467 6.615 48.451 19.665 71.288l-0.005 0.005zM864.238 371.152c-68.952 40.526-141.768 60.789-218.445 60.789s-149.494-20.261-218.445-60.789c-68.952-40.526-123.836-94.169-164.653-160.936-5.832-10.204-8.747-20.261-8.747-30.174s2.917-19.97 8.747-30.176c40.817-66.764 95.703-120.411 164.653-160.934 68.952-40.526 141.766-60.791 218.445-60.791s149.492 20.19 218.444 60.57 123.836 94.098 164.653 161.154c5.832 10.206 8.747 20.263 8.747 30.176 0 9.915-2.917 19.97-8.747 30.174-40.815 66.764-95.698 120.411-164.651 160.936v0zM645.794 368.967c5.83 0 10.787-2.040 14.868-6.123 4.080-4.081 6.123-9.038 6.123-14.87 0-5.83-2.042-10.788-6.123-14.868s-9.040-6.123-14.868-6.123c-25.074 0-46.503-8.892-64.288-26.675-17.786-17.786-26.679-39.216-26.679-64.288 0-5.832-2.040-10.79-6.121-14.87s-9.038-6.121-14.868-6.121-10.788 2.040-14.87 6.121c-4.081 4.081-6.121 9.040-6.121 14.87 0 36.443 13.045 67.711 39.141 93.807 26.093 26.091 57.363 39.139 93.805 39.139v0zM835.812 37.252c-58.456-35.424-121.796-53.134-190.020-53.134s-131.564 17.712-190.021 53.134c-1.825 1.107-3.643 2.225-5.452 3.359-46.995 29.4-87.495 66.834-121.5 112.306-6.598 8.83-12.901 17.875-18.897 27.124 44.316 68.806 99.857 120.266 166.622 154.378-17.785-30.322-26.677-63.122-26.677-98.398 0-53.938 19.169-100.076 57.508-138.414 38.341-38.341 84.478-57.51 138.416-57.51 53.936 0 100.074 19.171 138.413 57.51 38.337 38.337 57.508 84.476 57.508 138.414 0 35.276-8.892 68.076-26.677 98.398 66.766-34.114 122.306-85.572 166.623-154.378-38.776-59.768-87.39-107.363-145.846-142.789v0z" />
<glyph unicode="&#xe010;" glyph-name="pan" data-tags="pan" d="M986.472 457.593c0-9.179-3.356-17.122-10.063-23.829l-135.564-135.563c-6.707-6.707-14.652-10.060-23.828-10.060-9.179 0-17.122 3.354-23.829 10.060-6.706 6.707-10.061 14.65-10.061 23.829v67.781h-203.343v-203.344h67.779c9.178 0 17.124-3.354 23.829-10.061s10.060-14.651 10.060-23.829c0-9.179-3.355-17.121-10.060-23.828l-135.564-135.566c-6.707-6.707-14.651-10.059-23.829-10.059s-17.122 3.354-23.829 10.059l-135.564 135.564c-6.708 6.707-10.060 14.649-10.060 23.828s3.352 17.122 10.060 23.829c6.707 6.705 14.651 10.060 23.829 10.060h67.782v203.344h-203.346v-67.781c0-9.179-3.354-17.122-10.061-23.829s-14.651-10.059-23.829-10.059c-9.179 0-17.123 3.354-23.829 10.059l-135.564 135.564c-6.708 6.707-10.061 14.651-10.061 23.829s3.353 17.122 10.061 23.829l135.563 135.564c6.707 6.707 14.651 10.060 23.829 10.060s17.121-3.353 23.829-10.060c6.707-6.708 10.061-14.653 10.061-23.829v-67.782h203.346v203.346h-67.781c-9.179 0-17.122 3.354-23.829 10.060-6.708 6.708-10.060 14.653-10.060 23.83 0 9.179 3.352 17.122 10.060 23.829l135.564 135.564c6.707 6.708 14.65 10.062 23.829 10.062s17.121-3.355 23.831-10.061l135.563-135.564c6.705-6.706 10.060-14.651 10.060-23.829s-3.354-17.122-10.060-23.83c-6.708-6.706-14.653-10.060-23.83-10.060h-67.781v-203.346h203.344v67.781c0 9.178 3.354 17.122 10.061 23.829s14.65 10.060 23.829 10.060c9.178 0 17.121-3.354 23.829-10.060l135.562-135.564c6.71-6.707 10.065-14.651 10.065-23.829z" />
<glyph unicode="&#xe011;" glyph-name="move" data-tags="move" d="M234.059 579.108c0 9.406-3.44 17.55-10.316 24.426-6.878 6.876-15.019 10.312-24.428 10.312s-17.554-3.438-24.428-10.312l-138.971-138.971c-6.878-6.874-10.314-15.017-10.314-24.428 0-9.415 3.436-17.559 10.314-24.426l138.973-138.971c6.874-6.88 15.017-10.32 24.428-10.32 9.408 0 17.552 3.442 24.428 10.32 6.876 6.873 10.316 15.015 10.316 24.426v69.485h86.691v138.971h-86.693v69.488zM536.43 916.225c-6.873 6.874-15.019 10.314-24.428 10.314s-17.552-3.438-24.426-10.318l-138.971-138.971c-6.876-6.878-10.314-15.019-10.314-24.428s3.436-17.552 10.314-24.43c6.878-6.874 15.017-10.312 24.428-10.312h69.485v-70.277h138.977v70.277h69.487c9.402 0 17.55 3.438 24.43 10.312 6.873 6.878 10.307 15.021 10.307 24.43s-3.44 17.554-10.307 24.428l-138.98 138.975zM650.978 162.196h-69.487v80.81h-138.977v-80.813h-69.485c-9.408 0-17.552-3.442-24.428-10.311-6.876-6.878-10.314-15.017-10.314-24.428s3.436-17.556 10.314-24.43l138.97-138.971c6.878-6.873 15.022-10.312 24.428-10.312 9.408 0 17.559 3.438 24.428 10.312l138.977 138.975c6.873 6.876 10.311 15.015 10.311 24.426s-3.442 17.554-10.311 24.43c-6.876 6.871-15.021 10.312-24.426 10.312zM988.092 464.563l-138.975 138.975c-6.876 6.874-15.019 10.312-24.425 10.312-9.411 0-17.556-3.44-24.428-10.312-6.878-6.876-10.316-15.021-10.316-24.43v-69.485h-86.686v-138.968h86.691v-69.488c0-9.413 3.44-17.557 10.316-24.432s15.017-10.312 24.426-10.312c9.402 0 17.554 3.435 24.425 10.312l138.978 138.975c6.873 6.873 10.312 15.019 10.312 24.425-0.004 9.409-3.445 17.554-10.32 24.428zM609.259 446.258c0-52.671-42.391-95.37-94.682-95.37s-94.682 42.699-94.682 95.37c0 52.671 42.391 95.37 94.682 95.37s94.682-42.699 94.682-95.37z" />
<glyph unicode="&#xe012;" glyph-name="move-circle" data-tags="test" d="M988.092 464.563l-138.975 138.975c-6.876 6.874-15.019 10.312-24.425 10.312-9.411 0-17.556-3.44-24.428-10.312-6.878-6.876-10.316-15.021-10.316-24.43v-69.485h-72.605c-20.283 65.613-71.21 117.757-135.851 139.421v69.035h69.487c9.402 0 17.55 3.438 24.43 10.312 6.873 6.878 10.307 15.021 10.307 24.43s-3.44 17.554-10.307 24.428l-138.978 138.975c-6.873 6.874-15.019 10.314-24.428 10.314s-17.552-3.438-24.426-10.318l-138.971-138.971c-6.876-6.878-10.314-15.019-10.314-24.428s3.436-17.552 10.314-24.43c6.878-6.874 15.017-10.312 24.428-10.312h69.485v-70.277h1.561c-62.938-22.366-112.366-73.787-132.272-138.183h-77.747v69.488h0.002c0 9.406-3.44 17.55-10.316 24.426-6.878 6.876-15.019 10.312-24.428 10.312s-17.554-3.438-24.428-10.312l-138.973-138.971c-6.878-6.874-10.314-15.017-10.314-24.428 0-9.415 3.436-17.559 10.314-24.426l138.973-138.971c6.874-6.88 15.017-10.32 24.428-10.32 9.408 0 17.552 3.442 24.428 10.32 6.876 6.873 10.316 15.015 10.316 24.426v69.485h81.962c22.74-60.287 71.84-107.609 133.064-127.641h-6.569v-80.813h-69.485c-9.408 0-17.552-3.442-24.428-10.311-6.876-6.878-10.314-15.017-10.314-24.428s3.436-17.556 10.314-24.43l138.97-138.971c6.878-6.873 15.022-10.312 24.428-10.312 9.408 0 17.559 3.438 24.428 10.312l138.977 138.975c6.873 6.876 10.311 15.015 10.311 24.426s-3.442 17.554-10.311 24.43c-6.876 6.871-15.022 10.312-24.428 10.312h-69.487v80.81h-1.422c61.226 20.032 110.325 67.359 133.064 127.65h76.818v-69.488c0-9.413 3.44-17.557 10.316-24.432s15.017-10.312 24.426-10.312c9.402 0 17.554 3.435 24.425 10.312l138.978 138.975c6.873 6.873 10.312 15.019 10.312 24.425-0.002 9.408-3.443 17.552-10.318 24.426zM514.579 278.452c-91.773 0-166.437 75.28-166.437 167.81 0 92.528 74.664 167.804 166.437 167.804 91.77 0 166.432-75.276 166.432-167.804-0.002-92.53-74.662-167.81-166.432-167.81z" />
<glyph unicode="&#xe013;" glyph-name="move-square" data-tags="test2" d="M536.43 916.225c-6.873 6.874-15.019 10.314-24.428 10.314s-17.552-3.438-24.426-10.318l-138.971-138.971c-6.876-6.878-10.314-15.019-10.314-24.428s3.436-17.552 10.314-24.43c2.939-2.937 6.121-5.209 9.522-6.89h307.756c3.403 1.683 6.587 3.953 9.526 6.89 6.873 6.878 10.307 15.021 10.307 24.43s-3.44 17.554-10.307 24.428l-138.978 138.975zM650.978 162.196h-69.487v0.109l-208.461-0.113c-9.408 0-17.552-3.442-24.428-10.311-6.876-6.878-10.314-15.017-10.314-24.428s3.436-17.556 10.314-24.43l138.97-138.971c6.878-6.873 15.022-10.312 24.428-10.312 9.408 0 17.559 3.438 24.428 10.312l138.977 138.975c6.873 6.876 10.311 15.015 10.311 24.426s-3.442 17.554-10.311 24.43c-6.876 6.871-15.021 10.312-24.426 10.312zM234.057 579.108v0c0.002 9.406-3.438 17.55-10.314 24.426-6.878 6.876-15.019 10.312-24.428 10.312s-17.554-3.438-24.428-10.312l-138.971-138.971c-6.878-6.874-10.314-15.017-10.314-24.428 0-9.415 3.436-17.559 10.314-24.426l138.973-138.971c6.874-6.88 15.017-10.32 24.428-10.32 9.408 0 17.552 3.442 24.428 10.32 6.876 6.873 10.316 15.015 10.316 24.426v69.485h0.109v138.971h-0.111v69.488zM988.092 464.563l-138.975 138.975c-6.876 6.874-15.019 10.312-24.425 10.312-9.411 0-17.556-3.44-24.428-10.312-6.878-6.876-10.316-15.021-10.316-24.43v-69.485h-0.113v-138.968h0.115v-69.488c0-9.413 3.44-17.557 10.316-24.432s15.017-10.312 24.426-10.312c9.402 0 17.554 3.435 24.425 10.312l138.978 138.975c6.873 6.873 10.312 15.019 10.312 24.425 0 9.409-3.442 17.554-10.316 24.428zM647.722 312.012v268.316h-126.32c-2.26 0.115-4.535 0.175-6.823 0.175s-4.564-0.058-6.823-0.175h-126.325v-268.316h266.291z" />
<glyph unicode="&#xe014;" glyph-name="max-extent" data-tags="max-extent" d="M118.691 613.412c10.236-0.017 18.862 3.47 25.877 10.462l51.806 51.63 180.907-181.524 103.478 103.394-180.773 181.39 51.806 51.63c7.015 6.992 10.532 15.606 10.549 25.841s-3.47 18.862-10.462 25.877-15.605 10.532-25.841 10.549l-206.872 0.351c-10.236 0.018-18.861-3.469-25.877-10.461-7.015-6.991-10.532-15.605-10.549-25.841l-0.353-206.872c-0.017-10.235 3.47-18.862 10.461-25.877s15.606-10.53 25.841-10.549zM647.015 494.71l181.387 180.773 51.63-51.806c6.991-7.015 15.606-10.532 25.842-10.549s18.861 3.47 25.876 10.462c7.016 6.991 10.532 15.606 10.55 25.842l0.353 206.872c0.018 10.236-3.47 18.861-10.462 25.877-6.99 7.015-15.605 10.532-25.841 10.549l-206.872 0.352c-10.235 0.017-18.861-3.47-25.876-10.461s-10.532-15.606-10.55-25.842c-0.017-10.235 3.47-18.861 10.462-25.876l51.629-51.806-181.522-180.907 103.396-103.478zM932.257 290.122c-6.99 7.015-15.606 10.532-25.842 10.55-10.235 0.015-18.862-3.471-25.876-10.462l-51.806-51.63-180.907 181.525-103.478-103.395 180.771-181.389-51.805-51.629c-7.016-6.992-10.532-15.606-10.55-25.844-0.017-10.236 3.47-18.862 10.462-25.877 6.992-7.013 15.606-10.532 25.841-10.549l206.872-0.35c10.236-0.017 18.861 3.468 25.876 10.461s10.532 15.606 10.55 25.842l0.351 206.871c0.019 10.234-3.468 18.86-10.46 25.875zM378.093 419.373l-181.387-180.773-51.629 51.806c-6.992 7.015-15.606 10.532-25.842 10.549-10.236 0.018-18.862-3.47-25.877-10.461s-10.532-15.606-10.549-25.843l-0.351-206.871c-0.018-10.236 3.469-18.861 10.461-25.877 6.991-7.015 15.605-10.533 25.841-10.549l206.872-0.352c10.235-0.017 18.862 3.47 25.877 10.462s10.532 15.606 10.549 25.843c0.017 10.235-3.47 18.862-10.462 25.876l-51.629 51.806 181.523 180.909-103.396 103.475z" />
<glyph unicode="&#xe015;" glyph-name="min-extent" data-tags="min-extent" d="M170.584 597.768c-7.016-6.992-10.532-15.606-10.549-25.843s3.47-18.862 10.461-25.876c6.992-7.016 15.606-10.533 25.842-10.55l206.871-0.35c10.236-0.018 18.862 3.468 25.877 10.461 7.015 6.991 10.533 15.606 10.549 25.841l0.353 206.872c0.017 10.235-3.47 18.862-10.462 25.877s-15.606 10.532-25.843 10.549c-10.236 0.017-18.862-3.47-25.876-10.461l-51.806-51.63-180.906 181.522-103.478-103.395 180.772-181.389-51.806-51.63zM621.092 535.832l206.871-0.351c10.235-0.017 18.862 3.469 25.877 10.461 7.013 6.992 10.531 15.606 10.549 25.842 0.016 10.235-3.47 18.862-10.462 25.876l-51.629 51.806 181.523 180.907-103.394 103.476-181.387-180.773-51.63 51.806c-6.992 7.016-15.606 10.532-25.842 10.549s-18.861-3.47-25.876-10.461c-7.016-6.992-10.532-15.605-10.55-25.841l-0.351-206.872c-0.018-10.236 3.468-18.861 10.461-25.877 6.99-7.016 15.604-10.532 25.841-10.55zM854.522 316.314c7.016 6.992 10.534 15.606 10.55 25.844 0.017 10.235-3.468 18.861-10.462 25.876-6.992 7.015-15.606 10.532-25.841 10.55l-206.872 0.35c-10.236 0.018-18.861-3.468-25.876-10.461s-10.533-15.606-10.55-25.842l-0.351-206.871c-0.018-10.235 3.469-18.862 10.461-25.877s15.606-10.532 25.844-10.549c10.235-0.017 18.861 3.468 25.876 10.461l51.806 51.63 180.907-181.523 103.478 103.393-180.771 181.389 51.803 51.631zM404.016 378.251l-206.872 0.352c-10.235 0.017-18.862-3.47-25.877-10.462s-10.532-15.606-10.549-25.842c-0.017-10.235 3.47-18.862 10.462-25.876l51.629-51.806-181.523-180.906 103.395-103.478 181.387 180.773 51.629-51.806c6.992-7.015 15.606-10.532 25.842-10.549 10.236-0.018 18.862 3.47 25.877 10.461 7.016 6.992 10.533 15.606 10.549 25.843l0.351 206.871c0.018 10.236-3.469 18.861-10.462 25.877-6.989 7.015-15.603 10.532-25.839 10.548z" />
<glyph unicode="&#xe016;" glyph-name="minimize" data-tags="minimize" d="M463.43 499.123c7.015 6.991 10.532 15.606 10.549 25.842l0.352 206.872c0.017 10.234-3.47 18.861-10.462 25.875s-15.606 10.533-25.843 10.551c-10.235 0.015-18.861-3.47-25.876-10.463l-51.806-51.629-180.906 181.523-103.477-103.394 180.773-181.387-51.806-51.629c-7.015-6.992-10.533-15.606-10.55-25.843-0.016-10.236 3.47-18.861 10.463-25.876 6.991-7.016 15.605-10.533 25.841-10.55l206.872-0.352c10.236-0.019 18.86 3.468 25.876 10.46zM948.038 130.893l-180.773 181.387 51.806 51.629c7.015 6.991 10.533 15.606 10.549 25.842 0.018 10.236-3.469 18.862-10.461 25.877s-15.606 10.533-25.842 10.549l-206.871 0.351c-10.236 0.018-18.861-3.469-25.877-10.462-7.015-6.991-10.532-15.606-10.549-25.842l-0.353-206.872c-0.017-10.235 3.471-18.862 10.462-25.877s15.606-10.532 25.843-10.549c10.235-0.016 18.861 3.47 25.876 10.462l51.806 51.629 180.907-181.523 103.476 103.397z" />
<glyph unicode="&#xe017;" glyph-name="maximize" data-tags="maximize" d="M937.691 37.404c7.015 6.989 10.532 15.606 10.549 25.842l0.352 206.872c0.017 10.235-3.47 18.861-10.462 25.876-6.992 7.013-15.606 10.532-25.842 10.55s-18.861-3.47-25.876-10.462l-51.806-51.63-180.907 181.523-103.478-103.395 180.773-181.387-51.806-51.63c-7.015-6.991-10.531-15.606-10.549-25.842s3.47-18.861 10.462-25.876c6.991-7.016 15.606-10.532 25.842-10.55l206.871-0.353c10.236-0.020 18.86 3.47 25.877 10.46zM474.886 591.503l-180.773 181.387 51.806 51.629c7.015 6.992 10.532 15.606 10.549 25.842s-3.47 18.862-10.461 25.877-15.606 10.532-25.843 10.549l-206.871 0.351c-10.236 0.018-18.861-3.469-25.877-10.461s-10.533-15.605-10.549-25.841l-0.352-206.872c-0.017-10.235 3.47-18.862 10.462-25.877s15.606-10.532 25.843-10.549c10.235-0.017 18.862 3.47 25.876 10.462l51.806 51.629 180.909-181.523 103.476 103.396z" />
<glyph unicode="&#xe018;" glyph-name="select-hand" data-tags="select-hand" d="M804.789 642.227c-8.447-0.006-16.598-1.264-24.28-3.599l0.592 0.155c-17.497 18.422-40.196 28.54-64.148 28.54-8.447-0.007-16.597-1.265-24.279-3.599l0.592 0.155c-17.497 18.423-40.194 28.539-64.147 28.539-12.806 0-25.167-2.862-36.822-8.518v133.638c0 32.867-10.95 63.789-30.837 87.072-20.018 23.438-46.68 36.346-75.076 36.346s-55.059-12.908-75.079-36.346c-19.887-23.283-30.838-54.206-30.838-87.072l0.001-321.275c-9.931 3.266-18.74 6.286-26.631 8.993-41.527 14.242-62.371 21.392-118.843 21.392-61.052 0-110.72-57.889-110.72-129.043s49.669-129.041 110.72-129.041c39.675 0 69.999-8.409 95.43-26.463 22.455-15.94 42.287-39.792 66.313-79.751 0.249-0.415 0.501-0.837 0.756-1.269h-68.266v-186.848h519.262v186.848h-45.417c3.729 55.548 17.226 70.944 34.237 90.341 13.712 15.643 30.777 35.111 43.295 70.498 13.048 36.897 19.125 84.774 19.125 150.673v60.909c-0.001 59.95-42.59 108.724-94.94 108.724zM735.606 161.082h-262.258c-6.544 14.419-13.592 27.932-20.964 40.194-29.545 49.137-58.168 82.184-90.080 104.004-17.686 12.092-36.386 20.848-57.167 26.768-21.275 6.059-44.221 9.005-70.148 9.005-22.904 0-42.996 25.551-42.996 54.678 0 28.622 19.69 52.804 42.996 52.804 55.562 0 76.060-7.708 116.897-23.066 8.987-3.38 19.175-7.212 30.863-11.38l0.121-0.040c21.604-6.809 38.249-11.693 50.885-14.93l4.285-1.098 0.538 413.895c0 31.183 21.443 56.552 47.8 56.552s47.8-25.369 47.8-56.552l0.002-2.744v-240.655h58.112v9.56c0 23.082 16.518 41.86 36.823 41.86 12.645 0 24.268-7.28 31.093-19.475l14.793-26.428 23.859 15.385c5.495 3.546 11.752 5.42 18.091 5.42 12.644 0 24.267-7.28 31.091-19.475l14.789-26.431 23.86 15.386c5.496 3.546 11.753 5.42 18.095 5.42 20.304 0 36.823-18.778 36.823-41.859v-60.91c0-48.328-5.069-84.955-15.497-111.977-8.976-23.258-20.773-36.28-31.181-47.769-1.826-2.016-3.551-3.92-5.271-5.882-22.587-25.759-48.151-54.912-54.056-140.26z" />
<glyph unicode="&#xe019;" glyph-name="select-hand-left" data-tags="select-hand-left" horiz-adv-x="1448" d="M431.322 642.226c-52.351 0-94.939-48.774-94.939-108.723v-60.909c0-65.901 6.076-113.777 19.123-150.674 12.518-35.386 29.582-54.855 43.296-70.497 17.011-19.397 30.508-34.794 34.237-90.341h-45.417v-186.848h519.26v186.848h-68.266c0.253 0.432 0.506 0.853 0.755 1.268 24.026 39.958 43.856 63.811 66.312 79.75 25.431 18.053 55.755 26.463 95.431 26.463 61.050 0 110.719 57.886 110.719 129.042s-49.667 129.044-110.719 129.044c-56.472 0-77.316-7.151-118.843-21.392-7.891-2.708-16.7-5.728-26.63-8.995l0.002 321.276c0 32.864-10.951 63.788-30.838 87.071-20.021 23.438-46.684 36.346-75.080 36.346s-55.058-12.908-75.078-36.346c-19.887-23.283-30.836-54.205-30.836-87.071v-133.639c-11.654 5.656-24.016 8.517-36.823 8.517-23.952 0-46.648-10.116-64.146-28.538-7.691 2.278-15.666 3.437-23.689 3.444-23.952 0-46.65-10.118-64.148-28.541-7.686 2.281-15.662 3.44-23.684 3.446v0zM500.506 161.082c-5.905 85.348-31.469 114.5-54.055 140.26-1.72 1.963-3.446 3.867-5.271 5.883-10.409 11.489-22.204 24.511-31.182 47.77-10.428 27.021-15.497 63.649-15.497 111.978v60.909c0 23.082 16.521 41.859 36.823 41.859 6.342 0 12.599-1.875 18.096-5.419l23.859-15.385 14.79 26.429c6.824 12.196 18.447 19.474 31.091 19.474 6.339 0 12.595-1.873 18.091-5.419l23.859-15.384 14.794 26.427c6.824 12.194 18.447 19.474 31.093 19.474 20.305 0 36.823-18.778 36.823-41.861v-9.559h58.112v240.654l0.002 2.744c0 31.184 21.442 56.551 47.799 56.551s47.799-25.368 47.799-56.551l0.538-413.895 4.283 1.099c12.637 3.237 29.281 8.121 50.885 14.931l0.12 0.038c11.689 4.17 21.877 8.001 30.862 11.381 40.837 15.358 61.335 23.066 116.898 23.066 23.307 0 42.996-24.184 42.996-52.805 0-29.126-20.094-54.678-42.996-54.678-25.927 0-48.872-2.945-70.148-9.004-20.78-5.919-39.48-14.675-57.166-26.77-31.913-21.819-60.534-54.867-90.080-104.003-7.371-12.262-14.42-25.774-20.964-40.194l-262.254-0.002z" />
<glyph unicode="&#xe01a;" glyph-name="pan-hand" data-tags="pan-hand" d="M720.942 568.121l0.467 0.027c-0.177 0.704-0.341 1.591-0.455 2.494l-0.012 0.119v-2.64zM898.237 722.283c0 27.508-9.165 53.39-25.809 72.876-16.754 19.617-39.070 30.421-62.837 30.421-14.417 0-28.298-3.983-40.731-11.489-2.254 23.001-11.009 44.31-25.224 60.954-16.754 19.617-39.070 30.421-62.837 30.421-16.583 0-32.458-5.266-46.232-15.109-4.369 13.202-11.085 25.32-19.902 35.642-16.754 19.617-39.070 30.421-62.837 30.421s-46.082-10.804-62.838-30.42c-6.368-7.455-11.636-15.849-15.721-24.908-14.916 13.838-32.541 21.287-51.029 21.287-24.287 0-47.090-12.842-64.213-36.159-17.009-23.164-26.376-53.928-26.376-86.626l0.001-302.331c-28.741 9.273-51.113 13.925-96.662 13.925-61.052 0-110.72-57.889-110.72-129.043s49.669-129.041 110.72-129.041c39.675 0 69.999-8.409 95.43-26.463 22.455-15.94 42.287-39.792 66.313-79.75 0.249-0.415 0.501-0.838 0.756-1.27h-68.265v-186.847h519.262v186.847h-45.417c3.729 55.548 17.226 70.944 34.237 90.342 13.712 15.643 30.777 35.111 43.295 70.498 13.048 36.897 19.125 84.774 19.125 150.673v60.909l-1.491 204.243zM826.113 339.53c-8.976-23.258-20.773-36.28-31.181-47.769-1.825-2.015-3.551-3.919-5.271-5.882-22.587-25.759-48.152-54.912-54.056-140.26h-262.258c-6.544 14.419-13.592 27.932-20.964 40.194-29.545 49.137-58.168 82.184-90.080 104.004-17.686 12.092-36.386 20.847-57.167 26.768-21.274 6.059-44.221 9.005-70.148 9.005-22.904 0-42.996 25.551-42.996 54.678 0 28.622 19.69 52.804 42.996 52.804 55.562 0 76.060-7.708 116.897-23.066 8.987-3.38 19.175-7.212 30.863-11.38l0.121-0.040 1.773-0.557c0.137 12.005 0.218 23.227-0.29 34.907l-0.919 360.361c0 31.023 16.263 56.963 38.807 56.963 22.542 0 40.882-25.239 40.882-56.263l0.002-2.73v-175.843l0.057 0.059v-31.26l0.041 0.037v177.93c0 13.47 10.919 24.39 24.389 24.39s24.389-10.92 24.389-24.39v-133.276l0.829 37.723v132.954c0 6.344-0.357 12.614-1.050 18.771l0.039 30.053c0 26.1 17.947 47.333 40.008 47.333 22.059 0 40.007-21.233 40.007-47.333l0.002-2.296v-147.934l0.089 0.079v69.64c0 13.47 10.919 24.39 24.389 24.39 12.141 0 22.207-8.873 24.075-20.488l0.401 25.656c0 26.1 17.947 47.333 40.008 47.333 22.059 0 40.007-21.233 40.007-47.333l0.002-2.296v-41.441c0.807 12.74 11.39 22.825 24.334 22.825 13.47 0 24.389-10.92 24.389-24.39v-36.054l0.050 1.471c0 26.1 17.947 47.333 40.008 47.333 22.059 0 40.007-21.233 40.007-47.333l0.002-2.296-2.403-201.008-2.441-64.593c0-8.541 0.025-16.782-0.293-24.605zM487.611 559.41c13.47 0 24.389 10.92 24.389 24.39v178.39c0 13.47-10.919 24.39-24.389 24.39s-24.389-10.92-24.389-24.39v-178.39c0-13.47 10.919-24.39 24.389-24.39zM616.314 565.124c13.47 0 24.389 10.919 24.389 24.39v178.389c0 1.329-0.11 2.631-0.315 3.902-1.868 11.615-11.933 20.488-24.075 20.488-13.47 0-24.389-10.92-24.389-24.39v-178.39c0-13.47 10.92-24.389 24.389-24.389zM720.751 573.77c0-1.019 0.070-2.022 0.191-3.009 0.109-0.887 0.266-1.758 0.467-2.613 2.539-10.758 12.197-18.767 23.731-18.767 13.47 0 24.389 10.919 24.389 24.39v178.389c0 13.47-10.919 24.39-24.389 24.39-12.944 0-23.527-10.085-24.334-22.825-0.033-0.464-0.053-1.010-0.055-1.561v-178.394z" />
<glyph unicode="&#xe01b;" glyph-name="pan-hand-left" data-tags="pan-hand-left" horiz-adv-x="1448" d="M515.163 570.76c-0.107-0.879-0.263-1.751-0.466-2.613l0.466-0.028v2.641zM337.869 722.286l-1.491-204.242v-60.909c0-65.899 6.077-113.775 19.125-150.672 12.518-35.388 29.582-54.857 43.296-70.499 17.011-19.397 30.508-34.794 34.235-90.341h-45.415v-186.848h519.26v186.848h-68.266c0.255 0.432 0.507 0.855 0.755 1.27 24.026 39.958 43.858 63.809 66.314 79.748 25.43 18.053 55.755 26.463 95.43 26.463 61.051 0 110.72 57.886 110.72 129.042s-49.669 129.044-110.72 129.044c-45.549 0-67.92-4.653-96.661-13.927l0.002 302.331c0 32.699-9.366 63.463-26.376 86.626-17.123 23.317-39.926 36.16-64.213 36.16-18.487 0-36.112-7.45-51.028-21.287-4.085 9.059-9.354 17.453-15.723 24.907-16.755 19.615-39.071 30.422-62.837 30.422s-46.082-10.806-62.835-30.423c-8.818-10.321-15.533-22.44-19.903-35.642-13.774 9.845-29.648 15.11-46.232 15.11-23.766 0-46.082-10.805-62.835-30.422-14.216-16.645-22.971-37.953-25.225-60.955-12.434 7.505-26.314 11.489-40.731 11.489-23.766 0-46.082-10.803-62.837-30.422-16.645-19.486-25.808-45.368-25.808-72.876v0.005zM391.646 425.075c-0.32 7.823-0.294 16.065-0.294 24.606l-2.441 64.593-2.401 201.008 0.002 2.296c0 26.101 17.949 47.333 40.007 47.333 22.062 0 40.008-21.232 40.008-47.333l0.050-1.471v36.055c0 13.469 10.92 24.389 24.389 24.389 12.944 0 23.527-10.084 24.334-22.825v41.438l0.002 2.296c0 26.101 17.949 47.333 40.008 47.333s40.007-21.232 40.007-47.333l0.401-25.657c1.868 11.616 11.935 20.489 24.076 20.489 13.469 0 24.389-10.922 24.389-24.391v-69.64l0.089-0.079v147.935l0.002 2.295c0 26.101 17.949 47.335 40.007 47.335 22.062 0 40.008-21.234 40.008-47.335l0.040-30.054c-0.693-6.157-1.049-12.427-1.049-18.771v-132.954l0.827-37.722v133.276c0 13.471 10.92 24.391 24.389 24.391 13.471 0 24.389-10.92 24.389-24.391v-177.93l0.041-0.036v31.259l0.057-0.058v175.844l0.002 2.73c0 31.024 18.339 56.264 40.882 56.264s38.808-25.941 38.808-56.963l-0.919-360.36c-0.507-11.68-0.427-22.901-0.291-34.908l1.894 0.597c11.689 4.168 21.876 7.999 30.862 11.379 40.837 15.358 61.335 23.066 116.898 23.066 23.305 0 42.995-24.183 42.995-52.805 0-29.126-20.092-54.676-42.995-54.676-25.927 0-48.874-2.947-70.148-9.005-20.782-5.921-39.48-14.675-57.167-26.768-31.911-21.821-60.534-54.867-90.078-104.005-7.373-12.262-14.42-25.774-20.966-40.194h-262.259c-5.904 85.348-31.469 114.501-54.055 140.26-1.72 1.964-3.446 3.867-5.271 5.883-10.407 11.489-22.204 24.511-31.18 47.77l-18.346 85.544zM748.492 559.411c13.471 0 24.389 10.922 24.389 24.391v178.388c0 13.471-10.918 24.391-24.389 24.391-13.469 0-24.389-10.92-24.389-24.391v-178.389c0.002-13.469 10.92-24.389 24.389-24.389v0zM619.792 565.125c13.467 0 24.389 10.92 24.389 24.389v178.389c0 13.471-10.92 24.391-24.389 24.391-12.143 0-22.208-8.873-24.076-20.488-0.205-1.271-0.315-2.573-0.315-3.903v-178.388c0-13.471 10.918-24.391 24.391-24.391v0zM515.354 573.771v178.389c-0.002 0.521-0.021 1.042-0.055 1.564-0.808 12.74-11.389 22.825-24.334 22.825-13.469 0-24.389-10.92-24.389-24.389v-178.389c0-13.471 10.92-24.391 24.389-24.391 11.534 0 21.193 8.009 23.732 18.767 0.201 0.855 0.358 1.725 0.466 2.613 0.12 0.987 0.191 1.99 0.191 3.010v0z" />
<glyph unicode="&#xe01c;" glyph-name="pinch-hand" data-tags="pinch-hand" d="M844.896 690.9c-6.076 18.893-16.606 34.712-31.301 47.016-13.702 11.473-30.881 19.57-51.060 24.064l-26.227 5.842-0.106 1.74c-1.874 30.875-6.243 54.242-13.75 73.544-6.467 16.629-15.51 30.401-26.874 40.935-7.93 7.35-16.918 13.089-26.716 17.059-10.365 4.2-21.394 6.329-32.78 6.329-11.228 0-22.699-2.099-34.094-6.239-6.905-2.509-13.933-5.833-20.974-9.916-5.199 17.97-11.492 30.753-20.096 41.219-9.842 11.974-23.549 21.455-39.646 27.421-12.609 4.672-26.553 7.143-40.325 7.143-20.011-0.001-39.068-5.124-55.12-14.814-10.24-6.182-19.073-14.075-26.256-23.461-7.569-9.893-13.1-21.176-16.436-33.536-4.693-17.381-4.935-36.893-0.737-59.646 2.752-14.92 7.017-29.437 10.78-42.245 2.575-8.765 5.007-17.045 6.129-22.694 4.4-22.2 9.152-45.221 13.746-67.485 3.048-14.769 6.118-29.639 9.121-44.448-15.359 4.339-31.338 6.532-47.643 6.532-39.424 0-76.592-12.902-104.66-36.331-11.020-9.199-32.271-31.526-49.437-51.936-10.794-12.834-19.582-24.405-26.119-34.393-9.829-15.015-20.846-35.38-18.772-59.782 0.072-0.853 0.156-1.702 0.251-2.548-3.959-4.652-7.509-9.875-10.464-15.462l-0.226-0.469c-7.321-14.096-10.752-29.982-10.196-47.218 0.356-11.034 2.322-22.537 6.010-35.167 5.316-18.207 13.452-36.003 20.629-51.703 3.821-8.357 9.461-20.697 11.125-26.194l1.338-25.316 21.632-17.596c51.594-41.968 92.925-79.919 127.721-117.568h-8.464v-184.806h513.589v184.806h-62.496l-1.277 16.39c-0.748 9.601-0.479 14.621-0.25 16.775 0.702 0.989 1.646 2.271 2.409 3.307 7.405 10.055 19.798 26.884 28.92 56.541 24.583 79.867 27.813 185.424 30.935 287.505 0.793 25.929 1.542 50.419 2.628 74.295 0.221 4.871 0.493 9.732 0.757 14.433 1.519 27.082 2.955 52.662-5.218 78.076zM786.567 601.247c-5.314-116.871-2.942-255.513-30.85-346.178-15.313-49.789-38.631-36.247-33.667-99.983 219.89 22.499 188.271 18.437 156.643 14.404l-248.958-25.913h-203.284c-50.379 62.11-109.116 115.871-171.146 166.329-1.945 36.791-76.412 128.222-10.278 140.524 4 0.744 7.687 1.097 11.093 1.097 39.13 0 41.435-46.476 60.884-79.922 11.667-20.068 41.775-42.745 69.867-42.745 4.198 0 8.35 0.506 12.389 1.603 59.859 16.289 15.041 148.877-6.855 167.942-10.816 9.428-21.973 6.834-37.704 17.155-29.476-3.459-39.705-51.518-71.978-54.838-1.92-0.212-4.149-0.333-6.405-0.335h-0.003c-20.733 0-36.705 10.816-38.143 27.753-1.443 16.987 58.428 81.225 71.978 92.535 17.294 14.436 40.733 21.73 64.382 21.73 25.267 0 50.774-8.325 69.288-25.161 29.664-26.973 23.507-67.612 68.546-78.84-7.461 80.82-32.188 187.538-51.406 284.494-5.579 28.101-24.148 70.011-17.14 95.965 4.966 18.399 21.306 25.336 37.124 25.337 13.055 0.001 25.754-4.723 31.422-11.628 12.9-15.69 18.395-78.268 24.002-102.827 19.525-85.589 30.85-176.464 58.254-260.492 4.942-15.118 3.118-34.381 24.463-34.381 0.944 0 1.933 0.038 2.97 0.115 6.903 106.663-31.785 232.794-13.725 339.317 10.959 7.127 20.113 10.268 27.75 10.268 26.721 0 34.929-38.402 37.382-78.814 3.848-63.485 10.179-160.495 13.709-236.504 1.049-22.669-3.131-58.551 20.215-58.551 1.186 0 2.44 0.093 3.773 0.284 13.96 34.363 10.892 80.889 13.71 123.398 2.607 39.273-2.064 85.325 24.001 106.244 47.335-10.543 40.097-46.469 37.698-99.382z" />
<glyph unicode="&#xe01d;" glyph-name="grab-hand" data-tags="grab-hand" d="M776.509 234.306c27.4 52.509 58.388 112.027 58.388 175.924 0 95.678-0.272 183.495-0.272 183.495 0 26.87-11.844 51.071-30.603 67.659-18.073 20.445-44.191 33.314-73.194 33.314-4.076 0-8.155-0.257-12.191-0.767-21.5 29.128-55.104 46.324-91.163 46.324-8.645 0-17.238-0.99-25.632-2.952-9.556 13.613-21.984 25.059-36.307 33.373-16.119 9.509-35.514 15.13-56.222 15.138h-0.002c-11.21 0-22.205-1.646-32.781-4.901-20.076 22.542-48.026 35.328-77.748 35.328-57.308 0-104.146-47.537-106.015-106.701-57.997-5.144-103.663-54.731-103.663-114.905l0.030-206.15c0-55.933 44.298-108.601 91.225-164.389 10.022-11.912 23.747-28.224 35.156-43.18 7.305-9.577 12.026-16.481 15.077-21.408h-54.257v-185.273h514.884v185.273h-47.782c3.84 18.691 19.248 48.269 33.071 74.798zM698.771 593.77c0.022 7.59 1.941 14.728 5.307 20.97l-0.117-0.237c6.207 8.194 15.955 13.492 26.885 13.492 18.69 0 33.896-15.421 33.896-34.411 0.003-0.877 0.265-88.832 0.265-183.339 0-50.080-26.961-103.090-50.747-149.861-18.791-36.947-35.302-69.414-38.738-98.061h-276.014c-6.152 29.368-36.091 64.961-70.17 105.473-35.346 42.018-75.41 89.644-75.41 120.703l-0.029 206.152c0 23.276 16.537 42.796 38.53 47.521v-107.328c0-15.857 14.6-28.758 32.544-28.758 17.945 0 32.545 12.901 32.545 28.758v171.032c-0.006 11.693 4.311 22.678 12.156 30.93 7.788 8.192 18.126 12.704 29.108 12.704 22.778 0 41.309-19.577 41.309-43.64v-35.155h20.5c0 26.687 21.856 48.397 48.721 48.397s48.721-21.711 48.721-48.397v-45.589h20.5c0 26.703 21.963 48.429 48.959 48.429s48.959-21.726 48.959-48.429v-31.355l20.5-0.038zM447.962 501.456c12.198 0 22.098 9.899 22.098 22.096v58.922c0 12.198-9.9 22.096-22.098 22.096-12.211 0-22.094-9.899-22.094-22.096v-58.922c-0.001-12.197 9.899-22.096 22.094-22.096zM563.088 479.36c12.197 0 22.095 9.899 22.095 22.096v58.921c0 12.197-9.898 22.096-22.095 22.096s-22.095-9.9-22.095-22.096v-58.922c0-12.198 9.899-22.096 22.095-22.096zM686.044 464.628c12.196 0 22.095 9.899 22.095 22.096v44.192c0 12.196-9.899 22.096-22.095 22.096s-22.097-9.9-22.097-22.096v-44.192c0-12.195 9.9-22.095 22.097-22.095z" />
<glyph unicode="&#xe01e;" glyph-name="show-hand" data-tags="show-hand" horiz-adv-x="1277" d="M868.101 166.555c-0.005 8.341-1.208 16.641-3.578 24.637 19.158 18.195 29.678 41.797 29.678 66.709-0.009 8.341-1.215 16.632-3.58 24.633 19.161 18.197 29.676 41.797 29.676 66.704 0 13.318-2.98 26.171-8.859 38.292h138.976c34.18 0 66.329 11.385 90.544 32.061 24.371 20.821 37.799 48.548 37.799 78.076 0 29.532-13.425 57.257-37.799 78.076-24.215 20.68-56.364 32.070-90.544 32.070l-334.095-0.005c3.398 10.329 6.535 19.492 9.352 27.692 14.811 43.187 22.245 64.862 22.245 123.586 0 63.488-60.201 115.14-134.192 115.14-73.994 0-134.19-51.648-134.19-115.14 0-41.256-8.745-72.792-27.515-99.24-16.58-23.349-41.383-43.97-82.939-68.953-0.429-0.261-0.87-0.52-1.32-0.791v70.991h-194.304v-539.978h194.304v47.228c57.768-3.878 73.778-17.916 93.947-35.604 16.267-14.259 36.513-32.008 73.308-45.022 38.371-13.568 88.159-19.885 156.689-19.885h63.342c62.338 0 113.055 44.291 113.055 98.724v0zM367.762 238.505v272.723c14.997 6.801 29.046 14.134 41.799 21.8 51.099 30.725 85.463 60.487 108.153 93.672 12.571 18.395 21.68 37.84 27.836 59.451 6.297 22.125 9.366 45.985 9.366 72.946 0 23.815 26.566 44.716 56.855 44.716 29.766 0 54.915-20.478 54.915-44.716 0-57.781-8.014-79.093-23.99-121.567-3.514-9.341-7.501-19.94-11.835-32.095l-0.043-0.127c-7.078-22.468-12.162-39.775-15.526-52.916l-1.138-4.455 430.409-0.563c32.424 0 58.808-22.291 58.808-49.706 0-27.404-26.38-49.706-58.808-49.706l-2.853-0.005h-250.255v-60.43h9.938c24.003 0 43.532-17.177 43.532-38.292 0-13.15-7.569-25.239-20.253-32.331l-27.484-15.381 15.999-24.81c3.687-5.722 5.633-12.223 5.633-18.815 0-13.145-7.569-25.235-20.253-32.329l-27.488-15.381 16.003-24.81c3.687-5.717 5.633-12.228 5.633-18.82 0-21.11-19.526-38.289-43.532-38.289h-63.333c-50.256 0-88.345 5.272-116.447 16.114-24.185 9.336-37.728 21.602-49.674 32.424-2.097 1.906-4.077 3.696-6.115 5.484-26.782 23.488-57.098 50.072-145.852 56.212v0z" />
<glyph unicode="&#xe01f;" glyph-name="show-hand-left" data-tags="show-hand-left" horiz-adv-x="1277" d="M463.66 135.667c0-54.438 50.721-98.728 113.062-98.728h63.34c68.528 0 118.318 6.317 156.687 19.885 36.797 13.021 57.045 30.764 73.31 45.022 20.169 17.689 36.181 31.727 93.947 35.604v-47.228h194.304v539.989h-194.304v-70.993c-0.45 0.261-0.886 0.527-1.32 0.788-41.554 24.985-66.359 45.608-82.934 68.958-18.777 26.448-27.515 57.979-27.515 99.237 0 63.488-60.201 115.14-134.192 115.14-73.994 0-134.194-51.651-134.194-115.14 0-58.724 7.433-80.402 22.245-123.584 2.814-8.203 5.956-17.368 9.352-27.692h-334.093c-34.178 0-66.336-11.387-90.546-32.070-24.374-20.819-37.799-48.545-37.799-78.073s13.423-57.252 37.799-78.069c24.21-20.682 56.366-32.068 90.546-32.068h138.971c-5.881-12.121-8.857-24.973-8.857-38.292 0-24.908 10.522-48.509 29.678-66.709-2.369-7.996-3.575-16.287-3.585-24.628 0-24.908 10.524-48.514 29.678-66.709-2.367-8.003-3.575-16.301-3.58-24.642v0zM964.008 207.611c-88.754-6.14-119.075-32.724-145.861-56.212-2.038-1.788-4.018-3.58-6.11-5.479-11.951-10.826-25.494-23.093-49.677-32.426-28.099-10.842-66.193-16.119-116.447-16.119h-63.34c-24.001 0-43.527 17.182-43.527 38.292 0 6.597 1.944 13.107 5.631 18.824l16.001 24.805-27.486 15.381c-12.682 7.094-20.253 19.179-20.253 32.333 0 6.592 1.949 13.098 5.636 18.811l16.001 24.81-27.484 15.381c-12.682 7.099-20.253 19.183-20.253 32.333 0 21.119 19.531 38.296 43.53 38.296h9.943v60.432h-253.11c-32.429 0-58.81 22.298-58.81 49.706 0 27.406 26.38 49.706 58.81 49.706l430.412 0.561-1.143 4.452c-3.364 13.141-8.446 30.452-15.528 52.918l-0.043 0.129c-4.332 12.155-8.321 22.747-11.835 32.092-15.971 42.464-23.985 63.783-23.985 121.562 0 24.24 25.144 44.718 54.91 44.718 30.287 0 56.857-20.894 56.857-44.718 0-26.959 3.067-50.821 9.366-72.946 6.154-21.612 15.26-41.054 27.836-59.447 22.693-33.185 57.059-62.952 108.155-93.674 12.752-7.664 26.804-14.995 41.794-21.8l0.011-272.723z" />
<glyph unicode="&#xe020;" glyph-name="like-hand" data-tags="like-hand" horiz-adv-x="1448" d="M1153.242 496.095c5.281 30.797-14.396 60.565-40.538 82.588-25.972 21.876-60.458 33.922-97.117 33.922l-110.662-0.002c3.645 10.925 7.012 20.617 10.034 29.293 15.881 45.68 23.857 68.608 23.857 130.726 0 67.156-64.566 121.792-143.932 121.792-79.363 0-143.927-54.637-143.927-121.792 0-43.641-9.379-76.998-29.515-104.973-17.78-24.7-44.383-46.514-88.951-72.941-0.464-0.277-0.936-0.554-1.414-0.831v75.092h-208.402v-571.189h208.402v49.96c61.955-4.103 79.127-18.95 100.759-37.66 17.446-15.088 39.164-33.857 78.632-47.629 41.152-14.35 94.554-21.033 168.058-21.033h67.934c66.864 0 121.267 46.851 121.267 104.431h0.002c-0.010 8.821-1.304 17.598-3.845 26.058 20.546 19.246 31.831 44.211 31.831 70.562-0.005 8.826-1.3 17.599-3.841 26.056 20.546 19.249 29.692 44.298 31.829 70.561 1.481 18.172-16.665 52.475-40.388 58.089 11.544 4.479 21.759 9.912 29.386 16.335 26.147 22.022 34.796 49.067 40.543 82.585zM996.179 379.597c25.744 0 46.688-18.17 46.688-40.505 0-13.911-8.121-26.699-21.719-34.204l-29.476-16.271 17.161-26.245c3.955-6.046 6.043-12.927 6.043-19.901 0-13.91-8.123-26.694-21.721-34.199l-29.477-16.27 17.159-26.243c3.953-6.046 6.045-12.932 6.045-19.908 0-22.333-20.945-40.502-46.69-40.502h-67.937c-53.901 0-94.752 5.572-124.893 17.044-25.939 9.876-40.462 22.851-53.28 34.299-2.248 2.009-4.374 3.905-6.561 5.795-28.731 24.847-61.248 52.967-156.438 59.462v288.487c16.084 7.201 31.154 14.952 44.832 23.061 54.804 32.5 91.664 63.983 116.001 99.087 13.49 19.455 23.255 40.026 29.857 62.883 6.755 23.402 10.043 48.642 10.043 77.163 0 25.192 28.497 47.295 60.984 47.295 31.923 0 58.898-21.659 58.898-47.295 0-61.119-8.596-83.667-25.729-128.588-3.769-9.886-8.045-21.091-12.695-33.948l-0.038-0.131c-7.598-23.765-13.044-42.074-16.651-55.973l-1.228-4.712 213.972-0.593c34.779 0 51.666-25.858 63.078-52.578 12.034-28.187-24.817-103-59.032-110.474l-19.161-4.45 1.966-1.584z" />
<glyph unicode="&#xe021;" glyph-name="dislike-hand" data-tags="dislike-hand" horiz-adv-x="1448" d="M1112.705 470.717c-7.629 6.425-17.845 11.857-29.388 16.335 23.722 5.616 41.87 39.917 40.388 58.091-2.136 26.262-11.283 51.31-31.831 70.559 2.544 8.458 3.836 17.233 3.841 26.056 0 26.348-11.283 51.315-31.831 70.564 2.544 8.456 3.836 17.235 3.845 26.056h-0.002c0 57.582-54.403 104.431-121.267 104.431h-67.934c-73.506 0-126.906-6.683-168.058-21.035-39.47-13.77-61.186-32.541-78.634-47.627-21.631-18.712-38.806-33.558-100.757-37.66v49.96h-208.405v-571.189h208.402v75.092c0.478-0.277 0.951-0.554 1.414-0.831 44.569-26.427 71.17-48.239 88.951-72.941 20.135-27.977 29.513-61.33 29.513-104.973 0-67.155 64.568-121.79 143.929-121.79 79.366 0 143.932 54.635 143.932 121.79 0 62.12-7.977 85.046-23.857 130.726-3.022 8.678-6.389 18.372-10.034 29.295l110.664-0.003c36.659 0 71.146 12.048 97.117 33.922 26.14 22.024 45.821 51.79 40.54 82.59-5.749 33.515-14.4 60.559-40.54 82.583zM994.208 503.048v0 0l0.005-0.002 19.156-4.448c34.216-7.476 71.066-82.287 59.032-110.474-11.412-26.72-28.299-52.578-63.078-52.578l-213.972-0.593 1.228-4.712c3.609-13.899 9.055-32.211 16.651-55.973l0.040-0.132c4.65-12.858 8.924-24.064 12.695-33.948 17.13-44.921 25.727-67.47 25.727-128.586 0-25.638-26.974-47.297-58.898-47.297-32.488 0-60.984 22.103-60.984 47.297 0 28.519-3.286 53.76-10.044 77.163-6.602 22.858-16.368 43.428-29.856 62.883-24.334 35.101-61.194 66.585-116 99.087-13.676 8.109-28.75 15.86-44.832 23.061v288.479c95.194 6.495 127.707 34.617 156.44 59.462 2.186 1.894 4.313 3.788 6.561 5.797 12.812 11.45 27.339 24.425 53.278 34.299 30.14 11.47 70.992 17.045 124.893 17.045h67.937c25.744 0 46.69-18.17 46.69-40.504 0-6.977-2.093-13.861-6.046-19.908l-17.159-26.243 29.477-16.268c13.6-7.505 21.723-20.291 21.723-34.201 0-6.974-2.090-13.856-6.045-19.901l-17.161-26.243 29.476-16.273c13.6-7.505 21.721-20.293 21.721-34.204 0-22.332-20.943-40.505-46.688-40.505l-1.968-1.577z" />
<glyph unicode="&#xe022;" glyph-name="measure-distance" data-tags="measure-distance" horiz-adv-x="1027" d="M229.493 926.54l-37.037-37.374-160.143-160.118c-8.842-8.842-8.84-23.189-0.007-32.027l53.031-53.038-0.182-0.182 84.652-84.609 36.462 36.462c8.122 8.12 21.113 8.12 28.422 0 8.118-8.12 8.118-21.111 0-28.42l-36.456-36.454 34.927-34.907 72.984 72.985c8.122 8.12 21.111 8.12 28.422 0 8.118-8.12 8.118-21.111 0-28.42l-72.98-72.978 34.925-34.907 36.429 36.429c8.12 8.12 21.109 8.12 28.42 0 8.12-8.12 8.12-21.111 0-28.42l-36.422-36.424 34.925-34.907 72.953 72.955c8.12 8.122 21.113 8.122 28.42 0 8.12-8.118 8.12-21.111 0-28.418l-72.946-72.948 34.923-34.907 36.397 36.397c8.12 8.122 21.111 8.122 28.42 0 8.12-8.12 8.12-21.111 0-28.418l-36.39-36.39 34.925-34.909 72.921 72.925c8.124 8.118 21.114 8.118 28.42 0 8.124-8.122 8.124-21.113 0-28.422l-72.914-72.914 34.923-34.907 36.367 36.365c8.12 8.124 21.113 8.124 28.418 0 8.122-8.12 8.122-21.111 0-28.416l-36.358-36.36 34.929-34.906 72.887 72.887c8.122 8.122 21.113 8.122 28.42 0 8.12-8.12 8.12-21.113 0-28.418l-71.763-74.005 35.009-35.018 36.754 36.756c8.12 8.122 21.111 8.122 28.42 0 8.12-8.122 8.12-21.113 0-28.418l-36.734-36.734 14.579-14.572-0.029-0.030 48.037-48.036c8.806-8.81 23.184-8.845 32.025-0.007l160.143 160.118c0.355 0.358 0.697 0.727 1.027 1.107l39.491 39.85-772.047 765.105zM192.641 779.822c19.168 0 34.706-15.54 34.706-34.706s-15.538-34.706-34.706-34.706c-19.166 0-34.704 15.54-34.704 34.706-0.002 19.166 15.538 34.706 34.704 34.706z" />
<glyph unicode="&#xe023;" glyph-name="measure-area" data-tags="measure-area" d="M244.915 707.225l-193.716 193.716v-243.849h86.208c10.332 0 18.598-8.266 18.080-18.082 0-10.332-8.264-18.598-18.080-18.080h-86.208v-44.428h39.714c10.332 0 18.596-8.266 18.080-18.082 0-10.33-8.266-18.598-18.080-18.078h-39.714v-44.43h86.208c10.332 0 18.598-8.264 18.080-18.080 0-10.33-8.264-18.598-18.080-18.080h-86.208v-44.43h39.714c10.332 0 18.596-8.264 18.080-18.078 0-10.334-8.266-18.598-18.080-18.082h-39.714v-44.43h86.208c10.332 0 18.598-8.262 18.080-18.082 0-10.33-8.264-18.6-18.080-18.078h-86.208v-44.43h39.714c10.332 0 18.596-8.264 18.080-18.078 0-10.334-8.266-18.598-18.080-18.086h-39.714v-44.426h86.208c10.332 0 18.598-8.266 18.080-18.082 0-10.33-8.264-18.6-18.080-18.082l-86.208-1.326v-156.712h186.937v86.211c0 10.332 8.266 18.6 18.082 18.080 10.332 0 18.596-8.264 18.080-18.080v-86.211h44.428v39.714c0 10.332 8.266 18.6 18.080 18.086 10.33 0 18.598-8.268 18.080-18.086v-39.714h44.43v86.211c0 10.332 8.264 18.6 18.080 18.080 10.332 0 18.598-8.264 18.080-18.080v-86.211h44.428v39.714c0 10.332 8.266 18.6 18.080 18.086 10.332 0 18.6-8.268 18.082-18.086v-39.714h44.428v86.211c0 10.332 8.264 18.6 18.082 18.080 10.332 0 18.598-8.264 18.080-18.080v-86.211h44.428v39.714c0 10.332 8.266 18.6 18.080 18.086 10.334 0 18.6-8.268 18.082-18.086v-39.714h44.43v86.211c0 10.332 8.264 18.6 18.080 18.080 10.332 0 18.6-8.264 18.082-18.080l1.326-86.211h213.62l-727.867 727.873zM245.286 149l-0.214 317.982 317.985-317.982h-317.772z" />
<glyph unicode="&#xe024;" glyph-name="measure-azimuth" data-tags="measure-azimuth" horiz-adv-x="1026" d="M963.251 471.883c-0.531 13.709-1.7 27.38-3.501 40.987 1.692-13.48 2.754-27.156 3.215-40.986l0.286-0.002zM943.254 323.22l-0.266 0.069c-6.162-19.721-13.655-38.847-22.371-57.272 8.948 18.624 16.463 37.736 22.637 57.202zM952.434 357.327c5.99 26.118 9.584 52.598 10.699 79.256h-0.352c-1.2-27.096-4.798-53.566-10.609-79.187l0.263-0.069zM128.745 600.75l31.108-31.31 31.308 31.102c0.111 0.111 0.23 0.23 0.346 0.339 7.021 6.762 18.197 6.55 24.962-0.47 6.745-7.006 6.554-18.148-0.427-24.92l-31.31-31.1 31.106-31.31 56.362 55.988c0.111 0.113 0.23 0.23 0.343 0.341 7.028 6.76 18.202 6.548 24.97-0.474 6.743-7.004 6.554-18.146-0.427-24.917l-56.362-55.99 31.104-31.314 31.31 31.106c0.113 0.113 0.232 0.232 0.346 0.343 7.024 6.762 18.197 6.548 24.966-0.474 6.742-7.004 6.552-18.142-0.425-24.92l-31.31-31.104 31.102-31.31 56.362 55.988c0.111 0.111 0.228 0.23 0.343 0.341 7.022 6.762 18.199 6.55 24.962-0.469 6.747-7.008 6.556-18.148-0.423-24.92l-56.362-55.99 31.106-31.312 31.31 31.104c0.108 0.113 0.228 0.235 0.345 0.343 7.021 6.763 18.197 6.548 24.964-0.474 6.745-7.006 6.554-18.144-0.427-24.917l-31.308-31.104 31.104-31.314 56.365 55.988c0.108 0.113 0.226 0.232 0.341 0.339 7.024 6.763 18.199 6.552 24.966-0.469 6.742-7.008 6.554-18.148-0.427-24.919l-56.36-55.99 31.104-31.31 31.31 31.102c0.111 0.113 0.232 0.232 0.345 0.343 7.024 6.763 18.197 6.548 24.964-0.476 6.743-7.002 6.556-18.142-0.425-24.917l-31.312-31.104 31.106-31.314 56.362 55.991c0.111 0.113 0.228 0.228 0.343 0.337 7.024 6.767 18.199 6.552 24.966-0.469 6.745-7.006 6.554-18.146-0.425-24.919l-56.36-55.99 31.104-31.312 31.31 31.106c0.113 0.111 0.233 0.23 0.346 0.343 7.022 6.762 18.197 6.55 24.962-0.474 6.743-7.006 6.556-18.146-0.425-24.92l-31.31-31.102 31.108-31.314zM688.635 37.141l62.211-62.624 131.509 130.643-42.849 43.132c32.966 34.372 60.472 74.081 81.11 117.727 8.715 18.427 16.209 37.554 22.371 57.272 3.494 11.186 6.565 22.557 9.181 34.105 5.813 25.621 9.409 52.089 10.609 79.187 0.295 6.67 0.47 13.37 0.47 20.108 0 5.089-0.117 10.146-0.286 15.194-0.461 13.83-1.523 27.504-3.215 40.986-27.415 218.687-212.775 387.815-437.353 387.815-119.044 0-227.049-47.541-306.371-124.773l-42.867 43.152-131.509-130.645 62.213-62.624zM714.381 274.235l-373.261 375.741c103.757 103.071 271.428 102.519 374.501-1.242 103.073-103.755 102.515-271.427-1.24-374.5z" />
<glyph unicode="&#xe025;" glyph-name="measure-profile" data-tags="measure-profile" d="M120.618 48.739v852.202h-69.399v-921.601h921.931v69.399h-852.532zM867.152 367.736c0 0-134.769 114.727-222.035 123.32-99.317 9.779-134.665 176.169-222.035 231.659-67.319 42.756-222.035 71.179-222.035 71.179v-664.244h666.103v238.086z" />
<glyph unicode="&#xe026;" glyph-name="select-arrow" data-tags="select-arrow" d="M265.041 765.789c-6.317 4.628-13.558 6.362-21.568 4.943l-10.332-4.13c-11-7.266-15.378-17.022-13.168-29.49l118.936-671.297c2.21-12.468 9.684-20.196 22.499-23.171l11.122-0.328c7.731 1.369 13.913 5.411 18.569 11.983l114.562 163.987 121.005-186.623c4.546-6.595 10.67-10.755 18.293-12.424 7.694-1.653 15.007-0.357 21.872 3.876l73.070 47.432c6.583 4.615 10.753 10.672 12.421 18.295 1.726 7.705 0.43 15.018-3.876 21.872l-127.362 196.56 170.524 30.212c12.47 2.21 20.184 9.757 23.171 22.498 2.955 12.523-0.952 22.39-11.736 29.748l-538.003 376.057z" />
<glyph unicode="&#xe027;" glyph-name="select-box" data-tags="select-box" d="M388.751 925.079v-344.352l-224.077 156.627c-6.317 4.628-13.558 6.362-21.568 4.943l-10.332-4.13c-11-7.266-15.378-17.022-13.168-29.49l118.936-671.297c2.209-12.468 9.684-20.196 22.499-23.171l11.122-0.328c7.73 1.369 13.913 5.411 18.569 11.983l114.561 163.987 121.006-186.624c4.546-6.595 10.67-10.754 18.293-12.423 7.694-1.654 15.008-0.357 21.872 3.875l73.070 47.432c6.583 4.615 10.752 10.672 12.421 18.295 1.726 7.705 0.43 15.018-3.876 21.872l-127.362 196.559 170.525 30.212c12.47 2.21 20.184 9.757 23.171 22.498 2.955 12.523-0.952 22.391-11.736 29.749l-52.372 36.607h254.648v527.174zM584.903 443.619l-150.439 105.156v330.591h424.776v-435.748h-274.336z" />
<glyph unicode="&#xe028;" glyph-name="draw" data-tags="draw" d="M894.934 200.16l-55.358 55.358-142.956-142.956 55.358-55.358 146.508-0.988-3.553 143.943zM650.998 164.88c2.844-2.842 6.288-4.261 10.343-4.261 8.926 0 13.385 4.461 13.385 13.385 0 4.055-1.419 7.503-4.257 10.343l-329.711 329.703c-2.838 2.84-6.284 4.259-10.341 4.259-8.922 0-13.381-4.459-13.381-13.383 0-4.055 1.419-7.503 4.257-10.341l329.705-329.705zM213.62 485.462l253.058 253.056 506.118-506.12v-253.056h-253.056l-506.12 506.12zM272.020 900.938c21.493 0 39.743-7.503 54.75-22.507l100.981-100.981-253.062-253.060-100.373 100.983c-15.409 14.596-23.116 32.847-23.116 54.748 0 21.493 7.707 39.947 23.116 55.356l142.346 142.954c15.815 15.004 34.268 22.507 55.358 22.507v0z" />
<glyph unicode="&#xe029;" glyph-name="draw-alt" data-tags="draw-alt" d="M326.77 878.432c-15.008 15.004-33.257 22.507-54.75 22.507-21.089 0-39.543-7.503-55.358-22.507l-142.346-142.954c-15.407-15.409-23.116-33.863-23.116-55.356 0-21.901 7.709-40.152 23.116-54.748l100.375-100.983 253.060 253.060-100.981 100.981zM321.292 494.586c-2.838 2.838-4.255 6.286-4.255 10.341 0 8.924 4.459 13.383 13.381 13.383 4.057 0 7.503-1.419 10.341-4.259zM674.292 169.885l180.509 180.509-388.123 388.123-253.058-253.056 388.123-388.123 63.718 63.716zM893.616 311.578l-253.056-253.056 79.181-79.181h253.056v253.056l-79.181 79.181zM674.292 169.885l-8.831-8.831z" />
<glyph unicode="&#xe02a;" glyph-name="draw-alt-o" data-tags="draw-alt-o" d="M255.32 527.809l169.232 169.232 0.32-0.32-169.232-169.232-0.32 0.32zM893.616 311.578l-38.814 38.816-211.924-213.454-34.991 37.019-6.143 7.345-346.419 346.502 169.234 169.232 42.306-42.306-0.184-0.184 304.159-304.157 0.439 0.439 41.983-41.983 41.544 41.544-528.033 528.039c-15.008 15.004-33.257 22.507-54.75 22.507-21.089 0-39.543-7.503-55.358-22.507l-142.348-142.954c-15.405-15.409-23.116-33.863-23.116-55.356 0-21.901 7.711-40.152 23.116-54.748l97.535-98.139 44.795-44.797 424.388-425.036 0.321 0.323 78.385-78.385h253.056v253.058l-79.181 79.181zM213.891 569.277l-38.925 39.357-0.152-0.152-59.666 59.993c-3.099 2.937-4.576 5.429-4.576 11.645 0 5.718 1.445 9.092 5.73 13.373l0.042 0.044 0.044 0.044 141.618 142.219c5.213 4.784 9.25 5.761 14.016 5.761 5.791 0 8.894-1.245 12.767-5.116l58.998-58.998 0.647-0.071 38.567-38.995-169.108-169.104zM723.532 56.256l-41.951 41.951 170.624 171.698 42.49-42.49-0.441-0.441 19.172-19.172v-169.092h-169.090z" />
<glyph unicode="&#xe02b;" glyph-name="draw-point" data-tags="draw-point" d="M894.93 200.16l-55.356 55.358-142.95-142.956 55.352-55.354 146.51-0.992-3.556 143.943zM650.996 164.88c2.844-2.842 6.288-4.261 10.345-4.261 8.926 0 13.385 4.461 13.385 13.385 0 4.055-1.419 7.503-4.257 10.345l-329.711 329.701c-2.838 2.84-6.284 4.259-10.341 4.259-8.922 0-13.381-4.461-13.381-13.383 0-4.055 1.419-7.503 4.257-10.341l329.703-329.705zM213.618 485.462l253.058 253.056 506.118-506.12v-253.056h-253.056l-506.12 506.12zM272.018 900.94c21.493 0 39.743-7.503 54.75-22.509l100.979-100.981-253.058-253.058-100.375 100.981c-15.409 14.596-23.116 32.847-23.116 54.748 0 21.493 7.707 39.949 23.116 55.356l142.346 142.954c15.817 15.006 34.268 22.509 55.358 22.509v0zM350.7 115.109c0-74.983-62.912-135.77-140.517-135.77s-140.517 60.786-140.517 135.77c0 74.983 62.912 135.77 140.517 135.77s140.517-60.786 140.517-135.77z" />
<glyph unicode="&#xe02c;" glyph-name="draw-line" data-tags="draw-line" d="M894.93 200.16l-55.356 55.358-142.95-142.956 55.352-55.354 146.51-0.992-3.556 143.943zM650.996 164.88c2.844-2.842 6.288-4.261 10.345-4.261 8.926 0 13.385 4.461 13.385 13.385 0 4.055-1.419 7.503-4.257 10.345l-329.711 329.701c-2.838 2.84-6.284 4.259-10.341 4.259-8.922 0-13.381-4.461-13.381-13.383 0-4.055 1.419-7.503 4.257-10.341l329.703-329.705zM213.618 485.462l253.058 253.056 506.118-506.12v-253.056h-253.056l-506.12 506.12zM272.018 900.94c21.493 0 39.743-7.503 54.75-22.509l100.979-100.981-253.058-253.058-100.375 100.981c-15.409 14.596-23.116 32.847-23.116 54.748 0 21.493 7.707 39.949 23.116 55.356l142.346 142.954c15.817 15.006 34.268 22.509 55.358 22.509v0zM51.198 92.547h522.883v-113.208h-522.883v113.208z" />
<glyph unicode="&#xe02d;" glyph-name="draw-polygon" data-tags="draw-polygon" d="M466.678 738.518l-253.058-253.056 506.12-506.12h253.056v253.056l-506.118 506.12zM661.34 160.619c-4.057 0-7.501 1.421-10.345 4.261l-329.703 329.705c-2.84 2.84-4.259 6.286-4.259 10.341 0 8.922 4.459 13.383 13.383 13.383 4.055 0 7.503-1.419 10.341-4.259l329.707-329.705c2.84-2.84 4.257-6.288 4.257-10.343 0-8.922-4.459-13.383-13.381-13.383zM751.976 57.204l-55.352 55.358 142.95 142.956 55.356-55.358 3.556-143.943-146.51 0.988zM74.314 625.374l100.373-100.981 253.060 253.058-100.981 100.981c-15.008 15.004-33.255 22.507-54.748 22.507-21.089 0-39.541-7.503-55.358-22.507l-142.346-142.954c-15.411-15.409-23.116-33.863-23.116-55.356 0-21.901 7.707-40.152 23.116-54.748zM52.86 275.378h280.35v-295.831h-280.35v295.831z" />
<glyph unicode="&#xe02e;" glyph-name="draw-free" data-tags="draw-free" d="M894.934 200.16l-55.358 55.358-142.956-142.954 55.358-55.36 146.508-0.986-3.553 143.941zM650.998 164.88c2.844-2.842 6.288-4.259 10.343-4.259 8.928 0 13.387 4.461 13.387 13.385 0 4.055-1.421 7.503-4.257 10.343l-329.713 329.701c-2.838 2.84-6.284 4.259-10.341 4.259-8.922 0-13.381-4.459-13.381-13.383 0-4.055 1.419-7.503 4.255-10.341l329.707-329.705zM213.62 485.462l253.056 253.056 506.118-506.12v-253.056h-253.054l-506.12 506.12zM272.020 900.938c21.493 0 39.743-7.503 54.75-22.507l100.979-100.981-253.060-253.060-100.373 100.983c-15.407 14.596-23.116 32.847-23.116 54.748 0 21.493 7.709 39.947 23.116 55.356l142.348 142.954c15.813 15.004 34.266 22.507 55.356 22.507v0zM603.592 64.909l-6.082 22.198-17.246-10.432c-9.775 0.315-34.7 6.59-58.831 12.662-42.541 10.707-95.487 24.030-133.248 23.894-44.445-0.158-56.765-19.795-59.273-36.24l-0.119-0.954c-2.084-21.614 9.765-35.048 23.724-45.14-4.875-0.228-10.662-0.38-17.519-0.404-62.708-0.228-166.432 10.078-222.156 15.615-24.773 2.46-35.703 3.531-40.228 3.618-0.815 0.042-1.623 0.061-2.413 0.057-21.159-0.073-37.562-16.373-38.155-37.912-0.515-18.663 12.11-38.33 37.128-39.802 76.998-5.017 143.098-7.461 196.461-7.271 0.014 0 0.018 0 0.030 0 66.496 0.239 114.090 4.404 145.491 12.73 32.673 8.667 49.949 23.312 51.35 43.541 0.596 6.345-0.798 12.084-3.293 17.252 3.002-0.861 6.007-1.732 8.948-2.581 31.711-9.169 67.654-19.562 93.737-19.467 17.305 0.061 29.796 4.983 37.124 14.63 4.659 6.129 9.231 17.001 4.57 34.005z" />
<glyph unicode="&#xe02f;" glyph-name="draw-extent" data-tags="draw-extent" horiz-adv-x="1023" d="M224.792 933.78c-12.24 12.241-27.127 18.36-44.661 18.36-17.202 0-32.256-6.12-45.157-18.36l-116.118-116.614c-12.569-12.571-18.856-27.623-18.856-45.157 0-17.863 6.285-32.75 18.856-44.661l81.878-82.375 206.431 206.432-82.373 82.375zM490.278 668.293l-151.353 151.353-206.431-206.431 151.393-151.393v-533.682h101.152v1.228h637.731v738.925h-532.492zM368.418 472.566l-148.093 148.093c-2.316 2.316-3.474 5.127-3.474 8.436 0 7.278 3.638 10.916 10.918 10.916 3.309 0 6.12-1.156 8.436-3.474l268.955-268.955c2.316-2.316 3.474-5.127 3.474-8.436 0-7.278-3.638-10.916-10.916-10.916-3.309 0-6.12 1.156-8.436 3.473l-120.864 120.864zM921.618 30.522h-536.577v330.146l160.314-160.314h206.431v206.431l-160.353 160.354h330.184v-536.617zM526.498 309.027l116.614 116.614 45.157-45.156 2.898-117.418-119.514 0.804-45.156 45.156z" />
<glyph unicode="&#xe030;" glyph-name="info" data-tags="info" d="M707.062 115.925v-78.023c0-10.566-3.86-19.711-11.581-27.432-7.724-7.72-16.866-11.581-27.433-11.581h-312.096c-10.566 0-19.711 3.86-27.43 11.581-7.722 7.719-11.583 16.866-11.583 27.432v78.023c0 10.566 3.86 19.709 11.583 27.43 7.717 7.722 16.864 11.581 27.43 11.581h39.010v234.073h-39.010c-10.566 0-19.711 3.86-27.43 11.581-7.722 7.72-11.583 16.866-11.583 27.432v78.024c0 10.564 3.86 19.707 11.583 27.432 7.717 7.719 16.864 11.579 27.43 11.579h234.071c10.568 0 19.707-3.86 27.433-11.579 7.72-7.722 11.581-16.867 11.581-27.432v-351.11h39.010c10.568 0 19.707-3.858 27.433-11.581 7.72-7.719 11.581-16.864 11.581-27.43zM629.038 818.141v-117.035c0-10.566-3.86-19.709-11.581-27.43-7.724-7.724-16.866-11.583-27.433-11.583h-156.047c-10.566 0-19.709 3.858-27.432 11.583-7.719 7.719-11.583 16.864-11.583 27.43v117.035c0 10.568 3.864 19.711 11.583 27.433 7.72 7.719 16.866 11.579 27.432 11.579h156.047c10.568 0 19.707-3.86 27.433-11.579 7.72-7.72 11.581-16.866 11.581-27.433z" />
<glyph unicode="&#xe031;" glyph-name="info-o" data-tags="info-o" d="M609.871 833.928v-94.531h-135.305v94.531h135.305zM609.871 507.789v-407.678h81.537v-53.763h-298.376v53.763h81.533v353.91h-81.533v53.766h216.84zM623.751 888.58h-163.068c-11.041 0-20.596-4.031-28.665-12.1-8.067-8.070-12.105-17.623-12.105-28.667v-122.301c0-11.041 4.037-20.6 12.105-28.663 8.070-8.074 17.623-12.104 28.665-12.104h163.068c11.043 0 20.598 4.030 28.667 12.104 8.070 8.067 12.105 17.622 12.105 28.663v122.301c0 11.043-4.035 20.6-12.105 28.667-8.074 8.068-17.623 12.1-28.667 12.1v0zM623.751 562.441h-244.605c-11.041 0-20.598-4.033-28.663-12.102-8.070-8.072-12.104-17.625-12.104-28.665v-81.535c0-11.043 4.033-20.6 12.104-28.665 8.067-8.070 17.623-12.104 28.663-12.104h40.767v-244.606h-40.767c-11.041 0-20.598-4.030-28.663-12.102-8.070-8.067-12.104-17.622-12.104-28.663v-81.533c0-11.043 4.033-20.602 12.104-28.667 8.067-8.067 17.623-12.102 28.663-12.102h326.14c11.043 0 20.596 4.035 28.667 12.102s12.105 17.623 12.105 28.667v81.533c0 11.043-4.035 20.598-12.105 28.663-8.074 8.072-17.623 12.102-28.667 12.102h-40.765v366.91c0 11.040-4.035 20.598-12.105 28.665-8.072 8.067-17.622 12.102-28.665 12.102v0z" />
<glyph unicode="&#xe032;" glyph-name="information" data-tags="information" d="M955.332 697.142c-45.778 78.445-107.888 140.555-186.333 186.333-78.445 45.776-164.11 68.666-257 68.666-92.888 0-178.554-22.888-257-68.666s-140.555-107.89-186.333-186.333c-45.778-78.445-68.664-164.11-68.664-257s22.888-178.556 68.664-257.001c45.78-78.443 107.89-140.553 186.333-186.331 78.443-45.776 164.11-68.668 257-68.668s178.556 22.888 257 68.668c78.447 45.778 140.555 107.89 186.333 186.331 45.78 78.447 68.666 164.114 68.666 257.001s-22.886 178.554-68.666 257v0zM426.666 824.142c0 6.223 2.002 11.333 6.001 15.333 4.001 4.001 9.112 6.001 15.333 6.001h128c6.221 0 11.335-2 15.333-6.001s6.001-9.11 6.001-15.333v-106.667c0-6.221-2.002-11.333-6.001-15.333-4.001-3.999-9.112-5.999-15.333-5.999h-128c-6.223 0-11.335 2-15.333 5.999s-6.001 9.112-6.001 15.333v106.667zM682.665 120.142c0-6.221-2-11.335-6.001-15.333s-9.112-5.999-15.333-5.999h-298.666c-6.221 0-11.335 2-15.332 5.999-4.001 4.001-6.001 9.112-6.001 15.333v106.667c0 6.221 2 11.333 6.001 15.333 3.997 3.997 9.112 5.999 15.332 5.999h64.001v213.333h-64.001c-6.221 0-11.335 2-15.332 5.999-3.999 4.001-6.001 9.11-6.001 15.333v106.667c0 6.221 2 11.333 6.001 15.333 3.999 3.999 9.112 5.999 15.332 5.999h213.333c6.221 0 11.335-2 15.333-5.999s6.001-9.112 6.001-15.333v-341.335h63.999c6.221 0 11.335-2.002 15.333-5.999 4.001-4.001 6.001-9.112 6.001-15.333v-106.666z" />
<glyph unicode="&#xe033;" glyph-name="information-o" data-tags="information-o" d="M511.999 897.488c41.468 0 81.777-5.154 119.811-15.315 37.923-10.132 74.813-25.577 109.646-45.902 34.99-20.418 66.722-44.762 94.316-72.357s51.941-59.328 72.361-94.318c20.325-34.83 35.77-71.719 45.902-109.644 10.162-38.032 15.313-78.341 15.313-119.809s-5.152-81.777-15.313-119.811c-10.132-37.925-25.577-74.815-45.902-109.646-20.42-34.99-44.765-66.722-72.361-94.316-27.594-27.595-59.326-51.941-94.318-72.361-34.83-20.325-71.719-35.771-109.646-45.902-38.032-10.163-78.341-15.315-119.809-15.315-41.466 0-81.775 5.154-119.809 15.315-37.925 10.132-74.815 25.577-109.646 45.904-34.99 20.418-66.721 44.762-94.316 72.359-27.594 27.594-51.941 59.326-72.359 94.314-20.325 34.831-35.77 71.721-45.902 109.646-10.162 38.034-15.315 78.345-15.315 119.811s5.152 81.777 15.313 119.809c10.132 37.925 25.577 74.815 45.902 109.644 20.42 34.992 44.765 66.724 72.359 94.318 27.595 27.595 59.328 51.939 94.316 72.357 34.831 20.327 71.723 35.77 109.646 45.902 38.036 10.165 78.345 15.317 119.811 15.317zM511.999 952.14c-92.888 0-178.554-22.888-257-68.666s-140.555-107.888-186.333-186.331c-45.778-78.445-68.664-164.11-68.664-257s22.888-178.556 68.664-257.001c45.78-78.443 107.89-140.553 186.333-186.331 78.443-45.776 164.11-68.668 257-68.668s178.556 22.888 257 68.668c78.447 45.778 140.555 107.89 186.333 186.331 45.78 78.447 68.666 164.114 68.666 257.001s-22.886 178.554-68.666 257c-45.778 78.445-107.888 140.555-186.333 186.333-78.443 45.776-164.11 68.664-257 68.664v0zM681.523 196.553c-7.134 7.214-15.583 10.819-25.344 10.819h-36.045v328.029c0 9.87-3.565 18.412-10.699 25.626-7.134 7.212-15.583 10.819-25.344 10.819h-216.271c-9.763 0-18.212-3.607-25.344-10.819-7.134-7.214-10.701-15.756-10.701-25.626v-72.894c0-9.872 3.567-18.414 10.701-25.626 7.134-7.214 15.581-10.819 25.344-10.819h36.046v-218.685h-36.046c-9.763 0-18.212-3.605-25.344-10.819-7.134-7.216-10.701-15.756-10.701-25.626v-72.894c0-9.872 3.567-18.414 10.701-25.626 7.134-7.214 15.581-10.819 25.344-10.819h288.359c9.761 0 18.21 3.605 25.344 10.819 7.134 7.212 10.701 15.754 10.701 25.626v72.894c0 9.866-3.567 18.407-10.701 25.623zM439.912 637.468h144.18c9.761 0 18.21 3.605 25.344 10.819s10.699 15.756 10.699 25.628v109.342c0 9.87-3.565 18.414-10.699 25.626s-15.583 10.819-25.344 10.819h-144.18c-9.763 0-18.212-3.607-25.344-10.819-7.136-7.212-10.701-15.756-10.701-25.626v-109.342c0-9.87 3.567-18.414 10.701-25.628 7.132-7.214 15.579-10.819 25.344-10.819z" />
<glyph unicode="&#xe034;" glyph-name="identify" data-tags="identify" horiz-adv-x="1027" d="M550.115 509.32c26.359 45.172 39.541 94.501 39.541 147.99 0 53.491-13.18 102.82-39.541 147.99-26.361 45.172-62.127 80.938-107.297 107.297-45.172 26.361-94.503 39.543-147.99 39.543-53.489 0-102.82-13.18-147.99-39.543-45.172-26.361-80.936-62.127-107.297-107.299-26.361-45.169-39.541-94.499-39.541-147.988s13.18-102.82 39.541-147.99c26.361-45.17 62.127-80.938 107.297-107.297 45.172-26.359 94.501-39.543 147.99-39.543 53.487 0 102.818 13.18 147.988 39.543 45.172 26.359 80.94 62.127 107.299 107.297zM245.687 878.433c0 3.583 1.152 6.525 3.454 8.829s5.246 3.454 8.829 3.454h73.707c3.583 0 6.525-1.152 8.829-3.454 2.306-2.304 3.454-5.246 3.454-8.829v-61.424c0-3.582-1.152-6.525-3.454-8.829-2.302-2.306-5.246-3.454-8.829-3.454h-73.705c-3.583 0-6.525 1.152-8.829 3.454-2.306 2.302-3.454 5.246-3.454 8.829l-0.002 61.424zM393.106 473.044c0-3.583-1.152-6.525-3.454-8.829-2.302-2.306-5.248-3.454-8.829-3.454h-171.983c-3.585 0-6.525 1.152-8.829 3.454s-3.456 5.246-3.456 8.829v61.424c0 3.583 1.152 6.525 3.454 8.829 2.302 2.306 5.248 3.454 8.829 3.454h36.855v122.845h-36.855c-3.583 0-6.525 1.152-8.829 3.454-2.302 2.302-3.454 5.246-3.454 8.829v61.421c0 3.583 1.152 6.525 3.454 8.829s5.248 3.454 8.831 3.454h122.845c3.582 0 6.524-1.152 8.828-3.454 2.306-2.304 3.454-5.246 3.454-8.829v-196.552h36.855c3.583 0 6.525-1.152 8.829-3.454 2.304-2.304 3.454-5.248 3.454-8.829v-61.423zM1026.783 228.998c0.715 18.382-8.617 33.139-25.605 40.499l-420.093 186.245c-5.633 2.604-11.566 3.923-17.631 3.923-5.199 0-10.372-0.98-15.37-2.907l-2.17-0.835-10.452-6.745-1.647-1.619c-13.009-12.781-16.782-29.667-10.353-46.336l171.859-445.612c6.463-16.76 20.641-26.745 38.896-27.391l2.254-0.080 12.216 2.011 2.168 0.838c10.679 4.117 18.858 11.913 23.677 22.603l43.182 97.464 85.335-88.35c8.124-7.948 18.365-12.282 29.638-12.537 0.291-0.005 0.582-0.010 0.873-0.010 11.032 0 21.213 4.016 29.439 11.608l0.080 0.073 44.747 43.271c7.86 8.162 12.153 18.328 12.411 29.375 0.305 11.512-3.745 22.091-11.721 30.588l-90.464 93.731 81.347 31.372c16.718 6.452 26.704 20.606 27.384 38.823v0zM977.753 230.356l-139.689-53.874 136.069-140.984-40.574-39.231-130.002 134.61-68.061-153.627-167.709 434.862 409.966-181.757z" />
<glyph unicode="&#xe035;" glyph-name="identify-box" data-tags="identify-box" horiz-adv-x="1027" d="M1026.782 228.999c0.715 18.382-8.619 33.139-25.605 40.499l-16.779 7.44v602.316h-495.059c-14.204 12.416-29.713 23.531-46.523 33.343-45.172 26.361-94.501 39.542-147.988 39.542-53.489 0-102.819-13.18-147.99-39.542-45.172-26.361-80.938-62.127-107.297-107.299-26.361-45.17-39.542-94.499-39.542-147.99 0-53.489 13.18-102.819 39.542-147.99s62.127-80.938 107.297-107.297c45.172-26.358 94.499-39.541 147.99-39.541 32.608 0 63.667 4.908 93.185 14.705v-107.71h187.068l120.239-313.866c6.463-16.761 20.639-26.744 38.896-27.391l2.255-0.082 12.216 2.013 2.168 0.837c10.677 4.117 18.856 11.913 23.677 22.603l43.182 97.463 85.335-88.348c8.124-7.948 18.366-12.282 29.638-12.537 0.289-0.007 0.582-0.009 0.873-0.009 11.032 0 21.211 4.016 29.439 11.606l0.078 0.073 44.748 43.272c7.86 8.162 12.153 18.328 12.411 29.374 0.305 11.512-3.745 22.091-11.721 30.588l-90.462 93.73 81.347 31.372c16.714 6.454 26.701 20.608 27.381 38.823v0zM249.144 887.26c2.304 2.304 5.246 3.454 8.829 3.454h73.706c3.583 0 6.524-1.15 8.829-3.454 2.304-2.304 3.454-5.246 3.454-8.829v-61.424c0-3.583-1.15-6.525-3.454-8.829s-5.248-3.454-8.829-3.454h-73.706c-3.583 0-6.525 1.152-8.829 3.454-2.304 2.304-3.454 5.246-3.454 8.829v61.424c-0.002 3.583 1.15 6.525 3.454 8.829v0zM388.013 544.652v-81.795c-2.011-1.393-4.404-2.098-7.193-2.098h-171.982c-3.585 0-6.525 1.152-8.829 3.454-2.304 2.304-3.456 5.246-3.456 8.829v61.424c0 3.583 1.152 6.525 3.454 8.829s5.248 3.454 8.829 3.454h36.855v122.845h-36.855c-3.583 0-6.525 1.152-8.829 3.456-2.302 2.304-3.454 5.246-3.454 8.829v61.421c0 3.583 1.152 6.525 3.454 8.829s5.248 3.454 8.831 3.454h122.843c3.583 0 6.525-1.152 8.829-3.454s3.454-5.246 3.454-8.829v-196.551h36.853c2.789 0 5.182-0.706 7.193-2.098v0zM523.459 401.223l29.017-73.851h-106.57v76.486c43.711 26.178 78.454 61.328 104.208 105.462 26.359 45.172 39.542 94.501 39.542 147.99 0 53.491-13.181 102.819-39.542 147.99-3.182 5.453-6.531 10.811-10.039 16.061h386.427v-493.987h-56.501l-288.917 128.37c-5.631 2.604-11.566 3.923-17.631 3.923-5.197 0-10.37-0.979-15.37-2.907l-2.17-0.835-10.452-6.743-1.649-1.621c-13.011-12.779-16.782-29.669-10.354-46.336zM838.061 176.483l136.068-140.983-40.574-39.23-130.001 134.609-68.061-153.626-126.531 328.085 0.955 0.507-42.136 106.27 409.967-181.758-139.686-53.874z" />
</font>
</defs>
</svg>
