<?xml version="1.0" standalone="no"?>
<!DOCTYPE svg PUBLIC "-//W3C//DTD SVG 20010904//EN"
 "http://www.w3.org/TR/2001/REC-SVG-20010904/DTD/svg10.dtd">
<svg version="1.0" xmlns="http://www.w3.org/2000/svg"
 width="758.000000pt" height="758.000000pt" viewBox="0 0 758.000000 758.000000"
 preserveAspectRatio="xMidYMid meet">
<metadata>
Created by potrace 1.11, written by Peter Selinger 2001-2013
</metadata>
<g transform="translate(0.000000,758.000000) scale(0.100000,-0.100000)"
fill="#000000" stroke="none">
<path d="M1890 5549 c-1031 -1033 -1875 -1883 -1875 -1887 0 -8 146 -149 855
-822 212 -201 482 -457 600 -570 119 -113 346 -329 505 -480 160 -151 382
-363 495 -471 113 -107 295 -280 405 -385 109 -104 243 -231 297 -283 54 -51
98 -91 98 -87 0 46 -193 1573 -205 1621 -3 11 -18 207 -34 435 -40 558 -50
1156 -25 1373 9 81 21 147 26 147 4 0 8 -3 8 -6 0 -3 47 -279 104 -612 81
-470 116 -705 156 -1042 59 -507 62 -528 174 -1270 47 -311 91 -627 98 -703
12 -142 21 -156 31 -52 4 33 36 292 72 575 70 551 92 771 154 1555 35 439 41
555 46 950 l7 450 -34 21 c-32 20 -34 26 -57 142 -21 103 -23 127 -13 160 15
48 15 99 2 107 -6 4 -22 30 -37 58 -22 45 -24 57 -16 89 9 33 7 40 -14 60 -13
12 -29 40 -35 62 -7 23 -23 59 -37 80 -14 22 -24 50 -23 63 2 15 -7 36 -27 59
-17 19 -31 41 -31 50 0 8 -11 36 -24 63 -20 39 -23 54 -16 85 5 21 18 48 30
61 l21 22 -41 35 c-35 30 -41 43 -47 86 -5 45 -3 53 21 77 14 14 26 29 26 33
0 3 -20 27 -44 52 -35 37 -45 56 -55 104 -9 51 -9 62 4 77 11 11 14 25 9 43
-4 19 -2 30 10 39 15 11 13 19 -18 83 -33 67 -35 75 -35 177 0 66 4 107 10
107 13 0 39 62 39 93 0 13 7 46 15 75 14 45 21 54 69 81 29 17 56 31 60 31 3
0 18 -24 32 -52 31 -62 31 -62 98 -77 45 -10 54 -17 79 -57 23 -38 27 -56 27
-119 l0 -75 40 -25 c22 -14 40 -30 40 -35 0 -5 17 -26 38 -47 34 -34 40 -47
51 -115 7 -42 14 -110 15 -152 3 -58 8 -81 25 -102 12 -15 24 -39 27 -53 13
-67 18 -74 74 -94 30 -11 56 -21 58 -22 1 -2 -13 -29 -33 -62 -31 -52 -34 -63
-25 -89 6 -17 27 -40 50 -54 22 -14 40 -28 40 -33 0 -4 -9 -26 -20 -48 l-21
-40 21 -33 c20 -33 20 -34 2 -77 -11 -24 -29 -79 -42 -123 -22 -74 -23 -83
-11 -166 11 -80 11 -91 -6 -122 -14 -26 -18 -56 -18 -153 0 -118 -1 -121 -42
-215 l-41 -95 -7 -565 c-7 -626 -8 -636 -105 -1565 -95 -909 -166 -1677 -158
-1726 2 -11 72 161 157 383 l154 403 440 880 c483 966 698 1379 1000 1915 189
337 245 452 323 668 39 107 42 152 14 216 -42 99 -122 328 -116 334 4 3 56
-43 117 -104 93 -92 117 -122 153 -194 52 -105 71 -198 61 -313 -10 -131 -24
-195 -65 -308 -44 -122 -505 -1048 -751 -1511 -170 -318 -321 -625 -624 -1268
-90 -190 -202 -426 -249 -525 l-87 -180 1626 1625 c894 894 1625 1628 1625
1631 0 4 -168 166 -372 360 -205 195 -420 399 -478 455 -58 55 -200 191 -316
300 -115 109 -379 359 -585 555 -206 195 -423 402 -484 459 -60 57 -200 190
-310 295 -110 104 -238 226 -285 270 -186 176 -526 499 -705 671 -105 99 -206
194 -225 211 l-36 31 -1874 -1879z"/>
</g>
</svg>
