<svg width="3686" height="1050" viewBox="0 0 3686 1050" fill="none" xmlns="http://www.w3.org/2000/svg">
<mask id="mask0_126_211" style="mask-type:alpha" maskUnits="userSpaceOnUse" x="0" y="0" width="1081" height="1050">
<path d="M9.50796 547.146C-3.16931 534.833 -3.16933 514.869 9.50794 502.555L517.396 9.23524C530.073 -3.0784 550.627 -3.07842 563.304 9.23522L1071.19 502.555C1083.87 514.868 1083.87 534.833 1071.19 547.146L563.304 1040.47C550.627 1052.78 530.073 1052.78 517.396 1040.47L9.50796 547.146Z" fill="#4CB05B"/>
</mask>
<g mask="url(#mask0_126_211)">
<path fill-rule="evenodd" clip-rule="evenodd" d="M-10.7127 503.038C-22.5977 514.582 -22.5977 533.299 -10.7128 544.843L519.058 1059.42C530.943 1070.96 550.212 1070.96 562.097 1059.42L564.116 1057.45L517.185 1048.85C517.185 1048.85 502.038 1025.13 495.393 1014.45C477.095 986.6 452.388 941.869 434.613 909.688L434.612 909.686L434.612 909.685L434.61 909.683C427.719 897.206 421.87 886.616 417.84 879.629C408.293 864.369 402.335 855.152 397.644 847.893L397.643 847.891C385.567 829.208 381.881 823.504 346.936 761.126C340.814 750.198 335.08 740.003 329.69 730.418L329.69 730.418C280.034 642.124 259.539 605.682 233.623 526.287C204.894 438.273 200.993 394.929 207.178 407.393C234.161 461.761 259.675 500.825 292.163 550.568L292.163 550.569C325.301 601.307 365.694 663.154 422.304 763.683C408.676 692.665 397.737 609.441 395.006 518.299C479.67 666.403 523.42 1028.09 523.42 1028.09C523.42 1028.09 531.392 746.225 540.844 545.427C533.148 536.507 526.734 524.691 532.532 515.909C537.426 508.497 534.592 501.416 531.586 493.903C529.391 488.417 527.104 482.701 527.666 476.458C529.578 455.235 520.212 436.821 514.156 424.913C512.627 421.905 511.308 419.312 510.436 417.194C509.42 414.728 507.889 411.818 506.179 408.569C500.609 397.984 493.142 383.793 495.394 369.548C497.869 353.89 495.597 345.09 493.373 336.475C492.952 334.846 492.534 333.224 492.149 331.563C490.649 325.09 496.87 320.717 501.785 317.261C504.801 315.142 507.325 313.367 507.274 311.665C507.22 309.877 504.586 305.64 501.414 300.537C496.643 292.861 490.653 283.225 490.396 277.02C490.132 270.674 493.099 264.571 495.759 259.1C497.428 255.665 498.977 252.48 499.528 249.641C500.186 246.254 499.198 237.077 498.184 227.651C496.993 216.587 495.765 205.179 497.118 202.392C498.152 200.263 497.854 195.029 497.537 189.474C497.086 181.562 496.598 172.999 499.871 171.832C503.373 170.582 509.849 176.046 515.802 181.068C519.315 184.032 522.646 186.843 525.077 188.03L525.313 188.145C532.658 191.729 545.733 198.109 550.746 220.232C557.116 225.636 571.103 240.066 575.662 250.229C580.221 260.392 575.916 300.269 575.916 300.269C577.525 305.783 582.791 312.099 588.078 318.44C594.386 326.007 600.725 333.609 600.914 339.926C604.493 350.008 602.318 386.774 602.318 386.774C602.318 386.774 600.498 412.205 593.692 420.106C586.885 428.007 588.215 449.307 590.268 459.409C592.321 469.511 581.47 485.646 581.47 485.646C581.47 485.646 579.701 507.502 576.151 519.676C573.828 527.646 564.553 540.961 558.425 549.207C556.202 637.323 552.608 740.449 549.281 828.342C556.559 812.529 559.009 808.667 567.848 794.735C571.663 788.721 576.669 780.831 583.768 769.293C594.633 751.634 610.04 728.559 625.398 705.559C649.499 669.465 673.478 633.555 679.584 619.045C681.277 615.022 683.235 610.516 685.343 605.667C695.68 581.884 709.607 549.845 713.394 526.019C723.499 565.533 723.646 616.192 716.87 642.047C710.094 667.902 669.687 737.694 647.948 767.37C644.32 772.323 640.23 777.846 635.794 783.835L635.787 783.844L635.777 783.858L635.777 783.859C609.759 818.988 571.884 870.128 545.857 916.139C543.188 982.745 541.232 1027.56 541.232 1027.56C541.232 1027.56 566.481 923.628 648.322 802.7C730.164 681.771 814.309 529.627 822.5 505.492C830.691 481.356 857.691 398.419 816.72 312.553C858.356 351.947 896.191 447.54 878.271 513.111C860.35 578.682 796.413 701.375 752.147 766.409C619.332 961.533 562.611 1050.21 564.312 1057.26L1091.87 544.843C1103.75 533.299 1103.75 514.582 1091.87 503.038L562.097 -11.5353C550.212 -23.0794 530.943 -23.0794 519.058 -11.5353L-10.7127 503.038Z" fill="#4CB05B"/>
</g>
<path d="M1649.68 349.219L1715.11 281.805C1618.35 178.701 1461.32 198.53 1409.77 220.34C1332.44 253.056 1292.12 313.529 1270.97 349.219C1223.39 434.874 1232.64 573.932 1243.21 632.754C1263.84 734.271 1325.83 791.375 1354.25 807.237C1428.8 846.892 1537.32 844.91 1582.27 838.961C1650.47 823.099 1699.25 795.341 1715.11 783.444V480.081H1497.01L1502.96 577.237H1592.18V727.927C1546.18 754.892 1485.77 748.415 1461.32 741.806C1423.65 725.944 1401.84 702.151 1391.92 680.34C1382.01 658.53 1364.16 628.788 1368.13 505.857C1371.3 407.512 1401.18 360.454 1415.72 349.219C1497.01 261.977 1603.42 311.546 1649.68 349.219Z" fill="#4CB05B" stroke="#4CB05B" stroke-width="2"/>
<path fill-rule="evenodd" clip-rule="evenodd" d="M1768.65 222.316V833.007H1883.65V591.11H1957.01L2091.84 833.007H2232.62L2075.98 567.317C2111.01 550.133 2182.65 502.679 2189 450.334C2195.34 397.989 2191.64 361.109 2189 349.212C2183.05 317.488 2149.74 249.282 2064.08 230.248L2016.5 222.316H1768.65ZM1891.58 305.599V489.996H2012.53C2072.01 462.237 2109.69 353.185 2010.55 307.582L1891.58 305.599Z" fill="#4CB05B"/>
<path d="M1768.65 833.007H1767.65V834.007H1768.65V833.007ZM1768.65 222.316V221.316H1767.65V222.316H1768.65ZM1883.65 833.007V834.007H1884.65V833.007H1883.65ZM1883.65 591.11V590.11H1882.65V591.11H1883.65ZM1957.01 591.11L1957.89 590.623L1957.6 590.11H1957.01V591.11ZM2091.84 833.007L2090.97 833.494L2091.25 834.007H2091.84V833.007ZM2232.62 833.007V834.007H2234.37L2233.48 832.499L2232.62 833.007ZM2075.98 567.317L2075.54 566.419L2074.57 566.895L2075.12 567.825L2075.98 567.317ZM2189 450.334L2189.99 450.455L2189 450.334ZM2189 349.212L2188.01 349.396L2188.02 349.413L2188.02 349.429L2189 349.212ZM2064.08 230.248L2064.3 229.271L2064.27 229.266L2064.25 229.261L2064.08 230.248ZM2016.5 222.316L2016.66 221.33L2016.58 221.316H2016.5V222.316ZM1891.58 489.996H1890.58V490.996H1891.58V489.996ZM1891.58 305.599L1891.6 304.599L1890.58 304.582V305.599H1891.58ZM2012.53 489.996V490.996H2012.75L2012.95 490.902L2012.53 489.996ZM2010.55 307.582L2010.96 306.673L2010.77 306.586L2010.56 306.582L2010.55 307.582ZM1769.65 833.007V222.316H1767.65V833.007H1769.65ZM1883.65 832.007H1768.65V834.007H1883.65V832.007ZM1882.65 591.11V833.007H1884.65V591.11H1882.65ZM1957.01 590.11H1883.65V592.11H1957.01V590.11ZM2092.72 832.52L1957.89 590.623L1956.14 591.597L2090.97 833.494L2092.72 832.52ZM2232.62 832.007H2091.84V834.007H2232.62V832.007ZM2075.12 567.825L2231.76 833.515L2233.48 832.499L2076.84 566.809L2075.12 567.825ZM2188 450.214C2184.88 476.01 2165.62 500.75 2142.58 521.264C2119.58 541.748 2092.99 557.86 2075.54 566.419L2076.42 568.215C2094 559.591 2120.75 543.383 2143.91 522.758C2167.04 502.163 2186.77 477.003 2189.99 450.455L2188 450.214ZM2188.02 349.429C2190.63 361.188 2194.34 397.95 2188 450.214L2189.99 450.455C2196.34 398.029 2192.65 361.03 2189.97 348.995L2188.02 349.429ZM2063.87 231.224C2149.03 250.149 2182.12 317.956 2188.01 349.396L2189.98 349.028C2183.98 317.021 2150.45 248.415 2064.3 229.271L2063.87 231.224ZM2016.33 223.303L2063.92 231.234L2064.25 229.261L2016.66 221.33L2016.33 223.303ZM1768.65 223.316H2016.5V221.316H1768.65V223.316ZM1892.58 489.996V305.599H1890.58V489.996H1892.58ZM2012.53 488.996H1891.58V490.996H2012.53V488.996ZM2010.13 308.49C2034.75 319.816 2050.81 335.046 2060.17 351.905C2069.54 368.767 2072.24 387.324 2070.03 405.359C2065.61 441.48 2041.51 475.368 2012.11 489.09L2012.95 490.902C2043.03 476.865 2067.51 442.348 2072.01 405.602C2074.27 387.204 2071.52 368.213 2061.92 350.934C2052.32 333.652 2035.91 318.15 2010.96 306.673L2010.13 308.49ZM1891.56 306.599L2010.53 308.582L2010.56 306.582L1891.6 304.599L1891.56 306.599Z" fill="#4CB05B"/>
<path fill-rule="evenodd" clip-rule="evenodd" d="M2230.63 833.008H2341.67L2383.3 692.232H2573.65L2615.29 833.008H2746.15L2557.79 218.352H2407.1L2212.79 833.008H2230.63ZM2407.1 597.056H2551.84L2478.48 337.314L2407.1 597.056Z" fill="#4CB05B"/>
<path d="M2341.67 833.008V834.008H2342.41L2342.62 833.292L2341.67 833.008ZM2383.3 692.232V691.232H2382.56L2382.34 691.948L2383.3 692.232ZM2573.65 692.232L2574.61 691.948L2574.4 691.232H2573.65V692.232ZM2615.29 833.008L2614.33 833.292L2614.54 834.008H2615.29V833.008ZM2746.15 833.008V834.008H2747.5L2747.11 832.715L2746.15 833.008ZM2557.79 218.352L2558.74 218.059L2558.53 217.352H2557.79V218.352ZM2407.1 218.352V217.352H2406.36L2406.14 218.05L2407.1 218.352ZM2212.79 833.008L2211.83 832.707L2211.42 834.008H2212.79V833.008ZM2551.84 597.056V598.056H2553.16L2552.8 596.784L2551.84 597.056ZM2407.1 597.056L2406.13 596.791L2405.78 598.056H2407.1V597.056ZM2478.48 337.314L2479.44 337.042L2478.46 333.588L2477.51 337.049L2478.48 337.314ZM2341.67 832.008H2230.63V834.008H2341.67V832.008ZM2382.34 691.948L2340.71 832.724L2342.62 833.292L2384.26 692.516L2382.34 691.948ZM2573.65 691.232H2383.3V693.232H2573.65V691.232ZM2616.25 832.724L2574.61 691.948L2572.69 692.516L2614.33 833.292L2616.25 832.724ZM2746.15 832.008H2615.29V834.008H2746.15V832.008ZM2556.83 218.645L2745.19 833.301L2747.11 832.715L2558.74 218.059L2556.83 218.645ZM2407.1 219.352H2557.79V217.352H2407.1V219.352ZM2213.74 833.31L2408.05 218.653L2406.14 218.05L2211.83 832.707L2213.74 833.31ZM2230.63 832.008H2212.79V834.008H2230.63V832.008ZM2551.84 596.056H2407.1V598.056H2551.84V596.056ZM2477.51 337.586L2550.88 597.328L2552.8 596.784L2479.44 337.042L2477.51 337.586ZM2408.06 597.321L2479.44 337.579L2477.51 337.049L2406.13 596.791L2408.06 597.321Z" fill="#4CB05B"/>
<path d="M3608.65 351.253L3670.12 283.839C3620.95 234.667 3551.81 213.121 3523.39 208.494C3423.46 191.046 3361.47 215.765 3342.96 230.305C3290.62 255.684 3261.67 317.546 3253.74 345.305C3244.22 416.685 3269.6 459.644 3283.48 472.202C3296.17 497.581 3345.61 527.719 3368.74 539.616L3531.32 603.064C3564.64 628.444 3562.39 670.478 3557.1 688.323C3541.24 724.806 3505.55 739.214 3489.69 741.858C3462.72 751.375 3415 745.823 3394.51 741.858C3361.2 738.685 3311.9 704.846 3291.41 688.323L3227.96 761.685C3278.72 801.34 3332.39 827.116 3352.88 835.047C3426.24 852.892 3501.58 846.944 3523.39 842.979C3545.2 839.013 3628.48 805.306 3658.22 755.737C3687.96 706.168 3693.91 624.875 3670.12 571.34C3651.08 528.512 3600.06 497.978 3576.93 488.064L3448.05 440.478C3394.12 421.443 3384.6 384.907 3384.6 375.046C3384.6 367.062 3390.96 342.592 3392.53 339.304C3403.67 316.01 3434.17 305.597 3444.08 303.614C3454 301.631 3485.32 301.288 3515.46 307.633C3545.6 313.977 3590.15 339.357 3608.65 351.253Z" fill="#4CB05B" stroke="#4CB05B" stroke-width="2"/>
<path d="M3132.79 351.253L3194.25 283.839C3145.08 234.667 3075.95 213.121 3047.53 208.494C2947.6 191.046 2885.6 215.765 2867.1 230.305C2814.75 255.684 2785.8 317.546 2777.87 345.305C2768.36 416.685 2793.74 459.644 2807.62 472.202C2820.3 497.581 2869.74 527.719 2892.87 539.616L3055.46 603.064C3088.77 628.444 3086.52 670.478 3081.24 688.323C3065.37 724.806 3029.68 739.214 3013.82 741.858C2986.86 751.375 2939.14 745.823 2918.65 741.858C2885.34 738.685 2836.03 704.846 2815.55 688.323L2752.1 761.685C2802.86 801.34 2856.52 827.116 2877.01 835.047C2950.37 852.892 3025.72 846.944 3047.53 842.979C3069.34 839.013 3152.62 805.306 3182.36 755.737C3212.1 706.168 3218.05 624.875 3194.25 571.34C3175.22 528.512 3124.2 497.978 3101.06 488.064L2972.18 440.478C2918.25 421.443 2908.74 384.907 2908.74 375.046C2908.74 367.062 2915.09 342.592 2916.67 339.304C2927.81 316.01 2958.3 305.597 2968.22 303.614C2978.13 301.631 3009.46 301.288 3039.6 307.633C3069.74 313.977 3114.28 339.357 3132.79 351.253Z" fill="#4CB05B" stroke="#4CB05B" stroke-width="2"/>
</svg>
